<svg xmlns="http://www.w3.org/2000/svg" viewBox="0 0 1137 857.49"><defs><style>.cls-1,.cls-14,.cls-2,.cls-3,.cls-4,.cls-6{fill:#231815;}.cls-2{font-size:19px;}.cls-2,.cls-3,.cls-6{font-family:KozGoPro-Medium-90ms-RKSJ-H, Kozuka Gothic Pro;}.cls-3{font-size:16px;}.cls-4,.cls-6{font-size:13px;}.cls-4{font-family:KozGoPro-Bold-90ms-RKSJ-H, Kozuka Gothic Pro;}.cls-5{letter-spacing:-0.5em;}.cls-100,.cls-101,.cls-102,.cls-103,.cls-17,.cls-20,.cls-22,.cls-24,.cls-25,.cls-26,.cls-28,.cls-30,.cls-35,.cls-36,.cls-40,.cls-44,.cls-46,.cls-49,.cls-51,.cls-53,.cls-54,.cls-56,.cls-58,.cls-62,.cls-65,.cls-68,.cls-69,.cls-7,.cls-72,.cls-73,.cls-79,.cls-82,.cls-83,.cls-87,.cls-89,.cls-92,.cls-93,.cls-94,.cls-95,.cls-97{fill:none;}.cls-7{stroke:#dbdcdc;}.cls-100,.cls-101,.cls-102,.cls-15,.cls-17,.cls-20,.cls-22,.cls-24,.cls-25,.cls-28,.cls-30,.cls-35,.cls-36,.cls-38,.cls-40,.cls-44,.cls-46,.cls-49,.cls-51,.cls-53,.cls-54,.cls-56,.cls-58,.cls-60,.cls-62,.cls-65,.cls-68,.cls-69,.cls-7,.cls-72,.cls-73,.cls-75,.cls-76,.cls-79,.cls-82,.cls-83,.cls-89,.cls-93,.cls-94,.cls-95,.cls-96,.cls-97{stroke-miterlimit:10;}.cls-8{font-size:18.54px;font-family:KozGoPro-Heavy-90ms-RKSJ-H, Kozuka Gothic Pro;}.cls-13,.cls-38,.cls-8{fill:#fff;}.cls-9{letter-spacing:-0.08em;}.cls-10{letter-spacing:-0.06em;}.cls-11{letter-spacing:-0.08em;}.cls-12{letter-spacing:0.02em;}.cls-14{font-size:12px;font-family:KozGoPro-Regular-90ms-RKSJ-H, Kozuka Gothic Pro;}.cls-15{fill:#2d1606;}.cls-15,.cls-26,.cls-38,.cls-60,.cls-75,.cls-76,.cls-95,.cls-96,.cls-97{stroke:#231815;}.cls-16{fill:#002a34;}.cls-17{stroke:#dd582e;}.cls-17,.cls-38,.cls-54,.cls-58{stroke-width:0.75px;}.cls-18{fill:#eab74f;}.cls-19{fill:#8e955a;}.cls-20{stroke:#283a1c;}.cls-20,.cls-24,.cls-28,.cls-30,.cls-44,.cls-60,.cls-69,.cls-72,.cls-79,.cls-87,.cls-94,.cls-97{stroke-width:2px;}.cls-21{fill:#283a1c;}.cls-22{stroke:#f5f6c8;}.cls-100,.cls-101,.cls-102,.cls-103,.cls-22,.cls-56,.cls-95{stroke-width:3px;}.cls-23{fill:#5ca3d7;}.cls-24,.cls-89{stroke:#093759;}.cls-100,.cls-103,.cls-25,.cls-28,.cls-87{stroke:#fff;}.cls-103,.cls-26,.cls-87{stroke-linejoin:round;}.cls-26{stroke-width:11px;}.cls-27{fill:#093759;}.cls-29{fill:#df974b;}.cls-30{stroke:#c96519;}.cls-104,.cls-31{fill:#43220e;}.cls-32{fill:#412574;}.cls-33{fill:#f1bb33;}.cls-34{fill:#040000;}.cls-35,.cls-36,.cls-58{stroke:#040000;}.cls-36,.cls-83{stroke-width:0.5px;}.cls-37{fill:#c96035;}.cls-39{fill:#041607;}.cls-40{stroke:#a2d19c;}.cls-41{fill:#a2d19c;}.cls-42{fill:#1b1006;}.cls-43{fill:#e8b347;}.cls-44,.cls-65{stroke:#e8b347;}.cls-45{fill:#b3cae4;}.cls-101,.cls-46{stroke:#1a274c;}.cls-47{fill:#808faa;}.cls-48{fill:#415027;}.cls-49{stroke:#f7d880;}.cls-50{font-size:71.69px;font-family:SourceHanCodeJP-Bold, SourceHanCodeJP Bold-83pv-RKSJ-H;font-weight:700;}.cls-50,.cls-88{fill:#f7d880;}.cls-51{stroke:#ed731c;}.cls-52{fill:#debc2d;}.cls-53,.cls-54{stroke:#0f1835;}.cls-55{fill:#0f1835;}.cls-56{stroke:#eae5b3;}.cls-57{fill:#c8653e;}.cls-59{fill:#fdf5e5;}.cls-60,.cls-96{fill:#2b4a9d;}.cls-61{fill:#001827;}.cls-62{stroke:#fbf2cc;}.cls-63{fill:#f19337;}.cls-64{fill:#301706;}.cls-66{fill:#5abfc4;}.cls-67{fill:#86aeb0;}.cls-68,.cls-69{stroke:#1c1d1d;}.cls-70{fill:#1c1d1d;}.cls-71{fill:#c1c0c0;}.cls-72,.cls-73{stroke:#070e28;}.cls-74{fill:#c23922;}.cls-75{fill:#c84b2d;}.cls-76,.cls-78{fill:#f3ebc7;}.cls-77{fill:#151413;}.cls-79{stroke:#e6782f;}.cls-80{fill:#e6782f;}.cls-81{fill:#38220c;}.cls-82,.cls-83{stroke:#f7e288;}.cls-84{fill:#f7e288;}.cls-85{fill:#171c3e;}.cls-86{fill:#f4be2c;}.cls-90{fill:#28933a;}.cls-91{fill:#ec7134;}.cls-93,.cls-94{stroke:#38220c;}.cls-98{fill:#f4cac4;}.cls-99{fill:#d5d5d5;}.cls-102{stroke:#171c3e;}.cls-104{font-size:63.37px;font-family:PShueiGoKinStd-B, PShueiGoKinStd B-83pv-RKSJ-H;}</style></defs><g id="テンプレート"><path class="cls-1" d="M29,0V55.41a12,12,0,0,0,12,12H413.83a12,12,0,0,0,12-12V0Z" transform="translate(-28.33 34.98)"/><text class="cls-2" transform="translate(931.95 81.28)">www.design-icon.com</text><text class="cls-3" transform="translate(418.97 90.28)">DESIGNER : 須藤 朱音</text><text class="cls-4" transform="translate(805.5 852.24)">利用規約：個人、商用、すべてフリーでご利用ください<tspan class="cls-5" x="325" y="0">。</tspan></text><text class="cls-6" transform="translate(418.97 65.14)">サイズ：100 x 100 px</text><rect class="cls-7" x="0.5" y="122.28" width="100" height="100"/><rect class="cls-7" x="115.5" y="122.28" width="100" height="100"/><rect class="cls-7" x="230.5" y="122.28" width="100" height="100"/><rect class="cls-7" x="345.5" y="122.28" width="100" height="100"/><rect class="cls-7" x="460.5" y="122.28" width="100" height="100"/><rect class="cls-7" x="575.5" y="122.28" width="100" height="100"/><rect class="cls-7" x="690.5" y="122.28" width="100" height="100"/><rect class="cls-7" x="805.5" y="122.28" width="100" height="100"/><rect class="cls-7" x="920.5" y="122.28" width="100" height="100"/><rect class="cls-7" x="1035.5" y="122.28" width="100" height="100"/><rect class="cls-7" x="0.5" y="263.05" width="100" height="100"/><rect class="cls-7" x="115.5" y="263.05" width="100" height="100"/><rect class="cls-7" x="230.5" y="263.05" width="100" height="100"/><rect class="cls-7" x="345.5" y="263.05" width="100" height="100"/><rect class="cls-7" x="460.5" y="263.05" width="100" height="100"/><rect class="cls-7" x="575.5" y="263.05" width="100" height="100"/><rect class="cls-7" x="690.5" y="263.05" width="100" height="100"/><rect class="cls-7" x="805.5" y="263.05" width="100" height="100"/><rect class="cls-7" x="920.5" y="263.05" width="100" height="100"/><rect class="cls-7" x="1035.5" y="263.05" width="100" height="100"/><rect class="cls-7" x="0.5" y="403.82" width="100" height="100"/><rect class="cls-7" x="115.5" y="403.82" width="100" height="100"/><rect class="cls-7" x="230.5" y="403.82" width="100" height="100"/><rect class="cls-7" x="345.5" y="403.82" width="100" height="100"/><rect class="cls-7" x="460.5" y="403.82" width="100" height="100"/><rect class="cls-7" x="575.5" y="403.82" width="100" height="100"/><rect class="cls-7" x="690.5" y="403.82" width="100" height="100"/><rect class="cls-7" x="805.5" y="403.82" width="100" height="100"/><rect class="cls-7" x="920.5" y="403.82" width="100" height="100"/><rect class="cls-7" x="1035.5" y="403.82" width="100" height="100"/><rect class="cls-7" x="0.5" y="544.59" width="100" height="100"/><rect class="cls-7" x="115.5" y="544.59" width="100" height="100"/><rect class="cls-7" x="230.5" y="544.59" width="100" height="100"/><rect class="cls-7" x="345.5" y="544.59" width="100" height="100"/><rect class="cls-7" x="460.5" y="544.59" width="100" height="100"/><rect class="cls-7" x="575.5" y="544.59" width="100" height="100"/><rect class="cls-7" x="690.5" y="544.59" width="100" height="100"/><rect class="cls-7" x="805.5" y="544.59" width="100" height="100"/><rect class="cls-7" x="920.5" y="544.59" width="100" height="100"/><rect class="cls-7" x="1035.5" y="544.59" width="100" height="100"/><rect class="cls-7" x="0.5" y="685.36" width="100" height="100"/><rect class="cls-7" x="115.5" y="685.36" width="100" height="100"/><rect class="cls-7" x="230.5" y="685.36" width="100" height="100"/><rect class="cls-7" x="345.5" y="685.36" width="100" height="100"/><rect class="cls-7" x="460.5" y="685.36" width="100" height="100"/><rect class="cls-7" x="575.5" y="685.36" width="100" height="100"/><rect class="cls-7" x="690.5" y="685.36" width="100" height="100"/><rect class="cls-7" x="805.5" y="685.36" width="100" height="100"/><rect class="cls-7" x="920.5" y="685.36" width="100" height="100"/><rect class="cls-7" x="1035.5" y="685.36" width="100" height="100"/><text class="cls-8" transform="translate(70.98 77.85)">ビンテージステッカー風<tspan class="cls-9" x="203.94" y="0">ア</tspan><tspan class="cls-10" x="220.99" y="0">イ</tspan><tspan class="cls-11" x="238.42" y="0">コ</tspan><tspan class="cls-12" x="255.48" y="0">ン</tspan></text><circle class="cls-13" cx="68.27" cy="34.22" r="16.05" transform="translate(-36.23 63.71) rotate(-22.5)"/></g><g id="アイコン名"><text class="cls-14" transform="translate(38.5 248.38)">矢印</text><text class="cls-14" transform="translate(153.83 248.38)">お金</text><text class="cls-14" transform="translate(251.17 248.38)">メッセージ</text><text class="cls-14" transform="translate(384.5 248.38)">再生</text><text class="cls-14" transform="translate(499.83 248.38)">停止</text><text class="cls-14" transform="translate(603.17 248.38)">アクセス</text><text class="cls-14" transform="translate(730.5 248.38)">更新</text><text class="cls-14" transform="translate(827.83 248.38)">お気に入り</text><text class="cls-14" transform="translate(955.17 248.38)">いいね</text><text class="cls-14" transform="translate(1076.5 248.38)">質問</text><text class="cls-14" transform="translate(14.5 386.88)">チェック済み</text><text class="cls-14" transform="translate(147.83 386.88)">ゴミ箱</text><text class="cls-14" transform="translate(245.17 386.88)">アップロード</text><text class="cls-14" transform="translate(360.5 386.88)">ダウンロード</text><text class="cls-14" transform="translate(493.83 386.88)">ホーム</text><text class="cls-14" transform="translate(613.52 386.88)">Wi-Fi</text><text class="cls-14" transform="translate(730.5 386.88)">タグ</text><text class="cls-14" transform="translate(839.83 386.88)">カメラ</text><text class="cls-14" transform="translate(955.17 386.88)">メール</text><text class="cls-14" transform="translate(1064.5 386.88)">メニュー</text><text class="cls-14" transform="translate(38.5 527.37)">時間</text><text class="cls-14" transform="translate(153.83 527.37)">電話</text><text class="cls-14" transform="translate(269.17 527.37)">設定</text><text class="cls-14" transform="translate(384.5 527.37)">共有</text><text class="cls-14" transform="translate(499.83 527.37)">保存</text><text class="cls-14" transform="translate(609.17 527.37)">カート</text><text class="cls-14" transform="translate(736.5 527.37)">曲</text><text class="cls-14" transform="translate(845.83 527.37)">写真</text><text class="cls-14" transform="translate(949.17 527.37)">フォルダ</text><text class="cls-14" transform="translate(1082.5 527.37)">本</text><text class="cls-14" transform="translate(38.5 665.86)">拡大</text><text class="cls-14" transform="translate(153.83 665.86)">縮小</text><text class="cls-14" transform="translate(269.17 665.86)">検索</text><text class="cls-14" transform="translate(360.5 665.86)">プロフィール</text><text class="cls-14" transform="translate(499.83 665.86)">電波</text><text class="cls-14" transform="translate(609.17 665.86)">ビデオ</text><text class="cls-14" transform="translate(724.5 665.86)">グラフ</text><text class="cls-14" transform="translate(827.83 665.86)">充電満タン</text><text class="cls-14" transform="translate(949.17 665.86)">ミュート</text><text class="cls-14" transform="translate(1076.5 665.86)">音量</text><text class="cls-14" transform="translate(32.5 808.36)">グッド</text><text class="cls-14" transform="translate(147.83 808.36)">バッド</text><text class="cls-14" transform="translate(263.17 808.36)">明るさ</text><text class="cls-14" transform="translate(384.5 808.36)">電源</text><text class="cls-14" transform="translate(493.83 808.36)">マイク</text><text class="cls-14" transform="translate(609.17 808.36)">閉じる</text><text class="cls-14" transform="translate(688.5 808.36)">インフォメーション</text><text class="cls-14" transform="translate(831.19 808.36)">Bluetooth</text><text class="cls-14" transform="translate(961.17 808.36)">追加</text><text class="cls-14" transform="translate(1076.5 808.36)">注意</text></g><g id="レイヤー_183" data-name="レイヤー 183"><rect class="cls-15" x="0.5" y="122.28" width="100" height="100"/><rect class="cls-15" x="0.5" y="262.92" width="100" height="100"/><rect class="cls-15" x="0.5" y="404.38" width="100" height="100"/><rect class="cls-15" x="115.39" y="404.38" width="100" height="100"/><rect class="cls-15" x="230.72" y="404.38" width="100" height="100"/><rect class="cls-15" x="346.24" y="404.38" width="100" height="100"/><rect class="cls-15" x="460.9" y="404.38" width="100" height="100"/><rect class="cls-15" x="575.77" y="404.38" width="100" height="100"/><rect class="cls-15" x="691.05" y="404.38" width="100" height="100"/><rect class="cls-15" x="115.83" y="262.92" width="100" height="100"/><rect class="cls-15" x="230.5" y="262.92" width="100" height="100"/><rect class="cls-15" x="345.84" y="262.92" width="100" height="100"/><rect class="cls-15" x="460.87" y="262.92" width="100" height="100"/><rect class="cls-15" x="575.77" y="262.92" width="100" height="100"/><rect class="cls-15" x="690.73" y="262.92" width="100" height="100"/><rect class="cls-15" x="806.18" y="262.92" width="100" height="100"/><rect class="cls-15" x="920.85" y="262.92" width="100" height="100"/><rect class="cls-15" x="1036.34" y="262.92" width="100" height="100"/><rect class="cls-15" x="806.18" y="403.83" width="100" height="100"/><rect class="cls-15" x="920.85" y="403.83" width="100" height="100"/><rect class="cls-15" x="1036.34" y="403.83" width="100" height="100"/><rect class="cls-15" x="0.5" y="544.06" width="100" height="100"/><rect class="cls-15" x="115.39" y="544.06" width="100" height="100"/><rect class="cls-15" x="230.72" y="544.06" width="100" height="100"/><rect class="cls-15" x="346.24" y="544.06" width="100" height="100"/><rect class="cls-15" x="460.9" y="544.06" width="100" height="100"/><rect class="cls-15" x="575.77" y="544.06" width="100" height="100"/><rect class="cls-15" x="691.05" y="544.06" width="100" height="100"/><rect class="cls-15" x="806.18" y="543.51" width="100" height="100"/><rect class="cls-15" x="920.85" y="543.51" width="100" height="100"/><rect class="cls-15" x="1036.34" y="543.51" width="100" height="100"/><rect class="cls-15" x="0.5" y="685.71" width="100" height="100"/><rect class="cls-15" x="115.39" y="685.71" width="100" height="100"/><rect class="cls-15" x="230.72" y="685.71" width="100" height="100"/><rect class="cls-15" x="346.24" y="685.71" width="100" height="100"/><rect class="cls-15" x="460.9" y="685.71" width="100" height="100"/><rect class="cls-15" x="575.77" y="685.71" width="100" height="100"/><rect class="cls-15" x="691.05" y="685.71" width="100" height="100"/><rect class="cls-15" x="806.18" y="685.17" width="100" height="100"/><rect class="cls-15" x="920.85" y="685.17" width="100" height="100"/><rect class="cls-15" x="1036.34" y="685.17" width="100" height="100"/><rect class="cls-15" x="115.39" y="122.28" width="100" height="100"/><rect class="cls-15" x="231.17" y="122.28" width="100" height="100"/><rect class="cls-15" x="346.03" y="122.28" width="100" height="100"/><rect class="cls-15" x="460.48" y="122.28" width="100" height="100"/><rect class="cls-15" x="575.77" y="122.28" width="100" height="100"/><rect class="cls-15" x="690.84" y="122.28" width="100" height="100"/><rect class="cls-15" x="806.3" y="122.28" width="100" height="100"/><rect class="cls-15" x="920.04" y="122.28" width="100" height="100"/><rect class="cls-15" x="1035.75" y="122.28" width="100" height="100"/></g><g id="矢印"><g id="レイヤー_143" data-name="レイヤー 143"><circle class="cls-13" cx="50" cy="171.78" r="43.36"/><circle class="cls-16" cx="50" cy="171.78" r="40.32"/><circle class="cls-17" cx="50" cy="171.78" r="37.23"/><circle class="cls-17" cx="50" cy="171.78" r="35.56"/></g><g id="レイヤー_4" data-name="レイヤー 4"><polygon class="cls-18" points="23.8 163.63 55.87 163.63 55.87 149.37 77.55 171.49 55.49 191.77 55.49 178.33 23.8 178.46 23.8 163.63"/></g></g><g id="お金"><g id="レイヤー_144" data-name="レイヤー 144"><circle class="cls-13" cx="165.5" cy="172.57" r="43.36"/><circle class="cls-19" cx="165.5" cy="172.57" r="39.52"/><circle class="cls-20" cx="165.57" cy="172.42" r="39.3"/></g><g id="レイヤー_7" data-name="レイヤー 7"><circle class="cls-21" cx="165.06" cy="172.57" r="29.89"/><polyline class="cls-22" points="151.95 157.55 165.11 167.52 178.18 157.35"/><line class="cls-22" x1="165.17" y1="191.77" x2="165.5" y2="167.72"/><line class="cls-22" x1="153.21" y1="173.9" x2="177.58" y2="173.9"/><line class="cls-22" x1="153.15" y1="179.75" x2="177.52" y2="179.75"/></g></g><g id="メッセージ"><g id="レイヤー_145" data-name="レイヤー 145"><circle class="cls-13" cx="281.17" cy="172.28" r="43.36"/><circle class="cls-23" cx="281.17" cy="172.28" r="39.52"/><circle class="cls-24" cx="281.17" cy="172.42" r="39.19"/><circle class="cls-25" cx="281.17" cy="172.42" r="37.71"/></g><g id="レイヤー_18" data-name="レイヤー 18"><path class="cls-26" d="M288.62,146.5" transform="translate(-28.33 34.98)"/><polygon class="cls-27" points="273.23 188.96 273.23 198.74 283.84 188.96 306.75 188.96 306.75 155.62 255.58 155.62 255.58 188.96 273.23 188.96"/></g><g id="レイヤー_19" data-name="レイヤー 19"><line class="cls-28" x1="264.43" y1="162.66" x2="297.91" y2="162.66"/><line class="cls-28" x1="264.43" y1="171.92" x2="297.91" y2="171.92"/><line class="cls-28" x1="264.43" y1="181.18" x2="297.91" y2="181.18"/><text x="-28.33" y="34.98"/></g></g><g id="再生"><g id="レイヤー_146" data-name="レイヤー 146"><circle class="cls-13" cx="395.5" cy="171.92" r="43.36"/><circle class="cls-29" cx="395.5" cy="171.92" r="39.52"/><circle class="cls-30" cx="395.5" cy="172.28" r="36.08"/></g><g id="レイヤー_22" data-name="レイヤー 22"><polygon class="cls-31" points="380.56 148.75 380.56 196.66 422.88 172.64 380.56 148.75"/></g></g><g id="停止"><g id="レイヤー_142" data-name="レイヤー 142"><circle class="cls-13" cx="510.48" cy="172.42" r="43.36"/><circle class="cls-32" cx="510.48" cy="172.42" r="39.52"/><circle class="cls-25" cx="510.48" cy="172.71" r="35.72"/></g><g id="レイヤー_24" data-name="レイヤー 24"><rect class="cls-33" x="492.45" y="150.85" width="12.54" height="43.42"/><rect class="cls-33" x="516" y="151.15" width="12.54" height="43.42"/></g></g><g id="アクセス"><g id="レイヤー_140" data-name="レイヤー 140"><circle class="cls-13" cx="625.46" cy="172.28" r="43.36"/><circle class="cls-34" cx="625.46" cy="172.71" r="35.88"/><circle class="cls-35" cx="625.46" cy="172.57" r="40.57"/><circle class="cls-36" cx="625.46" cy="172.57" r="38.95"/></g><g id="レイヤー_29" data-name="レイヤー 29"><path class="cls-37" d="M654,166.11s-13.14-14.62-19.6-28.39c-5.62-12,4-28.37,19.6-28.37,18.21,0,23.67,18.4,19.64,28.38C667.67,152.44,654,166.11,654,166.11Z" transform="translate(-28.33 34.98)"/><circle class="cls-38" cx="625.46" cy="160.63" r="6.93"/></g></g><g id="更新"><circle class="cls-13" cx="740.5" cy="172.28" r="43.36"/><g id="レイヤー_38" data-name="レイヤー 38"><circle class="cls-39" cx="740.5" cy="172.31" r="40.66"/><circle class="cls-40" cx="740.48" cy="172.28" r="38.68"/></g><g id="レイヤー_141" data-name="レイヤー 141"><path class="cls-41" d="M786.45,117.92,791,112.8l3.24,17L778,128.28l4.13-5.19s-4.14-5.17-13.26-5.17-20.31,5.58-20.31,21c0,14.42,13.59,19.93,20.31,19.93,9.22,0,20.72-7.19,20.72-20.72H797s-1.44,27.05-28.09,27.05c-20.72,0-27.75-16.5-27.75-26.6,0-12.31,8.68-28.37,27.75-28.37C768.89,110.25,779.93,109.93,786.45,117.92Z" transform="translate(-28.33 34.98)"/></g></g><g id="お気に入り"><circle class="cls-13" cx="855.5" cy="172.57" r="43.36"/><circle class="cls-42" cx="855.5" cy="172.57" r="39.52"/><g id="レイヤー_41" data-name="レイヤー 41"><polygon class="cls-43" points="849.45 163.17 855.67 142.29 861.77 163.45 884.41 163.56 866.92 177.5 872.21 196.52 855.3 184.8 838.67 196.52 844.38 177.89 826.2 163.56 849.45 163.17"/><circle class="cls-44" cx="855.5" cy="172.71" r="39.19"/></g></g><g id="いいね"><g id="レイヤー_42" data-name="レイヤー 42"><circle class="cls-13" cx="970.84" cy="172.57" r="43.36"/><circle class="cls-45" cx="971.68" cy="172.71" r="38.99"/><circle class="cls-46" cx="971.68" cy="172.71" r="40.02"/><path class="cls-13" d="M1000.66,167.7s-19-13-25.52-21.47c-4.93-6.35-6.1-16.24-2.62-22.62a15.59,15.59,0,0,1,16-7.18c7.55,1.43,12.18,9.5,12.18,9.5" transform="translate(-28.33 34.98)"/><path class="cls-13" d="M1000.66,167.7s19-13,25.53-21.47c4.92-6.35,6.09-16.24,2.61-22.62a15.59,15.59,0,0,0-16-7.18c-7.55,1.43-12.18,9.5-12.18,9.5" transform="translate(-28.33 34.98)"/><path class="cls-47" d="M1000.66,162.33s-14.31-9.82-19.23-16.17c-3.71-4.79-4.59-12.24-2-17a11.71,11.71,0,0,1,12-5.41c5.69,1.07,9.18,7.15,9.18,7.15" transform="translate(-28.33 34.98)"/><path class="cls-47" d="M1000.66,162.33s14.31-9.82,19.23-16.17c3.71-4.79,4.59-12.24,2-17a11.7,11.7,0,0,0-12-5.41c-5.69,1.07-9.18,7.15-9.18,7.15" transform="translate(-28.33 34.98)"/></g></g><g id="質問"><g id="レイヤー_44" data-name="レイヤー 44"><circle class="cls-13" cx="1085.5" cy="174.73" r="43.36"/><circle class="cls-48" cx="1085.5" cy="174.73" r="38.83"/><circle class="cls-49" cx="1085.66" cy="174.73" r="37.04"/><text class="cls-50" transform="translate(1050.42 202.52)">？</text><circle class="cls-51" cx="1085.66" cy="174.73" r="36.3"/></g></g><g id="チェック済み"><g id="レイヤー_152" data-name="レイヤー 152"><circle class="cls-13" cx="50" cy="313.2" r="43.36"/><circle class="cls-52" cx="50" cy="313.2" r="39.52"/><circle class="cls-53" cx="50" cy="313.34" r="39.19"/><circle class="cls-54" cx="50" cy="313.62" r="37.26"/></g><g id="レイヤー_46" data-name="レイヤー 46"><polygon class="cls-55" points="30.02 287.28 70.98 287.28 70.98 328.56 60.5 339.39 30.02 339.39 30.02 287.28"/></g><g id="レイヤー_47" data-name="レイヤー 47"><polyline class="cls-52" points="70.69 328.38 60.62 328.38 60.62 339.01"/><polyline class="cls-56" points="38.71 311.13 47.51 320 63.52 302.43"/></g></g><g id="ゴミ箱"><g id="レイヤー_151" data-name="レイヤー 151"><circle class="cls-13" cx="165.06" cy="313.48" r="43.36"/><circle class="cls-57" cx="164.99" cy="313.99" r="36.16"/><circle class="cls-58" cx="164.78" cy="313.62" r="40.92"/><circle class="cls-58" cx="164.99" cy="313.99" r="36.47"/></g><g id="レイヤー_48" data-name="レイヤー 48"><polygon class="cls-59" points="147.3 296.47 147.3 337.89 184.02 337.89 184.02 296.47 189.29 296.47 189.29 294.34 141.52 294.34 141.52 296.33 147.3 296.47"/><line class="cls-60" x1="155.35" y1="305.54" x2="155.35" y2="329.19"/><line class="cls-60" x1="166.17" y1="305.54" x2="166.17" y2="329.19"/><line class="cls-60" x1="176.3" y1="305.54" x2="176.3" y2="329.19"/></g><rect class="cls-1" x="156.73" y="288.21" width="18.13" height="6.12"/><g id="レイヤー_49" data-name="レイヤー 49"><rect class="cls-1" x="140.4" y="293.3" width="50.2" height="3.75"/></g></g><g id="アップロード"><g id="レイヤー_150" data-name="レイヤー 150"><circle class="cls-13" cx="280.39" cy="312.92" r="43.36"/><circle class="cls-61" cx="280.39" cy="312.92" r="39.52"/><circle class="cls-62" cx="280.39" cy="312.92" r="37.12"/></g><g id="レイヤー_50" data-name="レイヤー 50"><polygon class="cls-63" points="274.96 324.45 274.96 300.82 264.46 300.82 280.75 284.85 295.7 301.1 285.8 301.1 285.89 324.45 274.96 324.45"/><polygon class="cls-63" points="263.27 320.51 263.27 328.54 296.43 328.54 296.43 320.51 301.49 320.51 301.49 332.64 258.36 332.64 258.36 320.51 263.27 320.51"/></g></g><g id="ダウンロード"><g id="レイヤー_149" data-name="レイヤー 149"><circle class="cls-13" cx="397.5" cy="313.34" r="43.36"/><circle class="cls-64" cx="397.5" cy="313.34" r="39.52"/><circle class="cls-65" cx="397.5" cy="313.34" r="37.59"/></g><g id="レイヤー_51" data-name="レイヤー 51"><polygon class="cls-66" points="403.47 287.05 403.47 309.74 413.56 309.74 397.91 325.07 383.56 309.47 393.07 309.47 392.98 287.05 403.47 287.05"/><polygon class="cls-66" points="382.04 320.41 382.04 328.11 413.88 328.11 413.88 320.41 418.74 320.41 418.74 332.05 377.32 332.05 377.32 320.41 382.04 320.41"/></g></g><g id="ホーム"><g id="レイヤー_148" data-name="レイヤー 148"><circle class="cls-13" cx="511.83" cy="313.2" r="43.36"/><circle class="cls-67" cx="511.83" cy="313.2" r="39.52"/><circle class="cls-68" cx="511.83" cy="313.34" r="39.19"/><circle class="cls-69" cx="511.83" cy="313.34" r="36.56"/></g><g id="レイヤー_58" data-name="レイヤー 58"><polygon class="cls-70" points="512.25 284.85 485.18 311.38 492.97 311.38 492.97 336.94 506.24 336.94 506.36 321.97 518.04 321.97 518.04 336.94 530.46 336.94 530.46 310.89 538.49 310.89 529 301.52 529 290.57 524.13 290.57 524.13 297.63 512.25 284.85"/></g></g><g id="Wi-Fi"><g id="レイヤー_147" data-name="レイヤー 147"><circle class="cls-13" cx="624.24" cy="313.05" r="43.36"/><circle class="cls-71" cx="624.24" cy="313.05" r="39.52"/><circle class="cls-72" cx="624.24" cy="313.2" r="39.19"/><circle class="cls-73" cx="624.24" cy="313.34" r="36.11"/></g><g id="レイヤー_59" data-name="レイヤー 59"><circle class="cls-74" cx="624.46" cy="329.14" r="6.31"/><path class="cls-74" d="M639.15,287.85a18.08,18.08,0,0,1,14.25-6.65c8.3,0,13,6.65,13,6.65l5.36-6.65a26.84,26.84,0,0,0-18-7,29.39,29.39,0,0,0-19.61,7.72Z" transform="translate(-28.33 34.98)"/><path class="cls-74" d="M628.82,275.92S637.14,267,653.4,267a41.34,41.34,0,0,1,23.65,7.4l5.58-5.31s-10.28-9.48-29.23-9.48c-20.57,0-30.45,10.61-30.45,10.61Z" transform="translate(-28.33 34.98)"/></g></g><g id="タグ"><g id="レイヤー_139" data-name="レイヤー 139"><circle class="cls-13" cx="740.5" cy="313.05" r="43.36"/><circle class="cls-75" cx="740.5" cy="313.05" r="40.77"/><circle class="cls-76" cx="740.5" cy="313.05" r="31.43"/></g><g id="レイヤー_66" data-name="レイヤー 66"><polygon class="cls-77" points="722.32 309.54 742.87 342.29 764.31 328.83 743.76 296.09 732.43 287.76 720.69 295.13 722.32 309.54"/><circle class="cls-78" cx="731.19" cy="299.87" r="3.13"/></g></g><g id="カメラ"><g id="レイヤー_138" data-name="レイヤー 138"><circle class="cls-13" cx="855.5" cy="312.8" r="43.36"/><circle class="cls-34" cx="855.3" cy="313.05" r="37.54"/><circle class="cls-79" cx="855.3" cy="312.8" r="39.45"/></g><g id="レイヤー_67" data-name="レイヤー 67"><polygon class="cls-80" points="829.65 297.79 829.65 329.55 881.35 329.55 881.35 297.79 867.5 297.79 864.21 292.09 848.04 291.99 843.89 297.79 829.65 297.79"/><circle class="cls-13" cx="855.58" cy="312.39" r="8.69"/></g></g><g id="メール"><g id="レイヤー_137" data-name="レイヤー 137"><circle class="cls-13" cx="970.11" cy="312.8" r="43.36"/><circle class="cls-81" cx="970.11" cy="312.8" r="39.52"/><circle class="cls-82" cx="970.11" cy="312.95" r="39.71"/><circle class="cls-82" cx="970.1" cy="313.05" r="36.79"/><circle class="cls-83" cx="970.04" cy="313.05" r="34.8"/></g><g id="レイヤー_70" data-name="レイヤー 70"><polygon class="cls-84" points="947.8 303.59 947.8 327.13 993.2 327.13 993.2 303.59 970.5 315.26 947.8 303.59"/><polygon class="cls-84" points="947.8 301.96 970.74 313.27 993.2 301.86 993.2 297.64 947.8 297.64 947.8 301.96"/></g></g><g id="メニュー"><g id="アイコン"><g id="レイヤー_136" data-name="レイヤー 136"><circle class="cls-13" cx="1085.5" cy="312.8" r="43.36"/><circle class="cls-85" cx="1085.5" cy="312.8" r="39.52"/><circle class="cls-25" cx="1085.43" cy="313.05" r="35.21"/></g><g id="レイヤー_80" data-name="レイヤー 80"><rect class="cls-86" x="1063.85" y="295.88" width="43.8" height="6.61"/><rect class="cls-86" x="1063.85" y="323.11" width="43.8" height="6.61"/><rect class="cls-86" x="1063.85" y="309.5" width="43.8" height="6.61"/></g></g></g><g id="時間"><g id="レイヤー_160" data-name="レイヤー 160"><circle class="cls-13" cx="49.96" cy="453.82" r="43.36"/><circle class="cls-19" cx="49.96" cy="453.82" r="39.52"/><circle class="cls-20" cx="50.03" cy="453.68" r="39.3"/><polyline class="cls-22" points="36.41 438.8 49.56 448.77 62.63 438.61"/><line class="cls-22" x1="49.63" y1="473.02" x2="49.96" y2="448.98"/><line class="cls-22" x1="37.67" y1="455.16" x2="62.04" y2="455.16"/><line class="cls-22" x1="37.61" y1="461" x2="61.98" y2="461"/></g><g id="レイヤー_78" data-name="レイヤー 78"><circle class="cls-21" cx="50.03" cy="452.99" r="29.56"/><path class="cls-22" d="M78.36,420.71v0Z" transform="translate(-28.33 34.98)"/><line class="cls-22" x1="69.7" y1="463.81" x2="50" y2="454.38"/></g></g><g id="電話"><g id="レイヤー_161" data-name="レイヤー 161"><circle class="cls-13" cx="165.4" cy="453.82" r="43.36"/><circle class="cls-16" cx="165.4" cy="453.82" r="40.32"/><circle class="cls-17" cx="165.4" cy="453.82" r="37.23"/><circle class="cls-17" cx="165.4" cy="453.82" r="35.56"/></g><g id="レイヤー_79" data-name="レイヤー 79"><path class="cls-18" d="M189.63,395.61l-.39,10.87-7.83,5c-1,8,5.26,20.93,17.75,21.58l2.89-3.93,11.62,1s.89,13.22-1.56,13.13c-19.44-.71-25.66-8-30.74-14.52C170,414.17,176,397.44,177,395.49,178.36,393.09,189.63,395.61,189.63,395.61Z" transform="translate(-28.33 34.98)"/></g></g><g id="設定"><g id="レイヤー_162" data-name="レイヤー 162"><circle class="cls-13" cx="281.97" cy="452.99" r="43.36"/><circle class="cls-71" cx="281.97" cy="452.99" r="39.52"/><circle class="cls-72" cx="281.97" cy="453.13" r="39.19"/><circle class="cls-73" cx="281.97" cy="453.28" r="36.11"/></g><g id="レイヤー_86" data-name="レイヤー 86"><path class="cls-74" d="M305.37,420.42v27.22h9.78V420.42s11.2-4.45,11.2-16c0-12.57-12.05-14.7-12.05-14.7L314,410.11h-7.6V389.76s-12.18,1.48-12.18,14.8C294.26,418.72,305.37,420.42,305.37,420.42Z" transform="translate(-28.33 34.98)"/></g></g><g id="レイヤー_75" data-name="レイヤー 75"><g id="レイヤー_153" data-name="レイヤー 153"><circle class="cls-13" cx="396.03" cy="455.92" r="43.36"/><circle class="cls-39" cx="395.84" cy="455.52" r="40.66"/><circle class="cls-40" cx="396.03" cy="455.52" r="38.68"/></g><g id="レイヤー_88" data-name="レイヤー 88"><line class="cls-87" x1="379.14" y1="452.46" x2="405.58" y2="438.72"/><line class="cls-87" x1="378.31" y1="458.48" x2="404.04" y2="473.5"/><circle class="cls-41" cx="409.8" cy="475.5" r="6.86"/><circle class="cls-41" cx="409.8" cy="437.54" r="6.86"/><circle class="cls-41" cx="372.92" cy="454.49" r="6.86"/></g></g><g id="保存"><g id="レイヤー_158" data-name="レイヤー 158"><circle class="cls-13" cx="510.5" cy="455.92" r="43.36"/><circle class="cls-48" cx="510.5" cy="455.92" r="38.83"/><circle class="cls-49" cx="510.66" cy="455.92" r="37.04"/><circle class="cls-51" cx="510.66" cy="455.92" r="36.3"/></g><g id="レイヤー_90" data-name="レイヤー 90"><polygon class="cls-88" points="494.56 478.29 494.05 433.84 527.26 433.56 527.27 478.29 510.84 466.15 494.56 478.29"/></g></g><g id="カート"><g id="レイヤー_171" data-name="レイヤー 171"><circle class="cls-13" cx="625.77" cy="454.3" r="43.36"/><circle class="cls-23" cx="625.77" cy="454.3" r="39.52"/><circle class="cls-24" cx="625.77" cy="454.45" r="39.19"/><circle class="cls-25" cx="625.77" cy="454.45" r="37.71"/><path class="cls-26" d="M633.22,428.52" transform="translate(-28.33 34.98)"/></g><g id="レイヤー_94" data-name="レイヤー 94"><polygon class="cls-27" points="613.91 471.76 641.59 471.76 649.06 445.39 607.09 445.39 613.91 471.76"/><polyline class="cls-89" points="597.75 436.39 605.16 436.39 607.88 446.24"/><circle class="cls-27" cx="619.96" cy="476.56" r="2.9"/><circle class="cls-27" cx="634.8" cy="476.56" r="2.9"/></g></g><g id="曲"><g id="レイヤー_157" data-name="レイヤー 157"><circle class="cls-13" cx="740.84" cy="453.82" r="43.36"/><circle class="cls-32" cx="740.84" cy="453.82" r="39.52"/><circle class="cls-25" cx="740.84" cy="454.1" r="35.72"/></g><g id="レイヤー_72" data-name="レイヤー 72"><ellipse class="cls-33" cx="734.65" cy="470.6" rx="11.43" ry="8.85"/><polygon class="cls-33" points="741.21 470.69 742.48 428.23 748.46 427.65 765.38 438.87 762.04 443.14 748.99 434.38 746.3 471.4 741.21 470.69"/></g></g><g id="写真"><g id="レイヤー_156" data-name="レイヤー 156"><circle class="cls-13" cx="856.18" cy="454.3" r="43.36"/><circle class="cls-64" cx="856.18" cy="454.3" r="39.52"/><circle class="cls-65" cx="856.18" cy="454.3" r="37.59"/></g><g id="レイヤー_135" data-name="レイヤー 135"><rect class="cls-13" x="831.15" y="435.38" width="50.3" height="36.9"/></g><g id="レイヤー_101" data-name="レイヤー 101"><rect class="cls-66" x="830.71" y="435.38" width="50.74" height="36.9"/><polygon class="cls-90" points="830.93 458.71 846.05 446.13 859.92 459.07 867.51 452.6 881.23 463.85 881.23 472.28 830.93 472.25 830.93 458.71"/><circle class="cls-91" cx="870.42" cy="444.68" r="2.34"/><rect class="cls-92" x="830.35" y="410.46" width="51.67" height="38.19"/></g></g><g id="フォルダ"><g id="レイヤー_155" data-name="レイヤー 155"><circle class="cls-13" cx="970.85" cy="454.64" r="43.36"/><circle class="cls-61" cx="970.85" cy="454.64" r="39.52"/><circle class="cls-62" cx="970.85" cy="454.64" r="37.12"/></g><g id="レイヤー_73" data-name="レイヤー 73"><rect class="cls-63" x="948.37" y="444.99" width="47.92" height="26.6"/><polygon class="cls-63" points="948.37 438.31 948.37 444.99 996.29 444.99 996.29 441.54 969.27 441.54 966.15 438.44 948.37 438.31"/></g></g><g id="本"><g id="レイヤー_154" data-name="レイヤー 154"><circle class="cls-13" cx="1085.63" cy="454.16" r="43.36"/><circle class="cls-81" cx="1085.63" cy="454.16" r="39.52"/><circle class="cls-82" cx="1085.63" cy="454.3" r="39.71"/><circle class="cls-82" cx="1085.62" cy="454.41" r="36.79"/><circle class="cls-83" cx="1085.56" cy="454.41" r="34.8"/></g><g id="レイヤー_74" data-name="レイヤー 74"><polygon class="cls-84" points="1062.19 436.22 1085.56 439.91 1109.25 435.56 1109.25 471.88 1085.93 475.8 1062.19 471.62 1062.19 436.22"/><line class="cls-93" x1="1085.56" y1="439.91" x2="1085.93" y2="475.8"/></g><g id="レイヤー_76" data-name="レイヤー 76"><line class="cls-94" x1="1067.91" y1="443.05" x2="1081.36" y2="445.41"/><line class="cls-94" x1="1067.04" y1="453.47" x2="1080.5" y2="455.82"/><line class="cls-94" x1="1067.04" y1="464.37" x2="1080.5" y2="466.72"/><line class="cls-94" x1="1090.58" y1="445.41" x2="1103.9" y2="443.05"/><line class="cls-94" x1="1091.09" y1="455.82" x2="1104.42" y2="453.47"/><line class="cls-94" x1="1091.09" y1="466.72" x2="1104.42" y2="464.37"/></g></g><g id="拡大"><g id="レイヤー_165" data-name="レイヤー 165"><circle class="cls-13" cx="51.1" cy="594.59" r="43.36"/><circle class="cls-34" cx="51.1" cy="595.01" r="35.88"/><circle class="cls-35" cx="51.1" cy="594.87" r="40.57"/><circle class="cls-36" cx="51.1" cy="594.87" r="38.95"/><circle class="cls-38" cx="51.1" cy="582.93" r="6.93"/></g><g id="レイヤー_93" data-name="レイヤー 93"><circle class="cls-37" cx="49.96" cy="593.45" r="20.3"/><line class="cls-95" x1="39.77" y1="593.79" x2="60.14" y2="593.79"/><line class="cls-95" x1="49.96" y1="583.17" x2="49.96" y2="603.74"/></g><g id="レイヤー_124" data-name="レイヤー 124"><line class="cls-28" x1="72.33" y1="615.88" x2="64.18" y2="607.91"/></g></g><g id="縮小"><g id="レイヤー_170" data-name="レイヤー 170"><circle class="cls-13" cx="166.39" cy="594.28" r="43.36"/><circle class="cls-57" cx="166.32" cy="594.8" r="36.16"/><circle class="cls-58" cx="166.11" cy="594.43" r="40.92"/><circle class="cls-58" cx="166.32" cy="594.8" r="36.47"/><line class="cls-96" x1="156.68" y1="586.34" x2="156.68" y2="609.99"/><line class="cls-96" x1="167.5" y1="586.34" x2="167.5" y2="609.99"/></g><g id="レイヤー_95" data-name="レイヤー 95"><path class="cls-97" d="M204.9,557.15" transform="translate(-28.33 34.98)"/><path class="cls-97" d="M184.53,557.15" transform="translate(-28.33 34.98)"/><line class="cls-97" x1="177.59" y1="604.7" x2="188.42" y2="615.29"/><circle class="cls-59" cx="164.83" cy="593.04" r="20.3"/><line class="cls-95" x1="154.65" y1="592.91" x2="175.02" y2="592.91"/></g></g><g id="検索"><g id="レイヤー_159" data-name="レイヤー 159"><circle class="cls-13" cx="281.17" cy="596.16" r="43.36"/><circle class="cls-52" cx="281.17" cy="596.16" r="39.52"/><circle class="cls-53" cx="281.17" cy="596.31" r="39.19"/><circle class="cls-54" cx="281.17" cy="596.59" r="37.26"/><polyline class="cls-52" points="301.86 611.34 291.8 611.34 291.8 621.98"/></g><g id="レイヤー_97" data-name="レイヤー 97"><circle class="cls-55" cx="280.27" cy="592.42" r="20.3"/></g><g id="レイヤー_125" data-name="レイヤー 125"><line class="cls-53" x1="303.54" y1="615.71" x2="294.09" y2="606.47"/></g></g><g id="プロフィール"><g id="レイヤー_164" data-name="レイヤー 164"><circle class="cls-13" cx="395.5" cy="594.59" r="43.36"/><circle class="cls-75" cx="395.5" cy="594.59" r="40.77"/><circle class="cls-76" cx="395.5" cy="594.59" r="31.43"/></g><g id="レイヤー_98" data-name="レイヤー 98"><ellipse class="cls-77" cx="395.84" cy="580.98" rx="10.55" ry="10.06"/><path class="cls-77" d="M404,575.84s.4-17.78,20-17.78,20.4,17.78,20.4,17.78Z" transform="translate(-28.33 34.98)"/></g></g><g id="電波"><g id="レイヤー_169" data-name="レイヤー 169"><circle class="cls-13" cx="510.5" cy="594.59" r="43.36"/><circle class="cls-29" cx="510.5" cy="594.59" r="39.52"/><circle class="cls-30" cx="510.5" cy="594.95" r="36.08"/></g><g id="レイヤー_99" data-name="レイヤー 99"><path class="cls-31" d="M521.64,562.59v-9.38a29.39,29.39,0,0,1,17,8.28C547.55,570.63,549,578.1,549,578.1H538.32A20.65,20.65,0,0,0,521.64,562.59Z" transform="translate(-28.33 34.98)"/><path class="cls-31" d="M521.64,578.1v-9.21s7.62,2.09,9.44,9.21Z" transform="translate(-28.33 34.98)"/><path class="cls-31" d="M521.64,547.42v-9.36s17.4.87,28,10.64a44.7,44.7,0,0,1,14,29.4h-9S551,550.42,521.64,547.42Z" transform="translate(-28.33 34.98)"/></g></g><g id="ビデオ"><g id="レイヤー_163" data-name="レイヤー 163"><circle class="cls-13" cx="625.77" cy="596.16" r="43.36"/><circle class="cls-42" cx="625.77" cy="596.16" r="39.52"/><circle class="cls-44" cx="625.77" cy="596.31" r="39.19"/></g><g id="レイヤー_100" data-name="レイヤー 100"><polygon class="cls-43" points="603.14 580.96 603.14 612.09 641.69 612.09 641.69 599.62 654.13 609.81 654.13 584.75 641.69 593.38 641.69 580.96 603.14 580.96"/></g></g><g id="グラフ"><g id="レイヤー_168" data-name="レイヤー 168"><circle class="cls-13" cx="740.73" cy="594.84" r="43.36"/><circle class="cls-67" cx="740.73" cy="594.84" r="39.52"/><circle class="cls-68" cx="740.73" cy="594.98" r="39.19"/><circle class="cls-69" cx="740.73" cy="594.98" r="36.56"/></g><g id="レイヤー_102" data-name="レイヤー 102"><circle class="cls-70" cx="740.5" cy="594.59" r="26.16"/><path class="cls-98" d="M769.07,533.45v27.74l20.69,14.42s12.55-15.48,0-32C782,533.45,769.07,533.45,769.07,533.45Z" transform="translate(-28.33 34.98)"/><path class="cls-99" d="M769.13,561.17l20.54-17.56s6.19,7.15,5.57,16c-.55,7.8-1.73,10.92-5.57,16Z" transform="translate(-28.33 34.98)"/></g></g><g id="グッド"><g id="レイヤー_174" data-name="レイヤー 174"><circle class="cls-13" cx="51.1" cy="734.87" r="43.36"/><circle class="cls-61" cx="51.1" cy="734.87" r="39.52"/><circle class="cls-62" cx="51.1" cy="734.87" r="37.12"/></g><g id="レイヤー_116" data-name="レイヤー 116"><rect class="cls-63" x="29.66" y="725.48" width="8.51" height="28.79"/><path class="cls-63" d="M68.17,719.3V689.51s4.47-11.47,7.66-13.15c1.79-1,6.66-.67,6.16,3.66a19.19,19.19,0,0,1-3.61,8.29H97.17c7.4,0,5,14.62,1,14,0,0,4.77,10.19-.78,15.38C93,721.67,77.83,721.72,68.17,719.3Z" transform="translate(-28.33 34.98)"/></g></g><g id="バッド"><g id="レイヤー_173" data-name="レイヤー 173"><circle class="cls-13" cx="165.5" cy="736.5" r="43.36"/><circle class="cls-45" cx="165.5" cy="736.5" r="38.99"/><circle class="cls-46" cx="165.5" cy="736.5" r="40.02"/></g><g id="レイヤー_117" data-name="レイヤー 117"><rect class="cls-47" x="178.13" y="717.51" width="8.51" height="28.79"/><path class="cls-47" d="M204.8,682.54v29.79s-4.47,11.47-7.66,13.15c-1.79.94-6.66.66-6.16-3.66a19.19,19.19,0,0,1,3.61-8.29H175.8c-7.4,0-5-14.63-1-14,0,0-4.77-10.19.78-15.37C179.94,680.17,195.15,680.12,204.8,682.54Z" transform="translate(-28.33 34.98)"/></g></g><g id="明るさ"><g id="レイヤー_175" data-name="レイヤー 175"><circle class="cls-13" cx="281.17" cy="735.84" r="43.36"/><circle class="cls-39" cx="280.98" cy="735.44" r="40.66"/><circle class="cls-40" cx="281.17" cy="735.44" r="38.68"/></g><g id="レイヤー_118" data-name="レイヤー 118"><circle class="cls-41" cx="281.17" cy="735.84" r="14.58"/><circle class="cls-41" cx="280.94" cy="710.78" r="3.77"/><circle class="cls-41" cx="306.64" cy="735.84" r="3.77"/><circle class="cls-41" cx="281.17" cy="760.9" r="3.77"/><circle class="cls-41" cx="254.53" cy="735.36" r="3.77"/><circle class="cls-41" cx="263.01" cy="718.21" r="3.77"/><circle class="cls-41" cx="300.52" cy="718.79" r="3.77"/><circle class="cls-41" cx="299.52" cy="752.69" r="3.77"/><circle class="cls-41" cx="262.06" cy="752.69" r="3.77"/></g></g><g id="充電中"><g id="レイヤー_167" data-name="レイヤー 167"><circle class="cls-13" cx="855.69" cy="594.59" r="43.36"/><circle class="cls-85" cx="855.69" cy="594.59" r="39.52"/><circle class="cls-25" cx="855.62" cy="594.84" r="35.21"/></g><g id="レイヤー_103" data-name="レイヤー 103"><polygon class="cls-86" points="839.08 576.35 839.08 618.42 871.92 618.42 871.92 576.35 863.35 576.35 863.35 570.76 848.64 570.76 848.63 576.21 839.08 576.35"/><polygon class="cls-13" points="861.72 581.3 846.28 594.12 854.88 600.15 849.02 611.69 865.49 598.23 856.11 593.2 861.72 581.3"/></g></g><g id="ミュート"><g id="レイヤー_166" data-name="レイヤー 166"><circle class="cls-13" cx="970.5" cy="594.59" r="43.36"/><circle class="cls-34" cx="970.3" cy="594.84" r="37.54"/><circle class="cls-79" cx="970.3" cy="594.59" r="39.45"/></g><g id="レイヤー_104" data-name="レイヤー 104"><polygon class="cls-80" points="946.75 584.06 946.75 604.33 955.98 604.33 970.61 612.66 970.61 576.52 956.2 583.84 946.75 584.06"/><line class="cls-100" x1="994.97" y1="585.06" x2="976.81" y2="604.12"/><line class="cls-100" x1="976.81" y1="585.06" x2="994.97" y2="604.12"/></g></g><g id="音量"><g id="レイヤー_172" data-name="レイヤー 172"><circle class="cls-13" cx="1085.5" cy="594.98" r="43.36"/><circle class="cls-45" cx="1086.34" cy="595.12" r="38.99"/><circle class="cls-46" cx="1086.34" cy="595.12" r="40.02"/></g><g id="レイヤー_105" data-name="レイヤー 105"><polygon class="cls-47" points="1064.63 586 1064.63 606.26 1073.87 606.26 1088.5 614.59 1088.5 578.46 1074.09 585.77 1064.63 586"/><path class="cls-101" d="M1123.72,548.13a14.77,14.77,0,0,1,7.72,13.42,15.53,15.53,0,0,1-7.72,13.41" transform="translate(-28.33 34.98)"/><path class="cls-101" d="M1126,542.55s11,5.07,11,19a22,22,0,0,1-11,19" transform="translate(-28.33 34.98)"/></g></g><g id="電源"><g id="レイヤー_176" data-name="レイヤー 176"><circle class="cls-13" cx="395.5" cy="735.36" r="43.36"/><circle class="cls-32" cx="395.5" cy="735.36" r="39.52"/><circle class="cls-25" cx="395.5" cy="735.64" r="35.72"/></g><g id="レイヤー_108" data-name="レイヤー 108"><rect class="cls-33" x="392.47" y="708.66" width="6.06" height="23.09"/><path class="cls-33" d="M409.05,682.73l4.48,4.21s-7.63,7.62-7.9,15.4,6.72,18.53,18.2,18.53c14.17,0,18.79-12.3,18.79-17.92,0-6.66-2.5-11.93-8-15.74l3.82-4.48a24.12,24.12,0,0,1,10.16,19.61c0,13.17-11.82,24.73-24.74,24.73s-24.74-11.58-24.74-24.73A24.25,24.25,0,0,1,409.05,682.73Z" transform="translate(-28.33 34.98)"/></g></g><g id="マイク"><g id="レイヤー_180" data-name="レイヤー 180"><circle class="cls-13" cx="510.81" cy="735.36" r="43.36"/><circle class="cls-34" cx="510.61" cy="735.61" r="37.54"/><circle class="cls-79" cx="510.61" cy="735.36" r="39.45"/></g><g id="レイヤー_119" data-name="レイヤー 119"><rect class="cls-80" x="501.18" y="708.66" width="19.26" height="35.21" rx="8.5"/><path class="cls-80" d="M517.39,699.2H523c0,4.29,2.7,15.35,16.11,15.35s14.91-10.84,15-15.35h6.64s-2.73,20.16-19.43,20.16V730.5h-4.67V719.06C532.07,719.06,517.39,715.39,517.39,699.2Z" transform="translate(-28.33 34.98)"/></g></g><g id="close"><g id="レイヤー_177" data-name="レイヤー 177"><circle class="cls-13" cx="625.77" cy="735.36" r="43.36"/><circle class="cls-85" cx="625.77" cy="735.36" r="39.52"/><circle class="cls-25" cx="625.7" cy="735.6" r="35.21"/></g><g id="レイヤー_120" data-name="レイヤー 120"><circle class="cls-86" cx="625.5" cy="735.6" r="26.71"/><line class="cls-102" x1="635.94" y1="724.69" x2="615.61" y2="746.02"/><line class="cls-102" x1="615.61" y1="724.69" x2="635.94" y2="746.02"/></g></g><g id="インフォメーション"><g id="レイヤー_178" data-name="レイヤー 178"><circle class="cls-13" cx="741.05" cy="735.36" r="43.36"/><circle class="cls-57" cx="740.98" cy="735.87" r="36.16"/><circle class="cls-58" cx="740.77" cy="735.5" r="40.92"/><circle class="cls-58" cx="740.98" cy="735.87" r="36.47"/><line class="cls-96" x1="731.34" y1="727.42" x2="731.34" y2="751.07"/><line class="cls-96" x1="742.15" y1="727.42" x2="742.15" y2="751.07"/><path class="cls-97" d="M779.56,698.22" transform="translate(-28.33 34.98)"/><path class="cls-97" d="M759.19,698.22" transform="translate(-28.33 34.98)"/><circle class="cls-59" cx="739.49" cy="734.11" r="20.3"/><line class="cls-97" x1="729.31" y1="733.98" x2="749.68" y2="733.98"/></g><g id="レイヤー_121" data-name="レイヤー 121"><circle class="cls-59" cx="741.05" cy="735.6" r="26.71"/><rect class="cls-34" x="737.44" y="732.15" width="7.22" height="17.68"/><circle class="cls-34" cx="741.05" cy="724.75" r="3.94"/></g></g><g id="Bluetooth"><g id="レイヤー_182" data-name="レイヤー 182"><circle class="cls-13" cx="856.27" cy="735.6" r="43.36"/><circle class="cls-16" cx="856.27" cy="735.6" r="40.32"/><circle class="cls-17" cx="856.27" cy="735.6" r="37.23"/><circle class="cls-17" cx="856.27" cy="735.6" r="35.56"/></g><g id="レイヤー_130" data-name="レイヤー 130"><polygon class="cls-18" points="853.74 728.75 853.74 707.09 875.57 724.69 862.17 735.87 874.39 746.87 854.11 764.55 854.11 743.82 841.42 755.64 836.98 750.81 853.38 735.87 836.98 722.42 841.91 718.02 853.74 728.75"/></g><g id="レイヤー_123" data-name="レイヤー 123"><polygon class="cls-16" points="859.04 718.93 859.04 732.29 866.47 725.61 859.04 718.93"/><polygon class="cls-16" points="859.04 740.97 859.04 754.32 866.47 747.65 859.04 740.97"/></g></g><g id="追加"><g id="レイヤー_181" data-name="レイヤー 181"><circle class="cls-13" cx="970.79" cy="735.87" r="43.36"/><circle class="cls-23" cx="970.79" cy="735.87" r="39.52"/><circle class="cls-24" cx="970.79" cy="736.01" r="39.19"/><circle class="cls-25" cx="970.79" cy="736.01" r="37.71"/><path class="cls-26" d="M978.24,710.09" transform="translate(-28.33 34.98)"/></g><g id="レイヤー_122" data-name="レイヤー 122"><rect class="cls-27" x="950.07" y="714.37" width="41.97" height="41.97" rx="5.67"/><line class="cls-103" x1="959.37" y1="735.36" x2="982.74" y2="735.36"/><line class="cls-103" x1="971.05" y1="724.13" x2="971.05" y2="747.5"/></g></g><g id="注意"><g id="レイヤー_179" data-name="レイヤー 179"><circle class="cls-13" cx="1085.5" cy="735.36" r="43.36"/><circle class="cls-29" cx="1085.5" cy="735.36" r="39.52"/><circle class="cls-30" cx="1085.5" cy="735.72" r="36.08"/></g><g id="レイヤー_131" data-name="レイヤー 131"><text class="cls-104" transform="translate(1047.34 760.31) scale(1.21 1)">！</text></g></g></svg>