<svg xmlns="http://www.w3.org/2000/svg" viewBox="0 0 1137 821.67"><defs><style>.cls-1,.cls-16,.cls-2,.cls-21,.cls-3,.cls-4,.cls-6{fill:#231815;}.cls-2{font-size:19px;}.cls-2,.cls-3,.cls-6{font-family:KozGoPro-Medium, KozGoPro Medium-83pv-RKSJ-H;font-weight:500;}.cls-3{font-size:16px;}.cls-4,.cls-6{font-size:13px;}.cls-4{font-family:KozGoPro-Bold, KozGoPro Bold-83pv-RKSJ-H;font-weight:700;}.cls-5{letter-spacing:-0.5em;}.cls-18,.cls-20,.cls-7{fill:none;}.cls-7{stroke:#dcdddd;}.cls-18,.cls-19,.cls-20,.cls-21,.cls-7{stroke-miterlimit:10;}.cls-8{font-size:24px;font-family:KozGoPro-Heavy, KozGoPro Heavy-83pv-RKSJ-H;font-weight:800;}.cls-15,.cls-19,.cls-8{fill:#fff;}.cls-9{letter-spacing:0.04em;}.cls-10{letter-spacing:0.11em;}.cls-11{letter-spacing:-0.08em;}.cls-12{letter-spacing:-0.06em;}.cls-13{letter-spacing:-0.08em;}.cls-14{letter-spacing:0.02em;}.cls-16{font-size:12px;font-family:KozGoPro-Regular-90ms-RKSJ-H, Kozuka Gothic Pro;}.cls-17{letter-spacing:0.25em;}.cls-18,.cls-19,.cls-20,.cls-21{stroke:#231815;}.cls-20{stroke-width:3px;}</style></defs><g id="テンプレート"><path class="cls-1" d="M29,0V55.41a12,12,0,0,0,12,12H413.83a12,12,0,0,0,12-12V0Z" transform="translate(-28.33)"/><text class="cls-2" transform="translate(931.95 46.3)">www.design-icon.com</text><text class="cls-3" transform="translate(418.97 55.3)">DESIGNER : 牧島 史弥</text><text class="cls-4" transform="translate(805.5 817.27)">利用規約：個人、商用、すべてフリーでご利用ください<tspan class="cls-5" x="325" y="0">。</tspan></text><text class="cls-6" transform="translate(418.97 30.16)">サイズ：100 x 100 px</text><rect class="cls-7" x="0.5" y="87.3" width="100" height="100"/><rect class="cls-7" x="115.5" y="87.3" width="100" height="100"/><rect class="cls-7" x="230.5" y="87.3" width="100" height="100"/><rect class="cls-7" x="345.5" y="87.3" width="100" height="100"/><rect class="cls-7" x="460.5" y="87.3" width="100" height="100"/><rect class="cls-7" x="575.5" y="87.3" width="100" height="100"/><rect class="cls-7" x="690.5" y="87.3" width="100" height="100"/><rect class="cls-7" x="805.5" y="87.3" width="100" height="100"/><rect class="cls-7" x="920.5" y="87.3" width="100" height="100"/><rect class="cls-7" x="1035.5" y="87.3" width="100" height="100"/><rect class="cls-7" x="0.5" y="228.07" width="100" height="100"/><rect class="cls-7" x="115.5" y="228.07" width="100" height="100"/><rect class="cls-7" x="230.5" y="228.07" width="100" height="100"/><rect class="cls-7" x="345.5" y="228.07" width="100" height="100"/><rect class="cls-7" x="460.5" y="228.07" width="100" height="100"/><rect class="cls-7" x="575.5" y="228.07" width="100" height="100"/><rect class="cls-7" x="690.5" y="228.07" width="100" height="100"/><rect class="cls-7" x="805.5" y="228.07" width="100" height="100"/><rect class="cls-7" x="920.5" y="228.07" width="100" height="100"/><rect class="cls-7" x="1035.5" y="228.07" width="100" height="100"/><rect class="cls-7" x="0.5" y="368.84" width="100" height="100"/><rect class="cls-7" x="115.5" y="368.84" width="100" height="100"/><rect class="cls-7" x="230.5" y="368.84" width="100" height="100"/><rect class="cls-7" x="345.5" y="368.84" width="100" height="100"/><rect class="cls-7" x="460.5" y="368.84" width="100" height="100"/><rect class="cls-7" x="575.5" y="368.84" width="100" height="100"/><rect class="cls-7" x="690.5" y="368.84" width="100" height="100"/><rect class="cls-7" x="805.5" y="368.84" width="100" height="100"/><rect class="cls-7" x="920.5" y="368.84" width="100" height="100"/><rect class="cls-7" x="1035.5" y="368.84" width="100" height="100"/><rect class="cls-7" x="0.5" y="509.61" width="100" height="100"/><rect class="cls-7" x="115.5" y="509.61" width="100" height="100"/><rect class="cls-7" x="230.5" y="509.61" width="100" height="100"/><rect class="cls-7" x="345.5" y="509.61" width="100" height="100"/><rect class="cls-7" x="460.5" y="509.61" width="100" height="100"/><rect class="cls-7" x="575.5" y="509.61" width="100" height="100"/><rect class="cls-7" x="690.5" y="509.61" width="100" height="100"/><rect class="cls-7" x="805.5" y="509.61" width="100" height="100"/><rect class="cls-7" x="920.5" y="509.61" width="100" height="100"/><rect class="cls-7" x="1035.5" y="509.61" width="100" height="100"/><rect class="cls-7" x="0.5" y="650.38" width="100" height="100"/><rect class="cls-7" x="115.5" y="650.38" width="100" height="100"/><rect class="cls-7" x="230.5" y="650.38" width="100" height="100"/><rect class="cls-7" x="345.5" y="650.38" width="100" height="100"/><rect class="cls-7" x="460.5" y="650.38" width="100" height="100"/><rect class="cls-7" x="575.5" y="650.38" width="100" height="100"/><rect class="cls-7" x="690.5" y="650.38" width="100" height="100"/><rect class="cls-7" x="805.5" y="650.38" width="100" height="100"/><rect class="cls-7" x="920.5" y="650.38" width="100" height="100"/><rect class="cls-7" x="1035.5" y="650.38" width="100" height="100"/><text class="cls-8" transform="translate(78.38 43.3)"><tspan class="cls-9">WE</tspan><tspan class="cls-10" x="36.58" y="0">B</tspan><tspan class="cls-11" x="53.14" y="0">ア</tspan><tspan class="cls-12" x="75.22" y="0">イ</tspan><tspan class="cls-13" x="97.78" y="0">コ</tspan><tspan class="cls-14" x="119.85" y="0">ン</tspan><tspan x="144.33" y="0">　キューブ</tspan></text><circle class="cls-15" cx="68.27" cy="34.22" r="16.05" transform="translate(-36.23 28.73) rotate(-22.5)"/></g><g id="アイコン名"><text class="cls-16" transform="translate(32.5 213.41)">メール</text><text class="cls-16" transform="translate(153.83 213.41)">音楽</text><text class="cls-16" transform="translate(269.17 213.41)">検索</text><text class="cls-16" transform="translate(372.5 213.41)">ファイル</text><text class="cls-16" transform="translate(487.83 213.41)">メニュー</text><text class="cls-16" transform="translate(609.17 213.41)">ホーム</text><text class="cls-16" transform="translate(730.5 213.41)">設定</text><text class="cls-16" transform="translate(845.83 213.41)">再生</text><text class="cls-16" transform="translate(949.17 213.41)">一時停止</text><text class="cls-16" transform="translate(1076.5 213.41)">送信</text><text class="cls-16" transform="translate(38.5 351.9)">受信</text><text class="cls-16" transform="translate(153.83 351.9)">写真</text><text class="cls-16" transform="translate(245.17 351.9)">ダウンロード</text><text class="cls-16" transform="translate(378.5 351.9)">やり方</text><text class="cls-16" transform="translate(493.83 351.9)">マップ</text><text class="cls-16" transform="translate(615.17 351.9)">矢印</text><text class="cls-16" transform="translate(730.5 351.9)">戻る</text><text class="cls-16" transform="translate(845.83 351.9)">次へ</text><text class="cls-16" transform="translate(937.17 351.9)">プロフィール</text><text class="cls-16" transform="translate(1076.5 351.9)">履歴</text><text class="cls-16" transform="translate(32.5 492.39)">ストア</text><text class="cls-16" transform="translate(153.83 492.39)">食事</text><text class="cls-16" transform="translate(245.17 492.39)">お問い合わせ</text><text class="cls-16" transform="translate(384.5 492.39)">質問</text><text class="cls-16" transform="translate(499.83 492.39)">追加</text><text class="cls-16" transform="translate(615.17 492.39)">資料</text><text class="cls-16" transform="translate(718.5 492.39)">クーポン</text><text class="cls-16" transform="translate(839.83 492.39)">リンク</text><text class="cls-16" transform="translate(943.17 492.39)">スピーカー</text><text class="cls-16" transform="translate(1070.5 492.39)">マイク</text><text class="cls-16" transform="translate(26.5 630.89)">チェック</text><text class="cls-16" transform="translate(153.83 630.89)">電波</text><text class="cls-16" transform="translate(251.17 630.89)">キャンセル</text><text class="cls-16" transform="translate(384.5 630.89)">共有</text><text class="cls-16" transform="translate(481.83 630.89)">お気に入り</text><text class="cls-16" transform="translate(615.17 630.89)">充電</text><text class="cls-16" transform="translate(730.5 630.89)">縮小</text><text class="cls-16" transform="translate(845.83 630.89)">拡大</text><text class="cls-16" transform="translate(961.17 630.89)">更新</text><text class="cls-16" transform="translate(1064.5 630.89)">ログイン</text><text class="cls-16" transform="translate(32.5 773.38)">カメラ</text><text class="cls-16" transform="translate(147.83 773.38)">ビデオ</text><text class="cls-16" transform="translate(269.17 773.38)">翻訳</text><text class="cls-16" transform="translate(384.5 773.38)">通知</text><text class="cls-16" transform="translate(487.83 773.38)">絞り込み</text><text class="cls-16" transform="translate(609.17 773.38)">別タブ</text><text class="cls-16" transform="translate(724.5 773.38)">著作権</text><text class="cls-16" transform="translate(818.88 773.38)">C<tspan class="cls-17" x="7.45" y="0">C</tspan><tspan x="17.9" y="0">ライセンス</tspan></text><text class="cls-16" transform="translate(966.22 773.38)">BY</text><text class="cls-16" transform="translate(1080.53 773.38)">NC</text></g><g id="レイヤー_3" data-name="レイヤー 3"><polygon class="cls-18" points="50.5 87.31 93.8 112.31 93.8 162.31 50.5 187.31 7.2 162.31 7.2 112.31 50.5 87.31"/></g><g id="レイヤー_4" data-name="レイヤー 4"><rect class="cls-18" x="17.12" y="112.3" width="67.25" height="50"/><path class="cls-18" d="M78.46,141.94,46.53,113.27a.56.56,0,0,1,.37-1h64.35a.56.56,0,0,1,.37,1L79.2,141.94A.55.55,0,0,1,78.46,141.94Z" transform="translate(-28.33)"/><path class="cls-18" d="M46.47,161.06l22.08-26.95a.76.76,0,0,1,1.1-.08l8.68,7.78a.76.76,0,0,0,1,0L88.16,134a.77.77,0,0,1,1.09.09l22.42,27a.76.76,0,0,1-.59,1.24h-64A.76.76,0,0,1,46.47,161.06Z" transform="translate(-28.33)"/></g><g id="レイヤー_5" data-name="レイヤー 5"><polygon class="cls-18" points="165.83 87.31 209.13 112.31 209.13 162.31 165.83 187.31 122.53 162.31 122.53 112.31 165.83 87.31"/></g><g id="レイヤー_6" data-name="レイヤー 6"><path class="cls-18" d="M171.11,112.3l46-7.21V147.9s1.84,8.56-6,8.56-8.33-1.38-8.33-8.56,10.18-5.63,10.18-5.63v-30l-37,5.74v38.42s.16,5.84-6.32,5.84-6.94-1.48-6.94-8.88,8.47-5.52,8.47-5.52Z" transform="translate(-28.33)"/></g><g id="レイヤー_7" data-name="レイヤー 7"><polygon class="cls-18" points="281.17 87.31 324.47 112.31 324.47 162.31 281.17 187.31 237.87 162.31 237.87 112.31 281.17 87.31"/></g><g id="レイヤー_8" data-name="レイヤー 8"><circle class="cls-18" cx="270.44" cy="129.8" r="26.84"/><path class="cls-18" d="M321.88,143.45l18.61,11.84s4.33,3.15,2.75,4.91-6.08,0-6.08,0L318.48,148" transform="translate(-28.33)"/><circle class="cls-18" cx="270.44" cy="129.8" r="19.71"/></g><g id="レイヤー_9" data-name="レイヤー 9"><polygon class="cls-18" points="396.5 87.31 439.8 112.31 439.8 162.31 396.5 187.31 353.2 162.31 353.2 112.31 396.5 87.31"/></g><g id="レイヤー_10" data-name="レイヤー 10"><polygon class="cls-19" points="370.38 102.38 370.38 171.07 424.62 171.07 424.62 129.23 401.06 102.38 370.38 102.38"/><path class="cls-19" d="M429.4,103.29v25.46a.55.55,0,0,0,.54.55h21.81a.54.54,0,0,0,.41-.9L430,103.07A.34.34,0,0,0,429.4,103.29Z" transform="translate(-28.33)"/></g><g id="レイヤー_11" data-name="レイヤー 11"><polygon class="cls-18" points="510.5 87.31 553.8 112.31 553.8 162.31 510.5 187.31 467.2 162.31 467.2 112.31 510.5 87.31"/></g><g id="レイヤー_12" data-name="レイヤー 12"><ellipse class="cls-1" cx="480.47" cy="137.3" rx="8.42" ry="6.42"/><ellipse class="cls-1" cx="540.53" cy="137.3" rx="8.42" ry="6.42"/><rect class="cls-1" x="480.47" y="130.89" width="60.06" height="12.83"/><ellipse class="cls-1" cx="480.47" cy="157.23" rx="8.42" ry="6.42"/><ellipse class="cls-1" cx="540.53" cy="157.23" rx="8.42" ry="6.42"/><rect class="cls-1" x="480.47" y="150.81" width="60.06" height="12.83"/><ellipse class="cls-1" cx="480.47" cy="117.38" rx="8.42" ry="6.42"/><ellipse class="cls-1" cx="540.53" cy="117.38" rx="8.42" ry="6.42"/><rect class="cls-1" x="480.47" y="110.97" width="60.06" height="12.83"/></g><g id="レイヤー_13" data-name="レイヤー 13"><polygon class="cls-18" points="625.5 87.31 668.8 112.31 668.8 162.31 625.5 187.31 582.2 162.31 582.2 112.31 625.5 87.31"/></g><g id="レイヤー_14" data-name="レイヤー 14"><polygon class="cls-1" points="642.33 103.94 650.18 103.94 650.18 121.3 642.33 114.69 642.33 103.94"/><polygon class="cls-1" points="625.87 106.83 659.28 133.7 655.42 139.76 625.87 115.51 596.17 139.76 591.72 134.12 625.87 106.83"/><polygon class="cls-1" points="625.87 123.3 602.41 141.41 602.41 167.39 618.77 167.39 618.77 150.62 632.88 150.62 632.88 167.39 649.04 167.39 649.04 139.76 625.87 123.3"/></g><g id="レイヤー_15" data-name="レイヤー 15"><polygon class="cls-18" points="740.5 87.31 783.8 112.31 783.8 162.31 740.5 187.31 697.2 162.31 697.2 112.31 740.5 87.31"/></g><g id="レイヤー_16" data-name="レイヤー 16"><polygon class="cls-20" points="706.51 125.98 713.56 114.24 723.34 118.02 731.85 112.54 733.36 101.71 747.22 101.71 748.74 112.54 757.12 117.79 767.37 113.85 774.36 125.98 765.74 132.11 765.86 142.36 774.36 148.65 767.26 161 757.36 156.57 748.74 161.93 747.22 172.18 733.01 172.18 731.73 161.47 723.34 156.57 713.67 161.12 706.51 148.65 714.84 142.25 714.49 132 706.51 125.98"/><circle class="cls-1" cx="740.5" cy="137.3" r="13.87"/><circle class="cls-15" cx="740.5" cy="137.3" r="9.49"/></g><g id="レイヤー_17" data-name="レイヤー 17"><polygon class="cls-18" points="855.5 87.31 898.8 112.31 898.8 162.31 855.5 187.31 812.2 162.31 812.2 112.31 855.5 87.31"/></g><g id="レイヤー_18" data-name="レイヤー 18"><path class="cls-1" d="M862.13,116.1v41.69a5.82,5.82,0,0,0,8.44,5.19l41.37-21a5.81,5.81,0,0,0,0-10.38l-41.38-20.73A5.81,5.81,0,0,0,862.13,116.1Z" transform="translate(-28.33)"/></g><g id="レイヤー_19" data-name="レイヤー 19"><polygon class="cls-18" points="970.5 87.31 1013.8 112.31 1013.8 162.31 970.5 187.31 927.2 162.31 927.2 112.31 970.5 87.31"/></g><g id="レイヤー_20" data-name="レイヤー 20"><rect class="cls-1" x="948.54" y="110.28" width="14.56" height="53.33"/><rect class="cls-1" x="977.78" y="110.64" width="14.56" height="53.33"/></g><g id="レイヤー_21" data-name="レイヤー 21"><polygon class="cls-18" points="1085.5 87.31 1128.8 112.31 1128.8 162.31 1085.5 187.31 1042.2 162.31 1042.2 112.31 1085.5 87.31"/></g><g id="レイヤー_22" data-name="レイヤー 22"><rect class="cls-18" x="1051.87" y="115.39" width="67.25" height="50"/><path class="cls-18" d="M1113.22,145l-31.94-28.67a.56.56,0,0,1,.37-1H1146a.56.56,0,0,1,.37,1L1114,145A.54.54,0,0,1,1113.22,145Z" transform="translate(-28.33)"/><path class="cls-18" d="M1081.22,164.15l22.08-27a.76.76,0,0,1,1.1-.08l8.68,7.78a.76.76,0,0,0,1,0l8.82-7.81a.77.77,0,0,1,1.09.09l22.42,27a.76.76,0,0,1-.59,1.24h-64A.76.76,0,0,1,1081.22,164.15Z" transform="translate(-28.33)"/><polygon class="cls-1" points="1072.35 106.7 1085.59 92.98 1098.65 106.78 1097.94 107.49 1086.06 94.84 1086.06 133.08 1085.13 133.08 1085.13 94.9 1073.05 107.52 1072.35 106.7"/></g><g id="レイヤー_23" data-name="レイヤー 23"><polygon class="cls-18" points="50.75 228.07 94.05 253.07 94.05 303.07 50.75 328.07 7.45 303.07 7.45 253.07 50.75 228.07"/></g><g id="レイヤー_24" data-name="レイヤー 24"><rect class="cls-18" x="16.61" y="251.42" width="67.25" height="50"/><path class="cls-18" d="M78,281.06,46,252.39a.56.56,0,0,1,.37-1h64.35a.56.56,0,0,1,.37,1L78.69,281.06A.55.55,0,0,1,78,281.06Z" transform="translate(-28.33)"/><path class="cls-18" d="M46,300.18l22.09-26.95a.76.76,0,0,1,1.09-.09l8.68,7.79a.76.76,0,0,0,1,0l8.82-7.81a.77.77,0,0,1,1.09.09l22.42,27a.76.76,0,0,1-.58,1.24h-64A.76.76,0,0,1,46,300.18Z" transform="translate(-28.33)"/><polygon class="cls-1" points="63.9 310.05 50.66 323.78 37.6 309.98 38.31 309.27 50.19 321.92 50.19 283.67 51.13 283.67 51.13 321.86 63.2 309.24 63.9 310.05"/></g><g id="レイヤー_25" data-name="レイヤー 25"><polygon class="cls-18" points="165.5 228.07 208.8 253.07 208.8 303.07 165.5 328.07 122.2 303.07 122.2 253.07 165.5 228.07"/></g><g id="レイヤー_26" data-name="レイヤー 26"><path class="cls-1" d="M229,303.6s-13.25-46.07-21.9-46.07-16.26,34.09-16.26,34.09-7.44-19.83-15.78-19.83-15.77,31.81-15.77,31.81Z" transform="translate(-28.33)"/><circle class="cls-1" cx="153.64" cy="257.53" r="7.42"/></g><g id="レイヤー_27" data-name="レイヤー 27"><polygon class="cls-18" points="280.5 228.07 323.8 253.07 323.8 303.07 280.5 328.07 237.2 303.07 237.2 253.07 280.5 228.07"/></g><g id="レイヤー_28" data-name="レイヤー 28"><path class="cls-1" d="M276.83,281.36H286v13.29h46V281.36h8.87v18.4c0,3.07-3.47,3.84-6.79,3.84h-52.4c-4.81,0-4.81-4.61-4.81-7.93Z" transform="translate(-28.33)"/><path class="cls-1" d="M303.87,262.7v-9.21c0-5.11,10.23-4.85,10.23,0v9.21c0,3.06.26,3.83,2.3,3.83H322s-11.56,17.38-13.19,17.38-13.14-17.08-13.14-17.08h4.61C302.85,266.83,303.87,266,303.87,262.7Z" transform="translate(-28.33)"/></g><g id="レイヤー_29" data-name="レイヤー 29"><polygon class="cls-18" points="395.5 228.07 438.8 253.07 438.8 303.07 395.5 328.07 352.2 303.07 352.2 253.07 395.5 228.07"/></g><g id="レイヤー_30" data-name="レイヤー 30"><path class="cls-19" d="M402,249.69,423.83,263v49.89c0,.08-.11.11-.17.06L402,293.16Z" transform="translate(-28.33)"/><path class="cls-21" d="M423.83,313V263a.08.08,0,0,1,0,0l21.76-13.22s.09,0,.09,0v43.84a0,0,0,0,1,0,0L423.93,313A.06.06,0,0,1,423.83,313Z" transform="translate(-28.33)"/></g><g id="レイヤー_31" data-name="レイヤー 31"><polygon class="cls-18" points="510.5 228.07 553.8 253.07 553.8 303.07 510.5 328.07 467.2 303.07 467.2 253.07 510.5 228.07"/></g><g id="レイヤー_32" data-name="レイヤー 32"><path class="cls-19" d="M538.83,309.09s-22.51-20.61-22.51-39c0-20.89,22.51-19.74,22.51-19.74s21.15,0,21.15,20C560,287.91,538.83,309.09,538.83,309.09Z" transform="translate(-28.33)"/><circle class="cls-1" cx="510.5" cy="271.77" r="9.33"/><circle class="cls-15" cx="510.5" cy="271.48" r="3.14"/></g><g id="レイヤー_33" data-name="レイヤー 33"><polygon class="cls-18" points="625.5 228.07 668.8 253.07 668.8 303.07 625.5 328.07 582.2 303.07 582.2 253.07 625.5 228.07"/></g><g id="レイヤー_58" data-name="レイヤー 58"><polygon class="cls-1" points="626.43 316.87 659.95 278.26 634.77 278.26 634.77 242.5 618.05 242.5 618.05 278.26 591.5 278.26 626.43 316.87"/></g><g id="レイヤー_35" data-name="レイヤー 35"><polygon class="cls-18" points="740.44 228.07 783.74 253.07 783.74 303.07 740.44 328.07 697.14 303.07 697.14 253.07 740.44 228.07"/></g><g id="レイヤー_36" data-name="レイヤー 36"><path class="cls-1" d="M741.49,286.64v13.72H775s21.16-3.24,21.16-22.29-23.12-21.4-23.12-21.4h-8.23v-9L742,270.48h32.81s7.59-.59,7.59,7.59-7.2,8.57-7.2,8.57Z" transform="translate(-28.33)"/></g><g id="レイヤー_37" data-name="レイヤー 37"><polygon class="cls-18" points="855.5 228.07 898.8 253.07 898.8 303.07 855.5 328.07 812.2 303.07 812.2 253.07 855.5 228.07"/></g><g id="レイヤー_57" data-name="レイヤー 57"><path class="cls-1" d="M891.07,254.24l30,19.87-30,19.83V282.05s-14.64.25-23.93,4.48-15.88,14.67-15.88,14.67,0-24.9,13.46-29.61a99.82,99.82,0,0,1,25.72-5.24Z" transform="translate(-28.33)"/></g><g id="レイヤー_39" data-name="レイヤー 39"><polygon class="cls-18" points="970.5 228.24 1013.8 253.24 1013.8 303.24 970.5 328.24 927.2 303.24 927.2 253.24 970.5 228.24"/></g><g id="レイヤー_40" data-name="レイヤー 40"><path class="cls-18" d="M963.6,307.9s10.2-23.28,35.23-23.28,35.23,23.28,35.23,23.28l-35.23,20.34Z" transform="translate(-28.33)"/><circle class="cls-18" cx="970.5" cy="263.36" r="21.26"/></g><g id="レイヤー_41" data-name="レイヤー 41"><polygon class="cls-18" points="1085.5 228.24 1128.8 253.24 1128.8 303.24 1085.5 328.24 1042.2 303.24 1042.2 253.24 1085.5 228.24"/></g><g id="レイヤー_42" data-name="レイヤー 42"><path class="cls-1" d="M1083.54,286.74l6.25-8.29h-5.13s2.59-30.45,30.59-30.45,31.52,25.86,31.52,30.62-5.41,31-31.52,31c-17.3,0-24.66-12.81-24.66-12.81l-1.92,1.44s9.76,13.5,26.49,13.5,33.72-12.29,33.72-33.14-17-33.14-33.63-33.14-32.83,14.28-32.83,33h-5Z" transform="translate(-28.33)"/><polygon class="cls-1" points="1099.23 292.18 1100.99 290.58 1088.51 278.45 1088.51 257.61 1086.26 257.61 1086.26 279.15 1099.23 292.18"/></g><g id="レイヤー_43" data-name="レイヤー 43"><polygon class="cls-18" points="50.75 368.84 94.05 393.84 94.05 443.84 50.75 468.84 7.45 443.84 7.45 393.84 50.75 368.84"/></g><g id="レイヤー_44" data-name="レイヤー 44"><circle class="cls-1" cx="35.07" cy="446.55" r="4.03"/><circle class="cls-1" cx="55.93" cy="446.55" r="4.03"/><polygon class="cls-1" points="31.03 439.09 59.97 439.09 71.76 395.09 80.14 395.09 80.14 391.19 69.63 391.19 65.82 402.25 21.36 402.25 29.28 430.72 58.21 430.72 57.6 435.13 31.03 435.13 31.03 439.09"/><polygon class="cls-15" points="26.24 406.05 28.67 414.28 37.35 414.28 37.35 406.05 26.24 406.05"/><rect class="cls-15" x="40.85" y="406.05" width="9.61" height="8.22"/><polygon class="cls-15" points="54.1 406.05 64.76 406.05 62.78 414.28 54.1 414.28 54.1 406.05"/><polygon class="cls-15" points="30.2 419.01 37.35 419.01 37.35 426.91 31.79 426.91 30.2 419.01"/><rect class="cls-15" x="40.85" y="419.01" width="8.68" height="7.9"/><polygon class="cls-15" points="54.1 419.01 61.71 419.01 59.97 426.91 54.1 426.91 54.1 419.01"/></g><g id="レイヤー_45" data-name="レイヤー 45"><polygon class="cls-18" points="165.5 369.01 208.8 394.01 208.8 444.01 165.5 469.01 122.2 444.01 122.2 394.01 165.5 369.01"/></g><g id="レイヤー_46" data-name="レイヤー 46"><path class="cls-1" d="M171.47,451.57c2.83,3.33,6.49,0,6.49,0l22.18-30.45s7.7,1.09,9.51,0,6.33-8.33,6.33-8.33,11.32-21.35,7-23.7-15.85,16-15.85,16l-14.94,18-19.31,22.33S168.9,448.55,171.47,451.57Z" transform="translate(-28.33)"/><path class="cls-1" d="M213.42,454.43c3.46-3,0-6.49,0-6.49l-29.27-34.1s1.35-9.81,0-11.92-12.38-13.73-12.38-13.73-2-2.74-3.32-1.44,3,6.87,3,6.87,7.54,7.55,5.58,9.66-8.86-8.6-8.86-8.6-3.81-5.28-5.47-3.77,2.71,6.94,2.71,6.94,8.15,7.69,5.89,10-9.81-9.66-9.81-9.66-2.81-4.08-4.07-2.57.9,5,.9,5,8,12.23,11.47,13.89,8.45,1.05,8.45,1.05l29.27,37.55S210,457.45,213.42,454.43Z" transform="translate(-28.33)"/></g><g id="レイヤー_47" data-name="レイヤー 47"><polygon class="cls-18" points="280.5 368.84 323.8 393.84 323.8 443.84 280.5 468.84 237.2 443.84 237.2 393.84 280.5 368.84"/></g><g id="レイヤー_48" data-name="レイヤー 48"><path class="cls-1" d="M277.61,444.47h55.44V435s-8.18,9.73-17.91,5.64-6.81-10.9-1.17-16.74c0,0-15.18-1.75-24.14,1.36S276.67,431.6,277.61,444.47Z" transform="translate(-28.33)"/><path class="cls-1" d="M326.24,426.2s-3.72-2.47-5.05-2.37-2.67.57-5.25,3.81-4,5-3.33,6.28,2.57,3,5.91,3.73,7.43-1.24,11.72-5.62S343.8,415,343.8,402.76c0-6.58-6.89-10.39-8.7-9.53s-5,8.67-4.48,11.06,3.91,3.81,5.06,4.57a33.82,33.82,0,0,1-3.06,8.3A48,48,0,0,1,326.24,426.2Z" transform="translate(-28.33)"/><circle class="cls-1" cx="276.93" cy="405.24" r="14.11"/></g><g id="レイヤー_49" data-name="レイヤー 49"><polygon class="cls-18" points="396.5 369.01 439.8 394.01 439.8 444.01 396.5 469.01 353.2 444.01 353.2 394.01 396.5 369.01"/></g><g id="レイヤー_50" data-name="レイヤー 50"><path class="cls-1" d="M423.76,399.75c8.45,0,10,4.28,10,8.56S421,424.75,421,424.75V434h6.39v-6.22s16.5-9.33,16.5-19.44-12.23-17.89-20.12-17.89-20.32,6.22-20.32,17.89H415.1S414.54,399.75,423.76,399.75Z" transform="translate(-28.33)"/><rect class="cls-1" x="392.66" y="440.58" width="8.89" height="10.89"/></g><g id="レイヤー_51" data-name="レイヤー 51"><polygon class="cls-18" points="510.5 368.84 553.8 393.84 553.8 443.84 510.5 468.84 467.2 443.84 467.2 393.84 510.5 368.84"/></g><g id="レイヤー_52" data-name="レイヤー 52"><path class="cls-1" d="M538.88,384.66c6.16,0,6.64,5.81,6.64,10.32v16.6h16.92c7.74,0,10,.84,10,6.46s-3.38,6.59-9.5,6.59H545.68v16.28c0,6.13-1.52,10.48-6.8,10.48s-6.74-4.35-6.74-9.83V425H513.61c-4.53,0-8.38-1-8.38-6.93s4.19-6.77,7.57-6.77h19.34V395.62C532.14,390.47,532.88,384.66,538.88,384.66Z" transform="translate(-28.33)"/></g><g id="レイヤー_53" data-name="レイヤー 53"><polygon class="cls-18" points="625.5 368.84 668.8 393.84 668.8 443.84 625.5 468.84 582.2 443.84 582.2 393.84 625.5 368.84"/></g><g id="レイヤー_54" data-name="レイヤー 54"><polygon class="cls-19" points="651.61 391.75 651.61 450.46 605.24 450.46 605.24 414.69 625.38 391.75 651.61 391.75"/><path class="cls-19" d="M653.71,392.52v21.77a.46.46,0,0,1-.47.46H634.6a.46.46,0,0,1-.35-.77l19-21.65A.29.29,0,0,1,653.71,392.52Z" transform="translate(-28.33)"/><polygon class="cls-19" points="599.4 445.94 599.4 387.22 645.76 387.22 645.76 422.99 625.62 445.94 599.4 445.94"/><rect class="cls-1" x="610.13" y="424.15" width="12" height="3.47"/><path class="cls-19" d="M654,445.16V423.4a.47.47,0,0,1,.47-.47h18.65a.46.46,0,0,1,.34.77l-18.94,21.65A.3.3,0,0,1,654,445.16Z" transform="translate(-28.33)"/><rect class="cls-1" x="610.51" y="398.29" width="24.9" height="3.47"/><rect class="cls-1" x="610.51" y="407.82" width="24.9" height="3.47"/><rect class="cls-1" x="610.32" y="416.22" width="24.9" height="3.47"/></g><g id="レイヤー_55" data-name="レイヤー 55"><polygon class="cls-18" points="740.44 368.84 783.74 393.84 783.74 443.84 740.44 468.84 697.14 443.84 697.14 393.84 740.44 368.84"/></g><g id="レイヤー_56" data-name="レイヤー 56"><path class="cls-1" d="M742.39,429.7c0-1.6-2.09-2.95-4-2.95v-8a6.89,6.89,0,0,1,7-6.88H787c4.31,0,7.5,2.09,7.5,6.64v8.6s-4,0-4,2.58,4,2.58,4,2.58v7.37c0,3.08-.8,7.41-7.4,7.41H746.57c-5.53,0-8.23-2.74-8.23-6.18v-8.6S742.39,431.66,742.39,429.7Z" transform="translate(-28.33)"/><path class="cls-15" d="M744.59,429.47c0,2.51-3.89,4.67-3.89,4.67v6.91a2.68,2.68,0,0,0,.78,2.5c1.17,1.17,4.93,1.64,4.93,1.64H788a3.48,3.48,0,0,0,3.11-1.12,5.21,5.21,0,0,0,1.64-2.85v-6.83a4.77,4.77,0,0,1-4.23-4.92,4,4,0,0,1,4.23-4.32v-7.29a3.19,3.19,0,0,0-1.38-2.77c-1.56-1.08-4.93-1-4.93-1H746.15s-3.63.43-4.5,1.9a10.92,10.92,0,0,0-1,4v5.1S744.59,426.79,744.59,429.47Z" transform="translate(-28.33)"/><rect class="cls-1" x="723.22" y="417.04" width="1.17" height="4.01"/><rect class="cls-1" x="723.22" y="424.11" width="1.17" height="4.01"/><rect class="cls-1" x="723.22" y="431.18" width="1.17" height="4.01"/><rect class="cls-1" x="723.22" y="438.25" width="1.17" height="4.01"/><path class="cls-1" d="M735.8,413.57s-1-4.41,1.27-6.68,23.08-13.62,23.08-13.62,16.77-10.18,20.55-10.18,6.44,4.75,6.44,4.75l3.15,5.68s-4.29,2.31-2.52,4.81,5,0,5,0,4.89,7.68,4.89,10.32-.64,4.54-1.64,4.42a2.09,2.09,0,0,1-1.47-1.19s1.56-4.11,0-6.51-2.82-4.16-2.82-4.16a6.15,6.15,0,0,1-5.8-1.64c-2.59-2.58,1.64-6.56,1.64-6.56L785,388.47s-2-3-4.39-3-11.85,5-11.85,5l-21.16,11.78s-8.05,4.32-9.25,6.22a6.81,6.81,0,0,0-.68,4.44Z" transform="translate(-28.33)"/><polygon class="cls-1" points="718.64 406.07 720.7 409.92 722.34 408.87 720.07 405.19 718.64 406.07"/></g><g id="レイヤー_59" data-name="レイヤー 59"><polygon class="cls-18" points="855.5 369.05 898.8 394.05 898.8 444.05 855.5 469.05 812.2 444.05 812.2 394.05 855.5 369.05"/></g><g id="レイヤー_60" data-name="レイヤー 60"><path class="cls-1" d="M898.17,408.05l4.92,5.14s8.25-12.95,0-21.19-17.44-5.46-22.9,0-15.63,14.13-15.63,21.19,6.21,16.48,15.42,16.48,12.2-6.2,12.2-6.2L887.9,419s-7.92,6.14-13.06,1-.64-11.8-.64-11.8l12-12.17a8.06,8.06,0,0,1,5.57-2.36c3.42,0,8.35,4.93,8.35,8.35A11,11,0,0,1,898.17,408.05Z" transform="translate(-28.33)"/><path class="cls-1" d="M868.88,429.67l-4.32-5.09a19.65,19.65,0,0,0-3.89,11.3c0,6.5,5.3,15,14.55,15s27.56-20,27.56-27.49-6.85-15.14-15.75-15.14c-6.85,0-11.47,6.93-11.47,6.93l3.42,3.66s5.48-4,8.39-4,8.39,3.6,8.39,8.56-15.24,20.37-20,20.37S863.6,435,868.88,429.67Z" transform="translate(-28.33)"/></g><g id="レイヤー_61" data-name="レイヤー 61"><polygon class="cls-18" points="970.5 369.47 1013.8 394.47 1013.8 444.47 970.5 469.47 927.2 444.47 927.2 394.47 970.5 369.47"/></g><g id="レイヤー_62" data-name="レイヤー 62"><polygon class="cls-19" points="946.51 401.29 946.51 436.73 968.7 436.73 989.97 449.76 989.97 387.92 968.24 401.29 946.51 401.29"/><polyline class="cls-1" points="964.9 401.04 964.9 436.47 964.9 401.04 969.98 400.65 969.76 437.54 964.9 436.47"/></g><g id="レイヤー_63" data-name="レイヤー 63"><polygon class="cls-18" points="1085.5 369.47 1128.8 394.47 1128.8 444.47 1085.5 469.47 1042.2 444.47 1042.2 394.47 1085.5 369.47"/></g><g id="レイヤー_64" data-name="レイヤー 64"><path class="cls-1" d="M1093.68,416.43H1089s-1,12.83,6.79,20.63,14.55,7.59,14.55,7.59v12.42h6.9V444.73s7.81-.64,15.15-8,6.26-20.32,6.26-20.32h-4.5s2.13,23.81-20.32,23.81S1093.68,416.43,1093.68,416.43Z" transform="translate(-28.33)"/><path class="cls-1" d="M1113.83,432.33c12.91,0,12.91-11.39,12.91-11.39V396.11s.66-11.29-12.91-11.29-12.67,12.2-12.67,12.2v23.92S1100.92,432.33,1113.83,432.33Z" transform="translate(-28.33)"/><path class="cls-15" d="M1114,389.78c6.45,0,7.81,5,7.81,8.14v24.47c0,2.92-4.09,6.09-7.93,6.09s-8.14-5.11-8.14-7.54V398.15C1105.69,394.3,1107.73,389.78,1114,389.78Z" transform="translate(-28.33)"/></g><g id="レイヤー_65" data-name="レイヤー 65"><polygon class="cls-18" points="50.75 509.61 94.05 534.61 94.05 584.61 50.75 609.61 7.45 584.61 7.45 534.61 50.75 509.61"/></g><g id="レイヤー_66" data-name="レイヤー 66"><polygon class="cls-1" points="20.43 556.33 42.71 571.08 83.36 531.94 44.52 591.26 20.43 556.33"/></g><g id="レイヤー_67" data-name="レイヤー 67"><polygon class="cls-18" points="166.2 509.61 209.5 534.61 209.5 584.61 166.2 609.61 122.9 584.61 122.9 534.61 166.2 509.61"/></g><g id="レイヤー_68" data-name="レイヤー 68"><path class="cls-1" d="M194.09,586.26,203.6,577s-2.58-4-9.51-4-9.72,3.85-9.72,3.85Z" transform="translate(-28.33)"/><path class="cls-1" d="M194,557.43c12.06,0,16.61,12.41,21.33,7.69s-9.75-14.68-21.22-14.68-25.88,9.52-21.78,13.63S181.93,557.43,194,557.43Z" transform="translate(-28.33)"/><path class="cls-1" d="M193.32,533c16,0,40,13.46,34.92,18.52S216,539.43,194,539.43s-29.32,17.57-33.9,13S174.82,533,193.32,533Z" transform="translate(-28.33)"/></g><g id="レイヤー_69" data-name="レイヤー 69"><polygon class="cls-18" points="280.5 509.61 323.8 534.61 323.8 584.61 280.5 609.61 237.2 584.61 237.2 534.61 280.5 509.61"/></g><g id="レイヤー_70" data-name="レイヤー 70"><path class="cls-1" d="M283.1,535.42c1.64-1.64,6.73,3.76,6.73,3.76l19,18.63,19.8-19.72s4-4.71,5.48-3.23-2.35,5.73-2.35,5.73l-19.88,20.2,20.82,20.5s3.28,3.73,1.8,4.7-4.62-2-4.62-2l-20.79-20.2L289.51,584s-4.13,4.28-5.79,2.61,2.82-5.59,2.82-5.59l20-20.23-20.2-19.22S281.45,537.07,283.1,535.42Z" transform="translate(-28.33)"/></g><g id="レイヤー_71" data-name="レイヤー 71"><polygon class="cls-18" points="395.5 509.61 438.8 534.61 438.8 584.61 395.5 609.61 352.2 584.61 352.2 534.61 395.5 509.61"/></g><g id="レイヤー_72" data-name="レイヤー 72"><circle class="cls-1" cx="412.05" cy="541.3" r="10.49"/><circle class="cls-1" cx="412.97" cy="578.09" r="10.49"/><circle class="cls-1" cx="372.35" cy="559.7" r="10.49"/><polygon class="cls-1" points="402.26 545.07 381.93 555.4 382.52 557.1 403.09 546.76 402.26 545.07"/><polygon class="cls-1" points="382.54 562.2 403.81 572.96 403.09 574.91 381.93 564 382.54 562.2"/></g><g id="レイヤー_73" data-name="レイヤー 73"><polygon class="cls-18" points="510.5 509.7 553.8 534.7 553.8 584.7 510.5 609.7 467.2 584.7 467.2 534.7 510.5 509.7"/></g><g id="レイヤー_74" data-name="レイヤー 74"><polygon class="cls-1" points="510.24 525.44 518.08 549.56 543.44 549.56 522.92 564.46 530.76 588.59 510.24 573.68 489.72 588.59 497.56 564.46 477.04 549.56 502.4 549.56 510.24 525.44"/></g><g id="レイヤー_75" data-name="レイヤー 75"><polygon class="cls-18" points="625.72 508.31 669.02 533.31 669.02 583.31 625.72 608.31 582.42 583.31 582.42 533.31 625.72 508.31"/></g><g id="レイヤー_76" data-name="レイヤー 76"><rect class="cls-1" x="595.46" y="541.92" width="60.12" height="33.22"/><rect class="cls-15" x="598.03" y="544.27" width="55.95" height="28.24"/><rect class="cls-1" x="599.99" y="546.6" width="51.65" height="24.31"/><polygon class="cls-15" points="626.09 548.92 618.58 560.36 624.12 560.36 623.24 568.08 630.67 556.51 625.14 556.51 626.09 548.92"/><rect class="cls-1" x="656.61" y="553.82" width="3.94" height="9.15"/></g><g id="レイヤー_77" data-name="レイヤー 77"><polygon class="cls-18" points="740.5 509.61 783.8 534.61 783.8 584.61 740.5 609.61 697.2 584.61 697.2 534.61 740.5 509.61"/></g><g id="レイヤー_78" data-name="レイヤー 78"><polygon class="cls-1" points="735.43 534.27 737.48 557.09 714.65 554.42 724.06 545.01 710.21 531.16 712.61 528.76 726.85 543 735.43 534.27"/><polygon class="cls-1" points="745.57 584.96 743.52 562.13 766.35 564.81 756.94 574.21 770.79 588.07 768.39 590.47 754.15 576.22 745.57 584.96"/></g><g id="レイヤー_79" data-name="レイヤー 79"><polygon class="cls-18" points="855.5 509.71 898.8 534.71 898.8 584.71 855.5 609.71 812.2 584.71 812.2 534.71 855.5 509.71"/></g><g id="レイヤー_80" data-name="レイヤー 80"><polygon class="cls-1" points="830.27 554.1 828.23 531.27 851.05 533.95 841.65 543.36 855.5 557.21 853.1 559.61 838.85 545.37 830.27 554.1"/><polygon class="cls-1" points="880.73 565.22 882.77 588.05 859.95 585.37 869.35 575.97 855.5 562.12 857.9 559.71 872.15 573.96 880.73 565.22"/></g><g id="レイヤー_81" data-name="レイヤー 81"><polygon class="cls-18" points="970.5 509.92 1013.8 534.92 1013.8 584.92 970.5 609.92 927.2 584.92 927.2 534.92 970.5 509.92"/></g><g id="レイヤー_82" data-name="レイヤー 82"><path class="cls-1" d="M988.29,533.75l16.45-8.76v7.2s11.24,1.82,16.46,12,2.35,23.77,2.35,23.77l-4.73-1.82s4.21-11.12-2.06-19.67-12.06-9.29-12.06-9.29v6.6Z" transform="translate(-28.33)"/><path class="cls-1" d="M1009.37,581.83l-16.45,8.77v-7.2s-11.24-1.83-16.46-12-2.35-23.77-2.35-23.77l4.73,1.83s-4.21,11.11,2.06,19.66S993,578.39,993,578.39V571.8Z" transform="translate(-28.33)"/></g><g id="レイヤー_83" data-name="レイヤー 83"><polygon class="cls-18" points="1086.11 509.92 1129.41 534.92 1129.41 584.92 1086.11 609.92 1042.81 584.92 1042.81 534.92 1086.11 509.92"/></g><g id="レイヤー_84" data-name="レイヤー 84"><rect class="cls-18" x="1059.97" y="550.13" width="52.25" height="35.69"/><circle class="cls-18" cx="1086.1" cy="559.61" r="5.03"/><polyline class="cls-1" points="1084.92 564.5 1084.92 572.17 1087.38 572.17 1087.38 564.64"/><path class="cls-18" d="M1114.48,529c17.81,0,20.85,21.16,20.85,21.16h-40.77S1096.66,529,1114.48,529Z" transform="translate(-28.33)"/></g><g id="レイヤー_85" data-name="レイヤー 85"><polygon class="cls-18" points="50.5 650.38 93.8 675.38 93.8 725.38 50.5 750.38 7.2 725.38 7.2 675.38 50.5 650.38"/></g><g id="レイヤー_86" data-name="レイヤー 86"><path class="cls-1" d="M44.88,685.75v31.64c0,5.82,3.63,7.8,9.46,7.8h49.11c7,0,9.83-1.35,9.83-9.26V685.75c0-2.9-2.13-7.07-9.31-7.07H99.6c-2,0-2-.21-3.33-3.23s-1.56-6.76-10.09-6.76H70.78c-5.93,0-7.39,2.91-8.32,5.51s-.94,4.48-4.38,4.48H51.63C48,678.68,44.88,682.11,44.88,685.75Z" transform="translate(-28.33)"/><circle class="cls-15" cx="50.75" cy="700.97" r="15.92"/><circle class="cls-1" cx="50.75" cy="700.97" r="11.87"/><circle class="cls-15" cx="50.75" cy="700.84" r="7.41"/><rect class="cls-15" x="73.55" y="686.52" width="4.73" height="4.86"/></g><g id="レイヤー_87" data-name="レイヤー 87"><polygon class="cls-18" points="165.5 650.78 208.8 675.78 208.8 725.78 165.5 750.78 122.2 725.78 122.2 675.78 165.5 650.78"/></g><g id="レイヤー_88" data-name="レイヤー 88"><rect class="cls-18" x="134.85" y="684.23" width="36" height="32.31"/><polygon class="cls-18" points="195.69 681.8 195.69 718.96 176.21 705.56 176.21 695.63 195.69 681.8"/></g><g id="レイヤー_89" data-name="レイヤー 89"><polygon class="cls-18" points="280.5 650.38 323.8 675.38 323.8 725.38 280.5 750.38 237.2 725.38 237.2 675.38 280.5 650.38"/></g><g id="レイヤー_90" data-name="レイヤー 90"><circle class="cls-18" cx="281.17" cy="700" r="39.1"/><polyline class="cls-18" points="248.16 679.05 280.58 679.05 314.18 679.05"/><line class="cls-18" x1="242.24" y1="701.84" x2="320.44" y2="701.84"/><polyline class="cls-18" points="249.41 722.8 281.05 722.52 314.18 721.9"/><path class="cls-18" d="M309.5,660.9S282,666.21,282,700s26.85,39.09,26.85,39.09" transform="translate(-28.33)"/><path class="cls-18" d="M309.5,660.9s27.77,7.76,27.77,39.09-27.77,39.1-27.77,39.1" transform="translate(-28.33)"/><line class="cls-18" x1="280.5" y1="660.9" x2="280.5" y2="739.09"/></g><g id="レイヤー_91" data-name="レイヤー 91"><polygon class="cls-18" points="396.5 650 439.8 675 439.8 725 396.5 750 353.2 725 353.2 675 396.5 650"/></g><g id="レイヤー_92" data-name="レイヤー 92"><path class="cls-1" d="M424.86,732.59c7.55,0,8.94-7.06,8.94-7.06h-18S416.53,732.59,424.86,732.59Z" transform="translate(-28.33)"/><path class="cls-1" d="M424.86,667.3c5.68,0,4.92,5.26,5.39,5.26,3.48,0,8.29,4.75,10.33,8,3.54,5.68,2.79,13.26,4.14,20.93,1.2,6.75,8,10.42,8,14.57s-2.46,5.93-6.35,5.93h-43.1c-5.19,0-8.57-5.75-4.73-9.46a27.45,27.45,0,0,0,7.93-19.07c0-7.71.93-16.3,13-20.9C419.52,672.59,419.68,667.3,424.86,667.3Z" transform="translate(-28.33)"/><rect class="cls-15" x="369.74" y="704.34" width="51.18" height="5.53"/></g><g id="レイヤー_93" data-name="レイヤー 93"><polygon class="cls-18" points="510.24 650.38 553.54 675.38 553.54 725.38 510.24 750.38 466.94 725.38 466.94 675.38 510.24 650.38"/></g><g id="レイヤー_94" data-name="レイヤー 94"><path class="cls-1" d="M533,705.92v27.86c0,3.29,2,2.29,4.06,0,2.9-3.27,6.74-7.61,7.17-8s.4-1.54.4-5.08V705.92S565.88,682.13,568,680s2.15-5.25-2-5.25H511.93c-4.19,0-5.12,2.3-1.21,6.49S533,705.92,533,705.92Z" transform="translate(-28.33)"/></g><g id="レイヤー_95" data-name="レイヤー 95"><polygon class="cls-18" points="624.63 650 667.93 675 667.93 725 624.63 750 581.32 725 581.32 675 624.63 650"/></g><g id="レイヤー_96" data-name="レイヤー 96"><path class="cls-1" d="M623.09,706.33V719c0,4.57,1.6,5.6,6.51,5.6h36.78c4.45,0,6-1,6-4.23v-6.16h6.51c2.06,0,3.89-1.26,3.89-4.92V680.41c0-3.89-1-5-5.49-5H638.51c-3.32,0-4.91,1.26-4.91,3.88v6.4h-6.17c-2.63,0-4.34,1.48-4.34,5.14Z" transform="translate(-28.33)"/><path class="cls-15" d="M633.61,692.22v17.84c0,2.75.88,4.18,4.73,4.18H666v2.16c0,1.29-.25,1.72-2.23,1.72H632c-2,0-2.49-.26-2.49-3.09V694.81c0-1.54.6-2.59,1.72-2.59Z" transform="translate(-28.33)"/><path class="cls-15" d="M657.13,681.78h16.11c2.65,0,3.08.17,3.17,3.34s0,19,0,20.66-.6,2-2.15,2H642.81c-2.31,0-2.82.17-2.82-3.51V684.78c0-2.62.68-3,4.2-3Z" transform="translate(-28.33)"/></g><g id="レイヤー_97" data-name="レイヤー 97"><polygon class="cls-18" points="740.44 650 783.74 675 783.74 725 740.44 750 697.14 725 697.14 675 740.44 650"/></g><g id="レイヤー_98" data-name="レイヤー 98"><path class="cls-1" d="M740.36,700.11c0-27.79,26.27-29.94,32.24-29.94s15,1.89,18,4.84l-2.86,8.87s-5.34-3.63-15.54-3.63S752,686.8,752,700.11s9.25,20.47,19.74,20.47,16.11-3.72,16.11-3.72l2.67,8.78s-6,5-20.6,5C757.57,730.59,740.36,724.84,740.36,700.11Z" transform="translate(-28.33)"/></g><g id="レイヤー_99" data-name="レイヤー 99"><polygon class="cls-18" points="855.5 650.38 898.8 675.38 898.8 725.38 855.5 750.38 812.2 725.38 812.2 675.38 855.5 650.38"/></g><g id="レイヤー_100" data-name="レイヤー 100"><path class="cls-1" d="M881,690.34l-7.62,4.11s-2.06-4.73-6.9-4.73-7.52,4.1-7.52,10.34,3.3,10.25,7.62,10.25a7.68,7.68,0,0,0,7.46-4.94l7.18,3.54s-4.25,9.28-15,9.28-17.66-7-17.66-18.13S856,681.8,865.62,681.8C877.2,681.8,881,690.34,881,690.34Z" transform="translate(-28.33)"/><path class="cls-1" d="M918.87,690.34l-7.62,4.11s-2.06-4.73-6.9-4.73-7.51,4.1-7.51,10.34,3.29,10.25,7.61,10.25a7.68,7.68,0,0,0,7.47-4.94l7.18,3.54s-4.26,9.28-15,9.28-17.66-7-17.66-18.13,7.38-18.26,17.06-18.26C915,681.8,918.87,690.34,918.87,690.34Z" transform="translate(-28.33)"/></g><g id="レイヤー_101" data-name="レイヤー 101"><polygon class="cls-18" points="969.98 650.38 1013.28 675.38 1013.28 725.38 969.98 750.38 926.68 725.38 926.68 675.38 969.98 650.38"/></g><g id="レイヤー_102" data-name="レイヤー 102"><circle class="cls-1" cx="970.71" cy="674.71" r="7.09"/><path class="cls-1" d="M991.2,708.32v24h15.65v-24h5.65V689.48c0-3-.73-5.07-4.49-5.07H989.89c-3.07,0-4.44,1.54-4.44,4.38v19.6Z" transform="translate(-28.33)"/></g><g id="レイヤー_103" data-name="レイヤー 103"><polygon class="cls-18" points="1086.61 650.38 1129.91 675.38 1129.91 725.38 1086.61 750.38 1043.31 725.38 1043.31 675.38 1086.61 650.38"/></g><g id="レイヤー_104" data-name="レイヤー 104"><path class="cls-21" d="M1110.89,667.5h8.47v7.28s9.19,1.08,11.34,3l-2.51,8.23a23.28,23.28,0,0,0-11.22-2.86c-6.56,0-10,6.44-5,8.83s20.88,7.16,20.88,17.9c0,12.17-14.33,14.79-14.33,14.79v8.6h-8.46v-8.12s-10.5-1.07-13-3.34l2.51-8.35s6.21,3.34,12.53,3.34,8.59-3,8.59-6.09-4.65-5.61-9-7.16-14.08-4.77-14.08-14.68,13.13-13.12,13.13-13.12Z" transform="translate(-28.33)"/><polygon class="cls-21" points="1049.13 672.02 1129.91 717.04 1129.91 725.38 1121.96 729.97 1043.31 684.41 1043.31 675.38 1049.13 672.02"/></g></svg>