<svg xmlns="http://www.w3.org/2000/svg" viewBox="0 0 1170 822.52"><defs><style>.cls-1,.cls-2,.cls-3,.cls-4,.cls-45,.cls-46,.cls-6{fill:#231815;}.cls-2{font-size:19px;}.cls-2,.cls-3,.cls-6{font-family:KozGoPro-Medium-90ms-RKSJ-H, Kozuka Gothic Pro;}.cls-3{font-size:16px;}.cls-4,.cls-6{font-size:13px;}.cls-4{font-family:KozGoPro-Bold-90ms-RKSJ-H, Kozuka Gothic Pro;}.cls-5{letter-spacing:-0.5em;}.cls-10,.cls-12,.cls-15,.cls-16,.cls-18,.cls-19,.cls-20,.cls-25,.cls-26,.cls-27,.cls-28,.cls-29,.cls-30,.cls-36,.cls-37,.cls-38,.cls-39,.cls-7{fill:none;}.cls-7{stroke:#dcdddd;}.cls-13,.cls-15,.cls-16,.cls-17,.cls-18,.cls-21,.cls-22,.cls-23,.cls-24,.cls-25,.cls-28,.cls-31,.cls-33,.cls-34,.cls-39,.cls-40,.cls-41,.cls-42,.cls-43,.cls-44,.cls-7{stroke-miterlimit:10;}.cls-8{font-size:24px;font-family:KozGoPro-Heavy-90ms-RKSJ-H, Kozuka Gothic Pro;}.cls-8,.cls-9{fill:#fff;}.cls-10,.cls-19,.cls-26,.cls-29,.cls-36{stroke:#f8b862;stroke-width:14.17px;}.cls-10,.cls-12,.cls-19,.cls-20,.cls-26,.cls-27,.cls-29,.cls-30,.cls-31,.cls-36,.cls-37{stroke-linecap:round;}.cls-10,.cls-12,.cls-19,.cls-20,.cls-26,.cls-27,.cls-29,.cls-30,.cls-32,.cls-35,.cls-36,.cls-37,.cls-38{stroke-linejoin:round;}.cls-10,.cls-12{stroke-dasharray:0 8.62;}.cls-11,.cls-13,.cls-31,.cls-32,.cls-33,.cls-34,.cls-35,.cls-41{fill:#fcd697;}.cls-12,.cls-20,.cls-27,.cls-30,.cls-37,.cls-40,.cls-41{stroke:#fcd697;}.cls-12,.cls-20,.cls-27,.cls-30,.cls-37{stroke-width:11.34px;}.cls-13,.cls-15,.cls-16,.cls-17,.cls-18,.cls-21,.cls-22,.cls-23,.cls-24,.cls-25,.cls-31,.cls-32,.cls-33,.cls-34,.cls-35,.cls-38,.cls-39,.cls-42,.cls-43,.cls-44{stroke:#b5782c;}.cls-13,.cls-15,.cls-21,.cls-31,.cls-32,.cls-38,.cls-40,.cls-41{stroke-width:5.67px;}.cls-14,.cls-17,.cls-21,.cls-22,.cls-23,.cls-24,.cls-40,.cls-42,.cls-43,.cls-44{fill:#b5782c;}.cls-18,.cls-34,.cls-35{stroke-width:2.83px;}.cls-19,.cls-20{stroke-dasharray:0 8.62;}.cls-22{font-size:67.62px;}.cls-22,.cls-23,.cls-42,.cls-43,.cls-44,.cls-45{font-family:KozGoPro-Regular-90ms-RKSJ-H, Kozuka Gothic Pro;}.cls-23{font-size:51px;}.cls-24{font-size:54.18px;}.cls-24,.cls-46{font-family:KozGoPr6N-Regular-90ms-RKSJ-H, Kozuka Gothic Pr6N;}.cls-25,.cls-28{stroke-width:5.67px;}.cls-26,.cls-27{stroke-dasharray:0 8.62;}.cls-28{stroke:#bb7a2a;}.cls-29,.cls-30{stroke-dasharray:0 8.62;}.cls-33,.cls-39{stroke-width:8.5px;}.cls-36,.cls-37{stroke-dasharray:0 8.58;}.cls-42{font-size:70.92px;}.cls-43{font-size:79.74px;}.cls-44{font-size:53.1px;}.cls-45,.cls-46{font-size:12px;}</style></defs><g id="テンプレート"><path class="cls-1" d="M29,0V55.41a12,12,0,0,0,12,12H413.83a12,12,0,0,0,12-12V0Z" transform="translate(-0.83)"/><text class="cls-2" transform="translate(959.45 46.3)">www.design-icon.com</text><text class="cls-3" transform="translate(446.47 55.3)">DESIGNER : 関一駿</text><text class="cls-4" transform="translate(833 817.27)">利用規約：個人、商用、すべてフリーでご利用ください<tspan class="cls-5" x="325" y="0">。</tspan></text><text class="cls-6" transform="translate(446.47 30.16)">サイズ：100 x 100 px</text><rect class="cls-7" x="28" y="87.3" width="100" height="100"/><rect class="cls-7" x="143" y="87.3" width="100" height="100"/><rect class="cls-7" x="258" y="87.3" width="100" height="100"/><rect class="cls-7" x="373" y="87.3" width="100" height="100"/><rect class="cls-7" x="488" y="87.3" width="100" height="100"/><rect class="cls-7" x="603" y="87.3" width="100" height="100"/><rect class="cls-7" x="718" y="87.3" width="100" height="100"/><rect class="cls-7" x="833" y="87.3" width="100" height="100"/><rect class="cls-7" x="948" y="87.3" width="100" height="100"/><rect class="cls-7" x="1063" y="87.3" width="100" height="100"/><rect class="cls-7" x="28" y="228.07" width="100" height="100"/><rect class="cls-7" x="143" y="228.07" width="100" height="100"/><rect class="cls-7" x="258" y="228.07" width="100" height="100"/><rect class="cls-7" x="373" y="228.07" width="100" height="100"/><rect class="cls-7" x="488" y="228.07" width="100" height="100"/><rect class="cls-7" x="603" y="228.07" width="100" height="100"/><rect class="cls-7" x="718" y="228.07" width="100" height="100"/><rect class="cls-7" x="833" y="228.07" width="100" height="100"/><rect class="cls-7" x="948" y="228.07" width="100" height="100"/><rect class="cls-7" x="1063" y="228.07" width="100" height="100"/><rect class="cls-7" x="28" y="368.84" width="100" height="100"/><rect class="cls-7" x="143" y="368.84" width="100" height="100"/><rect class="cls-7" x="258" y="368.84" width="100" height="100"/><rect class="cls-7" x="373" y="368.84" width="100" height="100"/><rect class="cls-7" x="488" y="368.84" width="100" height="100"/><rect class="cls-7" x="603" y="368.84" width="100" height="100"/><rect class="cls-7" x="718" y="368.84" width="100" height="100"/><rect class="cls-7" x="833" y="368.84" width="100" height="100"/><rect class="cls-7" x="948" y="368.84" width="100" height="100"/><rect class="cls-7" x="1063" y="368.84" width="100" height="100"/><rect class="cls-7" x="28" y="509.61" width="100" height="100"/><rect class="cls-7" x="143" y="509.61" width="100" height="100"/><rect class="cls-7" x="258" y="509.61" width="100" height="100"/><rect class="cls-7" x="373" y="509.61" width="100" height="100"/><rect class="cls-7" x="488" y="509.61" width="100" height="100"/><rect class="cls-7" x="603" y="509.61" width="100" height="100"/><rect class="cls-7" x="718" y="509.61" width="100" height="100"/><rect class="cls-7" x="833" y="509.61" width="100" height="100"/><rect class="cls-7" x="948" y="509.61" width="100" height="100"/><rect class="cls-7" x="1063" y="509.61" width="100" height="100"/><rect class="cls-7" x="28" y="650.38" width="100" height="100"/><rect class="cls-7" x="143" y="650.38" width="100" height="100"/><rect class="cls-7" x="258" y="650.38" width="100" height="100"/><rect class="cls-7" x="373" y="650.38" width="100" height="100"/><rect class="cls-7" x="488" y="650.38" width="100" height="100"/><rect class="cls-7" x="603" y="650.38" width="100" height="100"/><rect class="cls-7" x="718" y="650.38" width="100" height="100"/><rect class="cls-7" x="833" y="650.38" width="100" height="100"/><rect class="cls-7" x="948" y="650.38" width="100" height="100"/><rect class="cls-7" x="1063" y="650.38" width="100" height="100"/><text class="cls-8" transform="translate(105.88 43.3)">ビスケット風アイコン</text><circle class="cls-9" cx="68.27" cy="34.22" r="16.05" transform="translate(-8.73 28.73) rotate(-22.5)"/></g><g id="アイコンフレーム"><circle class="cls-10" cx="1112.85" cy="278.41" r="42.52"/><circle class="cls-11" cx="1112" cy="276.71" r="42.52"/><circle class="cls-12" cx="1112" cy="276.71" r="42.52"/><rect class="cls-13" x="1082.76" y="255.16" width="51.06" height="43.1"/><path class="cls-13" d="M1123.55,275.56" transform="translate(-0.83)"/><polygon class="cls-13" points="1115.52 275.56 1146.88 293.67 1146.88 257.46 1115.52 275.56"/><path class="cls-14" d="M1085.93,261.8l9.26,2.22,4.46,1.07a20,20,0,0,0,4.46.76c.18,0,1.91-.4,1.55-.7a16.77,16.77,0,0,0-7.6-3.47,2.39,2.39,0,0,0-1.34.25c-.15.07-.68.39-.25.46a16.17,16.17,0,0,1,7.36,3.41l1.55-.7a20.18,20.18,0,0,1-4.48-.81l-4.46-1.07-8.91-2.14a2.27,2.27,0,0,0-1.35.26c-.16.08-.66.36-.25.46Z" transform="translate(-0.83)"/><path class="cls-14" d="M1106.2,264.87c5.26,2.33,10.27,3.95,16.09,3,2.69-.45,16-3.41,13.56-8.54-1.76-3.73-11.21-2.25-14.4-2.34a148.88,148.88,0,0,1-20-1.76,24.68,24.68,0,0,0-12.33,1.6c-2.08.77-7.11,2.54-6.86,5.4a102,102,0,0,1,0,18.9c-.32,3.31-3.26,12.1.11,14.67,2.08,1.59,6,.93,8.39.88,2.72-.07,5.43-.1,8.15-.09a164,164,0,0,1,18.81.71l-3.12-.8.3-.11,21-4.64a217.39,217.39,0,0,0-.27-31.67c-.24-3-8.85-1.21-10-.94-3.57.8-8.93,2.14-10.92,5.57-4.26,7.37-3.29,17.32-8.66,24l20.13-3.52a42.11,42.11,0,0,1-2.84-16c.07-4.77-19.31,1.09-21,4.64q-1.69,3.65-3.4,7.29l20.84-3.62q.88-6.06,2.11-12.05c1.06-5.24-19.1-1.33-20.84,3.62l-1.89,5.37,21-4.64a41.82,41.82,0,0,1,.91-4.72c1.24-5.06-18.91-1.3-20.83,3.62l-.66,1.67,19.06-6a14.11,14.11,0,0,1-4.62-3c-3.46-3.1-19.17.8-20.35,5.45a69.07,69.07,0,0,0-1.94,22.64c.33,4.13,21.58.3,21.1-5.65a62.21,62.21,0,0,1,1.68-20.61l-20.34,5.45a20.89,20.89,0,0,0,7.19,4.09c4.33,1.57,17.12-1,19.06-6l.65-1.68-20.83,3.62a55.21,55.21,0,0,0-1.17,6.76c-.44,3.67,19.39-.18,21-4.64l1.9-5.37L1101,269.06q-1.21,6-2.11,12.05c-.85,5.82,18.82.71,20.84-3.62l3.4-7.29-21,4.63a42.3,42.3,0,0,0,2.84,16c2,5.19,17.86-.7,20.12-3.53,6.25-7.8,5.48-17.83,10.35-26.23l-21,4.63a218.83,218.83,0,0,1,.28,31.67c-.28,4.38,19.3-.82,21-4.63,2.21-5.06-7.29-4.58-9.94-4.71-6.63-.31-13.27-.4-19.9-.31-1.71,0-3.42,0-5.13.09s-1.26.05,1.39.05l-.08-1.7a67.62,67.62,0,0,0,1.09-8.83,103.81,103.81,0,0,0,.19-20.78l-19.19,7a170,170,0,0,0,17,2c5.4.34,11.06-.22,16.39.52l-3.12-.8.55.54,1-2.13-.5.6,11.49-4.78c4,0,4.64-.24,2-.81a24.48,24.48,0,0,1-3-1.12c-4.15-1.84-9.54-.44-13.62,1.07-.85.32-9.7,4.68-6.23,6.22Z" transform="translate(-0.83)"/><path class="cls-14" d="M1127.79,270.69c.25,4.19-1.42,8.2-1.57,12.39l21.1-5.65c0-2.61-.58-6,.08-8.52a8.77,8.77,0,0,1,1.48-2.47,7.33,7.33,0,0,0,1.16-3.54c.14-1.26-3.38-1.54-3.73-1.56a24.31,24.31,0,0,0-7.73,1c-3,.86-9.22,2.4-9.64,6.21-.1.86-1.08,1.73-1.52,2.44a7,7,0,0,0-1.14,3.3,85.89,85.89,0,0,0-.06,8.79c0,3.62,20.88.43,21.1-5.65.15-4.2,1.82-8.14,1.57-12.39-.07-1.29-3.12-1.52-3.73-1.56a24.29,24.29,0,0,0-7.72,1c-2.49.7-9.86,2.56-9.65,6.2Z" transform="translate(-0.83)"/><path class="cls-14" d="M1135.35,283.3c1,1.94,1.94,3.92,2.77,5.95.71,1.75,4.28,1,5.59.59a10.54,10.54,0,0,0,3.44-1.53c.46-.35,1.39-1.09,1.11-1.78q-1.24-3-2.76-5.95c-.9-1.7-4.15-1-5.6-.59a10.4,10.4,0,0,0-3.43,1.53c-.43.32-1.46,1.14-1.12,1.78Z" transform="translate(-0.83)"/><circle class="cls-10" cx="78.88" cy="418.25" r="42.52" transform="translate(-347.14 398.93) rotate(-76.72)"/><circle class="cls-11" cx="77.2" cy="416.55" r="42.52"/><circle class="cls-12" cx="78.03" cy="416.55" r="42.52" transform="matrix(0.23, -0.97, 0.97, 0.23, -346.14, 396.79)"/><circle class="cls-15" cx="79.69" cy="416.81" r="24.05" transform="translate(-345.11 398.61) rotate(-76.72)"/><circle class="cls-15" cx="79.69" cy="416.81" r="11.14" transform="translate(-345.11 398.61) rotate(-76.72)"/><path class="cls-14" d="M71,411.65c1-1.93,2.87-7.18,5.14-7.93l-8.44-5.46a14.63,14.63,0,0,1-1.65,3.37c-5.32,7.2,6.9,8.51,11.16,5.07a7.49,7.49,0,0,1,1.72-1.3q2-1-2.6-.22c2.91,4.74,16.72.55,14.49-5.25a19.46,19.46,0,0,0-4.36-7L75.1,401a10.13,10.13,0,0,1,6.61,5.43c2.56,5.3,12.45,3.51,14.72-1.35a8.92,8.92,0,0,0,1.08-4L83,405c2.58,3.91,5.54,8.11,6.13,12.9.29,2.33.08,6.41-2,7.68-1.48.91-5.53.37-7.24.34-1.39,0-6.53.34-7.54-.62-.57-.54-1.44-4.18-1.73-5.28a27.75,27.75,0,0,1-.92-7.31c0-7.46-15.24-4.91-15.24,1.36,0,7.16,1.11,18.31,9.19,20.9,7.64,2.45,18.75,2.11,26.38.09,7.18-1.91,12.85-7.13,14.23-14.57,1.5-8.09-3.12-15.49-7.39-21.94-2.85-4.32-14.42-1.41-14.56,3.9l-.16,1.3,14.71-1.35a19.67,19.67,0,0,0-12.85-11,11.31,11.31,0,0,0-9.35,1.7c-1.69,1.26-4,4.3-2,6.34A12.67,12.67,0,0,1,75.73,404l14.49-5.25c-4.78-7.79-17.55-2.52-22.83,1.74l11.16,5.07A25.38,25.38,0,0,0,82,399.6c2-5.18-4.63-6.72-8.45-5.46-8.38,2.78-13.08,8.47-16.92,16.18C53,417.67,68.25,417.21,71,411.65Z" transform="translate(-0.83)"/><path class="cls-14" d="M67.51,436.83a11.4,11.4,0,0,1,4.62,1.34l6.45-5c3.74.23,4.53-.14,2.37-1.13L66.74,437.2c9.72,5,23.67,1.7,31.41-5.61,1.83-1.73-.45-2.5-2-2.63A18.25,18.25,0,0,0,86.93,431c-2.84,1.47-5.64,3-8.43,4.54s-1.68,3.21.92,3.43c3.64.31,7.56-1.13,10.68-2.86,1.84-1,3.71-2,5.57-2.95l-11.22-.56c-2.4,2.28-.33-.07.5.57-.75-.58-3-.69-4-1.19-2.81-1.44-7-.23-9.74.79-.84.31-6.76,2.91-4.47,4.4,4,2.63,8.71,1.81,13.14.8.3-.07,9.35-3.54,6.46-5a22.37,22.37,0,0,0-9.07-2.44,18.08,18.08,0,0,0-10.68,2.86c-2.31,1.61-2.1,3.24.92,3.44Z" transform="translate(-0.83)"/><path class="cls-14" d="M83.57,442.25c3.16,0,8-2.44,8.36-5.93.45-3.89-4.08-4.64-6.89-4.64-3.16,0-8,2.44-8.37,5.93-.44,3.89,4.09,4.64,6.9,4.64Z" transform="translate(-0.83)"/><polygon class="cls-16" points="84.05 391.32 72.95 391.32 73.74 384.65 83.27 384.65 84.05 391.32"/><path class="cls-14" d="M77,387.14a6.87,6.87,0,0,0,.4,1.1.4.4,0,0,0,.35.17,1.22,1.22,0,0,0,.33,0,1.59,1.59,0,0,0,.38-.07,1.94,1.94,0,0,0,.66-.28l.13-.11a.25.25,0,0,0,.09-.21,6.44,6.44,0,0,1-.41-1.11.19.19,0,0,0-.12-.11.46.46,0,0,0-.23-.06,1.22,1.22,0,0,0-.33,0,1.59,1.59,0,0,0-.38.07,1.94,1.94,0,0,0-.66.28c-.09.07-.25.18-.21.32Z" transform="translate(-0.83)"/><polygon class="cls-16" points="100.68 402.58 92.24 395.37 97.17 390.81 104.41 397 100.68 402.58"/><polygon class="cls-16" points="56.82 430.38 64.81 438.09 59.61 442.33 52.76 435.71 56.82 430.38"/><polygon class="cls-16" points="65.15 394.9 57.24 402.68 53.13 397.38 59.92 390.7 65.15 394.9"/><polygon class="cls-16" points="93.13 437.94 100.71 429.84 105.04 434.97 98.53 441.92 93.13 437.94"/><polygon class="cls-16" points="73.18 441.79 84.27 441.79 83.49 448.45 73.96 448.45 73.18 441.79"/><polygon class="cls-16" points="53.88 410.41 53.88 421.5 47.21 420.72 47.21 411.19 53.88 410.41"/><polygon class="cls-16" points="103.57 421.5 103.57 410.41 110.24 411.19 110.24 420.72 103.57 421.5"/><path class="cls-14" d="M58.15,392.82l-.2.82c-.08.11-.07.2,0,.27a.39.39,0,0,0,.34.16,2.37,2.37,0,0,0,.65,0,3.85,3.85,0,0,0,.83-.1l.63-.14a7.83,7.83,0,0,0,1.15-.4l.45-.23a1.59,1.59,0,0,0,.52-.44l.21-.83c.07-.11.06-.2,0-.26a.37.37,0,0,0-.34-.17,2.83,2.83,0,0,0-.65,0,4.7,4.7,0,0,0-.83.1l-.62.14a8,8,0,0,0-1.16.41l-.44.22a1.54,1.54,0,0,0-.53.45Z" transform="translate(-0.83)"/><path class="cls-14" d="M60.07,392.2c.71,0,2.06-1.06.76-1.06-.71,0-2.06,1.06-.76,1.06Z" transform="translate(-0.83)"/><path class="cls-14" d="M59.47,392.06v.41a.36.36,0,0,0,.05.25.41.41,0,0,0,.18.21.77.77,0,0,0,.3.11.86.86,0,0,0,.36,0l.26,0a1.5,1.5,0,0,0,.46-.22l.17-.15a.73.73,0,0,0,.18-.35v-.41a.36.36,0,0,0,0-.25.39.39,0,0,0-.18-.2.64.64,0,0,0-.3-.11.85.85,0,0,0-.36,0l-.26.05a1.28,1.28,0,0,0-.46.21l-.17.15a.78.78,0,0,0-.18.35Z" transform="translate(-0.83)"/><path class="cls-14" d="M60.77,392.68c1.1,0,1.49-1.4.18-1.4-1.1,0-1.49,1.4-.18,1.4Z" transform="translate(-0.83)"/><path class="cls-14" d="M56.65,393.35c-1.2,1.2-4,3.75-2.53,5.56a5.76,5.76,0,0,0,1.26,1c.16.11.49.53.37.26s0,.62,0,.73a2.71,2.71,0,0,0,1.14,1.42c1.5,1,3.92.49,5.29-.51s1.88-2.51.46-3.61a4.25,4.25,0,0,1-.69-.71c-1.14-1.37-3.57-1.17-5-.44-1.16.59-3,2.18-1.81,3.62a11.4,11.4,0,0,0,1.75,1.65l5.75-4.12c.4.58.55.63.44.16a1.66,1.66,0,0,0-.14-.54,3.18,3.18,0,0,0-.62-1,6.69,6.69,0,0,0-1-.83l-.5-.33c-.31-.21-.33-.22-.05,0L61,397.5a7.84,7.84,0,0,1,1.84-2.19,2,2,0,0,0-.9-3.37,5.4,5.4,0,0,0-5.24,1.41Z" transform="translate(-0.83)"/><path class="cls-14" d="M63.52,397.41l1.13-1.12c.4-.4.9-1,.73-1.61s-.9-.93-1.43-1a6.17,6.17,0,0,0-2.77.15,5.85,5.85,0,0,0-2.47,1.25l-1.13,1.13c-.4.4-.9,1-.73,1.61s.9.93,1.44,1a6,6,0,0,0,2.76-.16,5.63,5.63,0,0,0,2.47-1.25Z" transform="translate(-0.83)"/><path class="cls-14" d="M56.73,395.28A8.53,8.53,0,0,0,59.06,397c1.45.71,3.37.31,4.81-.27.73-.3,3.1-1.29,2.14-2.37a12.51,12.51,0,0,0-2.31-2,3.26,3.26,0,0,0-1.92-.35,9.22,9.22,0,0,0-2.89.62c-.46.19-3.35,1.55-2.14,2.37a12.15,12.15,0,0,1,2.31,2l7-2.64a8.33,8.33,0,0,1-2.33-1.72c-.38-.4-1.47-.37-1.92-.35a9.22,9.22,0,0,0-2.89.62c-.69.28-3.14,1.32-2.14,2.37Z" transform="translate(-0.83)"/><path class="cls-14" d="M51.35,410.9l-.11,0,1-.2-.17,0,.94-.06h-.11l.82.07a.78.78,0,0,1-.21,0l.67.21a1.15,1.15,0,0,1-.25-.12l.49.33-.09-.07a1.62,1.62,0,0,0-.82-.42,2.85,2.85,0,0,0-1.16-.18,5.34,5.34,0,0,0-1.44.15,6.5,6.5,0,0,0-1.47.43l-.83.42a3.69,3.69,0,0,0-1.16,1l-.26.53a.93.93,0,0,0,.25.94,3.3,3.3,0,0,0,.72.47,4.43,4.43,0,0,0,.44.14,3.79,3.79,0,0,0,.48.14,7.41,7.41,0,0,0,1.94,0l.17,0a8,8,0,0,0,1.1-.23,6.71,6.71,0,0,0,2.48-1.23,1.72,1.72,0,0,0,.62-.77.92.92,0,0,0,.13-.78l-.26-.43a2.17,2.17,0,0,0-1.16-.53,5.86,5.86,0,0,0-2.76.18Z" transform="translate(-0.83)"/><path class="cls-14" d="M51.23,414.54c1.4,0,4.29-.49,4.88-2.05s-.48-2.25-2-2.25c-1.4,0-4.29.48-4.88,2s.48,2.26,2,2.26Z" transform="translate(-0.83)"/><path class="cls-14" d="M49.44,414.05c2.62,0,7.92-3.94,3-3.94-2.63,0-7.92,3.94-3,3.94Z" transform="translate(-0.83)"/><path class="cls-14" d="M48.78,412.39c1.11,0,1.47-1.44.16-1.44-1.11,0-1.47,1.44-.16,1.44Z" transform="translate(-0.83)"/><path class="cls-14" d="M49.3,412.63c.36,0,1.13-.13,1.28-.53s-.13-.57-.52-.57-1.13.13-1.28.53.13.57.52.57Z" transform="translate(-0.83)"/><path class="cls-14" d="M56,417.25c-.52-.16-1-.28-1.57-.39a1.86,1.86,0,0,0,.06-.34c0-.55,0-1.1,0-1.65a2.31,2.31,0,0,0-2.73-2.08,5.15,5.15,0,0,0-1.54.43,1.46,1.46,0,0,0-.79-.26,2.18,2.18,0,0,0-.75.15,1.83,1.83,0,0,0-.32.14.46.46,0,0,0-.17.14c-.12.42-.25.83-.35,1.25a1.63,1.63,0,0,0,0,1.15.84.84,0,0,0,.25.28,1.46,1.46,0,0,0,0,.22v1.39c0,.09,0,.24,0,.36a1.92,1.92,0,0,0-.35,1.6c.3,1.13,1.64,1.54,2.68,1.49a6.14,6.14,0,0,1,2.32.23,3.83,3.83,0,0,0,4.1-1.1A1.86,1.86,0,0,0,56,417.25Z" transform="translate(-0.83)"/><path class="cls-14" d="M55.15,433.68a4.34,4.34,0,0,1,1.09,1.09l-.23-.33.09.14c.69,1.08,2.54.73,3.58.51a8.62,8.62,0,0,0,2.32-.8c.49-.27,1.34-.69,1.48-1.29a7,7,0,0,0-.32-3.06c-.12-.51-1-.65-1.35-.69a8.87,8.87,0,0,0-5.24,1.4c-.37.29-1,.72-.82,1.27a11.26,11.26,0,0,1,.41,2.28l0-.4a1.69,1.69,0,0,1-.07.38l7.38-1.58A5.33,5.33,0,0,0,62.1,431a3.23,3.23,0,0,0-1.93-.37,9,9,0,0,0-2.89.62c-.49.2-3.33,1.54-2.13,2.41Z" transform="translate(-0.83)"/><path class="cls-14" d="M57.54,436.4a10.7,10.7,0,0,0,1.52,1.84,12.35,12.35,0,0,0,1.07.84l.4.3a1.58,1.58,0,0,1-.52-.51L62,434a6.53,6.53,0,0,0-2.08.77,5.13,5.13,0,0,0-1,.83,7.76,7.76,0,0,0-.65.86c-.3.49-.08.32.66-.52a3.41,3.41,0,0,0-1.19,4.56c.91,1.41,3,2.28,4.57,1.19a7.07,7.07,0,0,0,1-.82c-.21.22.78-.91.75-1.07,0,.26-1,.84-1,.8l.66-.16a3.36,3.36,0,0,0,2-4.91,8.44,8.44,0,0,0-2.1-2c.64.54,0-.06-.09-.14s-.24-.24-.35-.37c.26.35.29.38.07.08a3.39,3.39,0,0,0-4.56-1.19c-1.42.92-2.26,3-1.19,4.56Z" transform="translate(-0.83)"/><path class="cls-14" d="M60.66,433.89l-.12,0,.79.33-.11-.06.68.52-.09-.08.53.68a4,4,0,0,0-1.79-1.63,3.42,3.42,0,0,0-3.14.19,3.29,3.29,0,0,0-1.64,2.85,3.69,3.69,0,0,0,.5,1.89c.08.14.18.27.25.42l-.46-1.72v.13l6.22-1.66a16.15,16.15,0,0,0-1.35-1.92A4.66,4.66,0,0,0,58.62,432a3.87,3.87,0,0,0-4.27,1.7,3.47,3.47,0,0,0,0,3.42c.12.22.26.44.39.65a3.33,3.33,0,1,0,5.75-3.37c-.13-.22-.28-.43-.39-.66l.46,1.72v-.07l-1,2.32.08-.08-.68.53.13-.07-.82.35.14,0H56.72l.13,0-.78-.33.12.08-.68-.52a9.6,9.6,0,0,1,.79.9l-.53-.68a11.15,11.15,0,0,1,.76,1.17,3.39,3.39,0,0,0,3.74,1.53,3.83,3.83,0,0,0,1.51-.88,3.32,3.32,0,0,0,1-2.32,4.2,4.2,0,0,0-.5-1.9,4.78,4.78,0,0,1-.26-.42l.45,1.71v-.11l-1.65,2.85.08,0-2.57.34.1,0L56.93,439l.06.08-.53-.68a3.91,3.91,0,0,0,2.44,1.88,3.33,3.33,0,1,0,1.76-6.43Z" transform="translate(-0.83)"/><path class="cls-14" d="M54.8,435.77a.57.57,0,0,0,.18-.33.46.46,0,0,0,0-.26.45.45,0,0,0-.18-.27.6.6,0,0,0-.23-.1.5.5,0,0,0-.32.06l-.16.13a.89.89,0,0,0-.15.27.68.68,0,0,0,0,.4,1.42,1.42,0,0,0,.25.47,5.55,5.55,0,0,0,.61.75.5.5,0,0,0,.71,0,.51.51,0,0,0,0-.71,4.23,4.23,0,0,1-.34-.4l.07.1a3.64,3.64,0,0,1-.35-.52l0,.12a.24.24,0,0,1,0-.08v.21s0-.05,0-.07l0,.11,0,0-.08.1,0,0-.1.08h0l-.73-.57s0,0,0,.06l0-.12s0,0,0,.05l.07-.11v0a.5.5,0,0,0-.14.35.47.47,0,0,0,.15.35.49.49,0,0,0,.34.15.51.51,0,0,0,.36-.15Z" transform="translate(-0.83)"/><path class="cls-14" d="M60,441.85l.18.07.07,0a.89.89,0,0,0,.28,0l.2,0,.07,0,.19-.08.07,0a.57.57,0,0,0,.14-.13.38.38,0,0,0,.08-.17.28.28,0,0,0,0-.2.35.35,0,0,0-.06-.19.53.53,0,0,0-.3-.23h-.12a.46.46,0,0,0-.26.07l-.1.05.12-.05-.13,0,.13,0H60.4l.13,0-.13,0,.12.05-.05,0a.55.55,0,0,0-.38-.05.57.57,0,0,0-.3.23.51.51,0,0,0,0,.38.52.52,0,0,0,.23.31Z" transform="translate(-0.83)"/><path class="cls-14" d="M74.36,442.69c.09,1.71.22,3.41.4,5.11a.53.53,0,0,0,.49.51c2.84.31,5.69-.13,8.53.14.64.06.64-.94,0-1-2.84-.27-5.69.17-8.53-.14l.5.5c-.18-1.7-.31-3.4-.4-5.11,0-.64-1-.65-1,0Z" transform="translate(-0.83)"/><path class="cls-14" d="M84.29,447.89v-4.82a.5.5,0,0,0-1,0v4.82a.5.5,0,0,0,1,0Z" transform="translate(-0.83)"/><path class="cls-14" d="M84,442.51a2.91,2.91,0,0,0-.27,1.57v.82c0,.12,0,.24,0,.36,0-.07,0,.1,0,.12l0,.1s0,0,0,0a.51.51,0,0,0,.19.68.51.51,0,0,0,.68-.18,3.54,3.54,0,0,0,.22-1.68c0-.26,0-.51,0-.76a1.23,1.23,0,0,1,0-.2c0,.08,0-.05,0-.06s0-.13,0-.19,0-.08.06-.1a.5.5,0,0,0-.18-.68.51.51,0,0,0-.69.18Z" transform="translate(-0.83)"/><path class="cls-14" d="M78.84,443.66a4.56,4.56,0,0,0-.24,1.83l4.21-3.19a7,7,0,0,0-3-.23,26,26,0,0,0-3.53.2l4.2,3.24,0-2.16a3.34,3.34,0,1,0-6.67-.05c0,.72,0,1.44,0,2.16a3.39,3.39,0,0,0,4.2,3.25c-.54.1.4,0,.52,0,.41,0,.83,0,1.24,0s.61-.05.92-.07a3.38,3.38,0,0,1,.45,0c-.38-.08-.39-.05,0,.07,1.92.79,4.36-1.21,4.22-3.19,0-.4,0-.44,0-.12a3.36,3.36,0,0,0-2.34-4.1,3.42,3.42,0,0,0-4.1,2.34Z" transform="translate(-0.83)"/><path class="cls-14" d="M95.29,439.71c.33.19.36.18.08,0a4.37,4.37,0,0,1,.42.44c-.47-.51.43.55.54.66a3.62,3.62,0,0,0,4.4.46,16.25,16.25,0,0,0,2.45-2.24,12.86,12.86,0,0,0,2.1-2.26,3.39,3.39,0,0,0,0-3.36,5.38,5.38,0,0,0-1-1.21c-.49-.49-.14-.35,0,.08a3.38,3.38,0,0,0-4.91-2,6.56,6.56,0,0,0-3.21,4,3.33,3.33,0,0,0,6.43,1.76c.19-.65-.07,0-.14.14l.22-.22c-.28.22-.26.23.07,0l-4.9-2a5.57,5.57,0,0,0,1,2c.18.24.37.48.57.7s.47.67.14.08V433.4c.37-.59-.43.31-.47.34l-.74.71-.73.71c-.12.11-1,.86-.36.43l2.57-.34-.21-.05L101,436c.52.57-.24-.28-.35-.42a5.57,5.57,0,0,0-.51-.58,6.06,6.06,0,0,0-1.55-1.1,3.41,3.41,0,0,0-4.55,1.22,3.36,3.36,0,0,0,1.22,4.55Z" transform="translate(-0.83)"/><path class="cls-14" d="M99.1,442c4.3,0,4.34-6.67.05-6.67S94.8,442,99.1,442Z" transform="translate(-0.83)"/><path class="cls-14" d="M99.66,441.76l.19-.22a.55.55,0,0,0,.14-.34.45.45,0,0,0,0-.2.36.36,0,0,0-.11-.16l-.1-.08a.55.55,0,0,0-.25-.07l-.13,0a.45.45,0,0,0-.22.13l-.19.22a.39.39,0,0,0-.1.16.47.47,0,0,0,0,.38.39.39,0,0,0,.11.17l.1.08a.5.5,0,0,0,.24.06h.14a.52.52,0,0,0,.22-.14Z" transform="translate(-0.83)"/><path class="cls-14" d="M105.2,435.13h0l-.11.08h0l-.12.05h0l-.14,0h0l-.13,0h0l-.12-.05h0l-.1-.08,0,0-.08-.1,0,0-.06-.13a0,0,0,0,1,0,0v-.11l0-.12a.06.06,0,0,1,0,0v0a.77.77,0,0,0,0,.15v0a.17.17,0,0,0,0,.07v.07h0a.61.61,0,0,0,.15.26.39.39,0,0,0,.16.1.39.39,0,0,0,.38,0,.37.37,0,0,0,.17-.1l.07-.1a.45.45,0,0,0,.07-.25l0-.13a.41.41,0,0,0-.13-.23h0l.08.1v0l0,.12v0l0,.13v0l0,.12c0-.07,0-.14,0-.21s0-.06,0-.08,0-.06,0-.08a.44.44,0,0,0-.06-.16h0l0-.05a.1.1,0,0,0,0-.05h0a.44.44,0,0,0-.11-.09h0l-.06,0-.06,0a.57.57,0,0,0-.29,0,.47.47,0,0,0-.24.15.34.34,0,0,0-.1.16.39.39,0,0,0,0,.38.37.37,0,0,0,.1.17l.1.07a.45.45,0,0,0,.25.07l.13,0a.45.45,0,0,0,.23-.13Z" transform="translate(-0.83)"/><path class="cls-14" d="M106.45,422.44h.06l-1.64.21h.25l-1.58-.22.12,0a6.07,6.07,0,0,0,3.22,0,4.6,4.6,0,0,0,2.16-1.13,4.67,4.67,0,0,0,1.59-1.74,6.25,6.25,0,0,0,.83-3,6.67,6.67,0,0,0-.21-2.09,6.52,6.52,0,0,0-1.74-3.06,6.68,6.68,0,0,0-2.94-1.71,5.84,5.84,0,0,0-1.72-.22,6.42,6.42,0,0,0-3.25.88A4.57,4.57,0,0,0,99.86,412,4.69,4.69,0,0,0,98.77,414l-.22,1.59a4.6,4.6,0,0,0,.53,2.4,3.14,3.14,0,0,0,.81,1.4,4.71,4.71,0,0,0,1.75,1.59l1.45.6a6.1,6.1,0,0,0,3.23,0l.33-.07-1.64.21a2.57,2.57,0,0,1,.62,0L99.72,414l0,.31a7,7,0,0,0,.63,4.75,6.79,6.79,0,0,0,3.7,2.83l1.58.22a6.2,6.2,0,0,0,3.17-.85l1.26-1a6.23,6.23,0,0,0,1.57-2.71l0-.32a6.17,6.17,0,0,0,0-3.22,6.92,6.92,0,0,0-2.87-3.75,6.28,6.28,0,0,0-3-.83,3,3,0,0,0-.52,0,12.25,12.25,0,0,0-2.08.29L107.84,421l0,0-1.53.64h0l-1.64.21h.09l-1.58-.22.09,0-1.45-.61.12.07-1.25-.95.07.07-1-1.26.06.08-.64-1.53a1.05,1.05,0,0,1,.06.24l-.21-1.64a1.62,1.62,0,0,1,0,.38l7.8-5.91-.12,0-1.58-.22H105l-.85.11a6.42,6.42,0,0,0-.88.12,4.69,4.69,0,0,0-2.16,1.13,4.76,4.76,0,0,0-1.59,1.74,4.69,4.69,0,0,0-.71,2.25,4.61,4.61,0,0,0,.1,2.44l.64,1.52a6,6,0,0,0,2.23,2.22l1.46.61a6.17,6.17,0,0,0,3.22,0Z" transform="translate(-0.83)"/><path class="cls-14" d="M107.67,419.7l0,.11.2.47a1.37,1.37,0,0,0,.5.54,1,1,0,0,0,.42.25,1.46,1.46,0,0,0,.72.16l.51-.07.47-.2a1.3,1.3,0,0,0,.54-.5,1.42,1.42,0,0,0,.34-.64l.09-.4-3.77-.52c0,.19,0,.39,0,.57l.07-.49a.06.06,0,0,1,0,0l.19-.45v0l.3-.39,0,0,.39-.31,0,0,.48-.2h0l.51-.06h-.72a1.47,1.47,0,0,0-.75.16,1.75,1.75,0,0,0-1,1,1.52,1.52,0,0,0-.16.72l.06.51a1.92,1.92,0,0,0,.51.87l.39.3a1.94,1.94,0,0,0,.94.25h.71a1.87,1.87,0,0,0,.81-.17,1.48,1.48,0,0,0,.67-.44,2.14,2.14,0,0,0,.51-.89,4.76,4.76,0,0,0,.08-.66l0-.42a1.38,1.38,0,0,0-.16-.75,1.51,1.51,0,0,0-.4-.63l-.39-.29a1.49,1.49,0,0,0-.7-.23,1.06,1.06,0,0,0-.5,0,1.43,1.43,0,0,0-.73.23l-.4.31a2,2,0,0,0-.48.84l-.09.39h3.7v-.1A1.41,1.41,0,0,0,111,418a1.37,1.37,0,0,0-.54-.5,1.44,1.44,0,0,0-.7-.22,1.47,1.47,0,0,0-.75,0l-.48.2a1.86,1.86,0,0,0-.69.7l-.19.45a1.89,1.89,0,0,0,0,1Z" transform="translate(-0.83)"/><path class="cls-14" d="M111.34,412.6v-.07a1.48,1.48,0,0,0-.17-.75,1.39,1.39,0,0,0-.4-.63,1.36,1.36,0,0,0-.62-.39,1.47,1.47,0,0,0-.72-.17l-.51.07a1.92,1.92,0,0,0-.86.5l-.3.39a1.89,1.89,0,0,0-.26.95v.07a1.38,1.38,0,0,0,.17.75,1.42,1.42,0,0,0,.4.63,1.49,1.49,0,0,0,.62.39,1.35,1.35,0,0,0,.71.16l.52-.06a1.85,1.85,0,0,0,.86-.51l.3-.39a1.92,1.92,0,0,0,.26-.94Z" transform="translate(-0.83)"/><path class="cls-14" d="M109.59,414.32c2.47,0,2.5-3.84,0-3.84s-2.5,3.84,0,3.84Z" transform="translate(-0.83)"/><path class="cls-14" d="M96.67,396.74l1.26-1.43.61-.69.24-.24c.1-.1,0-.07-.14.09l.23-.14H96.94q.41.24.78.51l.11.08c.17.12.14.1-.07-.06a1.89,1.89,0,0,0,.31.25c.45.37.88.76,1.3,1.16a31.56,31.56,0,0,0,2.92,2.5l-.89-2.17a2,2,0,0,1-.05.24q-.09.28.06-.12l-.26.42c-.24.36.26-.34,0,0s-.36.47-.53.71a14.32,14.32,0,0,0-1.13,1.93l3-.41a3.25,3.25,0,0,1-.26-.27c.17.24.2.27.08.1a.86.86,0,0,1-.1-.16,6.06,6.06,0,0,1-.36-.66,12.54,12.54,0,0,0-.77-1.45,16.78,16.78,0,0,0-2.55-2.9l-1.37,3.28.18,0c.15,0,.08,0-.2,0a.93.93,0,0,0,.24,0,6.32,6.32,0,0,1,.62.18c.28.1.07.06-.07,0,.08.05.19.08.27.12a6.48,6.48,0,0,1,.57.33c.06,0,.33.26.09.06l.08.07c.15.13.29.27.43.41a2,2,0,0,0,.23.27c-.12-.1-.23-.31,0-.06a6.32,6.32,0,0,1,.33.56,1.92,1.92,0,0,0,2.62.68,2,2,0,0,0,.69-2.62,7.47,7.47,0,0,0-6-3.84,1.93,1.93,0,0,0-1.36,3.29c.42.4.85.81,1.25,1.24.11.12.22.24.32.37s.39.39,0,0a3.3,3.3,0,0,1,.47.7,12.72,12.72,0,0,0,1.87,3,1.94,1.94,0,0,0,3-.41q.27-.52.57-1.05c.1-.17.2-.34.31-.51s.43-.64.11-.19a5.63,5.63,0,0,0,1.31-2.33,2,2,0,0,0-.89-2.16c-.36-.27.22.18,0,0l-.26-.21-.51-.43-1-.95a27.34,27.34,0,0,0-2.06-1.82,12.2,12.2,0,0,0-1.38-1,2.33,2.33,0,0,0-2.87.54c-.78.73-1.45,1.61-2.16,2.41a1.92,1.92,0,0,0,2.73,2.7Z" transform="translate(-0.83)"/><path class="cls-14" d="M77.63,390.5c0-.33,0-.66,0-1s0-.38,0-.56c0-.39-.07.36,0-.14a4.68,4.68,0,0,0,0-2.57l-1.86,2.41q3.54,0,7.1,0a1.93,1.93,0,0,0,1.93-1.9A2,2,0,0,0,83,384.88q-3.54-.11-7.1-.06A1.93,1.93,0,0,0,74,387.24a1.09,1.09,0,0,1,.07.24c0-.31,0-.35,0-.14,0,.37.09-.38,0,0s-.14.69-.19,1a9.57,9.57,0,0,0-.08,2.07,2,2,0,0,0,1.9,1.93,1.93,1.93,0,0,0,1.93-1.9Z" transform="translate(-0.83)"/><path class="cls-14" d="M81.2,387.37a5.82,5.82,0,0,0-.21,1.94,6.51,6.51,0,0,0,.45,1.85L84.25,389l-1.31-.75a10.46,10.46,0,0,0-1.64-.82,4.21,4.21,0,0,0-2.2,0l-1.54.26a1.94,1.94,0,0,0-1.17.89A2,2,0,0,0,76.2,390a2,2,0,0,0,.89,1.16,2.17,2.17,0,0,0,1.46.19l1.94-.32-.51.07a2.36,2.36,0,0,1,.46,0L80,391a1.89,1.89,0,0,1,.34.09l-.45-.18a10.31,10.31,0,0,1,1.22.66l1.28.72a1.93,1.93,0,0,0,2.12-.16,2,2,0,0,0,.69-2,5.84,5.84,0,0,1-.38-1.23l.07.51a4,4,0,0,1,0-1l-.07.5a5.41,5.41,0,0,1,.12-.58,1.92,1.92,0,0,0-3.7-1Z" transform="translate(-0.83)"/><path class="cls-14" d="M82.88,384.41l-.12,0,.47.07c-.54-.08-1.06-.28-1.6-.38a7.47,7.47,0,0,0-2.11-.11,1.44,1.44,0,0,0-.71.15,1.49,1.49,0,0,0-.6.39,1.83,1.83,0,0,0,0,2.59,1.77,1.77,0,0,0,1.28.53,6.67,6.67,0,0,1,1.48,0l-.47-.06a8.17,8.17,0,0,1,1,.22,7.89,7.89,0,0,0,1.37.26,1.85,1.85,0,0,0,1.31-.54,1.83,1.83,0,0,0,0-2.59l-.37-.29a1.82,1.82,0,0,0-.91-.24Z" transform="translate(-0.83)"/><path class="cls-14" d="M76,387.89c.86,0,1.72,0,2.57.1l-1.29-3.12-.14.17a2.12,2.12,0,0,0-.53,1.28,1.35,1.35,0,0,0,.16.71,1.31,1.31,0,0,0,.39.6,1.79,1.79,0,0,0,1.27.53,1.84,1.84,0,0,0,1.32-.54l.14-.17a2.25,2.25,0,0,0,.46-.81l.07-.47a1.45,1.45,0,0,0-.16-.71,1,1,0,0,0-.24-.41,1.85,1.85,0,0,0-.74-.57,1.33,1.33,0,0,0-.68-.15c-.86-.06-1.71-.1-2.57-.11a1.94,1.94,0,0,0-1.32.55,1.35,1.35,0,0,0-.37.59,1.33,1.33,0,0,0-.15.68,1.81,1.81,0,0,0,.54,1.32,1.94,1.94,0,0,0,1.27.53Z" transform="translate(-0.83)"/><path class="cls-14" d="M75.19,393.29c2.36,0,2.38-3.66,0-3.66s-2.39,3.66,0,3.66Z" transform="translate(-0.83)"/><path class="cls-14" d="M82.75,387.72c2.36,0,2.38-3.66,0-3.66s-2.38,3.66,0,3.66Z" transform="translate(-0.83)"/><circle class="cls-10" cx="193.09" cy="418.25" r="42.52"/><circle class="cls-11" cx="192.24" cy="416.55" r="42.52"/><circle class="cls-12" cx="192.24" cy="416.55" r="42.52"/><rect class="cls-17" x="167.03" y="405.03" width="37.53" height="26.61"/><polygon class="cls-17" points="195.37 438.73 195.37 397.93 230.7 418.33 195.37 438.73"/><circle class="cls-10" cx="307.77" cy="418.25" r="42.52"/><circle class="cls-11" cx="306.92" cy="416.55" r="42.52"/><circle class="cls-12" cx="306.92" cy="416.55" r="42.52"/><rect class="cls-17" x="283.67" y="399.16" width="22.59" height="17.88"/><rect class="cls-17" x="311.08" y="399.39" width="22.59" height="17.88"/><rect class="cls-17" x="283.67" y="421.8" width="22.59" height="17.88"/><rect class="cls-17" x="311.08" y="422.12" width="22.59" height="17.88"/><path class="cls-18" d="M307.3,397.74c-.71,1.95-5,2.17-9.56.5s-7.71-4.61-7-6.56,5-2.17,9.57-.5S308,395.79,307.3,397.74Z" transform="translate(-0.83)"/><path class="cls-18" d="M327.6,391.22c.75,1.93-2.31,4.94-6.84,6.71s-8.83,1.65-9.58-.28,2.3-4.94,6.84-6.71S326.84,389.29,327.6,391.22Z" transform="translate(-0.83)"/><path class="cls-17" d="M311,397.66c0,1.21-.69,2.19-1.54,2.19s-1.54-1-1.54-2.19.69-2.18,1.54-2.18S311,396.46,311,397.66Z" transform="translate(-0.83)"/><circle class="cls-19" cx="422.28" cy="418.25" r="42.52"/><circle class="cls-11" cx="421.43" cy="416.55" r="42.52"/><circle class="cls-20" cx="421.43" cy="416.55" r="42.52"/><polygon class="cls-14" points="391.25 395.98 412.48 417.21 395.59 417.21 395.59 427.22 422.49 427.22 438.91 443.64 442.16 440.39 394.5 392.73 391.25 395.98"/><path class="cls-14" d="M421.18,400.56a6,6,0,0,0,3.08,2.28,13.25,13.25,0,0,0,4.3.58h2.12a6.64,6.64,0,0,1,1.84.19.91.91,0,0,1,.42.2l.09.13a2.07,2.07,0,0,1,.14.67c0,.34,0,.79,0,1.33a11.54,11.54,0,0,0,.52,4.19,4,4,0,0,0,1.49,1.9,4.67,4.67,0,0,0,2.68.72c.73,0,1.27,0,1.63,0l.23,0c0,.14,0,.34,0,.59v1.67h2.6v-1.67a5.85,5.85,0,0,0-.13-1.45,2.27,2.27,0,0,0-.66-1.12,2.3,2.3,0,0,0-.85-.46,4.94,4.94,0,0,0-1.27-.19c-.45,0-.95,0-1.57,0a2.25,2.25,0,0,1-1.24-.28,1.37,1.37,0,0,1-.41-.47,3.91,3.91,0,0,1-.37-1.43,18.72,18.72,0,0,1-.07-2,13.73,13.73,0,0,0-.07-1.83,3.94,3.94,0,0,0-.39-1.37,3,3,0,0,0-.74-.94,3.93,3.93,0,0,0-1.69-.78,8.61,8.61,0,0,0-1.53-.17l-.13,0h-2.69a11.84,11.84,0,0,1-3.16-.34,4.24,4.24,0,0,1-1.43-.7,3.94,3.94,0,0,1-1.27-2,15.39,15.39,0,0,1-.47-4.24v-4h-2.6v4a18.85,18.85,0,0,0,.45,4.53A8.06,8.06,0,0,0,421.18,400.56Z" transform="translate(-0.83)"/><path class="cls-14" d="M434.3,395.19a4.85,4.85,0,0,0,2.46.6h.49a4.93,4.93,0,0,1,1.53.2,2,2,0,0,1,1.17.85,3.49,3.49,0,0,1,.45,1.9c0,.52,0,.93,0,1.31,0,.75,0,1.35,0,2.21,0,.5,0,.94,0,1.36a7.4,7.4,0,0,0,.07,1.15,3,3,0,0,0,.3.91,2.29,2.29,0,0,0,.53.64,2.61,2.61,0,0,0,1.09.52,4.86,4.86,0,0,0,1.16.11,1.66,1.66,0,0,1,.7.12l.17.13a1,1,0,0,1,.17.39,3.3,3.3,0,0,1,.07.75v6.72h2.6v-6.72a6.4,6.4,0,0,0-.1-1.18,3.46,3.46,0,0,0-1-1.94,3.27,3.27,0,0,0-1.15-.66,4.6,4.6,0,0,0-1.42-.21,2.63,2.63,0,0,1-.51,0,4.93,4.93,0,0,1,0-.69c0-.36,0-.82,0-1.36v-3.55a7,7,0,0,0-.38-2.28,4.57,4.57,0,0,0-2.05-2.48,6.69,6.69,0,0,0-3.33-.77h-.49a2.16,2.16,0,0,1-1.13-.23.92.92,0,0,1-.34-.34,2.68,2.68,0,0,1-.34-1.06,11.06,11.06,0,0,1-.07-1.57v-.51h-2.61V390a8.4,8.4,0,0,0,.57,3.57A3.74,3.74,0,0,0,434.3,395.19Z" transform="translate(-0.83)"/><polygon class="cls-14" points="424.72 417.21 434.73 427.22 446.63 427.22 446.63 417.21 424.72 417.21"/><circle class="cls-10" cx="537.9" cy="419.19" r="42.52"/><circle class="cls-11" cx="537.05" cy="417.49" r="42.52"/><circle class="cls-12" cx="537.05" cy="417.49" r="42.52"/><polygon class="cls-17" points="538 436.8 518.47 447.06 522.2 425.32 506.4 409.92 528.24 406.75 538 386.96 547.76 406.75 569.6 409.92 553.8 425.32 557.53 447.06 538 436.8"/><circle class="cls-10" cx="882.87" cy="419.19" r="42.52"/><circle class="cls-11" cx="882.02" cy="417.49" r="42.52"/><circle class="cls-12" cx="882.02" cy="417.49" r="42.52"/><rect class="cls-21" x="870.04" y="407.34" width="29.96" height="29.96" transform="translate(-40.24 749.5) rotate(-45)"/><circle class="cls-21" cx="872.56" cy="410.69" r="14.98"/><circle class="cls-21" cx="895.67" cy="410.84" r="14.98"/><circle class="cls-10" cx="307.83" cy="559.48" r="42.52"/><circle class="cls-11" cx="306.98" cy="557.78" r="42.52"/><circle class="cls-12" cx="306.98" cy="557.78" r="42.52"/><text class="cls-22" transform="translate(280.19 583.35) scale(1.16 1)">A</text><circle class="cls-10" cx="422.28" cy="559.48" r="42.52"/><circle class="cls-11" cx="421.43" cy="557.78" r="42.52"/><circle class="cls-12" cx="421.43" cy="557.78" r="42.52"/><text class="cls-23" transform="translate(399.4 576.79)">ア</text><circle class="cls-10" cx="998.1" cy="559.48" r="42.52"/><circle class="cls-11" cx="997.25" cy="557.78" r="42.52"/><circle class="cls-12" cx="997.25" cy="557.78" r="42.52"/><text class="cls-24" transform="translate(982.71 576.79)">S</text><rect class="cls-14" x="996.16" y="529.68" width="1.09" height="53.67"/><circle class="cls-10" cx="882.85" cy="700.09" r="42.52"/><circle class="cls-11" cx="882" cy="698.39" r="42.52"/><circle class="cls-12" cx="882" cy="698.39" r="42.52"/><path class="cls-14" d="M906,678.45a28.63,28.63,0,0,0-19.53-8.79,3.48,3.48,0,1,0-.28,7,21.78,21.78,0,1,1-22.69,21.76c0-.42,0-.84,0-1.26l4.15,2a1.56,1.56,0,0,0,1.38,0,1.2,1.2,0,0,0,.65-1.08l-.41-18.25a1.55,1.55,0,0,0-.87-1.28,1.49,1.49,0,0,0-1.53.09l-14.74,10.78a1.19,1.19,0,0,0-.47,1.16,1.53,1.53,0,0,0,.85,1.09l4.35,2.15a29.58,29.58,0,0,0-.37,4.54A28.75,28.75,0,1,0,906,678.45Z" transform="translate(-0.83)"/><circle class="cls-10" cx="998.6" cy="700.93" r="42.52" transform="translate(-190.19 423) rotate(-21.9)"/><circle class="cls-11" cx="996.92" cy="699.23" r="42.52"/><circle class="cls-12" cx="997.75" cy="699.23" r="42.52" transform="translate(-214.63 570.49) rotate(-28.96)"/><path class="cls-14" d="M990.76,720.32a8.19,8.19,0,0,0,16.15,0l0-.24H990.71Z" transform="translate(-0.83)"/><path class="cls-14" d="M1026.45,713.59c-.66-.66-1.33-1.22-2-1.77-2.74-2.28-5.11-4.25-5.11-12.42v-6.49a20.62,20.62,0,0,0-16-20,4.86,4.86,0,0,0,.56-2.28,5.1,5.1,0,1,0-10.2,0,5,5,0,0,0,.56,2.28,20.61,20.61,0,0,0-16,20v6.49c0,8.17-2.37,10.14-5.12,12.42-.65.55-1.33,1.11-2,1.77l-.06.06v6.43h55.36v-6.43Z" transform="translate(-0.83)"/></g><g id="アイコン"><circle class="cls-10" cx="78.6" cy="137.44" r="42.52" transform="translate(-47.44 40.54) rotate(-22.5)"/><circle class="cls-11" cx="77.75" cy="135.74" r="42.52" transform="translate(-69.52 190.74) rotate(-80.78)"/><circle class="cls-12" cx="77.75" cy="135.74" r="42.52" transform="translate(-69.52 190.74) rotate(-80.78)"/><polygon class="cls-25" points="108.99 137.24 58.9 166.16 58.9 108.32 108.99 137.24"/><circle class="cls-26" cx="194.14" cy="137.44" r="42.52" transform="translate(14.94 294.81) rotate(-76.72)"/><circle class="cls-11" cx="193.29" cy="135.74" r="42.52" transform="translate(15.94 292.67) rotate(-76.72)"/><circle class="cls-27" cx="193.29" cy="135.74" r="42.52" transform="translate(15.94 292.67) rotate(-76.72)"/><rect class="cls-28" x="167" y="116.79" width="52.66" height="37.89"/><polygon class="cls-28" points="193.33 136.96 171.74 117.94 214.92 117.94 193.33 136.96"/><circle class="cls-29" cx="308.85" cy="139.01" r="42.52"/><circle class="cls-11" cx="308" cy="137.3" r="42.52"/><circle class="cls-30" cx="308" cy="137.3" r="42.52"/><rect class="cls-25" x="287.98" y="111.23" width="40.04" height="52.14"/><rect class="cls-18" x="295.88" y="125.26" width="24.52" height="1.92"/><rect class="cls-18" x="295.88" y="136.34" width="24.52" height="1.92"/><rect class="cls-18" x="295.88" y="147.57" width="24.52" height="1.92"/><circle class="cls-10" cx="423.01" cy="137.15" r="42.52"/><circle class="cls-11" cx="422.16" cy="135.45" r="42.52"/><circle class="cls-12" cx="422.16" cy="135.45" r="42.52"/><rect class="cls-31" x="421.55" y="101.86" width="4.9" height="67.75"/><rect class="cls-31" x="386.73" y="134.57" width="72.53" height="5.46"/><circle class="cls-10" cx="538.77" cy="137.44" r="42.52" transform="translate(-11.51 222.68) rotate(-23.13)"/><circle class="cls-11" cx="537.92" cy="135.74" r="42.52" transform="matrix(0.16, -0.99, 0.99, 0.16, 315.83, 644.49)"/><circle class="cls-12" cx="537.92" cy="135.74" r="42.52" transform="matrix(0.16, -0.99, 0.99, 0.16, 315.83, 644.49)"/><rect class="cls-31" x="501.73" y="134.57" width="72.53" height="5.46"/><circle class="cls-10" cx="653.85" cy="137.15" r="42.52"/><circle class="cls-11" cx="653" cy="135.45" r="42.52"/><circle class="cls-12" cx="653" cy="135.45" r="42.52"/><rect class="cls-31" x="643.71" y="106.72" width="20.44" height="9.75"/><rect class="cls-31" x="623.04" y="119.96" width="59.92" height="1.39"/><rect class="cls-31" x="634.88" y="122.51" width="36.98" height="39.91"/><line class="cls-31" x1="643.71" y1="130.41" x2="643.71" y2="151.31"/><line class="cls-31" x1="653.37" y1="130.41" x2="653.37" y2="151.31"/><line class="cls-31" x1="664.15" y1="130.41" x2="664.15" y2="151.31"/><circle class="cls-10" cx="768.85" cy="137.15" r="42.52"/><circle class="cls-11" cx="768" cy="135.45" r="42.52"/><circle class="cls-12" cx="768" cy="135.45" r="42.52"/><path class="cls-32" d="M774.41,125.37a16.28,16.28,0,1,1-16.28-16.28A16.26,16.26,0,0,1,774.41,125.37Z" transform="translate(-0.83)"/><rect class="cls-32" x="780.42" y="131.11" width="3.58" height="32.26" transform="translate(170.92 658.01) rotate(-50.58)"/><circle class="cls-10" cx="883.85" cy="137.15" r="42.52"/><circle class="cls-11" cx="883" cy="135.45" r="42.52"/><circle class="cls-12" cx="883" cy="135.45" r="42.52"/><rect class="cls-13" x="861.57" y="143.88" width="23.94" height="13.72" transform="translate(1526.99 748.83) rotate(-147.36)"/><rect class="cls-21" x="872.7" y="112.69" width="27.95" height="35.1" transform="translate(209.44 -457.67) rotate(32.64)"/><circle class="cls-10" cx="998.85" cy="137.15" r="42.52"/><circle class="cls-11" cx="998" cy="135.45" r="42.52"/><circle class="cls-12" cx="998" cy="135.45" r="42.52"/><rect class="cls-33" x="996.95" y="106.15" width="5.85" height="54.53" transform="translate(386.37 -667.94) rotate(45)"/><rect class="cls-33" x="996.95" y="106.52" width="5.85" height="54.53" transform="translate(197.42 746.21) rotate(-45)"/><circle class="cls-10" cx="1113.02" cy="137.15" r="42.52"/><circle class="cls-11" cx="1112.17" cy="135.45" r="42.52"/><circle class="cls-12" cx="1112.17" cy="135.45" r="42.52"/><rect class="cls-33" x="1135.15" y="125.15" width="5.26" height="18.71"/><rect class="cls-33" x="1088.5" y="116.44" width="44.66" height="36.14"/><rect class="cls-33" x="1094.8" y="119.4" width="13.8" height="30.09"/><rect class="cls-33" x="1098.35" y="122.69" width="6.7" height="24.84"/><circle class="cls-10" cx="78.6" cy="278.25" r="42.52" transform="translate(-101.33 51.26) rotate(-22.5)"/><circle class="cls-11" cx="76.92" cy="276.55" r="42.52"/><circle class="cls-12" cx="77.75" cy="276.55" r="42.52" transform="translate(-100.74 50.8) rotate(-22.5)"/><rect class="cls-34" x="53.51" y="249.63" width="31.42" height="2.26"/><rect class="cls-34" x="53.51" y="250.76" width="2.2" height="49.14"/><rect class="cls-34" x="65.77" y="274.2" width="25.47" height="2.26"/><rect class="cls-34" x="75.81" y="268.65" width="21" height="2.26" transform="translate(145.62 -7.01) rotate(30)"/><rect class="cls-34" x="75.81" y="279.51" width="21" height="2.26" transform="translate(-129.59 80.75) rotate(-30)"/><rect class="cls-34" x="53.51" y="298.44" width="31.42" height="2.06"/><circle class="cls-10" cx="193.31" cy="278.25" r="42.52"/><circle class="cls-11" cx="192.46" cy="276.55" r="42.52"/><circle class="cls-12" cx="192.46" cy="276.55" r="42.52"/><rect class="cls-34" x="181.57" y="299.33" width="31.99" height="2.1"/><rect class="cls-34" x="181.57" y="249.63" width="31.99" height="2.3"/><rect class="cls-34" x="211.33" y="250.78" width="2.24" height="50.04"/><rect class="cls-34" x="172.94" y="274.78" width="25.52" height="2.3" transform="translate(370.57 551.85) rotate(180)"/><polygon class="cls-34" points="169.34 276.61 187.55 265.92 186.42 263.93 168.21 274.63 169.34 276.61"/><polygon class="cls-34" points="168.21 276.98 186.42 287.67 187.55 285.68 169.34 274.99 168.21 276.98"/><circle class="cls-10" cx="308.02" cy="278.25" r="42.52"/><circle class="cls-11" cx="307.16" cy="276.55" r="42.52"/><circle class="cls-12" cx="307.16" cy="276.55" r="42.52"/><circle class="cls-32" cx="307.16" cy="262.64" r="12.89"/><rect class="cls-32" x="283.98" y="264.19" width="46.37" height="31.14"/><path class="cls-35" d="M311.84,279.77a3.85,3.85,0,1,1-3.84-3.85A3.84,3.84,0,0,1,311.84,279.77Z" transform="translate(-0.83)"/><circle class="cls-10" cx="422.84" cy="278.25" r="42.52"/><circle class="cls-11" cx="421.99" cy="276.55" r="42.52"/><circle class="cls-12" cx="421.99" cy="276.55" r="42.52"/><rect class="cls-13" x="399.61" y="295.4" width="46.78" height="2.63"/><rect class="cls-13" x="414.36" y="253.03" width="17.28" height="24.32"/><polygon class="cls-13" points="403.83 272.54 440.91 272.54 423.48 289.97 403.83 272.54"/><circle class="cls-10" cx="538.09" cy="278.25" r="42.52"/><circle class="cls-11" cx="537.24" cy="276.55" r="42.52"/><circle class="cls-12" cx="537.24" cy="276.55" r="42.52"/><path class="cls-13" d="M518.4,282.15l-5,14,13.69-2.75c5.14,1.28,16.79,3.38,28-2.11,3-1.45,7-3.49,9.6-8.1a19.22,19.22,0,0,0,1.6-13.77,20.12,20.12,0,0,0-3.9-7.62c-5.44-6.89-13.33-8.59-15.44-9a27.5,27.5,0,0,0-20.06,4.43c-2.6,1.8-8.68,6-10,13.77A19.33,19.33,0,0,0,518.4,282.15Z" transform="translate(-0.83)"/><circle class="cls-10" cx="653.15" cy="278.41" r="42.52"/><circle class="cls-11" cx="652.3" cy="276.71" r="42.52"/><circle class="cls-12" cx="652.3" cy="276.71" r="42.52"/><circle class="cls-32" cx="653" cy="276.2" r="27.15"/><rect class="cls-32" x="650.78" y="256.02" width="3.63" height="23.73"/><rect class="cls-32" x="650.78" y="276.2" width="21.41" height="3.41"/><path class="cls-36" d="M811.19,278.41c0,16.93-10.24,30.92-22.7,37.63a38.46,38.46,0,0,1-19.82,4.89c-18.43-.72-42.52-16.39-42.52-42.52a42.52,42.52,0,0,1,42.52-42.52,45.9,45.9,0,0,1,23,6.76l.27.18C799.15,247.58,811.19,261.69,811.19,278.41Z" transform="translate(-0.83)"/><path class="cls-11" d="M810.34,276.71c0,16.93-10.24,30.92-22.7,37.63a38.56,38.56,0,0,1-19.82,4.89c-18.43-.72-42.52-16.39-42.52-42.52a42.52,42.52,0,0,1,42.52-42.52,45.9,45.9,0,0,1,23,6.76l.27.18C798.3,245.88,810.34,260,810.34,276.71Z" transform="translate(-0.83)"/><path class="cls-37" d="M810.34,276.71c0,16.93-10.24,30.92-22.7,37.63a38.56,38.56,0,0,1-19.82,4.89c-18.43-.72-42.52-16.39-42.52-42.52a42.52,42.52,0,0,1,42.52-42.52,45.9,45.9,0,0,1,23,6.76l.27.18C798.3,245.88,810.34,260,810.34,276.71Z" transform="translate(-0.83)"/><rect class="cls-32" x="740.35" y="267.02" width="4.15" height="18.89"/><polygon class="cls-32" points="763.33 299.96 742.42 279.05 742.42 273.53 763.51 252.44 763.33 299.96"/><rect class="cls-32" x="760.16" y="258.37" width="1.17" height="34.23"/><rect class="cls-32" x="756.59" y="261.17" width="1.38" height="28.09"/><rect class="cls-32" x="752.97" y="263.18" width="1.07" height="23.6"/><rect class="cls-32" x="749.82" y="268.35" width="0.73" height="14.35"/><rect class="cls-32" x="747.05" y="271.19" width="0.15" height="7.86"/><rect class="cls-32" x="744.5" y="272.94" width="0.66" height="4.29"/><path class="cls-32" d="M769.77,294.32c1.14-1.18,8-8.48,7.26-19.46a26,26,0,0,0-7.26-16.15" transform="translate(-0.83)"/><path class="cls-38" d="M775.66,253.06a35,35,0,0,1,9.13,22.14,35.36,35.36,0,0,1-9.25,24.67" transform="translate(-0.83)"/><path class="cls-15" d="M782.22,247.92a41.46,41.46,0,0,1-.41,57.58" transform="translate(-0.83)"/><circle class="cls-10" cx="882.72" cy="278.41" r="42.52"/><circle class="cls-11" cx="881.87" cy="276.71" r="42.52"/><circle class="cls-12" cx="881.87" cy="276.71" r="42.52"/><polygon class="cls-15" points="884.63 247.53 858.8 297.67 884.63 283.18 907.49 297.67 884.63 247.53"/><path class="cls-14" d="M885.25,275a45.09,45.09,0,0,0-6.49-1.56l.31.56a4.08,4.08,0,0,1,1.2-1,4,4,0,0,1,1.23-.41c.36,0,1-.23,1.09-.66s-.58-.46-.83-.43a7,7,0,0,0-4.49,2.45c-.21.25.06.51.31.55a47.91,47.91,0,0,1,6.49,1.56,1.59,1.59,0,0,0,1.37-.36c.32-.3.19-.58-.19-.7Z" transform="translate(-0.83)"/><path class="cls-14" d="M883.94,254.72V258c0,.43.5.5.85.45s1-.24,1.09-.68c.33-1.2.66-2.4,1-3.61l-1.94.37,0,.88c0,.15.27.26.38.28a1.5,1.5,0,0,0,.73,0c.37-.11.84-.33.83-.77s0-.9,0-1.35l-1.93.52a5.07,5.07,0,0,1-.37,2.4,4.65,4.65,0,0,1-1.36,1.85l1.75.06c.12-.44.23-.89.35-1.34s-.58-.48-.84-.44-1,.24-1.09.67l-.36,1.34c-.08.33.37.45.6.46a1.72,1.72,0,0,0,1.15-.4,5.91,5.91,0,0,0,2.1-5.12c0-.16-.26-.26-.38-.29a1.46,1.46,0,0,0-.72,0c-.37.11-.85.32-.83.77l0,1.35,1.94-.52,0-.87c0-.16-.27-.27-.38-.29a1.47,1.47,0,0,0-.59,0c-.35.07-.85.26-1,.65-.33,1.2-.66,2.41-1,3.61l1.94-.23v-3.25c0-.42-.5-.49-.85-.44a1.63,1.63,0,0,0-.73.25c-.13.09-.36.25-.36.42Z" transform="translate(-0.83)"/><path class="cls-14" d="M878.89,258.93a25.82,25.82,0,0,1-5.29,13.92c-1.67,2.21,1,3.52,2.8,3.81a11,11,0,0,0,8.39-2.53l7.6-6.84-11.63.62c1,7.19,6.73,14.46,10.59,20.4,2.37,3.66,14.89-.56,11.95-5.08-3.64-5.61-8.76-12-9.65-18.77-.59-4.42-9.91-.94-11.62.61l-7.6,6.84,11.19,1.29a30.09,30.09,0,0,0,6.16-15.84c.45-5.28-12.51-2.87-12.89,1.57Z" transform="translate(-0.83)"/><path class="cls-14" d="M896.9,276.64a49,49,0,0,1-5.11-2.95c-1-.69-3.11-.62-4.25-.49a11.83,11.83,0,0,0-4.88,1.67c-.93.62-2.27,1.55-2.43,2.77a2.29,2.29,0,0,0,1.34,2.38,49.58,49.58,0,0,0,5.1,2.94c2.68,1.34,6.74.42,9.13-1.17.94-.63,2.27-1.55,2.43-2.77a2.2,2.2,0,0,0-1.33-2.38Z" transform="translate(-0.83)"/><path class="cls-14" d="M882.23,275.67c.25-.11,1.22-.42.43-.19l4.58-.84a1.19,1.19,0,0,1,.7.09c.17.07.17.07,0,0a1.28,1.28,0,0,1-.23-.14,2.67,2.67,0,0,1-.48-.47l.37.46a2.15,2.15,0,0,1-.31-.73c-.19-.78-1.76-.86-2.26-.88a18.82,18.82,0,0,0-9.11,2.44c-.56.38-1.72,1.05-1.51,1.9.45,1.89,2.64,2.47,4.32,2.56,3.78.18,7.47-1.06,10.9-2.52.7-.3,2.32-1.13,2.65-2s-.36-1.19-1.06-1.35c-2.91-.63-6.37.53-9,1.66Z" transform="translate(-0.83)"/><path class="cls-14" d="M881.43,271.74c-4.73.77-9.23,2.72-11.72,7-2,3.41-3.5,7-5.78,10.22-1.42,2,.73,2.74,2.53,2.82a13.68,13.68,0,0,0,8.41-2.47c-1.46.54-1.75.69-.88.45.46-.11.93-.23,1.39-.37,1.06-.3,2.1-.64,3.14-1A31,31,0,0,0,883.7,286c2.84-1.66,5.2-3.74,5.33-7.17,0-.9-1.94-1.2-2.37-1.28l-1.2-.24c-2.87-.58-6.83.7-9.11,2.44s-1.5,3.08,1,3.57l1.2.24-2.37-1.28c-.06,1.68-1.8,1.95-3.09,2.3-2.95.81-5.79,1.67-8.25,3.57l10.94.35a70.13,70.13,0,0,0,4.09-6.54c.6-1.1,1.13-2.24,1.68-3.36.24-.51.5-1,.77-1.51q1.83-2.21-3,.43c2-.33,6.93-1.4,7.46-3.89s-4.06-2.1-5.33-1.9Z" transform="translate(-0.83)"/><path class="cls-14" d="M895.25,290.69c2.53,0,7.24-.89,8.52-3.44s-1.09-3.5-3.41-3.5c-2.53,0-7.24.89-8.53,3.44s1.1,3.5,3.42,3.5Z" transform="translate(-0.83)"/><path class="cls-14" d="M897.92,292.76c2.87,0,7-.85,8.47-3.67,1.36-2.62-1.18-4.37-3.65-4.37-2.86,0-7,.85-8.46,3.67-1.37,2.61,1.17,4.37,3.64,4.37Z" transform="translate(-0.83)"/><circle class="cls-10" cx="998.8" cy="278.41" r="42.52" transform="translate(94.84 787.81) rotate(-45)"/><circle class="cls-11" cx="997.95" cy="276.71" r="42.52" transform="translate(95.8 786.71) rotate(-45)"/><circle class="cls-12" cx="997.95" cy="276.71" r="42.52" transform="translate(95.8 786.71) rotate(-45)"/><rect class="cls-34" x="967.74" y="259.9" width="60.52" height="41.1" rx="11.13"/><rect class="cls-34" x="977.18" y="267.2" width="30.45" height="26.19"/><path class="cls-34" d="M1023,271a3.78,3.78,0,1,1-3.77-3.78A3.77,3.77,0,0,1,1023,271Z" transform="translate(-0.83)"/><rect class="cls-35" x="1014.65" y="282.74" width="7.56" height="7.56"/><rect class="cls-35" x="995.09" y="250.53" width="2.04" height="9.5" transform="translate(4.98 532.24) rotate(-30)"/><rect class="cls-35" x="1003.44" y="250.53" width="2.04" height="9.5" transform="translate(261.37 -468.02) rotate(30)"/><circle class="cls-10" cx="653.15" cy="419.19" r="42.52"/><circle class="cls-11" cx="652.3" cy="417.49" r="42.52"/><circle class="cls-12" cx="652.3" cy="417.49" r="42.52"/><rect class="cls-15" x="648.98" y="413.95" width="4.12" height="33.46"/><rect class="cls-15" x="653.29" y="429.42" width="14.34" height="2.51"/><rect class="cls-15" x="653.29" y="444.89" width="14.34" height="2.51"/><circle class="cls-39" cx="651.04" cy="399.16" r="14.07"/><circle class="cls-10" cx="767.68" cy="419.19" r="42.52"/><circle class="cls-11" cx="766.83" cy="417.49" r="42.52"/><circle class="cls-12" cx="766.83" cy="417.49" r="42.52"/><path class="cls-21" d="M785.36,408.77H750.63l2.86-10.06A3.68,3.68,0,0,1,757,396H779a3.68,3.68,0,0,1,3.55,2.68Z" transform="translate(-0.83)"/><rect class="cls-21" x="739.18" y="403.6" width="55.97" height="31.96" rx="5.08"/><circle class="cls-40" cx="767.16" cy="419.58" r="11.72"/><circle class="cls-10" cx="997.97" cy="419.19" r="42.52"/><circle class="cls-11" cx="997.12" cy="417.49" r="42.52"/><circle class="cls-12" cx="997.12" cy="417.49" r="42.52"/><polygon class="cls-21" points="998.3 391.42 981.94 398.31 1015.69 398.31 998.3 391.42"/><rect class="cls-21" x="972.42" y="403.15" width="53.47" height="38.12"/><rect class="cls-41" x="994.36" y="419.51" width="9.99" height="21.76"/><circle class="cls-10" cx="1112.97" cy="419.19" r="42.52"/><circle class="cls-11" cx="1112.12" cy="417.49" r="42.52"/><circle class="cls-12" cx="1112.12" cy="417.49" r="42.52"/><text class="cls-42" transform="translate(1077.42 443.77)">？</text><circle class="cls-10" cx="78.05" cy="559.48" r="42.52"/><circle class="cls-11" cx="77.2" cy="557.78" r="42.52"/><circle class="cls-12" cx="77.2" cy="557.78" r="42.52"/><text class="cls-43" transform="translate(37.86 588.35)">！</text><circle class="cls-10" cx="193.09" cy="559.48" r="42.52"/><circle class="cls-11" cx="192.24" cy="557.78" r="42.52"/><circle class="cls-12" cx="192.24" cy="557.78" r="42.52"/><text class="cls-44" transform="translate(163.5 579.68)">あ</text><circle class="cls-10" cx="538.85" cy="559.48" r="42.52"/><circle class="cls-11" cx="538" cy="557.78" r="42.52"/><circle class="cls-12" cx="538" cy="557.78" r="42.52"/><polygon class="cls-21" points="536.98 586.05 518.68 573.06 518.68 533.17 536.98 546.16 536.98 586.05"/><polygon class="cls-15" points="541.69 586.05 559.99 573.06 559.99 533.17 541.69 546.16 541.69 586.05"/><polygon class="cls-41" points="541.69 580.21 556.56 570.43 556.56 540.4 541.69 550.17 541.69 580.21"/><circle class="cls-10" cx="653.99" cy="559.48" r="42.52" transform="translate(-8.31 1110.1) rotate(-80.32)"/><circle class="cls-11" cx="652.3" cy="557.78" r="42.52"/><circle class="cls-12" cx="653.14" cy="557.78" r="42.52" transform="translate(6.03 1123.49) rotate(-81.69)"/><path class="cls-15" d="M653,585.11s-13-12.15-25.63-9.42c.42-14.6,1.9-35.75,1.9-35.75s17.88-3.15,24.82,6.31C653.9,562.27,653,585.11,653,585.11Z" transform="translate(-0.83)"/><path class="cls-15" d="M657.63,585.16s13.25-11.88,25.81-8.9c-.13-14.61-1.18-35.78-1.18-35.78s-17.82-3.51-24.94,5.81C657.19,562.31,657.63,585.16,657.63,585.16Z" transform="translate(-0.83)"/><polygon class="cls-11" points="649.3 579.29 650.6 580.32 650.41 547.22 649.3 546.94 649.3 579.29"/><polygon class="cls-11" points="659.93 579.31 659.02 580 659.19 547.46 659.93 546.77 659.93 579.31"/><circle class="cls-10" cx="767.68" cy="559.48" r="42.52"/><circle class="cls-11" cx="766.83" cy="557.78" r="42.52"/><circle class="cls-12" cx="766.83" cy="557.78" r="42.52"/><rect class="cls-17" x="758.73" y="547.25" width="16.21" height="38.64"/><circle class="cls-17" cx="767.67" cy="534.85" r="8.11" transform="translate(-154.18 699.47) rotate(-45)"/><circle class="cls-10" cx="882.87" cy="559.48" r="42.52"/><circle class="cls-11" cx="882.02" cy="557.78" r="42.52"/><circle class="cls-12" cx="882.02" cy="557.78" r="42.52"/><path class="cls-14" d="M904.44,559.53a4.62,4.62,0,0,0,2.48-3.91,4.84,4.84,0,0,0-4.61-4.49H892.4c-1.86-.08-3.87-.39-4.89-1.46-2.75-2.88,1.76-6.43,2.58-8.61s2.64-6.35,1-11c-1.76-4.91-7.14-4.08-8,.89-.47,2.76-5,9.06-9.62,14.37-3,3.44-6.39,5.66-10.07,9.25-6.52,6.36-6.52,21.29,2.83,25.85,3.33,1.63,10.35,2.63,15.82,2.83,7.56.27,8.77.06,11.85-.27l2.9-.41c2.26-.79,3.79-2.55,3.85-4.42a4,4,0,0,0-.6-2.18c2.29-1.49,4.21-3,4.21-4.45a3.25,3.25,0,0,0-.44-1.89,17.1,17.1,0,0,0-.66-1.85,4.85,4.85,0,0,0,3.14-4.11A5.08,5.08,0,0,0,904.44,559.53Z" transform="translate(-0.83)"/><circle class="cls-10" cx="1112.97" cy="559.48" r="42.52"/><circle class="cls-11" cx="1112.12" cy="557.78" r="42.52"/><circle class="cls-12" cx="1112.12" cy="557.78" r="42.52"/><path class="cls-14" d="M1078.74,546.1l4.88,5.69c16.17-18.81,42.48-18.81,58.65,0l4.89-5.69C1128.3,524.16,1097.6,524.15,1078.74,546.1Z" transform="translate(-0.83)"/><path class="cls-14" d="M1088.51,557.48l4.89,5.68c10.78-12.54,28.32-12.54,39.1,0l4.89-5.68C1123.91,541.8,1102,541.8,1088.51,557.48Z" transform="translate(-0.83)"/><path class="cls-14" d="M1098.29,568.85l4.88,5.69a12.51,12.51,0,0,1,19.55,0l4.89-5.69C1119.53,559.45,1106.37,559.45,1098.29,568.85Z" transform="translate(-0.83)"/><path class="cls-14" d="M1108.06,580.23l4.89,5.69,4.88-5.69A6.24,6.24,0,0,0,1108.06,580.23Z" transform="translate(-0.83)"/><circle class="cls-10" cx="78.05" cy="700.09" r="42.52"/><circle class="cls-11" cx="77.2" cy="698.39" r="42.52"/><circle class="cls-12" cx="77.2" cy="698.39" r="42.52"/><polygon class="cls-21" points="78 664.31 61.5 692.89 94.5 692.89 78 664.31"/><polygon class="cls-13" points="78 726.97 94.5 698.39 61.5 698.39 78 726.97"/><circle class="cls-10" cx="193.79" cy="700.09" r="42.52"/><circle class="cls-11" cx="192.94" cy="698.39" r="42.52"/><circle class="cls-12" cx="192.94" cy="698.39" r="42.52"/><polygon class="cls-21" points="167.37 721.52 221.74 721.52 206.08 687.74 191.35 718.31 178.87 701.9 167.37 721.52"/><circle class="cls-21" cx="180.19" cy="682.03" r="5.71"/><circle class="cls-10" cx="307.77" cy="700.09" r="42.52"/><circle class="cls-11" cx="306.92" cy="698.39" r="42.52"/><circle class="cls-12" cx="306.92" cy="698.39" r="42.52"/><path class="cls-14" d="M289.35,669.1c-4.4,2.86-5.26,11.77-3.6,19a65.35,65.35,0,0,0,8.68,20.39,67.83,67.83,0,0,0,15.08,16.24c6,4.48,14.45,7.33,18.85,4.48,2.22-1.44,5.52-5.38,5.67-6.09,0,0-1.93-3-2.36-3.64l-6.5-10c-.48-.75-3.51-.06-5,.81-2.08,1.17-4,4.33-4,4.33-1.42.82-2.61,0-5.1-1.15-3.06-1.4-6.5-5.78-9.24-9.74-2.5-4.12-5.09-9-5.13-12.41,0-2.74-.29-4.16,1-5.12,0,0,3.66-.46,5.58-1.88,1.42-1.05,3.28-3.53,2.79-4.28l-6.49-10-2.37-3.65C296.52,666.25,291.57,667.66,289.35,669.1Z" transform="translate(-0.83)"/><circle class="cls-10" cx="422.87" cy="700.09" r="42.52"/><circle class="cls-11" cx="422.02" cy="698.39" r="42.52"/><circle class="cls-12" cx="422.02" cy="698.39" r="42.52"/><rect class="cls-21" x="420.97" y="681.9" width="4.05" height="36.96"/><rect class="cls-21" x="421.8" y="681.9" width="4.05" height="36.96" transform="translate(-277.38 1124.21) rotate(-90)"/><polygon class="cls-21" points="423 670.44 418.94 677.48 427.06 677.48 423 670.44"/><polygon class="cls-21" points="393.71 700.22 400.75 704.28 400.75 696.15 393.71 700.22"/><polygon class="cls-21" points="422.84 729.99 426.9 722.96 418.77 722.96 422.84 729.99"/><polygon class="cls-21" points="452.91 700.38 445.87 696.32 445.87 704.44 452.91 700.38"/><circle class="cls-10" cx="537.86" cy="700.09" r="42.52"/><circle class="cls-11" cx="537" cy="698.39" r="42.52"/><circle class="cls-12" cx="537" cy="698.39" r="42.52"/><rect class="cls-14" x="520.22" y="677.82" width="40.66" height="5.66" transform="translate(1080.27 1361.3) rotate(180)"/><rect class="cls-14" x="546.07" y="685.75" width="22.75" height="6.88" transform="translate(-132.58 1246.64) rotate(-90)"/><polygon class="cls-21" points="556.61 707.56 560.4 702.17 552.83 702.17 556.61 707.56"/><rect class="cls-14" x="515.95" y="713.92" width="40.66" height="5.66"/><rect class="cls-14" x="508.84" y="704.76" width="22.75" height="6.88" transform="translate(1227.59 187.98) rotate(90)"/><polygon class="cls-21" points="519.39 689.83 515.6 695.23 523.17 695.23 519.39 689.83"/><circle class="cls-10" cx="652.79" cy="700.09" r="42.52"/><circle class="cls-11" cx="651.94" cy="698.39" r="42.52"/><circle class="cls-12" cx="651.94" cy="698.39" r="42.52"/><ellipse class="cls-15" cx="642.85" cy="710.53" rx="17.54" ry="16.6"/><rect class="cls-14" x="650.34" y="688.03" width="24.33" height="7.36" transform="translate(1619.24 712.36) rotate(135)"/><polygon class="cls-21" points="675.56 677.82 668.62 679.03 674.35 684.76 675.56 677.82"/><circle class="cls-10" cx="767.82" cy="700.09" r="42.52"/><circle class="cls-11" cx="766.97" cy="698.39" r="42.52"/><circle class="cls-12" cx="766.97" cy="698.39" r="42.52"/><ellipse class="cls-15" cx="768" cy="683.57" rx="17.54" ry="16.6"/><rect class="cls-14" x="752.68" y="714.21" width="32.31" height="6.88" transform="translate(1485.65 -51.18) rotate(90)"/><rect class="cls-14" x="751.85" y="712.2" width="32.31" height="6.88"/><circle class="cls-10" cx="1113.8" cy="700.93" r="42.52" transform="translate(-77.43 139.85) rotate(-6.95)"/><circle class="cls-11" cx="1112.12" cy="699.23" r="42.52"/><circle class="cls-12" cx="1112.95" cy="699.23" r="42.52" transform="translate(-81.43 148.77) rotate(-7.38)"/><rect class="cls-14" x="1079.86" y="703.23" width="9.74" height="12.24"/><rect class="cls-14" x="1092.65" y="697.11" width="9.74" height="18.36"/><rect class="cls-14" x="1105.45" y="690.99" width="9.74" height="24.48"/><rect class="cls-14" x="1118.25" y="684.87" width="9.74" height="30.6"/><rect class="cls-14" x="1131.04" y="678.75" width="9.74" height="36.72"/></g><g id="アイコン名"><text class="cls-45" transform="translate(66 213.41)">再生</text><text class="cls-45" transform="translate(175.33 213.41)">メール</text><text class="cls-45" transform="translate(296.67 213.41)">メモ</text><text class="cls-45" transform="translate(412 213.41)">拡大</text><text class="cls-45" transform="translate(527.33 213.41)">縮小</text><text class="cls-45" transform="translate(636.67 213.41)">ゴミ箱</text><text class="cls-45" transform="translate(758 213.41)">探す</text><text class="cls-45" transform="translate(861.33 213.41)">消しゴム</text><text class="cls-45" transform="translate(994.67 213.41)">罰</text><text class="cls-45" transform="translate(1104 213.41)">充電</text><text class="cls-45" transform="translate(48 351.9)">ログアウト</text><text class="cls-45" transform="translate(169.33 351.9)">ログイン</text><text class="cls-45" transform="translate(290.67 351.9)">ロック</text><text class="cls-45" transform="translate(388 351.9)">ダウンロード</text><text class="cls-45" transform="translate(509.33 351.9)">メッセージ</text><text class="cls-45" transform="translate(642.67 351.9)">時計</text><text class="cls-45" transform="translate(746 351.9)">サウンド</text><text class="cls-45" transform="translate(867.33 351.9)">マップ</text><text class="cls-45" transform="translate(982.67 351.9)">テレビ</text><text class="cls-45" transform="translate(1098 351.9)">ビデオ</text><text class="cls-45" transform="translate(66 492.39)">設定</text><text class="cls-45" transform="translate(181.33 492.39)">矢印</text><text class="cls-45" transform="translate(278.67 492.39)">プレゼント</text><text class="cls-45" transform="translate(412 492.39)">禁煙</text><text class="cls-45" transform="translate(533.33 492.39)">星</text><text class="cls-45" transform="translate(648.67 492.39)">鍵</text><text class="cls-45" transform="translate(752 492.39)">カメラ</text><text class="cls-45" transform="translate(867.33 492.39)">いいね</text><text class="cls-45" transform="translate(982.67 492.39)">ホーム</text><text class="cls-46" transform="translate(1062 492.39)">クエスチョンマーク</text><text class="cls-45" transform="translate(0 630.89)">エクスクラメーションマーク</text><text class="cls-45" transform="translate(169.33 630.89)">ひらがな</text><text class="cls-45" transform="translate(296.67 630.89)">英字</text><text class="cls-45" transform="translate(400 630.89)">カタカナ</text><text class="cls-45" transform="translate(503.33 630.89)">初心者マーク</text><text class="cls-45" transform="translate(648.67 630.89)">本</text><text class="cls-45" transform="translate(716 630.89)">インフォメーション</text><text class="cls-45" transform="translate(867.33 630.89)">グッド</text><text class="cls-45" transform="translate(988.67 630.89)">ドル</text><text class="cls-45" transform="translate(1102.35 630.89)">Wi-Fi</text><text class="cls-45" transform="translate(66 773.38)">方角</text><text class="cls-45" transform="translate(181.33 773.38)">写真</text><text class="cls-45" transform="translate(296.67 773.38)">電話</text><text class="cls-45" transform="translate(412 773.38)">移動</text><text class="cls-45" transform="translate(509.33 773.38)">リツイート</text><text class="cls-45" transform="translate(642.67 773.38)">男性</text><text class="cls-45" transform="translate(758 773.38)">女性</text><text class="cls-45" transform="translate(855.33 773.38)">再読み込み</text><text class="cls-45" transform="translate(976.67 773.38)">お知らせ</text><text class="cls-45" transform="translate(1104 773.38)">電波</text></g></svg>