<svg xmlns="http://www.w3.org/2000/svg" viewBox="0 0 1137 822.52"><defs><style>.cls-1,.cls-10,.cls-2,.cls-3,.cls-4,.cls-6{fill:#231815;}.cls-2{font-size:19px;}.cls-2,.cls-3,.cls-6{font-family:KozGoPro-Medium-90ms-RKSJ-H, Kozuka Gothic Pro;}.cls-3{font-size:16px;}.cls-4,.cls-6{font-size:13px;}.cls-4{font-family:KozGoPro-Bold-90ms-RKSJ-H, Kozuka Gothic Pro;}.cls-5{letter-spacing:-0.5em;}.cls-12,.cls-13,.cls-15,.cls-17,.cls-18,.cls-24,.cls-7{fill:none;}.cls-7{stroke:#dcdddd;}.cls-12,.cls-17,.cls-19,.cls-20,.cls-21,.cls-24,.cls-25,.cls-26,.cls-29,.cls-7{stroke-miterlimit:10;}.cls-8{font-size:24px;}.cls-8,.cls-9{fill:#fff;}.cls-28,.cls-8{font-family:KozGoPro-Heavy-90ms-RKSJ-H, Kozuka Gothic Pro;}.cls-10,.cls-12{font-size:12px;}.cls-10,.cls-12,.cls-23{font-family:KozGoPro-Regular-90ms-RKSJ-H, Kozuka Gothic Pro;}.cls-11{letter-spacing:0.25em;}.cls-12{stroke:#231815;}.cls-13,.cls-18{stroke:#f8b862;}.cls-13,.cls-15,.cls-18{stroke-linecap:round;stroke-dasharray:0 8.62;}.cls-13,.cls-15,.cls-18,.cls-27{stroke-linejoin:round;}.cls-13{stroke-width:14.17px;}.cls-14,.cls-20,.cls-21,.cls-26,.cls-29{fill:#fcd697;}.cls-15,.cls-20{stroke:#fcd697;}.cls-15{stroke-width:11.34px;}.cls-16,.cls-19,.cls-22,.cls-23,.cls-25,.cls-27,.cls-28{fill:#b6782b;}.cls-17,.cls-19,.cls-21,.cls-24,.cls-25,.cls-26,.cls-27,.cls-29{stroke:#b6782b;}.cls-17,.cls-19,.cls-20,.cls-29{stroke-width:5.67px;}.cls-18{stroke-width:14.17px;}.cls-21,.cls-27{stroke-width:5.67px;}.cls-22{font-size:52.61px;font-family:KozGoPr6N-Regular-90ms-RKSJ-H, Kozuka Gothic Pr6N;}.cls-23{font-size:61.9px;}.cls-24,.cls-25,.cls-26{stroke-width:2.83px;}.cls-28{font-size:59.01px;}</style></defs><g id="テンプレート"><path class="cls-1" d="M29,0V55.41a12,12,0,0,0,12,12H413.83a12,12,0,0,0,12-12V0Z" transform="translate(-28.33)"/><text class="cls-2" transform="translate(931.95 46.3)">www.design-icon.com</text><text class="cls-3" transform="translate(418.97 55.3)">DESIGNER : 関一駿</text><text class="cls-4" transform="translate(805.5 817.27)">利用規約：個人、商用、すべてフリーでご利用ください<tspan class="cls-5" x="325" y="0">。</tspan></text><text class="cls-6" transform="translate(418.97 30.16)">サイズ：100 x 100 px</text><rect class="cls-7" x="0.5" y="87.3" width="100" height="100"/><rect class="cls-7" x="115.5" y="87.3" width="100" height="100"/><rect class="cls-7" x="230.5" y="87.3" width="100" height="100"/><rect class="cls-7" x="345.5" y="87.3" width="100" height="100"/><rect class="cls-7" x="460.5" y="87.3" width="100" height="100"/><rect class="cls-7" x="575.5" y="87.3" width="100" height="100"/><rect class="cls-7" x="690.5" y="87.3" width="100" height="100"/><rect class="cls-7" x="805.5" y="87.3" width="100" height="100"/><rect class="cls-7" x="920.5" y="87.3" width="100" height="100"/><rect class="cls-7" x="1035.5" y="87.3" width="100" height="100"/><rect class="cls-7" x="0.5" y="228.07" width="100" height="100"/><rect class="cls-7" x="115.5" y="228.07" width="100" height="100"/><rect class="cls-7" x="230.5" y="228.07" width="100" height="100"/><rect class="cls-7" x="345.5" y="228.07" width="100" height="100"/><rect class="cls-7" x="460.5" y="228.07" width="100" height="100"/><rect class="cls-7" x="575.5" y="228.07" width="100" height="100"/><rect class="cls-7" x="690.5" y="228.07" width="100" height="100"/><rect class="cls-7" x="805.5" y="228.07" width="100" height="100"/><rect class="cls-7" x="920.5" y="228.07" width="100" height="100"/><rect class="cls-7" x="1035.5" y="228.07" width="100" height="100"/><rect class="cls-7" x="0.5" y="368.84" width="100" height="100"/><rect class="cls-7" x="115.5" y="368.84" width="100" height="100"/><rect class="cls-7" x="230.5" y="368.84" width="100" height="100"/><rect class="cls-7" x="345.5" y="368.84" width="100" height="100"/><rect class="cls-7" x="460.5" y="368.84" width="100" height="100"/><rect class="cls-7" x="575.5" y="368.84" width="100" height="100"/><rect class="cls-7" x="690.5" y="368.84" width="100" height="100"/><rect class="cls-7" x="805.5" y="368.84" width="100" height="100"/><rect class="cls-7" x="920.5" y="368.84" width="100" height="100"/><rect class="cls-7" x="1035.5" y="368.84" width="100" height="100"/><rect class="cls-7" x="0.5" y="509.61" width="100" height="100"/><rect class="cls-7" x="115.5" y="509.61" width="100" height="100"/><rect class="cls-7" x="230.5" y="509.61" width="100" height="100"/><rect class="cls-7" x="345.5" y="509.61" width="100" height="100"/><rect class="cls-7" x="460.5" y="509.61" width="100" height="100"/><rect class="cls-7" x="575.5" y="509.61" width="100" height="100"/><rect class="cls-7" x="690.5" y="509.61" width="100" height="100"/><rect class="cls-7" x="805.5" y="509.61" width="100" height="100"/><rect class="cls-7" x="920.5" y="509.61" width="100" height="100"/><rect class="cls-7" x="1035.5" y="509.61" width="100" height="100"/><rect class="cls-7" x="0.5" y="650.38" width="100" height="100"/><rect class="cls-7" x="115.5" y="650.38" width="100" height="100"/><rect class="cls-7" x="230.5" y="650.38" width="100" height="100"/><rect class="cls-7" x="345.5" y="650.38" width="100" height="100"/><rect class="cls-7" x="460.5" y="650.38" width="100" height="100"/><rect class="cls-7" x="575.5" y="650.38" width="100" height="100"/><rect class="cls-7" x="690.5" y="650.38" width="100" height="100"/><rect class="cls-7" x="805.5" y="650.38" width="100" height="100"/><rect class="cls-7" x="920.5" y="650.38" width="100" height="100"/><rect class="cls-7" x="1035.5" y="650.38" width="100" height="100"/><text class="cls-8" transform="translate(78.38 43.3)">ビスケット風アイコン</text><circle class="cls-9" cx="68.27" cy="34.22" r="16.05" transform="translate(-36.23 28.73) rotate(-22.5)"/></g><g id="アイコン名"><text class="cls-10" transform="translate(32.5 213.41)">人物像</text><text class="cls-10" transform="translate(147.83 213.41)">ハサミ</text><text class="cls-10" transform="translate(269.17 213.41)">ぺん</text><text class="cls-10" transform="translate(360.5 213.41)">ブックマーク</text><text class="cls-10" transform="translate(499.83 213.41)">共有</text><text class="cls-10" transform="translate(609.17 213.41)">リンク</text><text class="cls-10" transform="translate(730.5 213.41)">かね</text><text class="cls-10" transform="translate(839.83 213.41)">低評価</text><text class="cls-10" transform="translate(961.17 213.41)">骸骨</text><text class="cls-10" transform="translate(1064.5 213.41)">フラスコ</text><text class="cls-10" transform="translate(32.5 351.9)">トーク</text><text class="cls-10" transform="translate(135.83 351.9)">モーメント</text><text class="cls-10" transform="translate(263.17 351.9)">カート</text><text class="cls-10" transform="translate(360.5 351.9)">セキュリティ</text><text class="cls-10" transform="translate(469.83 351.9)">アカウント追加</text><text class="cls-10" transform="translate(615.17 351.9)">音楽</text><text class="cls-10" transform="translate(712.5 351.9)">カレンダー</text><text class="cls-10" transform="translate(833.83 351.9)">ポイント</text><text class="cls-10" transform="translate(967.17 351.9)">株</text><text class="cls-10" transform="translate(1058.5 351.9)">フィルター</text><text class="cls-10" transform="translate(38.5 492.39)">位置</text><text class="cls-10" transform="translate(133.05 492.39)">サウン<tspan class="cls-11" x="36" y="0">ド</tspan><tspan x="51" y="0">off</tspan></text><text class="cls-10" transform="translate(257.17 492.39)">電話終了</text><text class="cls-10" transform="translate(384.5 492.39)">電源</text><text class="cls-10" transform="translate(481.83 492.39)">レストラン</text><text class="cls-10" transform="translate(585.17 492.39)">おやすみモード</text><text class="cls-10" transform="translate(712.5 492.39)">機内モード</text><text class="cls-10" transform="translate(851.83 492.39)">眼</text><text class="cls-10" transform="translate(955.17 492.39)">マイク</text><text class="cls-10" transform="translate(1064.5 492.39)">ミュート</text><text class="cls-10" transform="translate(32.5 630.89)">リスト</text><text class="cls-10" transform="translate(147.83 630.89)">明るさ</text><text class="cls-10" transform="translate(263.17 630.89)">ヒント</text><text class="cls-12" transform="translate(366.5 630.89)">メニュー　</text><text class="cls-10" transform="translate(505.83 630.89)">雲</text><text class="cls-10" transform="translate(615.17 630.89)">返信</text><text class="cls-10" transform="translate(736.5 630.89)">雨</text><text class="cls-10" transform="translate(831.19 630.89)">Bluetooth</text><text class="cls-10" transform="translate(955.17 630.89)">消防署</text><text class="cls-10" transform="translate(1070.5 630.89)">警察署</text><text class="cls-10" transform="translate(32.5 773.38)">保健所</text><text class="cls-10" transform="translate(141.83 773.38)">小中学校</text><text class="cls-10" transform="translate(269.17 773.38)">神社</text><text class="cls-10" transform="translate(384.5 773.38)">寺院</text><text class="cls-10" transform="translate(493.83 773.38)">博物館</text><text class="cls-10" transform="translate(609.17 773.38)">郵便局</text><text class="cls-10" transform="translate(730.5 773.38)">温泉</text><text class="cls-10" transform="translate(839.83 773.38)">果樹園</text><text class="cls-10" transform="translate(961.17 773.38)">漁港</text><text class="cls-10" transform="translate(1076.5 773.38)">城跡</text></g><g id="アイコン"><circle class="cls-13" cx="50.38" cy="137.31" r="42.52"/><circle class="cls-14" cx="49.53" cy="135.61" r="42.52"/><circle class="cls-15" cx="49.53" cy="135.61" r="42.52"/><path class="cls-16" d="M78.83,134a15.17,15.17,0,1,0-15.16-15.17A15.17,15.17,0,0,0,78.83,134Z" transform="translate(-28.33)"/><path class="cls-16" d="M79.14,135.72c-11.28,0-17.31,12.95-17.31,18.95v11h34v-11C95.83,148.67,90.42,135.72,79.14,135.72Z" transform="translate(-28.33)"/><circle class="cls-13" cx="165.34" cy="137.31" r="42.52"/><circle class="cls-14" cx="164.49" cy="135.61" r="42.52"/><circle class="cls-15" cx="164.49" cy="135.61" r="42.52"/><circle class="cls-17" cx="186.35" cy="126" r="8.67"/><rect class="cls-17" x="166.08" y="142.17" width="42.72" height="2.65" transform="translate(394.57 160.34) rotate(146.66)"/><circle class="cls-17" cx="186.35" cy="150.38" r="8.67"/><rect class="cls-17" x="166.65" y="130.7" width="42.72" height="2.65" transform="translate(242.1 346.47) rotate(-146.1)"/><circle class="cls-13" cx="280.28" cy="137.31" r="42.52"/><circle class="cls-14" cx="279.43" cy="135.61" r="42.52"/><circle class="cls-15" cx="279.43" cy="135.61" r="42.52"/><path class="cls-16" d="M335.85,115.65l-6.39-6.39a4.39,4.39,0,0,0-6.2,0l-4.14,4.14L288,144.49a8,8,0,0,0-1.88,3l-4.1,11.42a3.27,3.27,0,0,0,4.18,4.19L297.66,159a8.08,8.08,0,0,0,3-1.88l30-30h0l1.08-1.08,4.14-4.15h0A4.38,4.38,0,0,0,335.85,115.65Zm-39.23,40.42-7.27,2.61-2.92-2.91,2.61-7.28.07-.15,7.67,7.66Zm1.84-1.17a2.89,2.89,0,0,1-.32.29L289.92,147l.29-.33,30.93-30.93,8.25,8.25Zm35.22-35.22-3.05,3.06-.16.15-8.25-8.25,3.21-3.21a1.3,1.3,0,0,1,1.86,0l6.39,6.39A1.3,1.3,0,0,1,333.68,119.68Z" transform="translate(-28.33)"/><circle class="cls-18" cx="394.95" cy="137.16" r="42.52"/><circle class="cls-14" cx="394.1" cy="135.46" r="42.52"/><circle class="cls-15" cx="394.1" cy="135.46" r="42.52"/><rect class="cls-19" x="375.35" y="112.3" width="41.06" height="46.62"/><polygon class="cls-20" points="395.5 144.92 377.04 159.35 413.96 159.35 395.5 144.92"/><circle class="cls-18" cx="510.58" cy="137.16" r="42.52"/><circle class="cls-14" cx="509.73" cy="135.46" r="42.52"/><circle class="cls-15" cx="509.73" cy="135.46" r="42.52"/><polyline class="cls-17" points="487.01 136.18 487.01 158.92 536.66 158.92 536.66 136.65"/><rect class="cls-17" x="533.69" y="105.77" width="0.14" height="17.59" transform="translate(214.9 -347.62) rotate(45.73)"/><rect class="cls-17" x="546.3" y="106.18" width="0.14" height="17.59" transform="translate(989.55 -184.06) rotate(135.73)"/><rect class="cls-17" x="511.59" y="113.5" width="0.14" height="26.83"/><circle class="cls-18" cx="625.46" cy="137.16" r="42.52"/><circle class="cls-14" cx="624.61" cy="135.46" r="42.52"/><circle class="cls-15" cx="624.61" cy="135.46" r="42.52"/><path class="cls-16" d="M674.82,115.6a13.89,13.89,0,0,0-23.47-7.17L640.8,119A13.84,13.84,0,0,0,637,131.46a13.89,13.89,0,0,0,23.47,7.17l.79-.79a4.26,4.26,0,0,0-.27-2.15,4.09,4.09,0,0,0-.93-1.4,4.23,4.23,0,0,0-2.19-1.17,4.49,4.49,0,0,0-1.37,0l-.79.8a7.26,7.26,0,0,1-2.37,1.57,7.17,7.17,0,0,1-4.07.39,7.06,7.06,0,0,1-3.69-2A7.17,7.17,0,0,1,644,131.5a7.18,7.18,0,0,1,1.58-7.77l10.55-10.54a6.82,6.82,0,0,1,2.36-1.57,7.15,7.15,0,0,1,7.77,1.57,7,7,0,0,1,1.58,2.37,7.26,7.26,0,0,1,.39,4.07,7.09,7.09,0,0,1-1.9,3.62,16.7,16.7,0,0,1,2.61,2.14,16.19,16.19,0,0,1,2.15,2.62,13.92,13.92,0,0,0,3.75-12.41Z" transform="translate(-28.33)"/><path class="cls-16" d="M666.86,127.46a13.9,13.9,0,0,0-19.65,0l-.79.79a4.41,4.41,0,0,0,.27,2.16,4.21,4.21,0,0,0,.94,1.4,4.15,4.15,0,0,0,2.18,1.16,4.2,4.2,0,0,0,1.37,0l.79-.79a7,7,0,0,1,2.37-1.57,7.17,7.17,0,0,1,9.34,3.93,7.31,7.31,0,0,1,.39,4.08,7.12,7.12,0,0,1-2,3.7L651.55,152.9a7,7,0,0,1-2.36,1.58,7.27,7.27,0,0,1-4.07.39,7.14,7.14,0,0,1-3.7-2,6.82,6.82,0,0,1-1.57-2.36,7.2,7.2,0,0,1-.4-4.07,7.11,7.11,0,0,1,1.9-3.63,15.64,15.64,0,0,1-2.61-2.14h0a17.07,17.07,0,0,1-2.14-2.61,13.72,13.72,0,0,0-3,4.52,13.9,13.9,0,0,0-.76,7.88,13.72,13.72,0,0,0,3.81,7.17,13.84,13.84,0,0,0,12.48,3.82,13.85,13.85,0,0,0,7.17-3.82l10.55-10.54a13.89,13.89,0,0,0,0-19.66Z" transform="translate(-28.33)"/><circle class="cls-18" cx="740.23" cy="137.16" r="42.52"/><circle class="cls-14" cx="739.38" cy="135.46" r="42.52"/><circle class="cls-15" cx="739.38" cy="135.46" r="42.52"/><polygon class="cls-16" points="751.58 122.85 759.16 111.04 758 111.04 750.44 111.04 749.28 111.04 738.98 127.05 728.7 111.04 727.54 111.04 719.98 111.04 718.82 111.04 726.41 122.85 717.28 122.85 717.28 124.65 717.28 130.11 717.28 131.91 732.24 131.91 733.85 134.42 733.85 140.39 717.28 140.39 717.28 140.42 717.28 148.18 717.28 149.39 733.85 149.39 733.85 161.73 744.14 161.73 744.14 149.39 760.7 149.39 760.7 148.18 760.7 140.42 760.7 140.39 744.14 140.39 744.14 134.41 745.75 131.91 760.7 131.91 760.7 130.11 760.7 124.65 760.7 122.85 751.58 122.85"/><circle class="cls-18" cx="855.66" cy="137.16" r="42.52"/><circle class="cls-14" cx="854.81" cy="135.46" r="42.52"/><circle class="cls-15" cx="854.81" cy="135.46" r="42.52"/><path class="cls-16" d="M860.67,132.67a4.76,4.76,0,0,0-2.55,4,5,5,0,0,0,4.75,4.64H873.1c1.92.08,4,.4,5,1.5,2.84,3-1.82,6.64-2.66,8.89s-2.73,6.55-1,11.37c1.82,5.07,7.36,4.22,8.23-.92.48-2.84,5.16-9.34,9.93-14.82,3.09-3.55,6.6-5.84,10.39-9.54,6.73-6.57,6.73-22-2.92-26.68-3.44-1.68-10.68-2.72-16.33-2.92-7.8-.28-9-.06-12.23.28l-3,.42c-2.34.82-3.92,2.63-4,4.56a4.17,4.17,0,0,0,.62,2.25c-2.36,1.54-4.34,3.13-4.34,4.6a3.39,3.39,0,0,0,.45,1.94,18.27,18.27,0,0,0,.69,1.92,5,5,0,0,0-3.24,4.24A5.19,5.19,0,0,0,860.67,132.67Z" transform="translate(-28.33)"/><circle class="cls-18" cx="970.07" cy="137.16" r="42.52"/><circle class="cls-14" cx="969.22" cy="135.46" r="42.52"/><circle class="cls-15" cx="969.22" cy="135.46" r="42.52"/><path class="cls-16" d="M997.56,104.7A27.36,27.36,0,0,0,984.29,156l0,8.4h6.22V158a2,2,0,1,1,4,0v6.36h6.09l0-6.36a2,2,0,1,1,4,0l.06,6.36h6.08l.05-8.4a27.36,27.36,0,0,0-13.26-51.29Zm-12,34a7.74,7.74,0,1,1,7.74-7.74A7.74,7.74,0,0,1,985.59,138.69Zm16.59,7.68a.64.64,0,0,1-.56.34h-8.13a.64.64,0,0,1-.56-.34.62.62,0,0,1,0-.64l4.07-6a.63.63,0,0,1,1,0l4.07,6A.62.62,0,0,1,1002.18,146.37Zm7.34-7.68a7.74,7.74,0,1,1,7.73-7.74A7.73,7.73,0,0,1,1009.52,138.69Z" transform="translate(-28.33)"/><circle class="cls-18" cx="1085.3" cy="137.16" r="42.52"/><circle class="cls-14" cx="1084.45" cy="135.46" r="42.52"/><circle class="cls-15" cx="1084.45" cy="135.46" r="42.52"/><path class="cls-16" d="M1135.37,150.21l-12.15-19.41a10.26,10.26,0,0,1-1.57-5.46l0-14.49h-15.58l0,14.47a10.27,10.27,0,0,1-1.58,5.47l-12.19,19.39a6.39,6.39,0,0,0-1,3.43,6.44,6.44,0,0,0,6.44,6.44l32.15,0h.13a6.44,6.44,0,0,0,5.51-3.31h0a6.46,6.46,0,0,0-.17-6.55Zm-3.12,4.72a2.67,2.67,0,0,1-2.34,1.39h0l-32.13,0a2.67,2.67,0,0,1-2.35-1.39,2.59,2.59,0,0,1-.34-1.29,2.7,2.7,0,0,1,.41-1.43l12.19-19.38a14,14,0,0,0,2.16-7.48l0-10.71h8.05v10.71h0a14.06,14.06,0,0,0,2.14,7.46l12.15,19.41a2.69,2.69,0,0,1,.41,1.42A2.6,2.6,0,0,1,1132.25,154.93Z" transform="translate(-28.33)"/><circle class="cls-13" cx="50.22" cy="278.3" r="42.52"/><circle class="cls-14" cx="49.37" cy="276.6" r="42.52"/><circle class="cls-15" cx="49.37" cy="276.6" r="42.52"/><path class="cls-21" d="M57.08,282l-5.35,15,14.71-3c5.54,1.38,18.06,3.64,30.1-2.26,3.19-1.56,7.54-3.76,10.32-8.71a20.64,20.64,0,0,0,1.72-14.81,21.41,21.41,0,0,0-4.2-8.19c-5.84-7.41-14.32-9.24-16.59-9.65a29.53,29.53,0,0,0-21.57,4.76c-2.79,1.94-9.33,6.46-10.78,14.8A20.78,20.78,0,0,0,57.08,282Z" transform="translate(-28.33)"/><circle class="cls-21" cx="39.25" cy="272.33" r="2.08"/><circle class="cls-21" cx="52.6" cy="272.33" r="2.08"/><circle class="cls-21" cx="65.97" cy="272.33" r="2.08"/><circle class="cls-13" cx="165.11" cy="278.3" r="42.52"/><circle class="cls-14" cx="164.26" cy="276.6" r="42.52"/><circle class="cls-15" cx="164.26" cy="276.6" r="42.52"/><polygon class="cls-16" points="148.11 249.16 146.13 280.42 163.79 280.42 163.79 311.67 184.93 274.12 167.02 274.12 168.52 249.16 148.11 249.16"/><circle class="cls-13" cx="280.3" cy="278.3" r="42.52"/><circle class="cls-14" cx="279.45" cy="276.6" r="42.52"/><circle class="cls-15" cx="279.45" cy="276.6" r="42.52"/><path class="cls-16" d="M326.44,254.91a2,2,0,0,0-2,1.53l-2,7.83H286.86a2,2,0,0,0-2,2.61l5.86,20.33a2,2,0,0,0,2,1.48h23.43l-.89,3.42H292.9v3.6h23.57a2.05,2.05,0,0,0,2-1.53l9.2-35.67h6.53v-3.6Zm-7.58,23.28-1.79,6.9h-4.49v-6.9Zm2.66-10.32-1.74,6.72h-7.2v-6.72ZM309,278.19v6.9H301.3v-6.9Zm0-10.32v6.72H301.3v-6.72Zm-10.7,0v6.72h-7.41l-1.94-6.72Zm0,10.32v6.9h-4.39l-2-6.9Z" transform="translate(-28.33)"/><path class="cls-16" d="M296.34,298.42a3.65,3.65,0,1,0,3.65,3.65A3.64,3.64,0,0,0,296.34,298.42Z" transform="translate(-28.33)"/><path class="cls-16" d="M313.85,298.62a3.65,3.65,0,1,0,3.65,3.65A3.65,3.65,0,0,0,313.85,298.62Z" transform="translate(-28.33)"/><circle class="cls-13" cx="395.15" cy="278.3" r="42.52"/><circle class="cls-14" cx="394.3" cy="276.6" r="42.52"/><circle class="cls-15" cx="394.3" cy="276.6" r="42.52"/><path class="cls-16" d="M424.21,250.45c-5.37,6.45-14,10.21-23.65,10.75v22.05c0,14.51,23.65,26.88,23.65,26.88s23.66-12.37,23.66-26.88V261.2C438.19,260.66,429.59,256.9,424.21,250.45Z" transform="translate(-28.33)"/><circle class="cls-13" cx="510.48" cy="278.3" r="42.52"/><circle class="cls-14" cx="509.63" cy="276.6" r="42.52"/><circle class="cls-15" cx="509.63" cy="276.6" r="42.52"/><path class="cls-16" d="M540.12,275.28a14.78,14.78,0,1,0-14.78-14.78A14.77,14.77,0,0,0,540.12,275.28Z" transform="translate(-28.33)"/><path class="cls-16" d="M540.41,274.16c-11,0-16.86,12.61-16.86,18.46v10.72h33.13V292.62C556.68,286.77,551.41,274.16,540.41,274.16Z" transform="translate(-28.33)"/><rect class="cls-16" x="490.5" y="274.16" width="10.25" height="2.01"/><rect class="cls-16" x="518.83" y="274.16" width="10.25" height="2.01" transform="translate(770.79 -248.79) rotate(90)"/><circle class="cls-13" cx="625.4" cy="278.3" r="42.52"/><circle class="cls-14" cx="624.55" cy="276.6" r="42.52"/><circle class="cls-15" cx="624.55" cy="276.6" r="42.52"/><text class="cls-22" transform="translate(595.86 294.61)">♫</text><circle class="cls-13" cx="768.63" cy="278.3" r="42.52" transform="translate(408.21 1025.27) rotate(-85.93)"/><circle class="cls-14" cx="739.45" cy="276.6" r="42.52"/><circle class="cls-15" cx="767.78" cy="276.6" r="42.52" transform="translate(409.12 1022.84) rotate(-85.93)"/><rect class="cls-17" x="715.34" y="259.9" width="47.85" height="37.03"/><circle class="cls-17" cx="754.7" cy="288.59" r="1.11"/><rect class="cls-17" x="728.09" y="252.69" width="0.14" height="14.55"/><rect class="cls-17" x="749.57" y="252.69" width="0.14" height="14.55"/><circle class="cls-13" cx="883.8" cy="278.3" r="42.52" transform="translate(515.21 1140.14) rotate(-85.93)"/><circle class="cls-14" cx="854.61" cy="276.6" r="42.52"/><circle class="cls-15" cx="882.95" cy="276.6" r="42.52" transform="translate(516.12 1137.72) rotate(-85.93)"/><text class="cls-23" transform="translate(839.97 300.59)">P</text><circle class="cls-13" cx="998.2" cy="278.3" r="42.52" transform="translate(621.51 1254.27) rotate(-85.93)"/><circle class="cls-14" cx="969.02" cy="276.6" r="42.52"/><circle class="cls-15" cx="997.35" cy="276.6" r="42.52" transform="translate(622.42 1251.84) rotate(-85.93)"/><rect class="cls-19" x="946.28" y="280.71" width="0.25" height="17.02"/><rect class="cls-19" x="975.51" y="276.94" width="0.25" height="20.79"/><rect class="cls-19" x="991.52" y="269.01" width="0.25" height="28.72"/><rect class="cls-19" x="960.89" y="271.83" width="0.25" height="25.9"/><polyline class="cls-24" points="946.28 269.01 960.89 258.21 975.51 269.85 991.77 255.47"/><circle class="cls-13" cx="1113.84" cy="278.3" r="42.52" transform="translate(728.95 1369.61) rotate(-85.93)"/><circle class="cls-14" cx="1084.66" cy="276.6" r="42.52"/><circle class="cls-15" cx="1112.99" cy="276.6" r="42.52" transform="translate(729.86 1367.18) rotate(-85.93)"/><line class="cls-25" x1="1058.67" y1="262.66" x2="1113.11" y2="262.66"/><line class="cls-26" x1="1058.67" y1="288.49" x2="1113.11" y2="288.49"/><circle class="cls-26" cx="1097.84" cy="262.56" r="9.34"/><circle class="cls-26" cx="1074.08" cy="288.49" r="9.34"/><circle class="cls-13" cx="50.22" cy="418.52" r="42.52"/><circle class="cls-14" cx="49.37" cy="416.82" r="42.52"/><circle class="cls-15" cx="49.37" cy="416.82" r="42.52"/><path class="cls-16" d="M78.83,387.4A24,24,0,0,0,65.2,431.05c5.65,4,6.89,5,8.88,8.76,1.57,3,4.12,8.26,4.12,8.26a.7.7,0,0,0,1.26,0s2.55-5.26,4.12-8.26c2-3.79,3.24-4.75,8.88-8.76A24,24,0,0,0,78.83,387.4Zm0,40a16.06,16.06,0,1,1,16-16.05A16.06,16.06,0,0,1,78.83,427.41Z" transform="translate(-28.33)"/><circle class="cls-13" cx="165.46" cy="418.52" r="42.52"/><circle class="cls-14" cx="164.61" cy="416.82" r="42.52"/><circle class="cls-15" cx="164.61" cy="416.82" r="42.52"/><rect class="cls-27" x="142.78" y="406.79" width="6.57" height="20.65"/><polygon class="cls-27" points="179.13 442.79 146.06 419.94 146.06 413.9 179.41 390.85 179.13 442.79"/><rect class="cls-27" x="174.11" y="397.34" width="1.84" height="37.42"/><rect class="cls-27" x="168.47" y="400.39" width="2.19" height="30.7"/><rect class="cls-27" x="162.74" y="402.59" width="1.7" height="25.8"/><rect class="cls-27" x="157.75" y="408.24" width="1.15" height="15.69"/><rect class="cls-27" x="153.38" y="411.35" width="0.23" height="8.59"/><rect class="cls-27" x="149.34" y="413.26" width="1.04" height="4.69"/><rect class="cls-27" x="195.34" y="387.66" width="1.43" height="58.37" transform="translate(323.84 -16.54) rotate(45)"/><circle class="cls-13" cx="280.62" cy="419.21" r="42.52"/><circle class="cls-14" cx="279.77" cy="417.51" r="42.52"/><circle class="cls-15" cx="279.77" cy="417.51" r="42.52"/><path class="cls-16" d="M280.37,401.33c-3.18,3.18-2.31,10.8.38,16.58a56,56,0,0,0,10.91,15.53,58,58,0,0,0,15.53,10.91c5.79,2.69,13.41,3.56,16.58.39a19,19,0,0,0,3.67-6.12s-2.16-2.15-2.63-2.63l-7.23-7.23c-.54-.53-2.95.58-4.08,1.58a12.6,12.6,0,0,0-2.57,4.34c-1,.94-2.19.47-4.47-.05C303.64,434,300,431,297,428.12c-2.83-3-5.88-6.66-6.51-9.47-.52-2.29-1-3.44-.05-4.48a12.51,12.51,0,0,0,4.34-2.57c1-1.13,2.12-3.54,1.58-4.08l-7.23-7.23-2.63-2.63A19.11,19.11,0,0,0,280.37,401.33Z" transform="translate(-28.33)"/><rect class="cls-16" x="313.99" y="388.54" width="6.38" height="31.62" transform="translate(-221.35 342.71) rotate(-45)"/><rect class="cls-16" x="313.99" y="388.54" width="6.38" height="31.62" transform="translate(350.49 -105.85) rotate(45)"/><circle class="cls-13" cx="395.15" cy="419.21" r="42.52"/><circle class="cls-14" cx="394.3" cy="417.51" r="42.52"/><circle class="cls-15" cx="394.3" cy="417.51" r="42.52"/><path class="cls-16" d="M443.23,397.29a5,5,0,1,0-6.86,7.27,18.73,18.73,0,0,1,5.93,13.76,19,19,0,0,1-38,0,18.73,18.73,0,0,1,5.93-13.76,5,5,0,1,0-6.85-7.27,29,29,0,1,0,39.84,0Z" transform="translate(-28.33)"/><path class="cls-16" d="M423.31,418.32c2.76,0,5-1.79,5-4v-24c0-2.21-2.23-4-5-4s-5,1.79-5,4v24C418.31,416.53,420.55,418.32,423.31,418.32Z" transform="translate(-28.33)"/><circle class="cls-13" cx="510.48" cy="419.21" r="42.52"/><circle class="cls-14" cx="509.63" cy="417.51" r="42.52"/><circle class="cls-15" cx="509.63" cy="417.51" r="42.52"/><path class="cls-16" d="M552.11,391.6c-6.48,0-11.73,6.49-11.73,13.81A15.25,15.25,0,0,0,545,416.24c2.25,2.15,3.63,3.81,3.91,7.4v23.67a3,3,0,0,0,3,3h.4a3,3,0,0,0,3-3V423.64c.27-3.59,1.66-5.25,3.9-7.4a15.26,15.26,0,0,0,4.66-10.83C563.85,398.09,558.59,391.6,552.11,391.6Z" transform="translate(-28.33)"/><path class="cls-16" d="M531.1,394.42V407a1.44,1.44,0,0,1-1.44,1.45h-.39a1.45,1.45,0,0,1-1.45-1.45V394.36a2.73,2.73,0,0,0-5.45,0V407a1.45,1.45,0,0,1-1.45,1.45h-.38a1.44,1.44,0,0,1-1.45-1.45V394.42a2.64,2.64,0,1,0-5.28,0v12c0,6.64,1.57,8.37,4.19,10.44,2.11,1.67,3.92,2.62,3.92,6.77v23.67a3,3,0,0,0,3,3h.41a3,3,0,0,0,3-3V423.64c0-4.15,1.81-5.1,3.92-6.77,2.62-2.07,4.21-3.8,4.19-10.44v-12A2.64,2.64,0,1,0,531.1,394.42Z" transform="translate(-28.33)"/><circle class="cls-13" cx="625.34" cy="419.21" r="42.52"/><circle class="cls-14" cx="624.49" cy="417.51" r="42.52"/><circle class="cls-15" cx="624.49" cy="417.51" r="42.52"/><path class="cls-16" d="M670.77,435.7a28.36,28.36,0,0,1-20.57-47.91,31.21,31.21,0,1,0,32.09,45.47A28.21,28.21,0,0,1,670.77,435.7Z" transform="translate(-28.33)"/><circle class="cls-13" cx="740.21" cy="419.21" r="42.52"/><circle class="cls-14" cx="739.36" cy="417.51" r="42.52"/><circle class="cls-15" cx="739.36" cy="417.51" r="42.52"/><path class="cls-16" d="M767.62,443.54a3.1,3.1,0,0,0,2.69-1.94L778.17,421c11.52,0,19.46-1.44,19.46-4.55s-7.94-4.52-19.46-4.55l-7.86-20.56a3.12,3.12,0,0,0-2.69-1.94l-2.72-.09a1.28,1.28,0,0,0-1.08.52,1.63,1.63,0,0,0-.33,1.25s2.37,16.09,3.14,21c-8.7.2-13.54.43-13.54.43l-2.56-5.44a1.67,1.67,0,0,0-1.56-1.06h-1a1.66,1.66,0,0,0-1.22.52,1.71,1.71,0,0,0-.46,1.25l.39,6.87c-1.53.22-2.65.94-2.65,1.8s1.12,1.58,2.65,1.8l-.39,6.88a1.69,1.69,0,0,0,1.68,1.77h1a1.68,1.68,0,0,0,1.56-1.07l2.56-5.44s4.84.23,13.54.43c-.77,4.91-3.14,21-3.14,21a1.63,1.63,0,0,0,.33,1.25,1.31,1.31,0,0,0,1.08.53Z" transform="translate(-28.33)"/><circle class="cls-13" cx="883.95" cy="419.21" r="42.52" transform="matrix(0.99, -0.16, 0.16, 0.99, -84.07, 147.01)"/><circle class="cls-14" cx="854.77" cy="417.51" r="42.52"/><circle class="cls-15" cx="883.1" cy="417.51" r="42.52" transform="translate(-83.81 146.85) rotate(-9.22)"/><path class="cls-16" d="M913.24,416.06a2.5,2.5,0,0,0-.14-.42,3,3,0,0,0-.26-.51,25.49,25.49,0,0,0-1.66-2.45,66.79,66.79,0,0,0-4.47-5.37A38.8,38.8,0,0,0,901,402.1a37.79,37.79,0,0,0-8.41-4.62,24.45,24.45,0,0,0-17.45,0,37.36,37.36,0,0,0-8.41,4.62,46.57,46.57,0,0,0-8.18,8c-1.13,1.37-2.09,2.63-2.77,3.61-.35.49-.63.91-.84,1.27a4.41,4.41,0,0,0-.28.52,1.41,1.41,0,0,0-.13.32,1,1,0,0,0-.07.25,1.48,1.48,0,0,0,0,.43,1.61,1.61,0,0,0,0,.44,2.37,2.37,0,0,0,.13.42,3.36,3.36,0,0,0,.26.5,25.49,25.49,0,0,0,1.66,2.45,66.79,66.79,0,0,0,4.47,5.37,38.86,38.86,0,0,0,5.75,5.21,37.36,37.36,0,0,0,8.41,4.62,24.45,24.45,0,0,0,17.45,0,37.79,37.79,0,0,0,8.41-4.62,46.91,46.91,0,0,0,8.18-8c1.13-1.37,2.08-2.63,2.77-3.61.34-.49.62-.91.83-1.26a5.48,5.48,0,0,0,.28-.53,2,2,0,0,0,.14-.32l.07-.24a2.27,2.27,0,0,0,0-.44A2.08,2.08,0,0,0,913.24,416.06Zm-8.17,5.86a38.56,38.56,0,0,1-6.26,5.91,33.72,33.72,0,0,1-7.56,4.18,20.75,20.75,0,0,1-14.83,0,33.77,33.77,0,0,1-7.57-4.18,43.26,43.26,0,0,1-7.46-7.32c-1.07-1.29-2-2.48-2.59-3.37-.17-.24-.32-.46-.44-.65a54.93,54.93,0,0,1,4.23-5.43,39,39,0,0,1,6.26-5.91,33.77,33.77,0,0,1,7.57-4.18,20.75,20.75,0,0,1,14.83,0,33.72,33.72,0,0,1,7.56,4.18,42.9,42.9,0,0,1,7.46,7.32c1.07,1.29,2,2.49,2.59,3.37l.45.65A55.38,55.38,0,0,1,905.07,421.92Z" transform="translate(-28.33)"/><path class="cls-16" d="M883.83,403.34A13.15,13.15,0,1,0,897,416.49,13.15,13.15,0,0,0,883.83,403.34Zm0,19.26a6.11,6.11,0,0,1,0-12.21,6,6,0,0,1,1.9.3l-.86,2.62a2,2,0,0,0,2.25,2.57l2.71-.5a5.8,5.8,0,0,1,.11,1.11A6.12,6.12,0,0,1,883.83,422.6Z" transform="translate(-28.33)"/><circle class="cls-13" cx="998.59" cy="419.21" r="42.52" transform="translate(-82.59 165.37) rotate(-9.22)"/><circle class="cls-14" cx="969.41" cy="417.51" r="42.52"/><circle class="cls-15" cx="997.74" cy="417.51" r="42.52" transform="matrix(0.99, -0.16, 0.16, 0.99, -82.33, 165.21)"/><path class="cls-16" d="M1016.28,416v3.21a17.45,17.45,0,0,1-34.9,0V416h-4.26v3.21A21.73,21.73,0,0,0,996,440.74v10.63h5.68V440.74a21.72,21.72,0,0,0,18.87-21.51V416Z" transform="translate(-28.33)"/><path class="cls-16" d="M998.83,430.29a11.06,11.06,0,0,0,11.06-11.06V399.4a11.06,11.06,0,1,0-22.12,0v19.83A11.06,11.06,0,0,0,998.83,430.29ZM992,399.4a6.8,6.8,0,1,1,13.6,0v19.83a6.8,6.8,0,1,1-13.6,0Z" transform="translate(-28.33)"/><circle class="cls-13" cx="1114.03" cy="419.21" r="42.52" transform="translate(-81.1 183.86) rotate(-9.22)"/><circle class="cls-14" cx="1084.85" cy="417.51" r="42.52"/><circle class="cls-15" cx="1113.18" cy="417.51" r="42.52" transform="matrix(0.99, -0.16, 0.16, 0.99, -80.83, 183.7)"/><path class="cls-16" d="M1131.28,417.11v3.22a17.45,17.45,0,0,1-34.9,0v-3.22h-4.26v3.22a21.72,21.72,0,0,0,18.87,21.5v10.63h5.68V441.83a21.71,21.71,0,0,0,18.87-21.5v-3.22Z" transform="translate(-28.33)"/><path class="cls-16" d="M1113.83,431.39a11.07,11.07,0,0,0,11.06-11.06V400.49a11.06,11.06,0,0,0-22.12,0v19.84A11.08,11.08,0,0,0,1113.83,431.39Zm-6.8-30.9a6.8,6.8,0,1,1,13.6,0v19.84a6.8,6.8,0,0,1-13.6,0Z" transform="translate(-28.33)"/><rect class="cls-16" x="1111.47" y="375.23" width="3.41" height="80.48" transform="translate(591.5 -665.45) rotate(45)"/><circle class="cls-13" cx="50.28" cy="559.8" r="42.52"/><circle class="cls-14" cx="49.43" cy="558.1" r="42.52"/><circle class="cls-15" cx="49.43" cy="558.1" r="42.52"/><circle class="cls-19" cx="27.74" cy="539.55" r="2.69"/><circle class="cls-19" cx="27.74" cy="552.31" r="2.69"/><circle class="cls-19" cx="27.74" cy="565.06" r="2.69"/><circle class="cls-19" cx="27.74" cy="577.82" r="2.69"/><rect class="cls-25" x="37.74" y="539.55" width="41.85"/><rect class="cls-25" x="37.74" y="552.31" width="41.85"/><rect class="cls-25" x="37.74" y="565.17" width="41.85"/><rect class="cls-25" x="37.74" y="577.82" width="41.85"/><circle class="cls-13" cx="165.38" cy="559.8" r="42.52"/><circle class="cls-14" cx="164.53" cy="558.1" r="42.52"/><circle class="cls-15" cx="164.53" cy="558.1" r="42.52"/><circle class="cls-16" cx="193.83" cy="557.33" r="16.36" transform="translate(-39.63 4.06) rotate(-1.17)"/><rect class="cls-16" x="163.73" y="526.83" width="3.54" height="9.72"/><rect class="cls-16" x="163.73" y="578.1" width="3.54" height="9.72"/><rect class="cls-16" x="179.24" y="530.26" width="3.54" height="9.72" transform="translate(-271.65 162.21) rotate(-30)"/><rect class="cls-16" x="204.88" y="574.67" width="3.54" height="9.72" transform="translate(-290.44 181) rotate(-30)"/><rect class="cls-16" x="169.86" y="539.65" width="3.54" height="9.72" transform="translate(-414.08 420.89) rotate(-60)"/><rect class="cls-16" x="214.27" y="565.28" width="3.54" height="9.72" transform="translate(-414.08 472.18) rotate(-60)"/><rect class="cls-16" x="135" y="555.56" width="9.72" height="3.54"/><rect class="cls-16" x="186.28" y="555.56" width="9.72" height="3.54"/><rect class="cls-16" x="166.77" y="568.38" width="9.72" height="3.54" transform="translate(-290.36 162.14) rotate(-29.99)"/><rect class="cls-16" x="211.17" y="542.74" width="9.72" height="3.54" transform="translate(-271.66 181) rotate(-30)"/><rect class="cls-16" x="176.15" y="577.76" width="9.72" height="3.54" transform="matrix(0.5, -0.87, 0.87, 0.5, -439.72, 446.55)"/><rect class="cls-16" x="201.79" y="533.36" width="9.72" height="3.54" transform="translate(-388.41 446.37) rotate(-59.98)"/><circle class="cls-13" cx="280.46" cy="559.8" r="42.52"/><circle class="cls-14" cx="279.61" cy="558.1" r="42.52"/><circle class="cls-15" cx="279.61" cy="558.1" r="42.52"/><path class="cls-16" d="M309.5,524.13A20.25,20.25,0,0,0,293.65,557a41.84,41.84,0,0,1,3.82,5.12,8.71,8.71,0,0,1,.88,2.24,13,13,0,0,1,.3,2.95,6.65,6.65,0,0,0,.25,1.89,3.87,3.87,0,0,0,1.45,2.13,4,4,0,0,0,2.39.71h13.52a4.41,4.41,0,0,0,1.64-.3,3.62,3.62,0,0,0,1.87-1.71,5.82,5.82,0,0,0,.58-2.72,12.4,12.4,0,0,1,.3-2.95,9.71,9.71,0,0,1,1.56-3.33c.76-1.12,1.82-2.38,3.13-4a20.25,20.25,0,0,0-15.84-32.85Zm-2.05,39.71a29.78,29.78,0,0,0-.66-4.16c0-.13-.07-.24-.1-.36a10.37,10.37,0,0,0,1.31.09,13.65,13.65,0,0,0,1.5-.09,13.33,13.33,0,0,0,1.49.09,8.79,8.79,0,0,0,1.31-.09,33.65,33.65,0,0,0-.89,6.11c-.14,1.7-.2,3.19-.22,3.9H307.8C307.77,568.4,307.68,566.14,307.45,563.84Zm15.79-8.53a43.54,43.54,0,0,0-4.07,5.49,11.46,11.46,0,0,0-1.14,2.91,15.6,15.6,0,0,0-.38,3.58,4.12,4.12,0,0,1-.13,1.13,1.3,1.3,0,0,1-.43.7,1.47,1.47,0,0,1-.83.21h-4.17c0-.32,0-.79.06-1.37.08-1.64.24-4.12.56-6.18a14.66,14.66,0,0,1,.58-2.62v0l.42-.13a2.83,2.83,0,0,0,.78-.39,1.07,1.07,0,0,0,.27-.25.64.64,0,0,0,.15-.41.51.51,0,0,0-.11-.34.76.76,0,0,0-.36-.24,1.5,1.5,0,0,0-.37,0l-.39,0a1,1,0,0,0-.58.3,2.16,2.16,0,0,0-.45.7,8.67,8.67,0,0,1-1.67.16,10.79,10.79,0,0,1-1.44-.1h-.11a10.79,10.79,0,0,1-1.44.1,8.56,8.56,0,0,1-1.66-.16c0-.06,0-.13-.08-.18a2.25,2.25,0,0,0-.38-.52,1,1,0,0,0-.58-.3l-.38,0a1,1,0,0,0-.49.09.59.59,0,0,0-.24.19.52.52,0,0,0-.12.34.64.64,0,0,0,.15.41,1.78,1.78,0,0,0,.52.41,4.89,4.89,0,0,0,.95.35,15.29,15.29,0,0,1,.62,2.82c.26,1.71.41,3.68.5,5.21,0,.77.07,1.43.09,1.9a2.53,2.53,0,0,0,0,.28h-4.17a1.72,1.72,0,0,1-.64-.11.87.87,0,0,1-.49-.46,3.3,3.3,0,0,1-.27-1.47,15.63,15.63,0,0,0-.37-3.58,12.19,12.19,0,0,0-2-4.22c-.89-1.3-2-2.57-3.25-4.18a17.55,17.55,0,1,1,27.48,0Z" transform="translate(-28.33)"/><path class="cls-16" d="M309.5,594.09a4.71,4.71,0,0,0,4.71-4.72h-9.42A4.71,4.71,0,0,0,309.5,594.09Z" transform="translate(-28.33)"/><path class="cls-16" d="M317.89,576.36H301.1a1.54,1.54,0,1,0,0,3.08h16.79a1.54,1.54,0,1,0,0-3.08Z" transform="translate(-28.33)"/><path class="cls-16" d="M317.89,582.83H301.1a1.54,1.54,0,0,0,0,3.08h16.79a1.54,1.54,0,1,0,0-3.08Z" transform="translate(-28.33)"/><circle class="cls-13" cx="395.31" cy="559.8" r="42.52"/><circle class="cls-14" cx="394.46" cy="558.1" r="42.52"/><circle class="cls-15" cx="394.46" cy="558.1" r="42.52"/><circle class="cls-19" cx="372.87" cy="557.85" r="6.22"/><circle class="cls-19" cx="395.6" cy="557.85" r="6.22"/><circle class="cls-19" cx="418.13" cy="558.1" r="6.22"/><circle class="cls-13" cx="510.69" cy="559.68" r="42.52"/><circle class="cls-14" cx="509.84" cy="557.98" r="42.52"/><circle class="cls-15" cx="509.84" cy="557.98" r="42.52"/><path class="cls-16" d="M569.22,555.76a14,14,0,0,0-8.16-4,19.52,19.52,0,0,0-38.59-3,15.57,15.57,0,1,0-2.57,30.92h39.39a14,14,0,0,0,9.93-24ZM566.63,573a10.36,10.36,0,0,1-7.34,3H519.9a11.91,11.91,0,0,1,0-23.81,11.67,11.67,0,0,1,3.52.53l2.14.66.23-2.23a15.87,15.87,0,0,1,31.66,1.65c0,.15,0,.33,0,.55l-.07,2,2-.08A10.38,10.38,0,0,1,566.63,573Z" transform="translate(-28.33)"/><circle class="cls-13" cx="625.81" cy="559.68" r="42.52"/><circle class="cls-14" cx="624.96" cy="557.98" r="42.52"/><circle class="cls-15" cx="624.96" cy="557.98" r="42.52"/><path class="cls-16" d="M657.17,545.89h-7V533.22l-28.75,23.31,28.75,23.32V566.12h2.64c11.65,0,27.86-.29,29,12.32C687.67,564.66,682.68,545.89,657.17,545.89Z" transform="translate(-28.33)"/><circle class="cls-13" cx="740.32" cy="559.68" r="42.52"/><circle class="cls-14" cx="739.47" cy="557.98" r="42.52"/><circle class="cls-15" cx="739.47" cy="557.98" r="42.52"/><path class="cls-16" d="M792.24,548.68a11.68,11.68,0,0,0-6.81-3.33,16.31,16.31,0,0,0-32.24-2.47,12.61,12.61,0,0,0-2.14-.18,13,13,0,1,0,0,26H784a11.73,11.73,0,0,0,8.29-20Zm-2.16,14.43a8.65,8.65,0,0,1-6.13,2.54h-32.9A9.95,9.95,0,1,1,754,546.2l1.78.55.19-1.86a13.27,13.27,0,0,1,26.46,1.38c0,.13,0,.28,0,.45l0,1.65,1.62-.06a8.67,8.67,0,0,1,6.11,14.8Z" transform="translate(-28.33)"/><path class="cls-24" d="M759.82,580.81a5.2,5.2,0,0,1-10.4,0c0-2.87,5.2-9.83,5.2-9.83S759.82,577.94,759.82,580.81Z" transform="translate(-28.33)"/><path class="cls-24" d="M773.3,580.81a5.2,5.2,0,0,1-10.4,0c0-2.87,5.2-9.83,5.2-9.83S773.3,577.94,773.3,580.81Z" transform="translate(-28.33)"/><path class="cls-24" d="M787,580.81a5.2,5.2,0,1,1-10.39,0c0-2.87,5.19-9.83,5.19-9.83S787,577.94,787,580.81Z" transform="translate(-28.33)"/><circle class="cls-13" cx="883.5" cy="559.68" r="42.52" transform="matrix(0.16, -0.99, 0.99, 0.16, 161.2, 1342.12)"/><circle class="cls-14" cx="854.32" cy="557.98" r="42.52"/><circle class="cls-15" cx="882.65" cy="557.98" r="42.52" transform="matrix(0.16, -0.99, 0.99, 0.16, 162.16, 1339.86)"/><polygon class="cls-17" points="877.92 541.96 853.91 528.1 853.91 555.82 877.92 541.96"/><polygon class="cls-17" points="877.92 573.88 853.91 560.02 853.91 587.74 877.92 573.88"/><rect class="cls-17" x="859.84" y="549.44" width="27.25" transform="translate(616.02 -456.7) rotate(45)"/><rect class="cls-17" x="859.84" y="566.46" width="27.25" transform="translate(-173.05 783.54) rotate(-45)"/><rect class="cls-24" x="853.91" y="554.9" width="0.83" height="6.16"/><circle class="cls-13" cx="998.5" cy="559.68" r="42.52" transform="translate(-131.63 869.97) rotate(-45)"/><circle class="cls-14" cx="969.32" cy="557.98" r="42.52"/><circle class="cls-15" cx="997.65" cy="557.98" r="42.52" transform="translate(-130.68 868.87) rotate(-45)"/><path class="cls-17" d="M1019.19,533.85a20,20,0,0,1-40.1,0" transform="translate(-28.33)"/><rect class="cls-17" x="970.81" y="553.9" height="34.37"/><circle class="cls-13" cx="1114.03" cy="559.68" r="42.52" transform="translate(-97.79 951.66) rotate(-45)"/><circle class="cls-14" cx="1084.85" cy="557.98" r="42.52"/><circle class="cls-15" cx="1113.18" cy="557.98" r="42.52" transform="translate(-96.84 950.56) rotate(-45)"/><circle class="cls-17" cx="1085.5" cy="558.4" r="30.41"/><rect class="cls-17" x="1112.33" y="528.81" width="0.14" height="58.75" transform="translate(-97.21 950.07) rotate(-45)"/><rect class="cls-17" x="1113.76" y="530.24" width="0.14" height="58.75" transform="translate(693.61 -623.69) rotate(45)"/><circle class="cls-13" cx="78.61" cy="700.16" r="42.52" transform="translate(-500.39 260.66) rotate(-45)"/><circle class="cls-14" cx="49.43" cy="698.46" r="42.52"/><circle class="cls-15" cx="77.76" cy="698.46" r="42.52" transform="translate(-499.44 259.56) rotate(-45)"/><circle class="cls-17" cx="50.5" cy="699.47" r="30.96"/><rect class="cls-17" x="29.85" y="699.47" width="39.52"/><rect class="cls-17" x="58.18" y="699.47" width="39.52" transform="translate(749.08 621.54) rotate(90)"/><circle class="cls-13" cx="193.71" cy="700.16" r="42.52" transform="translate(-466.68 342.05) rotate(-45)"/><circle class="cls-14" cx="164.53" cy="698.46" r="42.52"/><circle class="cls-15" cx="192.86" cy="698.46" r="42.52" transform="translate(-465.73 340.95) rotate(-45)"/><text x="-28.33"/><rect class="cls-16" x="160.6" y="670.05" width="8.08" height="11.78"/><rect class="cls-16" x="188.9" y="658.15" width="8.08" height="55.43" transform="translate(-521.26 878.8) rotate(-90)"/><rect class="cls-16" x="190.71" y="679.01" width="8.08" height="51.17" transform="translate(-469.52 344.08) rotate(-45)"/><rect class="cls-16" x="187.14" y="679.01" width="8.08" height="51.21" transform="translate(525.9 71.19) rotate(45)"/><circle class="cls-13" cx="308.96" cy="700.16" r="42.52" transform="translate(-432.93 423.54) rotate(-45)"/><circle class="cls-14" cx="279.77" cy="698.46" r="42.52"/><circle class="cls-15" cx="308.1" cy="698.46" r="42.52" transform="translate(-431.98 422.44) rotate(-45)"/><rect class="cls-19" x="252.97" y="676.81" width="55.06" height="4.97"/><rect class="cls-19" x="260.01" y="693.74" width="40.98" height="4.97"/><rect class="cls-19" x="268.98" y="700.36" width="43.7" height="4.97" transform="translate(965.33 412.02) rotate(90)"/><rect class="cls-19" x="304.99" y="701.14" width="43.7" height="4.97" transform="translate(1002.13 376.79) rotate(90)"/><circle class="cls-13" cx="395.25" cy="700.16" r="42.52"/><circle class="cls-14" cx="394.4" cy="698.46" r="42.52"/><circle class="cls-15" cx="394.4" cy="698.46" r="42.52"/><text class="cls-28" transform="translate(364.97 722.03)">卍</text><circle class="cls-13" cx="510.69" cy="700.16" r="42.52"/><circle class="cls-14" cx="509.84" cy="698.46" r="42.52"/><circle class="cls-15" cx="509.84" cy="698.46" r="42.52"/><polygon class="cls-17" points="509.86 669.63 485.96 685.54 533.76 685.54 509.86 669.63"/><rect class="cls-17" x="487.66" y="685.54" width="11.56" height="31"/><rect class="cls-17" x="504.01" y="685.54" width="11.56" height="31"/><rect class="cls-17" x="520.39" y="685.54" width="11.56" height="31"/><rect class="cls-17" x="484.13" y="718.61" width="52.07" height="0.01"/><circle class="cls-13" cx="625.22" cy="700.16" r="42.52"/><circle class="cls-14" cx="624.37" cy="698.46" r="42.52"/><circle class="cls-15" cx="624.37" cy="698.46" r="42.52"/><circle class="cls-17" cx="624.65" cy="698.46" r="28.14"/><rect class="cls-17" x="605.57" y="679.04" width="38.12" height="2.15"/><rect class="cls-17" x="600.04" y="690.63" width="50.06" height="2.15"/><rect class="cls-17" x="636.21" y="706.71" width="34.37" height="2.15" transform="translate(1332.85 54.38) rotate(90)"/><circle class="cls-13" cx="740.32" cy="700.16" r="42.52"/><circle class="cls-14" cx="739.47" cy="698.46" r="42.52"/><circle class="cls-15" cx="739.47" cy="698.46" r="42.52"/><path class="cls-16" d="M794.08,703.77a11.72,11.72,0,0,0-2.62-4.1,16.59,16.59,0,0,0-3.71-2.86,2.59,2.59,0,1,0-2.58,4.5,10.53,10.53,0,0,1,3.19,2.69,6.15,6.15,0,0,1,.86,1.55,5,5,0,0,1,.3,1.63,4.72,4.72,0,0,1-.34,1.7,8.28,8.28,0,0,1-2.42,3.15,22.41,22.41,0,0,1-8.1,4.07,41.42,41.42,0,0,1-11.84,1.63c-6.62,0-12.59-1.41-16.69-3.55a14.54,14.54,0,0,1-4.6-3.52,6.73,6.73,0,0,1-1.08-1.78,4.63,4.63,0,0,1,0-3.33,6.8,6.8,0,0,1,1.5-2.29,11.47,11.47,0,0,1,2.55-2,2.59,2.59,0,0,0-2.57-4.5,15.63,15.63,0,0,0-4.75,4.08,11.18,11.18,0,0,0-1.59,2.88,9.82,9.82,0,0,0-.61,3.41,10,10,0,0,0,.69,3.6,13.42,13.42,0,0,0,3.88,5.18,27.64,27.64,0,0,0,10,5.11,47.49,47.49,0,0,0,13.33,1.85,42.17,42.17,0,0,0,19.07-4.15,19.57,19.57,0,0,0,6.24-4.84,12.14,12.14,0,0,0,1.87-3.15,9.65,9.65,0,0,0,.08-7Z" transform="translate(-28.33)"/><path class="cls-16" d="M755.64,706.52a2.59,2.59,0,1,0,4.55-2.47,20.66,20.66,0,0,1-1.19-2.27,7.28,7.28,0,0,1-.46-2.81,7.47,7.47,0,0,1,.36-2.53,7.84,7.84,0,0,1,.63-1.36,24.06,24.06,0,0,0,1.44-2.83,12.87,12.87,0,0,0,.79-4.62,12.5,12.5,0,0,0-.82-4.7,25,25,0,0,0-1.46-2.85,2.59,2.59,0,1,0-4.55,2.48,21.52,21.52,0,0,1,1.19,2.26,8.82,8.82,0,0,1,.09,5.34,8,8,0,0,1-.62,1.35,21.54,21.54,0,0,0-1.44,2.84,13.89,13.89,0,0,0,0,9.32A22.09,22.09,0,0,0,755.64,706.52Z" transform="translate(-28.33)"/><path class="cls-16" d="M765.83,709.3a2.59,2.59,0,1,0,4.75-2.07,27,27,0,0,1-1.22-2.94,12.4,12.4,0,0,1-.53-3.91,11.7,11.7,0,0,1,1.09-5.37,28.89,28.89,0,0,0,1.4-3.42,17.75,17.75,0,0,0,.73-5.37,17.55,17.55,0,0,0-.76-5.47,34.11,34.11,0,0,0-1.42-3.45,2.59,2.59,0,1,0-4.75,2.07,28,28,0,0,1,1.23,2.94,12.4,12.4,0,0,1,.52,3.91,13,13,0,0,1-.41,3.52,12.45,12.45,0,0,1-.68,1.85,29.06,29.06,0,0,0-1.39,3.42,17.62,17.62,0,0,0-.74,5.37,17.82,17.82,0,0,0,.77,5.47A30.49,30.49,0,0,0,765.83,709.3Z" transform="translate(-28.33)"/><path class="cls-16" d="M776.23,706.52a2.59,2.59,0,1,0,4.55-2.47,20.66,20.66,0,0,1-1.19-2.27,7.28,7.28,0,0,1-.46-2.81,7.47,7.47,0,0,1,.36-2.53,7.84,7.84,0,0,1,.63-1.36,21.45,21.45,0,0,0,1.43-2.83,12.64,12.64,0,0,0,.8-4.62,12.5,12.5,0,0,0-.82-4.7,25,25,0,0,0-1.46-2.85,2.59,2.59,0,1,0-4.55,2.47,20.34,20.34,0,0,1,1.18,2.27,7.21,7.21,0,0,1,.47,2.81,7.73,7.73,0,0,1-.37,2.53,8,8,0,0,1-.62,1.35,21.54,21.54,0,0,0-1.44,2.84,13.89,13.89,0,0,0,0,9.32A22.09,22.09,0,0,0,776.23,706.52Z" transform="translate(-28.33)"/><circle class="cls-13" cx="855.17" cy="700.16" r="42.52"/><circle class="cls-14" cx="854.32" cy="698.46" r="42.52"/><circle class="cls-15" cx="854.32" cy="698.46" r="42.52"/><circle class="cls-17" cx="854.74" cy="709.38" r="19.78"/><rect class="cls-17" x="853.71" y="674.38" width="2.05" height="14.03"/><circle class="cls-13" cx="970.17" cy="700.16" r="42.52"/><circle class="cls-14" cx="969.32" cy="698.46" r="42.52"/><circle class="cls-15" cx="969.32" cy="698.46" r="42.52"/><path class="cls-29" d="M974.34,712.51c0,16.16,46.62,14.59,46.62,0" transform="translate(-28.33)"/><rect class="cls-29" x="969.48" y="679.69" width="1.33" height="44.16"/><circle class="cls-19" cx="970.14" cy="676.02" r="7.37"/><rect class="cls-29" x="943.23" y="708.77" height="15.09"/><rect class="cls-29" x="976.36" y="703.87" height="15.09" transform="translate(236.62 1687.78) rotate(-90)"/><rect class="cls-29" x="1018.31" y="704.16" height="15.09" transform="translate(1701.68 -306.6) rotate(90)"/><rect class="cls-29" x="994.87" y="708.96" height="15.09"/><circle class="cls-13" cx="1085.7" cy="700.16" r="42.52"/><circle class="cls-14" cx="1084.85" cy="698.46" r="42.52"/><circle class="cls-15" cx="1084.85" cy="698.46" r="42.52"/><rect class="cls-25" x="1059.84" y="694.64" width="5.91" height="26.88"/><rect class="cls-25" x="1094.62" y="679.82" width="5.91" height="18.82" transform="translate(1758.47 -408.35) rotate(90)"/><rect class="cls-25" x="1105.11" y="673.36" width="5.91" height="18.82" transform="translate(2187.81 1365.54) rotate(180)"/><rect class="cls-25" x="1111.57" y="666.91" width="5.91" height="18.82" transform="translate(1762.51 -438.2) rotate(90)"/><rect class="cls-25" x="1118.02" y="673.36" width="5.91" height="18.82" transform="translate(2213.62 1365.54) rotate(180)"/><rect class="cls-25" x="1127.32" y="679.82" width="5.91" height="18.82" transform="translate(1791.17 -441.05) rotate(90)"/><rect class="cls-25" x="1105.44" y="694.64" width="5.91" height="26.88"/></g></svg>