<svg xmlns="http://www.w3.org/2000/svg" viewBox="0 0 1137 821.67"><defs><style>.cls-1,.cls-17,.cls-2,.cls-3,.cls-4,.cls-6{fill:#231815;}.cls-2{font-size:19px;}.cls-2,.cls-3,.cls-6{font-family:KozGoPro-Medium, KozGoPro Medium-83pv-RKSJ-H;font-weight:500;}.cls-3{font-size:16px;}.cls-4,.cls-6{font-size:13px;}.cls-4{font-family:KozGoPro-Bold, KozGoPro Bold-83pv-RKSJ-H;font-weight:700;}.cls-5{letter-spacing:-0.5em;}.cls-23,.cls-26,.cls-36,.cls-46,.cls-50,.cls-7,.cls-70{fill:none;}.cls-7{stroke:#dcdddd;}.cls-19,.cls-20,.cls-23,.cls-26,.cls-27,.cls-36,.cls-41,.cls-44,.cls-46,.cls-47,.cls-49,.cls-50,.cls-51,.cls-53,.cls-54,.cls-56,.cls-66,.cls-7,.cls-70,.cls-71,.cls-77,.cls-78,.cls-80,.cls-86{stroke-miterlimit:10;}.cls-8{font-size:24px;font-family:KozGoPro-Heavy, KozGoPro Heavy-83pv-RKSJ-H;font-weight:800;}.cls-16,.cls-27,.cls-41,.cls-49,.cls-51,.cls-53,.cls-56,.cls-66,.cls-71,.cls-77,.cls-78,.cls-8,.cls-80,.cls-86{fill:#fff;}.cls-9{letter-spacing:-0.08em;}.cls-10{letter-spacing:-0.06em;}.cls-11{letter-spacing:0.02em;}.cls-12{letter-spacing:-0.02em;}.cls-13{letter-spacing:-0.06em;}.cls-14{letter-spacing:0.08em;}.cls-15{letter-spacing:-0.12em;}.cls-17{font-size:12px;font-family:KozGoPro-Regular-90ms-RKSJ-H, Kozuka Gothic Pro;}.cls-18,.cls-19,.cls-20{fill:#222547;}.cls-19,.cls-20,.cls-26,.cls-27,.cls-47,.cls-51{stroke:#fff;}.cls-19,.cls-23,.cls-26,.cls-27,.cls-36{stroke-width:4px;}.cls-20{stroke-width:3px;}.cls-21{fill:#3a60ac;}.cls-22{fill:#f5e52b;}.cls-23{stroke:#f5e52b;}.cls-24{fill:#d3c081;}.cls-25{fill:#db1616;}.cls-28{fill:#e8434a;}.cls-29{fill:#68c3c0;}.cls-30{fill:#2ea7e0;}.cls-31{fill:#bf78b0;}.cls-32{fill:#171c61;}.cls-33{fill:#923f93;}.cls-34{fill:#008fd9;}.cls-35{fill:#e94c4f;}.cls-36{stroke:#e94c4f;}.cls-37{fill:#00489e;}.cls-38{fill:#9cc943;}.cls-39{fill:#f5b8d3;}.cls-40{fill:#c30d23;}.cls-41{stroke:#c30d23;}.cls-42{fill:#ee8198;}.cls-43,.cls-44{fill:#66afe1;}.cls-44{stroke:#66afe1;}.cls-45,.cls-47{fill:#e60020;}.cls-46,.cls-66{stroke:#e60012;}.cls-48{fill:#d4de20;}.cls-49,.cls-50{stroke:#d4de20;}.cls-52,.cls-54{fill:#006934;}.cls-53,.cls-54{stroke:#006934;}.cls-55{fill:#00935e;}.cls-56{stroke:#00935e;}.cls-57{fill:#e84f96;}.cls-58{fill:#ac9cca;}.cls-59{fill:#7ecde9;}.cls-60{fill:#f49c3a;}.cls-61{fill:#0e80a1;}.cls-62{fill:#e95c93;}.cls-63{fill:#f3e066;}.cls-64{fill:#f097be;}.cls-65{fill:#e60012;}.cls-67{fill:#773891;}.cls-68{fill:#4d5c96;}.cls-69{fill:#f5e733;}.cls-70,.cls-71{stroke:#f5e733;}.cls-72{fill:#00aeec;}.cls-73{fill:#8fc31f;}.cls-74{fill:#af519a;}.cls-75{fill:#f08300;}.cls-76{fill:#70bf83;}.cls-77{stroke:#040000;}.cls-78{stroke:#70bf83;}.cls-79{fill:#e61f60;}.cls-80{stroke:#e61e62;}.cls-81{fill:#a4539c;}.cls-82{fill:#10a284;}.cls-83{fill:#ec7aac;}.cls-84{fill:#92d3eb;}.cls-85{fill:#e83228;}.cls-86{stroke:#3e3a39;}.cls-87{fill:#4f97cc;}.cls-88{fill:#f1e36f;}.cls-89{fill:#dcdddd;}.cls-90{fill:#f19369;}</style></defs><g id="テンプレート"><path class="cls-1" d="M29,0V55.41a12,12,0,0,0,12,12H413.83a12,12,0,0,0,12-12V0Z" transform="translate(-28.33)"/><text class="cls-2" transform="translate(931.95 46.3)">www.design-icon.com</text><text class="cls-3" transform="translate(418.97 55.3)">DESIGNER : K020G1258　石川さくら</text><text class="cls-4" transform="translate(805.5 817.27)">利用規約：個人、商用、すべてフリーでご利用ください<tspan class="cls-5" x="325" y="0">。</tspan></text><text class="cls-6" transform="translate(418.97 30.16)">サイズ：100 x 100 px</text><rect class="cls-7" x="0.5" y="87.3" width="100" height="100"/><rect class="cls-7" x="115.5" y="87.3" width="100" height="100"/><rect class="cls-7" x="230.5" y="87.3" width="100" height="100"/><rect class="cls-7" x="345.5" y="87.3" width="100" height="100"/><rect class="cls-7" x="460.5" y="87.3" width="100" height="100"/><rect class="cls-7" x="575.5" y="87.3" width="100" height="100"/><rect class="cls-7" x="690.5" y="87.3" width="100" height="100"/><rect class="cls-7" x="805.5" y="87.3" width="100" height="100"/><rect class="cls-7" x="920.5" y="87.3" width="100" height="100"/><rect class="cls-7" x="1035.5" y="87.3" width="100" height="100"/><rect class="cls-7" x="0.5" y="228.07" width="100" height="100"/><rect class="cls-7" x="115.5" y="228.07" width="100" height="100"/><rect class="cls-7" x="230.5" y="228.07" width="100" height="100"/><rect class="cls-7" x="345.5" y="228.07" width="100" height="100"/><rect class="cls-7" x="460.5" y="228.07" width="100" height="100"/><rect class="cls-7" x="575.5" y="228.07" width="100" height="100"/><rect class="cls-7" x="690.5" y="228.07" width="100" height="100"/><rect class="cls-7" x="805.5" y="228.07" width="100" height="100"/><rect class="cls-7" x="920.5" y="228.07" width="100" height="100"/><rect class="cls-7" x="1035.5" y="228.07" width="100" height="100"/><rect class="cls-7" x="0.5" y="368.84" width="100" height="100"/><rect class="cls-7" x="115.5" y="368.84" width="100" height="100"/><rect class="cls-7" x="230.5" y="368.84" width="100" height="100"/><rect class="cls-7" x="345.5" y="368.84" width="100" height="100"/><rect class="cls-7" x="460.5" y="368.84" width="100" height="100"/><rect class="cls-7" x="575.5" y="368.84" width="100" height="100"/><rect class="cls-7" x="690.5" y="368.84" width="100" height="100"/><rect class="cls-7" x="805.5" y="368.84" width="100" height="100"/><rect class="cls-7" x="920.5" y="368.84" width="100" height="100"/><rect class="cls-7" x="1035.5" y="368.84" width="100" height="100"/><rect class="cls-7" x="0.5" y="509.61" width="100" height="100"/><rect class="cls-7" x="115.5" y="509.61" width="100" height="100"/><rect class="cls-7" x="230.5" y="509.61" width="100" height="100"/><rect class="cls-7" x="345.5" y="509.61" width="100" height="100"/><rect class="cls-7" x="460.5" y="509.61" width="100" height="100"/><rect class="cls-7" x="575.5" y="509.61" width="100" height="100"/><rect class="cls-7" x="690.5" y="509.61" width="100" height="100"/><rect class="cls-7" x="805.5" y="509.61" width="100" height="100"/><rect class="cls-7" x="920.5" y="509.61" width="100" height="100"/><rect class="cls-7" x="1035.5" y="509.61" width="100" height="100"/><rect class="cls-7" x="0.5" y="650.38" width="100" height="100"/><rect class="cls-7" x="115.5" y="650.38" width="100" height="100"/><rect class="cls-7" x="230.5" y="650.38" width="100" height="100"/><rect class="cls-7" x="345.5" y="650.38" width="100" height="100"/><rect class="cls-7" x="460.5" y="650.38" width="100" height="100"/><rect class="cls-7" x="575.5" y="650.38" width="100" height="100"/><rect class="cls-7" x="690.5" y="650.38" width="100" height="100"/><rect class="cls-7" x="805.5" y="650.38" width="100" height="100"/><rect class="cls-7" x="920.5" y="650.38" width="100" height="100"/><rect class="cls-7" x="1035.5" y="650.38" width="100" height="100"/><text class="cls-8" transform="translate(64.18 43.3)">スタンプ<tspan class="cls-9" x="96" y="0">ア</tspan><tspan class="cls-10" x="118.08" y="0">イ</tspan><tspan class="cls-9" x="140.64" y="0">コ</tspan><tspan class="cls-11" x="162.72" y="0">ン</tspan><tspan class="cls-12" x="187.2" y="0">テン</tspan><tspan class="cls-13" x="234.24" y="0">プ</tspan><tspan class="cls-14" x="256.8" y="0">レ</tspan><tspan class="cls-15" x="282.72" y="0">ー</tspan><tspan x="303.84" y="0">ト</tspan></text><circle class="cls-16" cx="68.27" cy="34.22" r="16.05" transform="translate(-36.23 28.73) rotate(-22.5)"/></g><g id="アイコン名"><text class="cls-17" transform="translate(38.5 213.41)">食事</text><text class="cls-17" transform="translate(135.83 213.41)">コンセント</text><text class="cls-17" transform="translate(269.17 213.41)">水道</text><text class="cls-17" transform="translate(390.5 213.41)">火</text><text class="cls-17" transform="translate(493.83 213.41)">スマホ</text><text class="cls-17" transform="translate(621.17 213.41)">家</text><text class="cls-17" transform="translate(730.5 213.41)">技術</text><text class="cls-17" transform="translate(845.83 213.41)">設定</text><text class="cls-17" transform="translate(943.17 213.41)">プレゼント</text><text class="cls-17" transform="translate(1070.5 213.41)">カメラ</text><text class="cls-17" transform="translate(26.5 351.9)">パソコン</text><text class="cls-17" transform="translate(153.83 351.9)">音楽</text><text class="cls-17" transform="translate(275.17 351.9)">本</text><text class="cls-17" transform="translate(384.5 351.9)">電車</text><text class="cls-17" transform="translate(499.83 351.9)">バス</text><text class="cls-17" transform="translate(603.17 351.9)">ガソリン</text><text class="cls-17" transform="translate(724.5 351.9)">美容室</text><text class="cls-17" transform="translate(845.83 351.9)">病院</text><text class="cls-17" transform="translate(955.17 351.9)">歯磨き</text><text class="cls-17" transform="translate(1076.5 351.9)">乾杯</text><text class="cls-17" transform="translate(32.5 492.39)">ケーキ</text><text class="cls-17" transform="translate(153.83 492.39)">映画</text><text class="cls-17" transform="translate(269.17 492.39)">太陽</text><text class="cls-17" transform="translate(390.5 492.39)">雲</text><text class="cls-17" transform="translate(505.83 492.39)">傘</text><text class="cls-17" transform="translate(621.17 492.39)">月</text><text class="cls-17" transform="translate(736.5 492.39)">梅</text><text class="cls-17" transform="translate(851.83 492.39)">竹</text><text class="cls-17" transform="translate(967.17 492.39)">松</text><text class="cls-17" transform="translate(1076.5 492.39)">門松</text><text class="cls-17" transform="translate(38.5 630.89)">節分</text><text class="cls-17" transform="translate(141.83 630.89)">お内裏様</text><text class="cls-17" transform="translate(263.17 630.89)">お雛様</text><text class="cls-17" transform="translate(360.5 630.89)">バレンタイン</text><text class="cls-17" transform="translate(493.83 630.89)">さくら</text><text class="cls-17" transform="translate(615.17 630.89)">団子</text><text class="cls-17" transform="translate(736.5 630.89)">兜</text><text class="cls-17" transform="translate(833.83 630.89)">鯉のぼり</text><text class="cls-17" transform="translate(937.17 630.89)">てるてる坊主</text><text class="cls-17" transform="translate(1070.5 630.89)">紫陽花</text><text class="cls-17" transform="translate(38.5 773.38)">七夕</text><text class="cls-17" transform="translate(153.83 773.38)">朝顔</text><text class="cls-17" transform="translate(275.17 773.38)">碇</text><text class="cls-17" transform="translate(390.5 773.38)">魚</text><text class="cls-17" transform="translate(493.83 773.38)">スイカ</text><text class="cls-17" transform="translate(609.17 773.38)">かき氷</text><text class="cls-17" transform="translate(730.5 773.38)">足跡</text><text class="cls-17" transform="translate(833.83 773.38)">ひまわり</text><text class="cls-17" transform="translate(961.17 773.38)">風鈴</text><text class="cls-17" transform="translate(1076.5 773.38)">花火</text></g><g id="花火"><path class="cls-18" d="M1065.5,650.38h69.61a.4.4,0,0,1,.4.4v69.61a30,30,0,0,1-30,30H1035.9a.4.4,0,0,1-.4-.4V680.38A30,30,0,0,1,1065.5,650.38Z"/><circle class="cls-19" cx="1097.01" cy="689.74" r="7.14"/><circle class="cls-16" cx="1097.01" cy="674.61" r="3.05"/><circle class="cls-16" cx="1097.01" cy="704.87" r="3.05"/><circle class="cls-16" cx="1112.14" cy="689.74" r="3.05"/><circle class="cls-16" cx="1081.89" cy="689.74" r="3.05"/><path class="cls-16" d="M1138.19,681.83a3,3,0,1,1,0-4.31A3,3,0,0,1,1138.19,681.83Z" transform="translate(-28.33)"/><circle class="cls-16" cx="1086.32" cy="701.07" r="3.05"/><path class="cls-16" d="M1133.89,703.22a3,3,0,1,1,4.3,0A3,3,0,0,1,1133.89,703.22Z" transform="translate(-28.33)"/><circle class="cls-16" cx="1086.32" cy="679.68" r="3.05"/><circle class="cls-16" cx="1097.01" cy="664.58" r="3.58"/><circle class="cls-16" cx="1097.01" cy="714.9" r="3.58"/><circle class="cls-16" cx="1122.17" cy="689.74" r="3.58"/><circle class="cls-16" cx="1071.86" cy="689.74" r="3.58"/><path class="cls-16" d="M1145.67,675.54a3.59,3.59,0,1,1,0-5.07A3.59,3.59,0,0,1,1145.67,675.54Z" transform="translate(-28.33)"/><path class="cls-16" d="M1110.09,711.12a3.59,3.59,0,1,1,0-5.07A3.6,3.6,0,0,1,1110.09,711.12Z" transform="translate(-28.33)"/><path class="cls-16" d="M1140.6,711.12a3.59,3.59,0,1,1,5.07,0A3.59,3.59,0,0,1,1140.6,711.12Z" transform="translate(-28.33)"/><path class="cls-16" d="M1105,675.54a3.59,3.59,0,1,1,5.07,0A3.59,3.59,0,0,1,1105,675.54Z" transform="translate(-28.33)"/><path class="cls-20" d="M1092.67,724.82a4.09,4.09,0,1,1-4.08-4.09A4.08,4.08,0,0,1,1092.67,724.82Z" transform="translate(-28.33)"/><path class="cls-16" d="M1090.33,716.16a1.75,1.75,0,1,1-1.74-1.74A1.74,1.74,0,0,1,1090.33,716.16Z" transform="translate(-28.33)"/><path class="cls-16" d="M1090.33,733.47a1.75,1.75,0,1,1-1.74-1.75A1.74,1.74,0,0,1,1090.33,733.47Z" transform="translate(-28.33)"/><circle class="cls-16" cx="1068.91" cy="724.82" r="1.74"/><path class="cls-16" d="M1079.94,726.56a1.75,1.75,0,1,1,1.74-1.74A1.74,1.74,0,0,1,1079.94,726.56Z" transform="translate(-28.33)"/><circle class="cls-16" cx="1066.37" cy="719.06" r="1.74"/><path class="cls-16" d="M1083.7,732.53a1.74,1.74,0,1,1,0-2.47A1.74,1.74,0,0,1,1083.7,732.53Z" transform="translate(-28.33)"/><circle class="cls-16" cx="1066.37" cy="731.3" r="1.74"/><path class="cls-16" d="M1081.24,720.29a1.74,1.74,0,1,1,2.46,0A1.74,1.74,0,0,1,1081.24,720.29Z" transform="translate(-28.33)"/><path class="cls-16" d="M1086.54,710.43a2.05,2.05,0,1,1,2,2.05A2.05,2.05,0,0,1,1086.54,710.43Z" transform="translate(-28.33)"/><path class="cls-16" d="M1090.64,739.2a2,2,0,1,1-2.05-2.05A2.05,2.05,0,0,1,1090.64,739.2Z" transform="translate(-28.33)"/><path class="cls-16" d="M1103,726.86a2,2,0,1,1,2-2A2,2,0,0,1,1103,726.86Z" transform="translate(-28.33)"/><path class="cls-16" d="M1074.2,726.86a2,2,0,1,1,2-2A2,2,0,0,1,1074.2,726.86Z" transform="translate(-28.33)"/><path class="cls-16" d="M1100.21,716.69a2,2,0,1,1,0-2.89A2.05,2.05,0,0,1,1100.21,716.69Z" transform="translate(-28.33)"/><path class="cls-16" d="M1079.86,737a2.05,2.05,0,1,1,0-2.9A2.05,2.05,0,0,1,1079.86,737Z" transform="translate(-28.33)"/><path class="cls-16" d="M1097.31,737a2.05,2.05,0,1,1,2.9,0A2.05,2.05,0,0,1,1097.31,737Z" transform="translate(-28.33)"/><path class="cls-16" d="M1077,716.69a2,2,0,1,1,2.9,0A2,2,0,0,1,1077,716.69Z" transform="translate(-28.33)"/></g><g id="風鈴"><path class="cls-21" d="M950.5,650.38h69.61a.4.4,0,0,1,.4.4v69.61a30,30,0,0,1-30,30H920.9a.4.4,0,0,1-.4-.4V680.38A30,30,0,0,1,950.5,650.38Z"/><path class="cls-16" d="M999.43,683.37a62.75,62.75,0,0,1,15.82,1.87,17.71,17.71,0,0,0,4.26-11.45c0-10.26-8.92-18.57-19.93-18.57s-19.93,8.31-19.93,18.57a17.66,17.66,0,0,0,4.21,11.38A63.22,63.22,0,0,1,999.43,683.37Z" transform="translate(-28.33)"/><path class="cls-16" d="M1001.61,692.37v-7.79h-4.39v7.79H989.3a124.08,124.08,0,0,1-.56,15.9c-.88,9.75-18.2,30.19-18.2,30.19L997,746.22s12.5-14.41,12.5-32.6V692.37Z" transform="translate(-28.33)"/><rect class="cls-16" x="966.85" y="644.99" width="7.6" height="14.07"/></g><g id="ひまわり"><path class="cls-22" d="M835.5,650.38H905.1a.4.4,0,0,1,.4.4v69.61a30,30,0,0,1-30,30H805.9a.4.4,0,0,1-.4-.4V680.38A30,30,0,0,1,835.5,650.38Z"/><circle class="cls-16" cx="855.5" cy="700.38" r="21.48"/><path class="cls-23" d="M891.54,692.22s4.42,12.63-11.32,19.7" transform="translate(-28.33)"/><path class="cls-23" d="M898.16,696.09s4.42,12.63-11.33,19.7" transform="translate(-28.33)"/><path class="cls-23" d="M902.84,703.6a16,16,0,0,1-18.38-6.52" transform="translate(-28.33)"/><path class="cls-23" d="M899.77,711.14a16,16,0,0,1-18.39-6.51" transform="translate(-28.33)"/><path class="cls-16" d="M883.69,675.86c-6.39,0-4.61-15.4,0-21.49C888.49,660.68,890.08,675.86,883.69,675.86Z" transform="translate(-28.33)"/><path class="cls-16" d="M883.86,724.73c6.4,0,4.61,15.4,0,21.49C879.07,739.91,877.47,724.73,883.86,724.73Z" transform="translate(-28.33)"/><path class="cls-16" d="M859.4,700.67c0,6.39-15.4,4.6-21.5,0C844.22,695.87,859.4,694.27,859.4,700.67Z" transform="translate(-28.33)"/><path class="cls-16" d="M908.26,700.49c0-6.39,15.41-4.6,21.5,0C923.44,705.29,908.26,706.89,908.26,700.49Z" transform="translate(-28.33)"/><path class="cls-16" d="M901.19,683.24c-4.52-4.52,7.63-14.15,15.2-15.2C915.31,675.9,905.71,687.76,901.19,683.24Z" transform="translate(-28.33)"/><path class="cls-16" d="M866.76,717.91c4.52,4.53-7.63,14.15-15.2,15.2C852.63,725.26,862.24,713.39,866.76,717.91Z" transform="translate(-28.33)"/><path class="cls-16" d="M866.47,683.6c-4.52,4.52-14.15-7.63-15.2-15.2C859.13,669.48,871,679.08,866.47,683.6Z" transform="translate(-28.33)"/><path class="cls-16" d="M901.15,718c4.52-4.52,14.15,7.64,15.2,15.2C908.49,732.16,896.63,722.55,901.15,718Z" transform="translate(-28.33)"/><path class="cls-16" d="M893.24,677.48c-5.88-2.5,1.79-16,8.41-19.78C903.6,665.39,899.13,680,893.24,677.48Z" transform="translate(-28.33)"/><path class="cls-16" d="M874.28,722.52c5.88,2.5-1.79,16-8.41,19.78C863.92,734.61,868.39,720,874.28,722.52Z" transform="translate(-28.33)"/><path class="cls-16" d="M861.18,690.8c-2.5,5.89-16-1.78-19.78-8.41C849.09,680.45,863.68,684.92,861.18,690.8Z" transform="translate(-28.33)"/><path class="cls-16" d="M906.22,709.77c2.5-5.89,16,1.79,19.78,8.41C918.31,720.12,903.71,715.65,906.22,709.77Z" transform="translate(-28.33)"/><path class="cls-16" d="M906.46,691.12c-2.39-5.93,12.56-10,19.93-8C922.33,689.89,908.85,697.05,906.46,691.12Z" transform="translate(-28.33)"/><path class="cls-16" d="M861.2,709.56c2.39,5.93-12.56,10-19.93,8C845.33,710.78,858.81,703.62,861.2,709.56Z" transform="translate(-28.33)"/><path class="cls-16" d="M874.37,677.87c-5.93,2.39-10-12.56-8-19.94C873.14,662,880.3,675.48,874.37,677.87Z" transform="translate(-28.33)"/><path class="cls-16" d="M892.8,723.12c5.93-2.39,10,12.56,8,19.94C894,739,886.87,725.51,892.8,723.12Z" transform="translate(-28.33)"/></g><g id="足跡"><path class="cls-24" d="M720.5,650.38H790.1a.4.4,0,0,1,.4.4v69.61a30,30,0,0,1-30,30H690.9a.4.4,0,0,1-.4-.4V680.38A30,30,0,0,1,720.5,650.38Z"/><path class="cls-16" d="M777,661.66c0-2.62-1.83-4.74-4.08-4.74s-4.09,2.12-4.09,4.74,1.83,4.74,4.09,4.74S777,664.28,777,661.66Z" transform="translate(-28.33)"/><ellipse class="cls-16" cx="770.91" cy="666.4" rx="2.15" ry="2.5"/><path class="cls-16" d="M796.37,663.82a2.55,2.55,0,1,0-2.52,2.92A2.75,2.75,0,0,0,796.37,663.82Z" transform="translate(-28.33)"/><path class="cls-16" d="M784.4,661.46a3.13,3.13,0,1,0-3.09,3.59A3.37,3.37,0,0,0,784.4,661.46Z" transform="translate(-28.33)"/><path class="cls-16" d="M790.42,662.32a2.43,2.43,0,1,0-2.4,2.79A2.62,2.62,0,0,0,790.42,662.32Z" transform="translate(-28.33)"/><path class="cls-16" d="M781.31,699c3.09-6.15-1.2-11.23-6.06-16.09-2.07-2.08-10.71-8.51-2.33-13s17.65-3,25.23,3.28c4,3.3-.39,13.61-1.06,22.61-.69,9.4,2.13,17.52-2.31,21.88s-11.41,4.17-16.57,0S778.16,705.21,781.31,699Z" transform="translate(-28.33)"/><ellipse class="cls-16" cx="754.85" cy="683.64" rx="3.57" ry="4.74" transform="translate(-179.77 219.09) rotate(-15.03)"/><path class="cls-16" d="M732,694.68a2.26,2.26,0,0,1,1.17-2.9c1-.27,2.11.59,2.47,1.93a2.26,2.26,0,0,1-1.17,2.9C733.48,696.88,732.38,696,732,694.68Z" transform="translate(-28.33)"/><path class="cls-16" d="M735.6,691.05c-.42-1.56.2-3.08,1.37-3.4s2.47.7,2.89,2.26-.2,3.07-1.37,3.39S736,692.61,735.6,691.05Z" transform="translate(-28.33)"/><path class="cls-16" d="M745.1,686.06c-.51-1.92.24-3.78,1.68-4.17s3,.85,3.55,2.77-.24,3.78-1.69,4.16S745.62,688,745.1,686.06Z" transform="translate(-28.33)"/><path class="cls-16" d="M740.24,688.25c-.4-1.49.18-2.94,1.3-3.24s2.36.66,2.76,2.15-.19,2.94-1.31,3.24S740.64,689.74,740.24,688.25Z" transform="translate(-28.33)"/><path class="cls-16" d="M757.44,721.57c-4.21-5.23-1.9-11.12.94-16.92,1.21-2.47,6.84-10.64-1.39-13s-15.7,1.1-20.47,8.89c-2.5,4.09,3.86,13.06,6.76,21.6,3,8.92,2.74,17.41,7.62,20.61s10.72,1.43,14-3.76S761.71,726.9,757.44,721.57Z" transform="translate(-28.33)"/></g><g id="かき氷"><path class="cls-25" d="M605.5,650.38H675.1a.4.4,0,0,1,.4.4v69.61a30,30,0,0,1-30,30H575.9a.4.4,0,0,1-.4-.4V680.38A30,30,0,0,1,605.5,650.38Z"/><path class="cls-26" d="M620.15,712.7h67.36l-7.93,27.65c-.8,2.8-4.66,4.84-9.16,4.84H637.26c-4.5,0-8.35-2-9.16-4.83Z" transform="translate(-28.33)"/><path class="cls-27" d="M620.15,704.74l67.36.69s-8-48.94-35.15-48.51S620.15,704.74,620.15,704.74Z" transform="translate(-28.33)"/><path class="cls-25" d="M681.61,689.37a.46.46,0,0,0,.85-.32c-2.05-8.94-9.29-31.47-30-31.14-12.69.2-20.31,11.15-24.78,22.26-1.14,2.83,5.09-2.42,10.2.19,4.49,2.28,2.94,13.28,11.55,13.28,8,0,8.72-9.75,14.94-10.48,4.38-.51,8.41,7.46,11.72,3.26C678,684,680.17,686.79,681.61,689.37Z" transform="translate(-28.33)"/></g><g id="スイカ"><path class="cls-28" d="M490.38,649.59H560a.4.4,0,0,1,.4.4v69.61a30,30,0,0,1-30,30H460.78a.4.4,0,0,1-.4-.4V679.58a30,30,0,0,1,30-30Z"/><circle class="cls-16" cx="509.07" cy="703.13" r="37.06"/><polygon class="cls-28" points="509.93 661.35 502.11 678.53 506.02 687.13 504.16 694.89 509.07 703.13 501.86 712.64 507.24 717.25 501.34 727.77 505.19 736.75 502.37 742.25 509.07 737.26 505.19 728.8 514.94 717.51 510.03 711.98 512.63 703.13 509.93 693.66 513.4 687.13 506.47 678.78 509.93 661.35"/><polygon class="cls-28" points="497.66 665.47 485.35 678.58 488.19 687.91 478.32 692.91 482.65 698.32 477.78 705.62 482.11 708.73 479 718.2 485.35 721.98 483.19 727.12 488.84 730.32 494.95 740.19 493.33 727.25 488.33 725.23 490.76 720.63 485.35 714.95 487.72 707.11 481.3 704.68 490.22 699.54 483.33 694.54 494.01 690.89 489.68 678.72 497.66 665.47"/><polygon class="cls-28" points="518.88 740.79 531.18 727.68 528.35 718.35 538.21 713.35 533.89 707.94 538.75 700.64 534.43 697.53 537.54 688.07 531.18 684.28 533.35 679.14 527.7 675.95 521.59 666.07 523.21 679.01 528.21 681.04 525.78 685.63 531.18 691.31 528.82 699.15 535.24 701.59 526.32 706.72 533.21 711.73 522.53 715.38 526.86 727.54 518.88 740.79"/><path class="cls-16" d="M536.47,663.78s1.87-5,8.21-4.58c0,0,2.43-4.05,10-1.35l-.54,1.89s-6.07-2.55-9.44.61c0,0-5.27,0-6.42,3.43Z" transform="translate(-28.33)"/><path class="cls-16" d="M545.7,658.83a3.62,3.62,0,1,0,3.62,3.62A3.62,3.62,0,0,0,545.7,658.83Zm0,5.84a2.22,2.22,0,1,1,2.22-2.22A2.21,2.21,0,0,1,545.7,664.67Z" transform="translate(-28.33)"/></g><g id="魚"><path class="cls-29" d="M375.5,650.38H445.1a.4.4,0,0,1,.4.4v69.61a30,30,0,0,1-30,30H345.9a.4.4,0,0,1-.4-.4V680.38A30,30,0,0,1,375.5,650.38Z"/><path class="cls-16" d="M386,733.2a38.5,38.5,0,0,1,16.61-10.07c8.55-2.36,19.61-1.44,31.23,10.07l7.44-4.41v14.68l-7.44-5.68S406.76,756.85,386,733.2Z" transform="translate(-28.33)"/><path class="cls-16" d="M461.42,692s-7.26-9.23-18.34-12.74c-9.44-3-21.64-1.83-34.48,12.74l-8.2-5.58V705l8.2-7.19S438.44,721.94,461.42,692Z" transform="translate(-28.33)"/><path class="cls-16" d="M388,723.74A2.77,2.77,0,1,1,385.2,721,2.76,2.76,0,0,1,388,723.74Z" transform="translate(-28.33)"/><path class="cls-16" d="M394.8,713.27a4.8,4.8,0,1,1-4.8-4.81A4.8,4.8,0,0,1,394.8,713.27Z" transform="translate(-28.33)"/><circle class="cls-16" cx="436.64" cy="683.83" r="2.81"/><circle class="cls-16" cx="457.36" cy="655.2" r="7.62" transform="translate(-313.95 949.22) rotate(-76.67)"/><path class="cls-16" d="M388.82,702.39a4.8,4.8,0,1,1-4.8-4.8A4.8,4.8,0,0,1,388.82,702.39Z" transform="translate(-28.33)"/><circle class="cls-16" cx="430.1" cy="671.92" r="4.47"/></g><g id="碇"><path class="cls-30" d="M260.5,650.38H330.1a.4.4,0,0,1,.4.4v69.61a30,30,0,0,1-30,30H230.9a.4.4,0,0,1-.4-.4V680.38A30,30,0,0,1,260.5,650.38Z"/><circle class="cls-16" cx="280.5" cy="669.52" r="12.32"/><circle class="cls-30" cx="280.5" cy="669.52" r="7.12"/><rect class="cls-16" x="277.48" y="678.57" width="6.05" height="57.87"/><rect class="cls-16" x="305.81" y="672.65" width="6.05" height="36.87" transform="translate(971.59 382.26) rotate(90)"/><path class="cls-16" d="M341.5,714c-3.55,12.11-16.83,21.12-32.67,21.12s-29.11-9-32.66-21.12h-7.84c3.68,15.61,20.41,27.41,40.5,27.41s36.82-11.8,40.5-27.41Z" transform="translate(-28.33)"/><polygon class="cls-16" points="239.06 721.32 250.97 713.99 240 709.98 239.06 721.32"/><polygon class="cls-16" points="321.82 721.32 309.91 713.99 320.88 709.98 321.82 721.32"/></g><g id="朝顔"><path class="cls-31" d="M145.5,650.38H215.1a.4.4,0,0,1,.4.4v69.61a30,30,0,0,1-30,30H115.9a.4.4,0,0,1-.4-.4V680.38A30,30,0,0,1,145.5,650.38Z"/><path class="cls-16" d="M231.13,688.21c-4.71-8.17-12.68-12.61-18.86-11-1.76-6.07-9.53-10.66-18.86-10.66s-17,4.5-18.82,10.49c-6.05-1.09-13.55,3.3-18.06,11.12-5.32,9.21-4.48,19.64,1.87,23.31a9.64,9.64,0,0,0,3.79,1.21c-2.27,6.27,2.19,14.71,10.7,19.63,8,4.62,16.93,4.58,21.54.32,4.69,4,13.38,3.92,21.2-.6,8.46-4.88,12.92-13.25,10.75-19.5a9.53,9.53,0,0,0,2.88-1.06C235.61,707.85,236.45,697.42,231.13,688.21Z" transform="translate(-28.33)"/><path class="cls-31" d="M189.52,691.8l3.54-18.33,4.15,18.14a4.26,4.26,0,0,0,4.47,3.23l21.47-1.33-18.69,8.2a4.27,4.27,0,0,0-1.79,5.36l11.38,18.86L196.52,711.5a4.26,4.26,0,0,0-5.84.13l-15.39,14.3L184.64,707a4.26,4.26,0,0,0-2-5.26l-18.78-7.1,21.3.47A4.26,4.26,0,0,0,189.52,691.8Z" transform="translate(-28.33)"/><path class="cls-31" d="M176.83,680.08a33.39,33.39,0,0,0,7.66,9.45A33.56,33.56,0,0,0,176.83,680.08Z" transform="translate(-28.33)"/><path class="cls-31" d="M209.28,680.08a33.56,33.56,0,0,1-7.66,9.45A33.39,33.39,0,0,1,209.28,680.08Z" transform="translate(-28.33)"/><path class="cls-31" d="M220.18,710.39a33.56,33.56,0,0,1-10.8-5.62A33.47,33.47,0,0,1,220.18,710.39Z" transform="translate(-28.33)"/><path class="cls-31" d="M166.74,711.24A33.28,33.28,0,0,1,178,706.69,33.57,33.57,0,0,1,166.74,711.24Z" transform="translate(-28.33)"/><path class="cls-31" d="M193.8,728.25a33.66,33.66,0,0,1,.06-12.17A33.44,33.44,0,0,1,193.8,728.25Z" transform="translate(-28.33)"/></g><g id="七夕"><path class="cls-32" d="M30.5,650.38H100.1a.4.4,0,0,1,.4.4v69.61a30,30,0,0,1-30,30H.9a.4.4,0,0,1-.4-.4V680.38A30,30,0,0,1,30.5,650.38Z"/><path class="cls-16" d="M114.33,748.68c-.07-17-5.89-30-13.69-39.63C110.14,703,98,686,98,686c-3.62,8.77-3.41,14.35-2.11,17.84A77.09,77.09,0,0,0,83,693.48c8.28-3.81,5.13-21.38,5.13-21.38C78.4,681,78,687.48,79,691a87.76,87.76,0,0,0-17.13-7.49c6.57-7.39-6.18-21.7-6.18-21.7-3,10.3-1.52,16,.57,19.15-7-2.24-17.78,2-17.78,2,7,5.2,12.2,6.6,15.86,6.47-4.49,5.4-5.91,15.25-5.91,15.25,15.58-6.92,15.12-14.95,14.45-17.61,2.77.89,5.37,1.88,7.83,2.94v15.66a1.46,1.46,0,0,0,1.46,1.46h0a1.45,1.45,0,0,0,1.45-1.46V691.3c17,8.08,26.39,19.83,31.59,30.6-6-5.33-20.49-.84-20.49-.84,13.63,11.66,20.71,6.77,22.4,5.21a61.35,61.35,0,0,1,4.52,22.41Z" transform="translate(-28.33)"/><path class="cls-16" d="M79.27,700.38H74.49v3.19a2.89,2.89,0,1,1-5.27,1.64,2.81,2.81,0,0,1,.52-1.64v-3.19H62.56v40.41H81.23V700.38Z" transform="translate(-28.33)"/><polygon class="cls-16" points="84.11 659.62 87.32 656 88.24 660.75 92.68 662.68 88.44 665.03 87.97 669.84 84.44 666.54 79.71 667.58 81.76 663.2 79.31 659.02 84.11 659.62"/><polygon class="cls-16" points="64.25 662.84 67.22 661.97 66.1 664.85 67.84 667.4 64.75 667.23 62.87 669.67 62.08 666.68 59.17 665.64 61.77 663.97 61.86 660.88 64.25 662.84"/></g><g id="紫陽花"><path class="cls-33" d="M1065.63,509.61h69.61a.4.4,0,0,1,.4.4v69.61a30,30,0,0,1-30,30H1036a.4.4,0,0,1-.4-.4V539.61A30,30,0,0,1,1065.63,509.61Z"/><path class="cls-16" d="M1106.07,525.79h9.67a12.79,12.79,0,0,1,12.79,12.79v13.87a0,0,0,0,1,0,0h-13.87a12.79,12.79,0,0,1-12.79-12.79V530a4.2,4.2,0,0,1,4.2-4.2Z" transform="translate(679.52 -630.66) rotate(45)"/><path class="cls-16" d="M1126.34,546.68H1136a12.79,12.79,0,0,1,12.79,12.79v13.87a0,0,0,0,1,0,0h-13.87a12.79,12.79,0,0,1-12.79-12.79v-9.67A4.2,4.2,0,0,1,1126.34,546.68Z" transform="translate(2306.02 153.11) rotate(135)"/><path class="cls-16" d="M1106.07,567.58h9.67a12.79,12.79,0,0,1,12.79,12.79v13.87a0,0,0,0,1,0,0h-13.87a12.79,12.79,0,0,1-12.79-12.79v-9.67a4.2,4.2,0,0,1,4.2-4.2Z" transform="translate(1464.66 1780.24) rotate(-135)"/><path class="cls-16" d="M1086,546.68h9.67a12.79,12.79,0,0,1,12.79,12.79v13.87a0,0,0,0,1,0,0h-13.87a12.79,12.79,0,0,1-12.79-12.79v-9.67a4.2,4.2,0,0,1,4.2-4.2Z" transform="translate(-103.55 938.42) rotate(-45)"/><path class="cls-33" d="M1115.19,557.75l-.43-4.39a50.65,50.65,0,0,1,0-9.85l.43-4.39.44,4.38a49.32,49.32,0,0,1,0,9.87Z" transform="translate(-28.33)"/><path class="cls-33" d="M1114.32,560l-4.39.42a50.55,50.55,0,0,1-9.84,0l-4.39-.43,4.38-.44a49.22,49.22,0,0,1,9.86,0Z" transform="translate(-28.33)"/><path class="cls-33" d="M1115.19,580.91l-.43-4.39a50.65,50.65,0,0,1,0-9.85l.43-4.39.44,4.38a49.32,49.32,0,0,1,0,9.87Z" transform="translate(-28.33)"/><path class="cls-33" d="M1116.84,560l4.39-.42a50.65,50.65,0,0,1,9.85,0l4.39.43-4.38.44a49.32,49.32,0,0,1-9.87,0Z" transform="translate(-28.33)"/></g><g id="テルテ坊主"><path class="cls-34" d="M1048.43,509.61h-48.05v13.28h-3.1V509.61H978.83a30,30,0,0,0-30,30v69.6a.4.4,0,0,0,.4.4h69.6a30,30,0,0,0,30-30V510A.4.4,0,0,0,1048.43,509.61Z" transform="translate(-28.33)"/><circle class="cls-16" cx="970.5" cy="540.91" r="16.57"/><path class="cls-16" d="M998.83,559.26c-3.6,0-6.86-.67-9.31-2.93v2.2c2.45,2.27,5.71,2.74,9.31,2.74s6.86-.47,9.31-2.74v-2.2C1005.69,558.59,1002.43,559.26,998.83,559.26Z" transform="translate(-28.33)"/><path class="cls-16" d="M989.52,560.7s2.42,2.73,9.31,2.73,9.61-3,9.61-3l26.86,29c-7.13,13.35-19.82,7.43-24.09,8.8s-5.77,7.63-14.42,6.88-9.37-6.06-13.52-8.1c-8-3.94-13.5,5-19.41-5.91Z" transform="translate(-28.33)"/><circle class="cls-34" cx="964.31" cy="541.31" r="2.32"/><circle class="cls-34" cx="976.69" cy="541.31" r="2.32"/><path class="cls-34" d="M1005.22,547.3a7.26,7.26,0,0,1-12.41,0h-1.43a8.61,8.61,0,0,0,15.27,0Z" transform="translate(-28.33)"/></g><g id="鯉のぼり"><path class="cls-35" d="M835.5,509.61H905.1a.4.4,0,0,1,.4.4v69.61a30,30,0,0,1-30,30H805.9a.4.4,0,0,1-.4-.4V539.61A30,30,0,0,1,835.5,509.61Z"/><path class="cls-16" d="M923.31,543.31H870.7S874,547,874,559.69s-3.34,16.22-3.34,16.22h52.74A1.78,1.78,0,0,0,925,573.3l-7.5-14.39L924.86,546A1.78,1.78,0,0,0,923.31,543.31Z" transform="translate(-28.33)"/><path class="cls-16" d="M848.29,543.31h0a2.84,2.84,0,0,0-2.84,2.84v26.92a2.84,2.84,0,0,0,2.84,2.84h0Z" transform="translate(-28.33)"/><path class="cls-16" d="M867.35,543.31H850v32.6h17.39s3.35-3.56,3.35-16.22S867.35,543.31,867.35,543.31Z" transform="translate(-28.33)"/><path class="cls-36" d="M864.7,554a5.16,5.16,0,1,1-5.16-5.16A5.16,5.16,0,0,1,864.7,554Z" transform="translate(-28.33)"/><path class="cls-35" d="M880.78,545.13a4.48,4.48,0,0,0-1.73.34,4.56,4.56,0,0,1,0,8.44,4.48,4.48,0,0,0,1.73.34,4.56,4.56,0,1,0,0-9.12Z" transform="translate(-28.33)"/><path class="cls-35" d="M862.36,570.36a6.66,6.66,0,0,1-6.66-6.65c0-.17,0-.34,0-.5a5.8,5.8,0,1,0,9.34,6.56A6.5,6.5,0,0,1,862.36,570.36Z" transform="translate(-28.33)"/><path class="cls-35" d="M880.78,555.05a4.48,4.48,0,0,0-1.73.34,4.56,4.56,0,0,1,0,8.44,4.48,4.48,0,0,0,1.73.34,4.56,4.56,0,1,0,0-9.12Z" transform="translate(-28.33)"/><path class="cls-35" d="M880.78,565a4.68,4.68,0,0,0-1.73.34,4.56,4.56,0,0,1,0,8.44,4.48,4.48,0,0,0,1.73.34,4.56,4.56,0,1,0,0-9.12Z" transform="translate(-28.33)"/><path class="cls-35" d="M890.19,550.09a4.48,4.48,0,0,0-1.73.34,4.56,4.56,0,0,1,0,8.44,4.48,4.48,0,0,0,1.73.34,4.56,4.56,0,0,0,0-9.12Z" transform="translate(-28.33)"/><path class="cls-35" d="M890.19,560a4.48,4.48,0,0,0-1.73.34,4.56,4.56,0,0,1,0,8.44,4.48,4.48,0,0,0,1.73.34,4.56,4.56,0,0,0,0-9.12Z" transform="translate(-28.33)"/><path class="cls-35" d="M899.2,545.13a4.48,4.48,0,0,0-1.73.34,4.56,4.56,0,0,1,0,8.44,4.48,4.48,0,0,0,1.73.34,4.56,4.56,0,0,0,0-9.12Z" transform="translate(-28.33)"/><path class="cls-35" d="M899.2,555.05a4.48,4.48,0,0,0-1.73.34,4.56,4.56,0,0,1,0,8.44,4.48,4.48,0,0,0,1.73.34,4.56,4.56,0,0,0,0-9.12Z" transform="translate(-28.33)"/><path class="cls-35" d="M899.2,565a4.68,4.68,0,0,0-1.73.34,4.56,4.56,0,0,1,0,8.44,4.48,4.48,0,0,0,1.73.34,4.56,4.56,0,0,0,0-9.12Z" transform="translate(-28.33)"/><path class="cls-35" d="M908.23,550.09a4.56,4.56,0,0,0-1.73.34,4.56,4.56,0,0,1,0,8.44,4.56,4.56,0,1,0,1.73-8.78Z" transform="translate(-28.33)"/><path class="cls-35" d="M908.23,560a4.56,4.56,0,0,0-1.73.34,4.56,4.56,0,0,1,0,8.44,4.56,4.56,0,1,0,1.73-8.78Z" transform="translate(-28.33)"/></g><g id="兜"><path class="cls-37" d="M720.5,509.61H790.1a.4.4,0,0,1,.4.4v69.61a30,30,0,0,1-30,30H690.9a.4.4,0,0,1-.4-.4V539.61A30,30,0,0,1,720.5,509.61Z"/><path class="cls-16" d="M766.35,562.46,756,574h25.89l-10.39-11.49A3.45,3.45,0,0,0,766.35,562.46Z" transform="translate(-28.33)"/><path class="cls-16" d="M777.92,563.5l6.81-15.83a2.43,2.43,0,0,1,2.36-1.48l17.48.91a1.24,1.24,0,0,1,.71,2.2L782,568Z" transform="translate(-28.33)"/><path class="cls-16" d="M759.46,563.5l-6.8-15.83a2.46,2.46,0,0,0-2.37-1.48l-17.48.91a1.24,1.24,0,0,0-.71,2.2L755.42,568Z" transform="translate(-28.33)"/><polygon class="cls-16" points="715.61 561.38 704.24 573.95 721.78 573.95 726.09 569.18 715.61 561.38"/><polygon class="cls-16" points="765.23 561.03 754.95 569.06 759.36 573.95 776.9 573.95 765.23 561.03"/><path class="cls-16" d="M782,548.23l-9.4-10.4a5,5,0,0,0-7.37,0l-9.54,10.56,5.6,13.21,5.67-6.28a2.63,2.63,0,0,1,3.91,0l5.71,6.33Z" transform="translate(-28.33)"/><path class="cls-16" d="M806.61,575.8H731.05L729.19,578a2.11,2.11,0,0,0,1.62,3.47h76a2.11,2.11,0,0,0,1.62-3.47Z" transform="translate(-28.33)"/></g><g id="お団子"><path class="cls-38" d="M605.5,509.61H675.1a.4.4,0,0,1,.4.4v69.61a30,30,0,0,1-30,30H575.9a.4.4,0,0,1-.4-.4V539.61A30,30,0,0,1,605.5,509.61Z"/><rect class="cls-16" x="605.11" y="588.17" width="3.76" height="21.44"/><circle class="cls-16" cx="606.99" cy="579.08" r="11.61"/><circle class="cls-16" cx="635.32" cy="555.86" r="11.61" transform="translate(-139.51 161.72) rotate(-13.35)"/><circle class="cls-16" cx="635.32" cy="532.64" r="11.61" transform="translate(-134.15 161.09) rotate(-13.35)"/><rect class="cls-16" x="668.04" y="509.61" width="3.76" height="21.44" transform="translate(1311.5 1040.67) rotate(180)"/><circle class="cls-16" cx="641.59" cy="539.85" r="11.61"/><circle class="cls-16" cx="669.92" cy="563.07" r="11.61" transform="translate(-133.81 968.78) rotate(-67.67)"/><circle class="cls-16" cx="669.92" cy="586.29" r="11.61" transform="translate(-155.29 983.17) rotate(-67.67)"/></g><g id="さくら"><path class="cls-39" d="M490.5,509.61H560.1a.4.4,0,0,1,.4.4v69.61a30,30,0,0,1-30,30H460.9a.4.4,0,0,1-.4-.4V539.61a30,30,0,0,1,30-30Z"/><path class="cls-16" d="M546.32,518.9l-7.22,5.3-7.23-5.3s-7.82,2.29-7.23,15.72,14.46,17.49,14.46,17.49,13.86-4.06,14.45-17.49S546.32,518.9,546.32,518.9Z" transform="translate(-28.33)"/><path class="cls-16" d="M501.24,541.74l2.87,8.49-7.24,5.29s-.17,8.15,12.81,11.64,21-8.5,21-8.5.31-14.44-12.31-19.06S501.24,541.74,501.24,541.74Z" transform="translate(-28.33)"/><path class="cls-16" d="M508,591.53l9,0L519.7,600s7.68,2.74,15.1-8.47-1.41-22.65-1.41-22.65-13.6-4.86-22,5.66S508,591.53,508,591.53Z" transform="translate(-28.33)"/><path class="cls-16" d="M558.19,600l2.71-8.54,9,0s5-6.47-3.44-17-22-5.6-22-5.6-8.79,11.45-1.35,22.65S558.19,600,558.19,600Z" transform="translate(-28.33)"/><path class="cls-16" d="M580.79,555.11,573.43,550l2.68-8.55s-4.71-6.65-17.22-1.74S547,559,547,559s8.34,11.8,21.23,8S580.79,555.11,580.79,555.11Z" transform="translate(-28.33)"/></g><g id="バレンタイン"><path class="cls-40" d="M375.5,509.61H445.1a.4.4,0,0,1,.4.4v69.61a30,30,0,0,1-30,30H345.9a.4.4,0,0,1-.4-.4V539.61A30,30,0,0,1,375.5,509.61Z"/><path class="cls-16" d="M409.51,547.27h57.86a23.26,23.26,0,0,0-6.83-16.18c-9.13-9.13-26.76-10.06-36.71,9.34-3.78-8-8.92-12.59-14.32-14.6Z" transform="translate(-28.33)"/><path class="cls-16" d="M409.51,555.19v31.33l14.32,14.32,33.05-33.05,3.66-3.66a23.19,23.19,0,0,0,5.56-8.94Z" transform="translate(-28.33)"/><path class="cls-16" d="M401.18,547.27V524.64a22.23,22.23,0,0,0-14.06,6.45,23.3,23.3,0,0,0-6.83,16.18Z" transform="translate(-28.33)"/><path class="cls-16" d="M401.18,555.19H381.56a23.31,23.31,0,0,0,5.56,8.94l14.06,14.06Z" transform="translate(-28.33)"/><path class="cls-41" d="M421.13,543.46c-5,0-12.76,4.52-15.85,6.46-3.07-1.93-10.84-6.48-15.87-6.48-6.39,0-6.11,15-1.11,15,3.05,0,7.15-1.15,11.14-3.09l-8.59,6.52a1.58,1.58,0,0,0-.19,2.28l3.85,4.17a1.58,1.58,0,0,0,2.61-.37l8.12-15,8.11,15a1.58,1.58,0,0,0,2.61.37l3.85-4.17a1.59,1.59,0,0,0-.18-2.28L411,555.31c4,2,8.15,3.13,11.23,3.13C427.23,558.44,427.51,543.46,421.13,543.46Zm-27.63,3.4c3.47,0,9.34,4,9.34,4-3,2.49-7.23,4.15-9.95,4.15S390,546.86,393.5,546.86ZM417.64,555c-2.72,0-6.94-1.66-9.95-4.15,0,0,5.88-4,9.34-4S420.35,555,417.64,555Z" transform="translate(-28.33)"/></g><g id="お雛様"><path class="cls-42" d="M260.77,509.61h69.61a.4.4,0,0,1,.4.4v69.61a30,30,0,0,1-30,30H231.17a.4.4,0,0,1-.4-.4V539.61a30,30,0,0,1,30-30Z"/><path class="cls-16" d="M330.15,588.84l-9.84-7.62-24,.16s-10.11,8.22-10,8.45c0,0,0,0,.05,0,1.76.7,7.58,3.54,22.46,3.54C324.26,593.39,330.15,588.84,330.15,588.84Z" transform="translate(-28.33)"/><path class="cls-16" d="M312.16,527.1l2.25-3.9a1.33,1.33,0,1,0-1.34-.69l-2.53,4.39h-.69v-5.63a1.31,1.31,0,0,0,.59-1.1,1.34,1.34,0,1,0-2.09,1.1v5.63h-.65l-2.6-4.5a1.27,1.27,0,0,0,.11-.52,1.34,1.34,0,1,0-1.38,1.33l2.24,3.88a6.38,6.38,0,0,0-4.85,6.18v3.56H317v-3.56A6.36,6.36,0,0,0,312.16,527.1Z" transform="translate(-28.33)"/><path class="cls-16" d="M356.46,574.22l-20.75-7-15.26-18.83h0l0-.12a79.3,79.3,0,0,0-15.88,11.31l-1-1c1.44-1.25,2.91-2.44,4.38-3.54-1.9-1.86-9.27-6.48-11.66-7.3l0,.09L282.1,567.38,262.6,575a1.36,1.36,0,0,0-.49,2.05l13,17.68a1.29,1.29,0,0,0,1.67.41l19.88-15.84h23.53v0l21.27,15.08a1.44,1.44,0,0,0,1.76-.45L357,576.23A1.29,1.29,0,0,0,356.46,574.22Zm-58.4-11.88h0a94.87,94.87,0,0,0-1.05-10.6A87,87,0,0,1,298.06,562.34Z" transform="translate(-28.33)"/><path class="cls-42" d="M322.93,568.47c-2.43-5.56-9.17-8.86-14.64-8.86-5.72,0-12.27,3.3-14.71,8.86,4.88,4.29,13.42,8.42,13.42,8.42l-.46,1.47h3.52l-.49-1.47S318.07,572.76,322.93,568.47Z" transform="translate(-28.33)"/></g><g id="お内裏様"><path class="cls-43" d="M145.5,509.61H215.1a.4.4,0,0,1,.4.4v69.61a30,30,0,0,1-30,30H115.9a.4.4,0,0,1-.4-.4V539.61A30,30,0,0,1,145.5,509.61Z"/><path class="cls-16" d="M204.21,551.12a23,23,0,0,1-22,0l-1.69,6.68a16.69,16.69,0,0,0-.38,6.1l2.15,17.71h21.81l2.15-17.71a16.69,16.69,0,0,0-.38-6.1Z" transform="translate(-28.33)"/><path class="cls-16" d="M189.23,583.36l5.35,9.85a.92.92,0,0,0,.93.52s19.72-2.43,19.2-2.7l-10.85-7.85Z" transform="translate(-28.33)"/><path class="cls-16" d="M180.25,552.51l-13.09,17.91-19,7.43a1.34,1.34,0,0,0-.49,2L160.4,597a1.24,1.24,0,0,0,1.62.4l18.66-15.83-1.86-13.32a29.74,29.74,0,0,1,.28-10Z" transform="translate(-28.33)"/><path class="cls-16" d="M206.29,552.17l13.58,17.63,19.71,7.07a1.22,1.22,0,0,1,.46,1.84l-13,17.61a1.27,1.27,0,0,1-1.61.42L206,581.61,207.86,568a29.65,29.65,0,0,0-.36-10.12Z" transform="translate(-28.33)"/><path class="cls-16" d="M188.1,583.24l-5.72-.06s-10.66,8.67-10,8.45l18.17,2.11a1,1,0,0,0,1-.59l.82-1.71Z" transform="translate(-28.33)"/><path class="cls-16" d="M202.85,547.58c-1,1.62-4.94,2.11-9.62,2.11s-8.62-.5-9.63-2.13v2.53c1,1.62,4.73,2.36,9.42,2.36s8.81-.73,9.83-2.36Z" transform="translate(-28.33)"/><path class="cls-16" d="M197.27,532.26h-.56V520.67a1.83,1.83,0,0,0-1.83-1.84h-3.31a1.83,1.83,0,0,0-1.83,1.84v11.59h-.56a5.86,5.86,0,0,0-5.86,5.87v4.23h19.81v-4.23A5.86,5.86,0,0,0,197.27,532.26Z" transform="translate(-28.33)"/><path class="cls-44" d="M190.76,556.06c-1.33,0,.59,23.79,1.07,23.79h2.79c.48,0,2.4-23.79,1.07-23.79Z" transform="translate(-28.33)"/></g><g id="節分"><path class="cls-45" d="M30.5,509.61H100.1a.4.4,0,0,1,.4.4v69.61a30,30,0,0,1-30,30H.9a.4.4,0,0,1-.4-.4V539.61A30,30,0,0,1,30.5,509.61Z"/><path class="cls-16" d="M117,536.41,98.8,550.82a3.05,3.05,0,0,0-.6-.06h-57a3.06,3.06,0,0,0-3.06,3.06v40.37a3.06,3.06,0,0,0,3.06,3.07h57a1.86,1.86,0,0,0,.33,0,1.48,1.48,0,0,0,1.26-.3l19.15-15.14a1.55,1.55,0,0,0,.59-1.21v-43A1.55,1.55,0,0,0,117,536.41Z" transform="translate(-28.33)"/><path class="cls-16" d="M115.8,531.5a4.58,4.58,0,0,0-7.71-3.35,4.56,4.56,0,0,0-8.14.29,4.51,4.51,0,0,0-1.28-.21,4.58,4.58,0,0,0-3.91,2.21,4.58,4.58,0,0,0-3.91-2.21l-.24,0a4.57,4.57,0,0,0-8.45-.64,4.51,4.51,0,0,0-5.63-.81,4.56,4.56,0,0,0-8.11,2.3,4.55,4.55,0,0,0-2.68-.88,2.13,2.13,0,0,0-.25,0,4.57,4.57,0,0,0-8.87.71,4.69,4.69,0,0,0-1.5-.27,4.6,4.6,0,0,0-4.6,4.6,4.53,4.53,0,0,0,.54,2.11,4.71,4.71,0,0,0-.54,0,4.59,4.59,0,0,0-4.32,3.08,4.5,4.5,0,0,0-2.13-.55A4.59,4.59,0,0,0,43,546.94l-.18.14H98l16.14-12h-.07A4.57,4.57,0,0,0,115.8,531.5Zm-8,3.29c0-.07,0-.14,0-.21l.2.22Z" transform="translate(-28.33)"/><path class="cls-46" d="M58,589.31c4.93-2.27,19.39-2.27,24.08,0" transform="translate(-28.33)"/><polygon class="cls-45" points="30.69 588.84 34.87 588.06 31.73 584.13 30.69 588.84"/><polygon class="cls-45" points="52.59 588.84 48.41 588.06 51.55 584.13 52.59 588.84"/><path class="cls-45" d="M89,574.5A3.52,3.52,0,1,1,85.47,571,3.51,3.51,0,0,1,89,574.5Z" transform="translate(-28.33)"/><path class="cls-45" d="M58.1,574.5A3.52,3.52,0,1,1,54.59,571,3.51,3.51,0,0,1,58.1,574.5Z" transform="translate(-28.33)"/><path class="cls-47" d="M96.41,566.46c1-2.89-1.94-3.78-8.5-2.89-4.66.63-10.86,4.32-10.22,6.1.38,1.46,5.53-1.36,10.22-1.36S95.87,568.09,96.41,566.46Z" transform="translate(-28.33)"/><path class="cls-47" d="M44.43,567.35c-1-2.88,1.94-3.77,8.51-2.88,4.65.63,10.85,4.32,10.22,6.09-.38,1.46-5.53-1.35-10.22-1.35S45,569,44.43,567.35Z" transform="translate(-28.33)"/><path class="cls-47" d="M87.2,532.93,93.77,523a2.12,2.12,0,0,1,3.88,1.12l.26,11.46a.49.49,0,0,1-.6.49l-9.82-2.38A.49.49,0,0,1,87.2,532.93Z" transform="translate(-28.33)"/><path class="cls-47" d="M89.79,529l3.42-5.16a2.44,2.44,0,0,1,4.47,1.29l.13,5.72a.5.5,0,0,1-.6.49l-7.12-1.59A.49.49,0,0,1,89.79,529Z" transform="translate(-28.33)"/><path class="cls-47" d="M92.08,525.55l1.75-2.65a2.08,2.08,0,0,1,3.82,1.1l.06,2.79Z" transform="translate(-28.33)"/><path class="cls-47" d="M48.65,537.28l-.25-11.92a2.12,2.12,0,0,1,3.83-1.29L59,533.35a.48.48,0,0,1-.22.74l-9.43,3.63A.49.49,0,0,1,48.65,537.28Z" transform="translate(-28.33)"/><path class="cls-47" d="M48.55,532.58l-.13-6.2a2.44,2.44,0,0,1,4.41-1.48l3.36,4.63a.48.48,0,0,1-.21.74L49.23,533A.49.49,0,0,1,48.55,532.58Z" transform="translate(-28.33)"/><path class="cls-47" d="M48.47,528.43l-.07-3.18A2.09,2.09,0,0,1,52.17,524l1.63,2.25Z" transform="translate(-28.33)"/></g><g id="門松"><path class="cls-48" d="M1065.52,368.84h70a0,0,0,0,1,0,0v70a30,30,0,0,1-30,30h-70a0,0,0,0,1,0,0v-70A30,30,0,0,1,1065.52,368.84Z"/><path class="cls-49" d="M1120.09,388.09c0-6.48-2.75-11.74-6.13-11.74s-6.13,5.26-6.13,11.74v60.1h12.26v-60.1Z" transform="translate(-28.33)"/><ellipse class="cls-48" cx="1085.63" cy="386.36" rx="4.96" ry="7.93"/><path class="cls-49" d="M1129.32,401.24c0-6.48-2.74-11.74-6.13-11.74s-6.12,5.26-6.12,11.74v60.1h12.25v-60.1Z" transform="translate(-28.33)"/><path class="cls-49" d="M1110.81,401.24c0-6.48-2.75-11.74-6.13-11.74s-6.13,5.26-6.13,11.74v60.1h12.26v-60.1Z" transform="translate(-28.33)"/><polygon class="cls-16" points="1061.84 437.46 1064.69 461.67 1065.27 461.67 1105.56 461.67 1106.13 461.67 1108.99 437.46 1061.84 437.46"/><path class="cls-49" d="M1089.86,446.79c5.41-2.73,13.92-4.48,23.49-4.48,9.33,0,17.66,1.67,23.09,4.28,5.1-.79,9-4.38,9-8.69,0-4.89-5-8.86-11.08-8.86a13.52,13.52,0,0,0-2.23.18c-1.37-4.77-9.17-8.44-18.61-8.44-9.72,0-17.72,3.89-18.73,8.87-.37,0-.75,0-1.13,0-6.12,0-11.08,4-11.08,8.86C1082.53,442.3,1085.59,445.55,1089.86,446.79Z" transform="translate(-28.33)"/><ellipse class="cls-48" cx="1076.4" cy="399.32" rx="4.47" ry="7.13"/><ellipse class="cls-48" cx="1094.86" cy="399.32" rx="4.47" ry="7.13"/><polygon class="cls-50" points="1057.04 451.26 1060.5 454.88 1061.2 454.88 1110.06 454.88 1110.76 454.88 1114.22 451.26 1057.04 451.26"/><polygon class="cls-51" points="1105.88 428.47 1105.11 428.53 1112.1 416.43 1112.87 416.87 1105.88 428.47"/><circle class="cls-16" cx="1112.53" cy="416.42" r="1.76"/><circle class="cls-16" cx="1108.99" cy="422.48" r="1.76"/><polygon class="cls-51" points="1112.08 429.88 1111.37 429.57 1123.18 422.11 1123.66 422.87 1112.08 429.88"/><circle class="cls-16" cx="1123.66" cy="422.36" r="1.76"/><circle class="cls-16" cx="1116.67" cy="426.65" r="1.76"/><polygon class="cls-51" points="1064.45 429 1065.2 429.02 1057.95 417.25 1057.23 417.73 1064.45 429"/><path class="cls-16" d="M1084.18,417.34a1.68,1.68,0,1,0,1.6-1.83A1.71,1.71,0,0,0,1084.18,417.34Z" transform="translate(-28.33)"/><path class="cls-16" d="M1087.85,423.23a1.69,1.69,0,1,0,1.6-1.83A1.73,1.73,0,0,0,1087.85,423.23Z" transform="translate(-28.33)"/><polygon class="cls-51" points="1058.58 430.69 1059.26 430.35 1047.6 423.42 1047.18 424.2 1058.58 430.69"/><path class="cls-16" d="M1073.81,423.77a1.68,1.68,0,1,0,1.6-1.84A1.72,1.72,0,0,0,1073.81,423.77Z" transform="translate(-28.33)"/><path class="cls-16" d="M1080.7,427.75a1.68,1.68,0,1,0,3.36-.16,1.68,1.68,0,1,0-3.36.16Z" transform="translate(-28.33)"/></g><g id="松"><path class="cls-52" d="M950.52,368.84h70a0,0,0,0,1,0,0v70a30,30,0,0,1-30,30h-70a0,0,0,0,1,0,0v-70A30,30,0,0,1,950.52,368.84Z"/><path class="cls-53" d="M968.81,442c6.74-4.68,17.34-7.69,29.26-7.69,11.63,0,22,2.87,28.76,7.35,6.36-1.36,11.15-7.53,11.15-14.93,0-8.4-6.18-15.21-13.8-15.21a12.21,12.21,0,0,0-2.78.31c-1.71-8.21-11.42-14.5-23.18-14.5-12.11,0-22.08,6.67-23.33,15.23a13.18,13.18,0,0,0-1.41-.08c-7.62,0-13.8,6.81-13.8,15.22C959.68,434.32,963.49,439.91,968.81,442Z" transform="translate(-28.33)"/><path class="cls-54" d="M1001.5,418.84c0,5.4-1.51,9.78-3.37,9.78s-3.37-4.38-3.37-9.78,1.51-9.78,3.37-9.78S1001.5,413.44,1001.5,418.84Z" transform="translate(-28.33)"/><path class="cls-54" d="M1025.89,426.8c-2.45,3.41-5.24,5.6-6.22,4.9s.22-4.05,2.67-7.46,5.25-5.6,6.23-4.89S1028.35,423.39,1025.89,426.8Z" transform="translate(-28.33)"/><path class="cls-54" d="M974.23,425c2.29,3.53,3.33,6.92,2.31,7.58s-3.69-1.67-6-5.19-3.32-6.92-2.31-7.58S971.94,421.47,974.23,425Z" transform="translate(-28.33)"/></g><g id="竹"><path class="cls-55" d="M835.52,368.84h70a0,0,0,0,1,0,0v70a30,30,0,0,1-30,30h-70a0,0,0,0,1,0,0v-70A30,30,0,0,1,835.52,368.84Z"/><path class="cls-16" d="M867.39,424.82c-10.4,9-26.89,7-26.89,7s.38-16.6,10.77-25.59,19.59-7.17,26.89-7C877.34,406.23,877.78,415.83,867.39,424.82Z" transform="translate(-28.33)"/><path class="cls-55" d="M850.87,420.49a86.76,86.76,0,0,1,10.51-10.84,73.65,73.65,0,0,1,12.24-8.83C871.58,403.26,850.87,420.49,850.87,420.49Z" transform="translate(-28.33)"/><path class="cls-16" d="M916.39,406.19c10.4,9,10.77,25.59,10.77,25.59s-16.49,2-26.88-7-10-18.59-10.77-25.6C896.81,399,906,397.2,916.39,406.19Zm.4,14.3a87.08,87.08,0,0,0-10.5-10.84,74.51,74.51,0,0,0-12.24-8.83C896.09,403.26,916.79,420.49,916.79,420.49Z" transform="translate(-28.33)"/><path class="cls-56" d="M897.3,422.34c0,15.74-14.11,28.5-14.11,28.5s-14.1-12.76-14.1-28.5,8.46-22.33,14.1-28.51C888.65,399.79,897.3,406.6,897.3,422.34Z" transform="translate(-28.33)"/><path class="cls-55" d="M884.71,417.57a137.6,137.6,0,0,1-1.52,20.33,138.49,138.49,0,0,1-1.51-20.33,117.86,117.86,0,0,1,1.51-20.32A117,117,0,0,1,884.71,417.57Z" transform="translate(-28.33)"/></g><g id="梅"><path class="cls-57" d="M720.29,368.84h70a0,0,0,0,1,0,0v70a30,30,0,0,1-30,30h-70a0,0,0,0,1,0,0v-70A30,30,0,0,1,720.29,368.84Z"/><path class="cls-16" d="M805,414.84a17.44,17.44,0,0,0-17.44-17.44h-.14a17.43,17.43,0,0,0-34.62.07c-.53,0-1.06-.08-1.61-.08a17.44,17.44,0,0,0-9.75,31.9,17.43,17.43,0,0,0,28.24,18.13,17.43,17.43,0,0,0,29-13,17.58,17.58,0,0,0-.88-5.45A17.42,17.42,0,0,0,805,414.84Z" transform="translate(-28.33)"/><polygon class="cls-57" points="752.99 417.3 743.55 417.3 750.23 410.63 749.03 409.43 742.35 416.1 742.35 406.66 740.65 406.66 740.65 416.1 733.97 409.43 732.77 410.63 739.45 417.3 730.01 417.3 730.01 419 739.45 419 732.77 425.68 733.97 426.88 740.65 420.2 740.65 429.64 742.35 429.64 742.35 420.2 749.03 426.88 750.23 425.68 743.55 419 752.99 419 752.99 417.3"/><path class="cls-57" d="M772.46,406.66a2.63,2.63,0,1,1-2.63-2.63A2.63,2.63,0,0,1,772.46,406.66Z" transform="translate(-28.33)"/><path class="cls-57" d="M772.46,429.64a2.63,2.63,0,1,1-2.63-2.63A2.64,2.64,0,0,1,772.46,429.64Z" transform="translate(-28.33)"/><path class="cls-57" d="M763.6,427a2.63,2.63,0,1,1-2.63-2.63A2.63,2.63,0,0,1,763.6,427Z" transform="translate(-28.33)"/><path class="cls-57" d="M781.32,427a2.63,2.63,0,1,1-2.63-2.63A2.62,2.62,0,0,1,781.32,427Z" transform="translate(-28.33)"/><path class="cls-57" d="M785.4,418.15a2.63,2.63,0,1,1-2.63-2.63A2.63,2.63,0,0,1,785.4,418.15Z" transform="translate(-28.33)"/><path class="cls-57" d="M760,418.15a2.64,2.64,0,1,1-2.64-2.63A2.63,2.63,0,0,1,760,418.15Z" transform="translate(-28.33)"/><path class="cls-57" d="M781.32,409.29a2.63,2.63,0,1,1-2.63-2.63A2.63,2.63,0,0,1,781.32,409.29Z" transform="translate(-28.33)"/><path class="cls-57" d="M763.6,409.29a2.63,2.63,0,1,1-2.63-2.63A2.63,2.63,0,0,1,763.6,409.29Z" transform="translate(-28.33)"/></g><g id="月"><path class="cls-32" d="M605.52,368.84h70a0,0,0,0,1,0,0v70a30,30,0,0,1-30,30h-70a0,0,0,0,1,0,0v-70A30,30,0,0,1,605.52,368.84Z"/><path class="cls-16" d="M644.76,386.68l-.82.25a25.46,25.46,0,1,1-22.13,41.48,33.42,33.42,0,1,0,23-41.73Z" transform="translate(-28.33)"/></g><g id="傘"><path class="cls-58" d="M490.52,368.84h70a0,0,0,0,1,0,0v70a30,30,0,0,1-30,30h-70a0,0,0,0,1,0,0v-70A30,30,0,0,1,490.52,368.84Z"/><path class="cls-16" d="M510.27,422.25a38.82,38.82,0,0,1,10.09,1.33c.67-14.55,5.35-32.26,14.34-41.74C515.49,384.41,493,395.16,493,426.32A38.18,38.18,0,0,1,510.27,422.25Z" transform="translate(-28.33)"/><path class="cls-16" d="M566.69,422.25a42,42,0,0,0-10.5,1.33c-.7-14.55-4.3-30.48-13.39-41.74,23.38,2.31,41.85,22.24,41.85,44.48A41,41,0,0,0,566.69,422.25Z" transform="translate(-28.33)"/><path class="cls-16" d="M539.86,382.47V376.4h-2.67v6.08c-8.06,6.71-12.65,27.51-13.48,40.6,3-2.25,8.45-3.76,14.65-3.76s11.49,1.47,14.55,3.68C552,409.92,547.54,389.29,539.86,382.47Z" transform="translate(-28.33)"/><path class="cls-16" d="M535.9,422.14h4.92s.17,23.26.09,27.63c-.15,8.87,10.47,8.27,10.47.06,0-4.29,4.33-4.3,4.33,0,0,14.72-19.72,14.72-19.72.11C536,433.61,535.9,422.14,535.9,422.14Z" transform="translate(-28.33)"/></g><g id="雲"><path class="cls-59" d="M375.52,368.84h70a0,0,0,0,1,0,0v70a30,30,0,0,1-30,30h-70a0,0,0,0,1,0,0v-70A30,30,0,0,1,375.52,368.84Z"/><path class="cls-16" d="M452.58,415.74h-.11a18.29,18.29,0,1,0-33-15.71,16.52,16.52,0,0,0-9.2-2.78h-1.45a16.61,16.61,0,0,0-16.61,16.61h0a16.84,16.84,0,0,0,.15,2.14,14.71,14.71,0,0,0-12,14.47h0a14.72,14.72,0,0,0,14.72,14.72h57.5a14.73,14.73,0,0,0,14.73-14.72h0A14.73,14.73,0,0,0,452.58,415.74Z" transform="translate(-28.33)"/></g><g id="太陽"><path class="cls-60" d="M260.49,368.84H330.4a.1.1,0,0,1,.1.1v69.91a30,30,0,0,1-30,30H230.6a.1.1,0,0,1-.1-.1V398.83A30,30,0,0,1,260.49,368.84Z"/><path class="cls-16" d="M308.83,446.74h0a27.9,27.9,0,0,1-27.9-27.9h0A27.9,27.9,0,0,1,308.83,391h0a27.9,27.9,0,0,1,27.9,27.89h0A27.9,27.9,0,0,1,308.83,446.74Z" transform="translate(-28.33)"/><path class="cls-16" d="M309.1,388.39h0a3.37,3.37,0,0,1-3.36-3.36v-9.8a3.36,3.36,0,0,1,3.36-3.36h0a3.35,3.35,0,0,1,3.36,3.36V385A3.36,3.36,0,0,1,309.1,388.39Z" transform="translate(-28.33)"/><path class="cls-16" d="M309.1,465.82h0a3.37,3.37,0,0,1-3.36-3.36v-9.8a3.36,3.36,0,0,1,3.36-3.36h0a3.35,3.35,0,0,1,3.36,3.36v9.8A3.36,3.36,0,0,1,309.1,465.82Z" transform="translate(-28.33)"/><path class="cls-16" d="M278.24,419.52h0a3.36,3.36,0,0,1-3.36,3.36h-9.8a3.37,3.37,0,0,1-3.36-3.36h0a3.36,3.36,0,0,1,3.36-3.36h9.8A3.35,3.35,0,0,1,278.24,419.52Z" transform="translate(-28.33)"/><path class="cls-16" d="M355.67,419.52h0a3.36,3.36,0,0,1-3.36,3.36h-9.8a3.37,3.37,0,0,1-3.36-3.36h0a3.36,3.36,0,0,1,3.36-3.36h9.8A3.35,3.35,0,0,1,355.67,419.52Z" transform="translate(-28.33)"/><path class="cls-16" d="M330.65,397.59h0a3.36,3.36,0,0,1,0-4.75l6.93-6.93a3.36,3.36,0,0,1,4.75,0h0a3.36,3.36,0,0,1,0,4.75l-6.93,6.93A3.36,3.36,0,0,1,330.65,397.59Z" transform="translate(-28.33)"/><path class="cls-16" d="M275.9,452.34h0a3.36,3.36,0,0,1,0-4.75l6.93-6.93a3.36,3.36,0,0,1,4.75,0h0a3.36,3.36,0,0,1,0,4.75l-6.93,6.93A3.34,3.34,0,0,1,275.9,452.34Z" transform="translate(-28.33)"/><path class="cls-16" d="M286.82,397.78h0a3.34,3.34,0,0,1-4.75,0l-6.93-6.93a3.36,3.36,0,0,1,0-4.75h0a3.36,3.36,0,0,1,4.75,0l6.93,6.94A3.35,3.35,0,0,1,286.82,397.78Z" transform="translate(-28.33)"/><path class="cls-16" d="M341.57,452.54h0a3.36,3.36,0,0,1-4.75,0l-6.93-6.93a3.36,3.36,0,0,1,0-4.75h0a3.34,3.34,0,0,1,4.75,0l6.93,6.93A3.36,3.36,0,0,1,341.57,452.54Z" transform="translate(-28.33)"/></g><g id="英語"><circle class="cls-61" cx="167.31" cy="384.78" r="6.68"/><path class="cls-61" d="M173.82,368.84a30,30,0,0,0-30,30v70h70a30,30,0,0,0,30-30v-70Zm-7,8.18a10.56,10.56,0,1,1-10.56,10.56A10.55,10.55,0,0,1,166.86,377Zm27.89,83.62-2.36,1a1.71,1.71,0,0,1-2.11-.63l-6.49-11.5v14.4a1.48,1.48,0,0,1-1.58,1.35h-2.62a1.47,1.47,0,0,1-1.58-1.35v-14.4L171.74,461a1.71,1.71,0,0,1-2.1.66l-2.38-1a1.27,1.27,0,0,1-.76-1.79l6.79-12.49h-5.91v-5.05h26.79v5.05h-5.68l7,12.4A1.28,1.28,0,0,1,194.75,460.64Zm12.58-27.37a3.53,3.53,0,0,1-3.53,3.53H158.19a3.53,3.53,0,0,1-3.53-3.53V404.41a3.53,3.53,0,0,1,3.53-3.53H203.8a3.53,3.53,0,0,1,3.53,3.53Zm-11.69-35.14A13.35,13.35,0,1,1,209,384.78,13.35,13.35,0,0,1,195.64,398.13Zm39.51,33.57c0,3.9-3.09,6.75-6.27,5.79l-18.4-7.58V409.05l18.19-8.79c3.23-1.15,6.48,1.73,6.48,5.73Z" transform="translate(-28.33)"/><circle class="cls-61" cx="138.52" cy="387.58" r="5.28"/></g><g id="ケーキ"><path class="cls-62" d="M30.5,368.84H100.1a.4.4,0,0,1,.4.4v69.61a30,30,0,0,1-30,30H.9a.4.4,0,0,1-.4-.4V398.84A30,30,0,0,1,30.5,368.84Z"/><path class="cls-16" d="M62.45,375.82c-1.63,2.11-4.69,5.61-4.69,8.36a4.84,4.84,0,0,0,4.69,5,3,3,0,0,1-2.92-3.11c0-1.72,1.9-3.91,2.92-5.23,1.13,1.5,2.91,3.51,2.91,5.23a3,3,0,0,1-2.91,3.11,4.83,4.83,0,0,0,4.68-5C67.13,381.43,64.28,378.22,62.45,375.82Z" transform="translate(-28.33)"/><path class="cls-16" d="M95.07,375.82c-1.63,2.11-4.69,5.61-4.69,8.36a4.84,4.84,0,0,0,4.69,5,3,3,0,0,1-2.92-3.11c0-1.72,1.9-3.91,2.92-5.23,1.13,1.5,2.91,3.51,2.91,5.23a3,3,0,0,1-2.91,3.11,4.84,4.84,0,0,0,4.68-5C99.75,381.43,96.89,378.22,95.07,375.82Z" transform="translate(-28.33)"/><path class="cls-16" d="M78.83,375.82c-1.63,2.11-4.68,5.61-4.68,8.36a4.83,4.83,0,0,0,4.68,5,3,3,0,0,1-2.91-3.11c0-1.72,1.9-3.91,2.91-5.23,1.14,1.5,2.92,3.51,2.92,5.23a3,3,0,0,1-2.92,3.11,4.84,4.84,0,0,0,4.69-5C83.52,381.43,80.66,378.22,78.83,375.82Z" transform="translate(-28.33)"/><path class="cls-16" d="M21.48,427.78H78.4a7.3,7.3,0,0,1,7.3,7.3v21.56a0,0,0,0,1,0,0H14.18a0,0,0,0,1,0,0V435.07A7.3,7.3,0,0,1,21.48,427.78Z"/><rect class="cls-62" x="14.18" y="438.4" width="71.51" height="7.61"/><path class="cls-16" d="M98.92,405H97.57V391.27h-5V405H81.33V391.78h-5V405H64.8V391.78h-5V405h-1a8.12,8.12,0,0,0-8.13,8.12V425.3H107V413.08A8.12,8.12,0,0,0,98.92,405Z" transform="translate(-28.33)"/></g><g id="乾杯"><path class="cls-63" d="M1065.45,228.07h70.05a0,0,0,0,1,0,0v70.05a29.95,29.95,0,0,1-29.95,29.95H1035.5a0,0,0,0,1,0,0V258a29.95,29.95,0,0,1,29.95-29.95Z"/><path class="cls-16" d="M1089.77,322.26l-5.49-1.52a.62.62,0,0,1-.43-.76l5.22-18.89.22.06,3.46,1a.6.6,0,0,0,.61-.2,50.11,50.11,0,0,0,10.8-25.41l3.18-25.72-3.83-1.06-2.83-.79-3.83-1.05h0l-10.49,23.7a50,50,0,0,0-3.78,27.35.58.58,0,0,0,.42.48l3.45,1,.22.06-5.22,18.89a.62.62,0,0,1-.76.43l-5.49-1.52a1.24,1.24,0,0,0-.66,2.4l6.54,1.81,1.48.41,6.54,1.81a1.25,1.25,0,0,0,1.53-.87A1.23,1.23,0,0,0,1089.77,322.26Z" transform="translate(-28.33)"/><path class="cls-63" d="M1102.73,274.2l-14.91-1.73a48.14,48.14,0,0,0-3.65,23.9,1,1,0,0,0,.44.76l7.9,2.18a1,1,0,0,0,.76-.42,48.1,48.1,0,0,0,9.14-22.38Z" transform="translate(-28.33)"/><path class="cls-16" d="M1145.72,318.91l-4.57,1.19a1.17,1.17,0,0,1-1.42-.83l-4.45-17.13.2-.05,2.86-.75a1.14,1.14,0,0,0,.84-.93,46.76,46.76,0,0,0-3.19-25.17l-9.24-21.79a.59.59,0,0,0-.69-.33l-3.1.8-2.65.69-3.1.81a.59.59,0,0,0-.44.63l2.54,23.53a46.86,46.86,0,0,0,9.47,23.54,1.13,1.13,0,0,0,1.19.4l2.86-.74.2-.06,4.45,17.13a1.16,1.16,0,0,1-.83,1.42l-4.57,1.18a1.17,1.17,0,0,0-.83,1.42,1.15,1.15,0,0,0,1.42.83l6.12-1.59,1.39-.36,6.12-1.59a1.16,1.16,0,0,0-.58-2.25Z" transform="translate(-28.33)"/><path class="cls-63" d="M1120.65,277.46l.26,2.15a44.83,44.83,0,0,0,8.21,21,1,1,0,0,0,.7.4l7.4-1.92a.94.94,0,0,0,.42-.7,44.82,44.82,0,0,0-3.06-22.34Z" transform="translate(-28.33)"/><path class="cls-16" d="M1116.83,247.23a1.34,1.34,0,1,1-1.33-1.34A1.34,1.34,0,0,1,1116.83,247.23Z" transform="translate(-28.33)"/><path class="cls-16" d="M1110.71,241.22a2.35,2.35,0,1,1-2.35-2.35A2.35,2.35,0,0,1,1110.71,241.22Z" transform="translate(-28.33)"/><circle class="cls-16" cx="1089.58" cy="234.79" r="4.08"/></g><g id="歯磨き"><path class="cls-64" d="M950.59,228.07h69.91a0,0,0,0,1,0,0V298a30.09,30.09,0,0,1-30.09,30.09H920.5a0,0,0,0,1,0,0V258.16A30.09,30.09,0,0,1,950.59,228.07Z"/><path class="cls-16" d="M1034.88,280c-4.18-14.92-15.8-5.27-22.05-3.92-6.22-1.35-17.78-11-21.94,3.92-4.23,15.19,8.25,40.62,11.14,39.94s3.47-10.3,6.08-9.46c2.13.69,3.12,1.67,4.24,2,0,.09.09.15.15.15l.33,0,.33,0c.05,0,.1-.06.15-.14,1.12-.35,2.12-1.34,4.26-2,2.63-.84,3.22,8.78,6.12,9.46S1039.13,295.19,1034.88,280Z" transform="translate(-28.33)"/><path class="cls-16" d="M998.78,232.93l2.62,1.22-.48,1,7.1,3.31-.87,1.87-7.11-3.32-1,2.13,7.1,3.32-.87,1.86-7.1-3.31-.92,2,7.1,3.31-.87,1.87-7.11-3.32-1,2.13,7.1,3.32-.87,1.86-7.1-3.31-1,2.12,7.1,3.31-.87,1.87-7.1-3.31-1,2.12,7.11,3.32-.87,1.87-7.11-3.32-.92,2,7.1,3.31L996.1,264l-7.1-3.31-.49,1-1.76-.83-28.47,61a2.77,2.77,0,1,1-5-2.34l28.47-61,2.75-5.9,8.12-17.39A4.68,4.68,0,0,1,998.78,232.93Z" transform="translate(-28.33)"/></g><g id="病院"><path class="cls-65" d="M863.84,227.32a30,30,0,0,0-30,30v70h70a29.88,29.88,0,0,0,12.72-2.83h-10.8v-53h12.79a8.38,8.38,0,0,1,8.38,8.38v36.6a29.89,29.89,0,0,0,6.92-19.17v-70Z" transform="translate(-28.33)"/><path class="cls-16" d="M845,231.25h21.1a11.31,11.31,0,0,1,11.31,11.31v82a0,0,0,0,1,0,0H833.69a0,0,0,0,1,0,0v-82A11.31,11.31,0,0,1,845,231.25Z"/><path class="cls-16" d="M820.91,271.46h12.79a0,0,0,0,1,0,0v53.13a0,0,0,0,1,0,0H812.53a0,0,0,0,1,0,0V279.83A8.38,8.38,0,0,1,820.91,271.46Z"/><rect class="cls-66" x="817.54" y="276.32" width="10.94" height="7.3" rx="2.42"/><rect class="cls-66" x="817.54" y="287.57" width="10.94" height="7.3" rx="2.42"/><rect class="cls-66" x="817.54" y="298.02" width="10.94" height="7.3" rx="2.42"/><rect class="cls-66" x="882.57" y="277.32" width="10.94" height="7.3" rx="2.42"/><rect class="cls-66" x="882.57" y="288.56" width="10.94" height="7.3" rx="2.42"/><rect class="cls-66" x="882.57" y="299.02" width="10.94" height="7.3" rx="2.42"/><rect class="cls-66" x="817.54" y="308.48" width="10.94" height="7.3" rx="2.42"/><rect class="cls-66" x="882.57" y="309.48" width="10.94" height="7.3" rx="2.42"/><rect class="cls-66" x="839.61" y="265.38" width="13.03" height="9.32" rx="2.42"/><rect class="cls-66" x="839.61" y="279.74" width="13.03" height="9.32" rx="2.42"/><rect class="cls-66" x="842.5" y="298.71" width="13.03" height="26.83"/><rect class="cls-66" x="858.53" y="265.38" width="13.03" height="9.32" rx="2.42"/><rect class="cls-66" x="858.53" y="279.74" width="13.03" height="9.32" rx="2.42"/><rect class="cls-66" x="855.53" y="298.71" width="13.03" height="26.83"/><rect class="cls-66" x="839.61" y="295.43" width="31.95" height="4.66" rx="2.06"/><polygon class="cls-65" points="865.58 247.82 859.03 247.82 859.03 241.59 852.14 241.59 852.14 247.82 845.42 247.82 845.42 254.11 852.14 254.11 852.14 260.34 859.03 260.34 859.03 254.11 865.58 254.11 865.58 247.82"/></g><g id="美容室"><path class="cls-67" d="M776,294.55a1.47,1.47,0,0,1-2.12-2,1.46,1.46,0,0,1,2.07,0A1.48,1.48,0,0,1,776,294.55Z" transform="translate(-28.33)"/><path class="cls-67" d="M780.6,228.07l10.83,10.8a3.56,3.56,0,0,1,0,5l-3.16,3.17-9.43-9.41a4,4,0,0,0-5.62,0l-.19.19,12.24,12.21-2.68,2.7-12.25-12.21-3,3,12.24,12.21-2.52,2.53L764.83,246.1l-3,3,12.24,12.21L771.39,264,759.15,251.8l-3,3L768.4,267l-2.64,2.64-12.24-12.21-3,3,12.25,12.21-2.69,2.7-12.24-12.21-3,3,12.24,12.21-2.52,2.53-12.24-12.21-3,3,12.25,12.21-2.69,2.69-12.25-12.2a4.25,4.25,0,0,0,0,6l9.24,9.21-3.16,3.17a3.56,3.56,0,0,1-5,0l-12.37-12.33a3.58,3.58,0,0,1,0-5l47.21-47.34H748.83a30,30,0,0,0-30,30v70h47.61a17.8,17.8,0,0,1-.92-3.57,7.72,7.72,0,0,1-4.35-2.05c-3.56-3.4-3.12-9.64,1-13.94a12.21,12.21,0,0,1,6.15-3.53l3.94-14.68L806.61,257a2.2,2.2,0,0,1,2.73-.32,2.11,2.11,0,0,1,.42,3.15L781.51,292a17,17,0,0,0-3.21,5.44l-3.13,8.76a7.21,7.21,0,0,1,.87.7c3.56,3.4,3.12,9.64-1,13.94a12.16,12.16,0,0,1-5.93,3.47,15.27,15.27,0,0,0,.42,3.77h19.29a30,30,0,0,0,30-30v-70Z" transform="translate(-28.33)"/><ellipse class="cls-67" cx="768.6" cy="314.67" rx="6.36" ry="5.13" transform="translate(-18.23 652.96) rotate(-46.3)"/><path class="cls-16" d="M764.06,300l2.9-.71,1.64-6.94-5.88,1.7a7.72,7.72,0,0,0-1-1.16c-3.56-3.41-9.77-2.68-13.88,1.62s-4.55,10.54-1,13.94,9.77,2.67,13.88-1.62A12,12,0,0,0,764.06,300Zm-14.15,5.26c-2-1.95-1.74-5.6.68-8.14s6.06-3,8.11-1.05,1.74,5.6-.69,8.14S752,307.21,749.91,305.25Z" transform="translate(-28.33)"/></g><g id="ガソリン"><path class="cls-68" d="M633.86,228.07a30,30,0,0,0-30,30v70h9.67V321.7a2,2,0,0,1,2-2h51.07a2,2,0,0,1,2,2v6.37h5.22a30,30,0,0,0,30-30v-70Z" transform="translate(-28.33)"/><path class="cls-16" d="M686.46,261.75v16.89h0V306.7a4.31,4.31,0,0,1-4.31,4.31,4.19,4.19,0,0,1-4.19-4.18s-.22-15-.22-18.66a9.46,9.46,0,0,0-9-9.53h-3V247.55a7.35,7.35,0,0,0-7.35-7.35H623.89a7.35,7.35,0,0,0-7.35,7.35v69.86h49.21V284h.92a5.61,5.61,0,0,1,5.62,5.62v16.86c0,5.82,3.29,9.88,9.57,9.88s10.23-3.82,10.23-10V261.75Z" transform="translate(-28.33)"/><rect class="cls-68" x="595.66" y="247.86" width="34.3" height="20.55" rx="3.53"/><path class="cls-16" d="M683.21,269.24h10.84V250.59a7.33,7.33,0,0,0-2-5l-11-11.67-3.42,2.85,7.26,12-1.17,1.43a13.8,13.8,0,0,0-3.19,9.37,17.07,17.07,0,0,0,.9,4.57Z" transform="translate(-28.33)"/></g><g id="バス"><path class="cls-69" d="M490.46,228.07h70a0,0,0,0,1,0,0v70a30,30,0,0,1-30,30h-70a0,0,0,0,1,0,0V258A30,30,0,0,1,490.46,228.07Z"/><path class="cls-16" d="M493,297.54V275.48a3.34,3.34,0,0,1,.29-1.35L500.54,258a7.78,7.78,0,0,1,7.1-4.56h60.85a16.11,16.11,0,0,1,16.19,16v28.06a3.33,3.33,0,0,1-3.35,3.32h-85A3.33,3.33,0,0,1,493,297.54Z" transform="translate(-28.33)"/><path class="cls-69" d="M504.73,260.68l-4.6,11.64a1.2,1.2,0,0,0-.12.52v9.75a1.61,1.61,0,0,0,1.76,1.39h8a1.61,1.61,0,0,0,1.76-1.37l.38-21.45a1.6,1.6,0,0,0-1.76-1.41H506C505.23,259.75,505,260.15,504.73,260.68Z" transform="translate(-28.33)"/><rect class="cls-69" x="506.88" y="259.67" width="13.77" height="17.48" rx="2.35"/><rect class="cls-16" x="488.63" y="259.75" width="15.34" height="35.13" rx="3"/><rect class="cls-70" x="464.65" y="288.72" width="91.7" height="3.06"/><rect class="cls-71" x="480.01" y="293.92" width="12.24" height="12.12" rx="5.86"/><rect class="cls-69" x="523.22" y="259.67" width="13.77" height="17.48" rx="2.35"/><path class="cls-69" d="M541.86,259.75h.49a8.74,8.74,0,0,1,8.74,8.74v6.1a2.56,2.56,0,0,1-2.56,2.56h-6.67a2.56,2.56,0,0,1-2.56-2.56V262.31A2.56,2.56,0,0,1,541.86,259.75Z"/><rect class="cls-71" x="530.67" y="293.92" width="12.24" height="12.12" rx="5.86"/><rect class="cls-69" x="483.62" y="297.5" width="5.01" height="4.96" rx="2.4"/><rect class="cls-69" x="534.29" y="297.5" width="5.01" height="4.96" rx="2.4"/><rect class="cls-69" x="490.71" y="262.1" width="11.18" height="15.19" rx="2.36"/></g><g id="電車"><path class="cls-72" d="M403.76,228.07A29.93,29.93,0,0,0,373.83,258v70.07h17.82l11.65-18.52,7.29-.1-2.17,3.84,32,0-2.64-4h7.41l11.22,16a29.93,29.93,0,0,0,17.4-27.18V228.07Z" transform="translate(-28.33)"/><path class="cls-72" d="M403.16,322.59l-3.09,5.48h43.84a30.4,30.4,0,0,0,5.17-.45l-2.84-4.72Z" transform="translate(-28.33)"/><polygon class="cls-72" points="416.66 320.5 413.55 315.88 378.82 315.54 376.28 320.04 416.66 320.5"/><path class="cls-16" d="M381.9,232.51h27.77a20.25,20.25,0,0,1,20.25,20.25V295a11,11,0,0,1-11,11H372.67a11,11,0,0,1-11-11V252.76A20.25,20.25,0,0,1,381.9,232.51Z"/><path class="cls-72" d="M437.82,242.67h-28a2.51,2.51,0,0,1-2.5-2.51h0a2.5,2.5,0,0,1,2.5-2.5h28a2.5,2.5,0,0,1,2.5,2.5h0A2.51,2.51,0,0,1,437.82,242.67Z" transform="translate(-28.33)"/><rect class="cls-72" x="369.59" y="248.02" width="52.39" height="28.92" rx="2.83"/><path class="cls-72" d="M410.07,300.55h0a4.27,4.27,0,0,1-4.27-4.27h0a4.27,4.27,0,0,1,4.27-4.27h0a4.27,4.27,0,0,1,4.27,4.27h0A4.27,4.27,0,0,1,410.07,300.55Z" transform="translate(-28.33)"/><path class="cls-72" d="M439.08,300.55h0a4.27,4.27,0,0,1-4.27-4.27h0a4.27,4.27,0,0,1,4.27-4.27h0a4.27,4.27,0,0,1,4.26,4.27h0A4.27,4.27,0,0,1,439.08,300.55Z" transform="translate(-28.33)"/></g><g id="本"><path class="cls-73" d="M260.53,228.07h70a0,0,0,0,1,0,0v70a30,30,0,0,1-30,30h-70a0,0,0,0,1,0,0v-70A30,30,0,0,1,260.53,228.07Z"/><path class="cls-16" d="M267.51,251.9s34.06-12.74,41,4.44c8.16-17.33,41.65-4.44,41.65-4.44a1.33,1.33,0,0,1,1.33,1.38L349,307.77a1.31,1.31,0,0,1-1.38,1.26l-32.82-1.62a1.27,1.27,0,0,0-.85.29c-2.38,1.84-7.65,2.21-10.51.13a1.44,1.44,0,0,0-.89-.29l-32.16,1.79a1.33,1.33,0,0,1-1.4-1.25l-2.81-54.79A1.33,1.33,0,0,1,267.51,251.9Z" transform="translate(-28.33)"/><path class="cls-73" d="M308.51,259.72v44.79c0,.09.12.13.2.06,2.76-2.62,20.57-6.84,35.26.14a.11.11,0,0,0,.16-.08s2.83-49.46,2.79-49.48c-9.06-5.32-32.17-8.58-38.37,4.49A.12.12,0,0,0,308.51,259.72Z" transform="translate(-28.33)"/><path class="cls-73" d="M272.92,304.57c0,.08.09.11.16.07,10.94-6.37,32.34-2.69,35.24-.11.08.07.19,0,.19-.06v-44.8a.1.1,0,0,0-.05-.08c-6.6-14.06-28.5-9.32-37.55-4C270.88,255.62,272.73,301.68,272.92,304.57Z" transform="translate(-28.33)"/></g><g id="音楽"><path class="cls-74" d="M195,228.07l.79,1c4.16,5.2,5.19,6.13,6.58,8.73,1.27,2.37,2.8,5.32,2.62,9.27a10.88,10.88,0,0,1-7.33,10.37,11.46,11.46,0,0,1-6.25.36,11.16,11.16,0,0,0,3.78-3.51,12.38,12.38,0,0,0,1.3-2.82,22.33,22.33,0,0,0,1.46-5.7,13.91,13.91,0,0,0-.48-4.82,27.28,27.28,0,0,0-3-6.64l-13.16,35.81s0,.12,0,.09l0-.09c-2.84,6-9.56,9.24-17.86,7.46s-13.78-7.95-12.22-13.8,9.54-9.14,17.84-7.37c4.92,1.05,7.59,3.24,9.65,6.4l10.47-34.75H173.82a30,30,0,0,0-30,30v70h37.9a7.26,7.26,0,0,1-3.52-4.51c-1.16-4.6,2.57-9.64,8.33-11.26a12.21,12.21,0,0,1,7.5.17L181,276l41.68-11.77s8.84,43.89,8.91,44.18c1,4-2.66,8.53-8.19,10.09s-10.85-.43-11.86-4.44,2.66-8.53,8.2-10.09a12.6,12.6,0,0,1,7-.07l-9.19-31.85-28,7.88,9.5,37.74c1,3.95-1.63,8.23-6,10.38h20.8a30,30,0,0,0,30-30v-70Z" transform="translate(-28.33)"/></g><g id="PC"><path class="cls-75" d="M31,228.07H100.5a0,0,0,0,1,0,0v69.52A30.48,30.48,0,0,1,70,328.07H.5a0,0,0,0,1,0,0V258.56A30.48,30.48,0,0,1,31,228.07Z"/><path class="cls-16" d="M43.85,294.64l68,.05a1.55,1.55,0,0,1,1.45.91l6.29,15.94a1.53,1.53,0,0,1-1.59,2H36.75a1,1,0,0,1-1.07-1.34l6.5-16.49A1.74,1.74,0,0,1,43.85,294.64Z" transform="translate(-28.33)"/><rect class="cls-16" x="14.26" y="242.61" width="70.38" height="47.18" rx="2.91"/><rect class="cls-75" x="18.05" y="245.99" width="62.83" height="40.35" rx="3.51"/><path class="cls-75" d="M66.28,304.54l23.14,0a.52.52,0,0,1,.49.34l2.14,6a.57.57,0,0,1-.54.75H63.86a.38.38,0,0,1-.36-.5l2.21-6.17A.6.6,0,0,1,66.28,304.54Z" transform="translate(-28.33)"/></g><g id="カメラ"><path class="cls-76" d="M1065.51,87.72h70a0,0,0,0,1,0,0v70a30,30,0,0,1-30,30h-70a0,0,0,0,1,0,0v-70A30,30,0,0,1,1065.51,87.72Z"/><rect class="cls-16" x="1060.91" y="115.23" width="9.42" height="5.1"/><path class="cls-16" d="M1072.43,119h.94a1,1,0,0,0,1.06-1V114a1,1,0,0,1,1.06-1h4.7a1,1,0,0,1,1.06,1v3.9a1,1,0,0,0,1.06,1h1.88a1,1,0,0,0,1.06-1V114a1,1,0,0,1,1.06-1h52.91a1,1,0,0,1,1.06,1h0a1,1,0,0,0,1,1h.28a1,1,0,0,0,1.05-1V112a1.05,1.05,0,0,1,1.07-1l8.74.06a1,1,0,0,1,1,1v1.89a1,1,0,0,0,1.06,1h.69a1,1,0,0,1,1.06,1V158.5a8.32,8.32,0,0,1-8.43,8.21h-68.49a7.93,7.93,0,0,1-8-7.83V120A1,1,0,0,1,1072.43,119Z" transform="translate(-28.33)"/><path class="cls-76" d="M1089.25,120.07V115.5a.27.27,0,0,1,.27-.27h8.79a.27.27,0,0,1,.27.27v4.57a.27.27,0,0,1-.27.26h-8.79A.27.27,0,0,1,1089.25,120.07Z" transform="translate(-28.33)"/><path class="cls-16" d="M1125.49,111.14l1.41-3a.57.57,0,0,1,.52-.28h7a.57.57,0,0,1,.53.29l1.27,3c.12.28-.15.55-.52.55H1126C1125.63,111.7,1125.36,111.42,1125.49,111.14Z" transform="translate(-28.33)"/><line class="cls-77" x1="1043.04" y1="125.75" x2="1128" y2="125.75"/><line class="cls-77" x1="1043.04" y1="155.23" x2="1128" y2="155.23"/><path class="cls-76" d="M1137.61,119.53a3.07,3.07,0,1,1-3.07-3A3,3,0,0,1,1137.61,119.53Z" transform="translate(-28.33)"/><rect class="cls-78" x="1043" y="125.06" width="84.91" height="30.91"/><ellipse class="cls-78" cx="1085.52" cy="140.81" rx="21.54" ry="20.97"/><ellipse class="cls-76" cx="1085.47" cy="140.82" rx="13.57" ry="13.21"/></g><g id="プレゼント"><path class="cls-79" d="M948.83,117.58v33.59a3.54,3.54,0,0,1,2.91-1.53h13.14v33.61H951.74a3.54,3.54,0,0,1-2.91-1.53v5.79h69.93a30.07,30.07,0,0,0,30.07-30.07V87.51H978.9A30.07,30.07,0,0,0,948.83,117.58Z" transform="translate(-28.33)"/><path class="cls-16" d="M966.59,155.19l-.08,22.33a1.16,1.16,0,0,0,1.09,1.17l34.77,2.46a8.27,8.27,0,0,0,2.8-.27l32.89-8.77a4.28,4.28,0,0,0,3-5.3h0a4.85,4.85,0,0,0-5.56-3.46l-31.6,5.81a1.1,1.1,0,0,1-.67-.07l-35-15A1.17,1.17,0,0,0,966.59,155.19Z" transform="translate(-28.33)"/><path class="cls-80" d="M981.94,166.87l17.86,4.51a3.69,3.69,0,0,0,4.42-2.57l.24-.81a5.08,5.08,0,0,0-2.93-6.19l-21.1-8.4L967,153.6" transform="translate(-28.33)"/><path class="cls-16" d="M986.16,106.2h22.72a3.5,3.5,0,0,1,3.5,3.5V125.6a0,0,0,0,1,0,0H986.16a0,0,0,0,1,0,0V106.2A0,0,0,0,1,986.16,106.2Z"/><path class="cls-16" d="M986.16,128.08h23.54a0,0,0,0,1,0,0v21.35a3.31,3.31,0,0,1-3.31,3.31H986.16a0,0,0,0,1,0,0V128.08A0,0,0,0,1,986.16,128.08Z"/><path class="cls-16" d="M981.8,106.2H1008a0,0,0,0,1,0,0v15.89a3.51,3.51,0,0,1-3.51,3.51H981.8a0,0,0,0,1,0,0V106.2A0,0,0,0,1,981.8,106.2Z" transform="translate(1961.49 231.8) rotate(180)"/><path class="cls-16" d="M984.47,128.08h20.23a3.31,3.31,0,0,1,3.31,3.31v21.35a0,0,0,0,1,0,0H984.47a0,0,0,0,1,0,0V128.08A0,0,0,0,1,984.47,128.08Z" transform="translate(1964.16 280.82) rotate(180)"/><path class="cls-16" d="M1026.32,90.25c-7.15.7-12.86,9.6-15.13,13.69-2.27-4.09-8-13-15.1-13.69-6.4-.64-9.52,6-7.09,9.52,4.88,7,18.33,6.59,22.19,6.3,3.87.29,17.35.75,22.24-6.3C1035.86,96.27,1032.73,89.61,1026.32,90.25Zm-31.26,10.24c-1.33-1.75.38-5.08,3.9-4.76,5.11.46,8.89,7.86,8.89,7.86S998.21,104.62,995.06,100.49Zm32.29,0c-3.15,4.13-12.82,3.1-12.82,3.1s3.79-7.4,8.91-7.86C1027,95.41,1028.69,98.74,1027.35,100.49Z" transform="translate(-28.33)"/></g><g id="設定"><path class="cls-81" d="M902,87.51l-.36,2.06a17.52,17.52,0,0,0-4.57,1.9l-3.38-2.38-5.2,5.21,2.38,3.37a17.11,17.11,0,0,0-1.9,4.58l-4.06.7v7.36L889,111a17,17,0,0,0,1.9,4.57L888.47,119l5.2,5.2,3.38-2.37a17.87,17.87,0,0,0,4.57,1.9l.71,4.06h7.36l.71-4.06a17.87,17.87,0,0,0,4.57-1.9l3.38,2.37,5.2-5.2-2.38-3.38a17,17,0,0,0,1.9-4.57l4.07-.71V103l-4.07-.7a17.11,17.11,0,0,0-1.9-4.58l2.38-3.37-5.2-5.21L915,91.47a17.52,17.52,0,0,0-4.57-1.9L910,87.51h23.79v69.83a30.08,30.08,0,0,1-30,30.08l-22.08.09.69-4a29.88,29.88,0,0,0,7.77-3.23l5.73,4,8.84-8.84-4-5.73A29.8,29.8,0,0,0,904,162l6.9-1.2V148.3l-6.9-1.2a29.6,29.6,0,0,0-3.23-7.77l4-5.74L896,124.75l-5.73,4a29.88,29.88,0,0,0-7.77-3.23l-1.2-6.9H868.76l-1.2,6.9a29.88,29.88,0,0,0-7.77,3.23l-5.74-4-8.84,8.84,4,5.74A29.6,29.6,0,0,0,846,147.1l-6.9,1.2v12.5L846,162a29.8,29.8,0,0,0,3.23,7.78l-4,5.73,8.84,8.84,5.74-4a29.88,29.88,0,0,0,7.77,3.23l.69,4H833.83v-70A30.08,30.08,0,0,1,864,87.4Z" transform="translate(-28.33)"/><ellipse class="cls-81" cx="875.01" cy="154.46" rx="16.78" ry="16.69" transform="translate(118.83 664.11) rotate(-45.01)"/><ellipse class="cls-81" cx="906.01" cy="106.58" rx="9.88" ry="9.81" transform="translate(161.78 672) rotate(-45.01)"/></g><g id="技術"><path class="cls-82" d="M811.21,120.11a2.2,2.2,0,0,0,2.69,2.68,2.18,2.18,0,0,0,1.59-1.58,2.21,2.21,0,0,0-4.28-1.1Z" transform="translate(-28.33)"/><path class="cls-82" d="M813.25,128.35a7.69,7.69,0,0,1-6-2.86h-53.5a15.12,15.12,0,0,1-28,1.67H742l4.46-6.5-4.72-6.51h-16a15.13,15.13,0,0,1,28,1.68h53.5a7.67,7.67,0,0,1,11.56-.45V87.3h-70a30,30,0,0,0-30,30v33.2h30.84l11.63,1.22,8.39-1.22v6.12h24.62l4.34-3.84,17.3,1.39V162l-17.1,1.55-4.54-4H769.69v6.14l-8.39-1.23-11.63,1.23H718.83V187.3h70a30,30,0,0,0,30-30V125.94A7.66,7.66,0,0,1,813.25,128.35Z" transform="translate(-28.33)"/></g><g id="家"><path class="cls-83" d="M603.83,117.3v70h70a30,30,0,0,0,30-30v-70h-70A30,30,0,0,0,603.83,117.3Z" transform="translate(-28.33)"/><path class="cls-16" d="M650.16,97.68,614,128.44a1.51,1.51,0,0,0,1,2.67h7v44.65a3.09,3.09,0,0,0,3.09,3.09h58.13a3.09,3.09,0,0,0,3.09-3.09V131.11h7a1.52,1.52,0,0,0,1-2.67L658.23,97.68A6.22,6.22,0,0,0,650.16,97.68Z" transform="translate(-28.33)"/><rect class="cls-83" x="607.21" y="137.3" width="16.45" height="13.91"/><rect class="cls-83" x="628.31" y="137.3" width="16.45" height="13.91"/><rect class="cls-83" x="607.21" y="155.42" width="16.45" height="13.91"/><rect class="cls-83" x="628.31" y="155.42" width="16.45" height="13.91"/></g><g id="スマホ"><path class="cls-84" d="M490.51,87.3h70a0,0,0,0,1,0,0v69.17a30.83,30.83,0,0,1-30.83,30.83H460.5a0,0,0,0,1,0,0v-70A30,30,0,0,1,490.51,87.3Z"/><rect class="cls-16" x="486.7" y="94.62" width="47.61" height="85.38" rx="4.97"/><rect class="cls-84" x="491.34" y="99.1" width="38.29" height="69.12" rx="2.5"/><path class="cls-84" d="M538.43,177.66h0A3.45,3.45,0,0,1,535,174.2h0a3.45,3.45,0,0,1,3.45-3.46h0a3.46,3.46,0,0,1,3.46,3.46h0A3.46,3.46,0,0,1,538.43,177.66Z" transform="translate(-28.33)"/></g><g id="火"><path class="cls-85" d="M413.17,187.18c-10.45-1.17-22.07-14.72-21.88-25.56s1.36-13.16-2.13-15.48a6.42,6.42,0,0,1,7.17,0s-8.57-15.12.13-28.85c0,0,2,7.21,5.12,9,3.83-1.86,10.5-19.77,8.52-28.67,0,0,34,13.59,32.25,32.24,0,0,4.73-6.42,9.75-8.76,0,0-6,13.41-2.34,19.64,1.48,3.09,2.43,11,.85,14,0,0,2.56-1.23,5.77-5.19,0,0,1.05,30.7-20.17,37.61l6,0a31.51,31.51,0,0,0,31.62-31.52V87.3h-70a30,30,0,0,0-30,30v70Z" transform="translate(-28.33)"/><path class="cls-85" d="M423.3,182.68c-5.81,0-9.71-4.31-11.28-9.26s-1.49-10,3.07-15.58c3.12-4.1,5.53-11.8,5.53-11.8s6.7,2.52,8.6,8.7c0,0,2.08-3.37,4-4-.51,10.12,2.87,9.79,3.29,16C437,175.64,432.61,182.68,423.3,182.68Z" transform="translate(-28.33)"/></g><g id="水道"><path class="cls-86" d="M294.31,134.55" transform="translate(-28.33)"/><path class="cls-87" d="M338.48,125.67h20.35V87.18H288.9a30.08,30.08,0,0,0-30.07,30.08v69.92h67.91a32.09,32.09,0,0,0,32.09-32.08V140.16H338.48c-2.9,6.45-13,9-17.24,9s-14.22-2.38-17.19-8.68h-5.13a2.77,2.77,0,0,0-2.65,2l-2,6.8-15,.05,5.53-18.57a6.48,6.48,0,0,1,6.24-4.74H303.8c2.29-5.33,8.46-8,13.63-8.89v-6.63h7.22v6.69C329.78,118,336.2,120.59,338.48,125.67ZM294.7,150.82a.64.64,0,0,1,.69.8l-1.61,4.51a.72.72,0,0,1-.69.43H276.16a.64.64,0,0,1-.69-.79l1.54-4.51a.72.72,0,0,1,.7-.44ZM305,107.94a4.05,4.05,0,0,1-4.06-4V99.64A4.06,4.06,0,0,1,305,95.58h32.88A4.06,4.06,0,0,1,342,99.64v4.25a4.05,4.05,0,0,1-4.06,4Z" transform="translate(-28.33)"/><path class="cls-16" d="M276.65,175.64c0-4.24,4.64-12.72,7.68-16.39,2.72,3.45,7.69,12.15,7.69,16.39a7.69,7.69,0,1,1-15.37,0Z" transform="translate(-28.33)"/></g><g id="コンセント"><path class="cls-88" d="M173.12,87.18a29.29,29.29,0,0,0-29.29,29.29h0s35.55.39,40.16.34c8.11-.09,8.28,14.27-.74,14.27-4.45.11-11.42.17-13.93.17-4.43,0-4.43,8.6-.33,8.6,7.09,0,18.64-.09,18.64-.09v.11h6.2v5.65h-6.2s-7,.09-18.8.09-11.41-19.93,1.16-19.93c0,0,9.66.07,12.3,0a2.07,2.07,0,0,0,.14-4.13h-38.6V187.3l70.75-.08a29.29,29.29,0,0,0,29.25-29.29V87.18Z" transform="translate(-28.33)"/><path class="cls-16" d="M196.37,129.56a6,6,0,0,0-5.65,5.86H188a1.09,1.09,0,0,0-1,1.14v12.53a1.09,1.09,0,0,0,1,1.14h2.72a5.94,5.94,0,0,0,5.64,5.65h20.25V129.56Z" transform="translate(-28.33)"/><rect class="cls-16" x="190.87" y="127.99" width="6.24" height="29.47"/><rect class="cls-16" x="197.11" y="134.19" width="10.75" height="2.88"/><rect class="cls-16" x="197.11" y="148.74" width="10.75" height="2.88"/></g><g id="食事"><path class="cls-89" d="M123.31,114.44" transform="translate(-28.33)"/><path class="cls-90" d="M52.07,187.3,53,97.75c0-.61.86-1.77,1.61-.44,3.73,6.57,12.8,24.74,12.36,32.39s-8.69,10.75-8.69,10.75l2,46.85H99.31a29.53,29.53,0,0,0,29.54-29.51c0-25.21,0-59,0-70.49H101.3l-1.69,55.29s5.88,1.85,7.1,3.51-1.7,35-1.7,35l-1.4.14-1.31-28-3.68-.05-.47,28.29-1.54.14-.91-28.42-3.87.15-.39,28.55-1.69.14s-2.11-32.82-1.53-35S93,143,95.39,142.57l-.52-20.75L94,87.3H58.74a30,30,0,0,0-30,29.92c-.08,28-.15,66.18.1,70.08Z" transform="translate(-28.33)"/></g></svg>