<svg xmlns="http://www.w3.org/2000/svg" viewBox="0 0 1137 822.52"><defs><style>.cls-1,.cls-11,.cls-2,.cls-3,.cls-41,.cls-5,.cls-7{fill:#231815;}.cls-2{font-size:19px;}.cls-2,.cls-3,.cls-7{font-family:KozGoPro-Medium-90ms-RKSJ-H, Kozuka Gothic Pro;}.cls-3{font-size:16px;}.cls-4{letter-spacing:0.25em;}.cls-5,.cls-7{font-size:13px;}.cls-5{font-family:KozGoPro-Bold-90ms-RKSJ-H, Kozuka Gothic Pro;}.cls-6{letter-spacing:-0.5em;}.cls-42,.cls-43,.cls-51,.cls-53,.cls-8{fill:none;}.cls-8{stroke:#dcdddd;}.cls-12,.cls-13,.cls-14,.cls-17,.cls-18,.cls-21,.cls-22,.cls-25,.cls-26,.cls-27,.cls-28,.cls-32,.cls-33,.cls-34,.cls-37,.cls-38,.cls-39,.cls-40,.cls-41,.cls-42,.cls-43,.cls-44,.cls-45,.cls-46,.cls-47,.cls-49,.cls-50,.cls-51,.cls-53,.cls-55,.cls-56,.cls-58,.cls-59,.cls-8{stroke-miterlimit:10;}.cls-9{font-size:24px;font-family:KozGoPro-Heavy-90ms-RKSJ-H, Kozuka Gothic Pro;}.cls-10,.cls-13,.cls-18,.cls-22,.cls-25,.cls-26,.cls-31,.cls-32,.cls-38,.cls-44,.cls-47,.cls-52,.cls-59,.cls-9{fill:#fff;}.cls-11{font-size:12px;font-family:KozGoPro-Regular-90ms-RKSJ-H, Kozuka Gothic Pro;}.cls-12,.cls-15,.cls-30,.cls-36,.cls-45,.cls-49,.cls-54,.cls-60{fill:#040000;}.cls-12,.cls-13,.cls-14,.cls-25,.cls-32,.cls-37,.cls-38,.cls-39,.cls-40,.cls-41,.cls-42,.cls-44,.cls-51,.cls-55,.cls-56,.cls-58,.cls-59{stroke:#040000;}.cls-14,.cls-16{fill:#08567a;}.cls-17,.cls-20{fill:#085476;}.cls-17,.cls-18,.cls-27,.cls-28,.cls-46,.cls-47,.cls-49,.cls-50{stroke:#070001;}.cls-19{fill:#070001;}.cls-21,.cls-24{fill:#095272;}.cls-21,.cls-22,.cls-33,.cls-34{stroke:#080103;}.cls-23{fill:#080103;}.cls-25{stroke-width:6px;}.cls-26,.cls-43,.cls-45{stroke:#fff;}.cls-27,.cls-33{fill:#666767;}.cls-28,.cls-34{fill:#4e4d4d;}.cls-29{fill:#e55927;}.cls-30{font-size:12.33px;}.cls-30,.cls-31,.cls-36,.cls-52,.cls-54,.cls-60{font-family:KozGoPr6N-Regular-90ms-RKSJ-H, Kozuka Gothic Pr6N;}.cls-31{font-size:6.96px;}.cls-32,.cls-51,.cls-53{stroke-width:2px;}.cls-35{fill:#d9572a;}.cls-36{font-size:12.71px;}.cls-37{fill:#6492c1;}.cls-38,.cls-47{stroke-width:0.75px;}.cls-39{fill:#f6f39c;}.cls-40{fill:#ec77a3;}.cls-44{stroke-width:1.5px;}.cls-46,.cls-58{fill:#b4b3b3;}.cls-48{fill:#f6f39f;}.cls-50{fill:#efec9a;}.cls-52{font-size:35.96px;}.cls-53{stroke:#231815;}.cls-54{font-size:23.92px;}.cls-55{fill:#999;}.cls-56{fill:#ccc;}.cls-57{fill:#333;}.cls-59{stroke-width:0.25px;}.cls-60{font-size:28.98px;}</style></defs><g id="テンプレート"><path class="cls-1" d="M29,0V55.41a12,12,0,0,0,12,12H413.83a12,12,0,0,0,12-12V0Z" transform="translate(-28.33)"/><text class="cls-2" transform="translate(931.95 46.3)">www.design-icon.com</text><text class="cls-3" transform="translate(418.97 55.3)">DESIGNER : K020G129<tspan class="cls-4" x="159.04" y="0">8</tspan><tspan x="172.03" y="0">島田貴斗</tspan></text><text class="cls-5" transform="translate(805.5 817.27)">利用規約：個人、商用、すべてフリーでご利用ください<tspan class="cls-6" x="325" y="0">。</tspan></text><text class="cls-7" transform="translate(418.97 30.16)">サイズ：100 x 100 px</text><rect class="cls-8" x="0.5" y="87.3" width="100" height="100"/><rect class="cls-8" x="115.5" y="87.3" width="100" height="100"/><rect class="cls-8" x="230.5" y="87.3" width="100" height="100"/><rect class="cls-8" x="345.5" y="87.3" width="100" height="100"/><rect class="cls-8" x="460.5" y="87.3" width="100" height="100"/><rect class="cls-8" x="575.5" y="87.3" width="100" height="100"/><rect class="cls-8" x="690.5" y="87.3" width="100" height="100"/><rect class="cls-8" x="805.5" y="87.3" width="100" height="100"/><rect class="cls-8" x="920.5" y="87.3" width="100" height="100"/><rect class="cls-8" x="1035.5" y="87.3" width="100" height="100"/><rect class="cls-8" x="0.5" y="228.07" width="100" height="100"/><rect class="cls-8" x="115.5" y="228.07" width="100" height="100"/><rect class="cls-8" x="230.5" y="228.07" width="100" height="100"/><rect class="cls-8" x="345.5" y="228.07" width="100" height="100"/><rect class="cls-8" x="460.5" y="228.07" width="100" height="100"/><rect class="cls-8" x="575.5" y="228.07" width="100" height="100"/><rect class="cls-8" x="690.5" y="228.07" width="100" height="100"/><rect class="cls-8" x="805.5" y="228.07" width="100" height="100"/><rect class="cls-8" x="920.5" y="228.07" width="100" height="100"/><rect class="cls-8" x="1035.5" y="228.07" width="100" height="100"/><rect class="cls-8" x="0.5" y="368.84" width="100" height="100"/><rect class="cls-8" x="115.5" y="368.84" width="100" height="100"/><rect class="cls-8" x="230.5" y="368.84" width="100" height="100"/><rect class="cls-8" x="345.5" y="368.84" width="100" height="100"/><rect class="cls-8" x="460.5" y="368.84" width="100" height="100"/><rect class="cls-8" x="575.5" y="368.84" width="100" height="100"/><rect class="cls-8" x="690.5" y="368.84" width="100" height="100"/><rect class="cls-8" x="805.5" y="368.84" width="100" height="100"/><rect class="cls-8" x="920.5" y="368.84" width="100" height="100"/><rect class="cls-8" x="1035.5" y="368.84" width="100" height="100"/><rect class="cls-8" x="0.5" y="509.61" width="100" height="100"/><rect class="cls-8" x="115.5" y="509.61" width="100" height="100"/><rect class="cls-8" x="230.5" y="509.61" width="100" height="100"/><rect class="cls-8" x="345.5" y="509.61" width="100" height="100"/><rect class="cls-8" x="460.5" y="509.61" width="100" height="100"/><rect class="cls-8" x="575.5" y="509.61" width="100" height="100"/><rect class="cls-8" x="690.5" y="509.61" width="100" height="100"/><rect class="cls-8" x="805.5" y="509.61" width="100" height="100"/><rect class="cls-8" x="920.5" y="509.61" width="100" height="100"/><rect class="cls-8" x="1035.5" y="509.61" width="100" height="100"/><rect class="cls-8" x="0.5" y="650.38" width="100" height="100"/><rect class="cls-8" x="115.5" y="650.38" width="100" height="100"/><rect class="cls-8" x="230.5" y="650.38" width="100" height="100"/><rect class="cls-8" x="345.5" y="650.38" width="100" height="100"/><rect class="cls-8" x="460.5" y="650.38" width="100" height="100"/><rect class="cls-8" x="575.5" y="650.38" width="100" height="100"/><rect class="cls-8" x="690.5" y="650.38" width="100" height="100"/><rect class="cls-8" x="805.5" y="650.38" width="100" height="100"/><rect class="cls-8" x="920.5" y="650.38" width="100" height="100"/><rect class="cls-8" x="1035.5" y="650.38" width="100" height="100"/><text class="cls-9" transform="translate(78.38 43.3)">ペンギンアイコン</text><circle class="cls-10" cx="68.27" cy="34.22" r="16.05" transform="translate(-36.23 28.73) rotate(-22.5)"/></g><g id="アイコン名"><text class="cls-11" transform="translate(38.5 213.41)">爆発</text><text class="cls-11" transform="translate(147.83 213.41)">心電図</text><text class="cls-11" transform="translate(263.17 213.41)">テレビ</text><text class="cls-11" transform="translate(378.5 213.41)">ゲーム</text><text class="cls-11" transform="translate(505.83 213.41)">雷</text><text class="cls-11" transform="translate(591.17 213.41)">ダウンロード</text><text class="cls-11" transform="translate(730.5 213.41)">時計</text><text class="cls-11" transform="translate(839.83 213.41)">メール</text><text class="cls-11" transform="translate(955.17 213.41)">カメラ</text><text class="cls-11" transform="translate(1070.5 213.41)">スター</text><text class="cls-11" transform="translate(32.5 351.9)">スマホ</text><text class="cls-11" transform="translate(153.83 351.9)">再生</text><text class="cls-11" transform="translate(263.17 351.9)">虫眼鏡</text><text class="cls-11" transform="translate(384.5 351.9)">お金</text><text class="cls-11" transform="translate(499.83 351.9)">電波</text><text class="cls-11" transform="translate(615.17 351.9)">写真</text><text class="cls-11" transform="translate(724.5 351.9)">レンチ</text><text class="cls-11" transform="translate(833.83 351.9)">ストップ</text><text class="cls-11" transform="translate(949.17 351.9)">タイマー</text><text class="cls-11" transform="translate(1076.5 351.9)">献血</text><text class="cls-11" transform="translate(21.11 492.39)">SI<tspan class="cls-4" x="9.37" y="0">M</tspan><tspan x="22.79" y="0">カード</tspan></text><text class="cls-11" transform="translate(147.83 492.39)">ハート</text><text class="cls-11" transform="translate(257.17 492.39)">飲みのも</text><text class="cls-11" transform="translate(378.5 492.39)">飛ばし</text><text class="cls-11" transform="translate(487.83 492.39)">ファイル</text><text class="cls-11" transform="translate(615.17 492.39)">ペン</text><text class="cls-11" transform="translate(718.5 492.39)">ミュート</text><text class="cls-11" transform="translate(845.83 492.39)">メモ</text><text class="cls-11" transform="translate(955.17 492.39)">マウス</text><text class="cls-11" transform="translate(1070.5 492.39)">電話帳</text><text class="cls-11" transform="translate(26.5 630.89)">フラッグ</text><text class="cls-11" transform="translate(153.83 630.89)">野球</text><text class="cls-11" transform="translate(257.17 630.89)">ラーメン</text><text class="cls-11" transform="translate(390.5 630.89)">雲</text><text class="cls-11" transform="translate(499.83 630.89)">あめ</text><text class="cls-11" transform="translate(619.17 630.89)">CD</text><text class="cls-11" transform="translate(712.5 630.89)">リサイクル</text><text class="cls-11" transform="translate(839.83 630.89)">ロック</text><text class="cls-11" transform="translate(949.17 630.89)">マーカー</text><text class="cls-11" transform="translate(1058.5 630.89)">サングラス</text><text class="cls-11" transform="translate(38.5 773.38)">くつ</text><text class="cls-11" transform="translate(135.83 773.38)">交通カード</text><text class="cls-11" transform="translate(269.17 773.38)">電車</text><text class="cls-11" transform="translate(378.5 773.38)">角砂糖</text><text class="cls-11" transform="translate(499.83 773.38)">求人</text><text class="cls-11" transform="translate(621.17 773.38)">家</text><text class="cls-11" transform="translate(730.5 773.38)">切断</text><text class="cls-11" transform="translate(839.83 773.38)">ライト</text><text class="cls-11" transform="translate(937.17 773.38)">ファッション</text><text class="cls-11" transform="translate(1076.5 773.38)">はな</text></g><g id="レイヤー_1" data-name="レイヤー 1"><polygon class="cls-12" points="60.16 146.19 54.47 128.98 67.38 141.14 67.31 119.25 75.46 137.57 82.38 119.11 82.78 135.86 98.47 130.52 86.12 140.14 93.25 149.63 84.16 148.77 88.41 166.56 79.54 156.06 78.17 168.29 71.85 160.32 62.1 176.07 59.5 164.94 64.84 156.26 42.83 165.4 51.3 156.43 40.69 149.04 58.3 148.31 60.16 146.19"/><path class="cls-13" d="M233.2,179.92H193.27a1.54,1.54,0,0,1-1.54-1.54V146.64a1.54,1.54,0,0,1,1.54-1.54H233.2a1.54,1.54,0,0,1,1.54,1.54v31.74A1.54,1.54,0,0,1,233.2,179.92Z" transform="translate(-28.33)"/><path class="cls-13" d="M87.53,564.66l-9,23.6,4.26-.55,6.89-18.54a2.22,2.22,0,0,1,3.49-1,6.38,6.38,0,0,0,2.91,1.38c4,.79,11.11.09,6.67,1.31-2.93.81,11.54,8.59,8.81,4.51-2.14-3.19,1.86-2.4,3.72-4.81s0,0,4-6.14c.76-1.17.32-3.51.32-5.27A2.18,2.18,0,0,0,116.9,557c-1,.23,2.86-2.2-1.67-.32-1.26.52-2.12-1.81-4.93-2.36s-10.25-1.91-9.86-2c4.64-.47-.61-.65-1.27-1.19a2.18,2.18,0,0,0-1.59-.47c-1.06.1-2.81.1-3.39-1a2.81,2.81,0,0,0-2.4-1,2.22,2.22,0,0,0-2.31,1.91l-1.82,13.5A2.17,2.17,0,0,1,87.53,564.66Z" transform="translate(-28.33)"/><ellipse class="cls-14" cx="58.38" cy="604.33" rx="2.72" ry="6.12" transform="translate(-544.1 406.92) rotate(-65.51)"/><ellipse class="cls-14" cx="69.53" cy="599.57" rx="2.72" ry="6.12" transform="translate(-533.24 414.28) rotate(-65.51)"/><path class="cls-14" d="M74.77,560.34c.72,2.17,6.79,21.08,1.29,32.43-6.41,13.22-21.5,11.68-23,8.36a.19.19,0,0,0-.26-.1c-3.53,1.92-13.26,2.09-16-1.35a.21.21,0,0,1,0-.24c2.39-4.09,9.47-7.76,11.58-22.31.34-8.21,8.06-16.32,7.38-15.64s-10.2-15.64,7.48-18.35C74,541.78,75.79,551.51,76,551.91a.18.18,0,0,0,.1.09l3.69,1.23a.2.2,0,0,1,.08.34l-3.06,3.07a.19.19,0,0,0,0,.21C77,557.37,74.73,560.22,74.77,560.34Z" transform="translate(-28.33)"/><path class="cls-13" d="M77,571.91s4.86,22.06-8,27.88-16.22.26-16.22.26C53.85,597.86,72.61,553.68,77,571.91Z" transform="translate(-28.33)"/><ellipse class="cls-10" cx="36.17" cy="555.37" rx="11.56" ry="8.84"/><circle class="cls-15" cx="38.21" cy="551.97" r="1.36"/><path class="cls-16" d="M75.88,556.66,74,558.09s-5.7-2.16-2.72-4.08c1.41-.91-.14-7.19-6.8-6.8-2.72.17-10.88,4.08-1.36,13.6-1.36,1.36-10.88,2.72-10.64-8.13.09-4.25,1.21-8.44,12.73-9.67,7.22-.15,8.79,4.2,10.8,8.9,4.67,1.31,3.79,1.32,3.79,1.32h0A14.55,14.55,0,0,1,75.88,556.66Z" transform="translate(-28.33)"/><path class="cls-14" d="M65.33,569.88h0c-1.2,4.23,6.31,11.7,18.39,12.62,4.74.36,6.62,5.46-4.51,7.52-4.61.86-18.17-9.08-18.37-13.54l-.12-.43" transform="translate(-28.33)"/><path class="cls-13" d="M424.14,592.79l36.41,4.79s13.46-5,11.05-17.41-11.27-11.87-18.36-3.76c-3.17,3.62,6.4-12.33,4.59-16.76s-12.49-7.44-17.88-5.2-9.31,10.26-9.52,16.41c-.23,6.56-1.25-16.47-12.08-5.77S413.72,590.08,424.14,592.79Z" transform="translate(-28.33)"/><ellipse class="cls-17" cx="399.96" cy="604.02" rx="3.05" ry="6.99" transform="translate(-342.04 728.45) rotate(-66.38)"/><ellipse class="cls-17" cx="412.75" cy="598.71" rx="3.05" ry="6.99" transform="translate(-329.51 736.99) rotate(-66.38)"/><path class="cls-17" d="M418.76,554.92c.83,2.43,7.79,23.53,1.48,36.2-7.35,14.76-24.66,13-26.43,9.34a.21.21,0,0,0-.3-.11c-4.06,2.14-15.21,2.32-18.41-1.51a.23.23,0,0,1,0-.27c2.74-4.56,10.87-8.67,13.29-24.9.39-9.17,9.25-18.22,8.47-17.46s-11.7-17.45,8.58-20.49c12.48-1.51,14.52,9.35,14.78,9.8a.22.22,0,0,0,.13.1l4.23,1.37a.22.22,0,0,1,.09.38l-3.52,3.42a.24.24,0,0,0-.05.24C421.32,551.61,418.72,554.8,418.76,554.92Z" transform="translate(-28.33)"/><path class="cls-18" d="M421.33,567.84s5.58,24.63-9.21,31.11-18.61.3-18.61.3C394.77,596.81,416.29,547.49,421.33,567.84Z" transform="translate(-28.33)"/><ellipse class="cls-10" cx="378.65" cy="549.38" rx="13.26" ry="9.87"/><ellipse class="cls-19" cx="380.99" cy="545.59" rx="1.56" ry="1.52"/><path class="cls-20" d="M420,550.82l-2.13,1.6s-6.54-2.41-3.12-4.55c1.62-1-.16-8-7.8-7.59-3.12.18-12.48,4.55-1.56,15.17-1.56,1.52-12.48,3-12.21-9.08.11-4.74,1.39-9.41,14.6-10.79,8.29-.17,10.09,4.7,12.39,9.94,5.36,1.46,4.36,1.47,4.36,1.47h0A16.55,16.55,0,0,1,420,550.82Z" transform="translate(-28.33)"/><path class="cls-17" d="M407.94,565.58h0c-1.39,4.72,7.23,13,21.1,14.08,5.43.4,7.58,6.1-5.18,8.4-5.3,1-20.85-10.14-21.07-15.12l-.15-.48" transform="translate(-28.33)"/><path class="cls-10" d="M676.94,587.92a5.14,5.14,0,1,1,5.14-5.14A5.15,5.15,0,0,1,676.94,587.92Z" transform="translate(-28.33)"/><path class="cls-15" d="M676.94,580.15a2.64,2.64,0,1,1-2.64,2.63,2.64,2.64,0,0,1,2.64-2.63m0-5a7.64,7.64,0,1,0,7.64,7.63,7.64,7.64,0,0,0-7.64-7.63Z" transform="translate(-28.33)"/><path class="cls-15" d="M676.94,573.78a9,9,0,1,1-9,9,9,9,0,0,1,9-9m0-12a21,21,0,1,0,21,21,21,21,0,0,0-21-21Z" transform="translate(-28.33)"/><ellipse class="cls-21" cx="631.51" cy="605.46" rx="3.05" ry="6.99" transform="translate(-204.59 941.47) rotate(-66.38)"/><ellipse class="cls-21" cx="644.3" cy="600.15" rx="3.05" ry="6.99" transform="translate(-192.05 950.01) rotate(-66.38)"/><path class="cls-21" d="M650.31,556.36c.84,2.43,7.79,23.53,1.48,36.2-7.34,14.76-24.66,13-26.43,9.34a.2.2,0,0,0-.3-.11c-4,2.14-15.21,2.32-18.41-1.51a.24.24,0,0,1,0-.27c2.75-4.56,10.88-8.67,13.3-24.9.38-9.17,9.24-18.22,8.46-17.46s-11.7-17.45,8.58-20.49c12.48-1.51,14.52,9.35,14.79,9.8a.23.23,0,0,0,.12.1l4.24,1.37a.23.23,0,0,1,.09.38l-3.52,3.42a.22.22,0,0,0-.06.24C652.87,553.05,650.27,556.24,650.31,556.36Z" transform="translate(-28.33)"/><path class="cls-22" d="M652.88,569.28s5.58,24.63-9.21,31.11-18.61.3-18.61.3C626.32,598.25,647.84,548.93,652.88,569.28Z" transform="translate(-28.33)"/><ellipse class="cls-10" cx="610.2" cy="550.82" rx="13.26" ry="9.87"/><ellipse class="cls-23" cx="612.54" cy="547.03" rx="1.56" ry="1.52"/><path class="cls-24" d="M651.59,552.26l-2.14,1.6s-6.53-2.41-3.12-4.55c1.63-1-.16-8-7.8-7.59-3.11.18-12.48,4.55-1.56,15.17-1.56,1.52-12.48,3-12.2-9.08.1-4.74,1.39-9.41,14.6-10.79,8.29-.17,10.08,4.7,12.39,9.94,5.36,1.46,4.36,1.47,4.36,1.47h0A16.7,16.7,0,0,1,651.59,552.26Z" transform="translate(-28.33)"/><path class="cls-21" d="M639.49,567h0c-1.38,4.73,7.24,13.06,21.1,14.09,5.44.4,7.59,6.1-5.17,8.4-5.3,1-20.86-10.14-21.08-15.12l-.14-.48" transform="translate(-28.33)"/><path class="cls-12" d="M1018.35,593.45a1.61,1.61,0,0,1,1.19,1.16c5.53,14.62,2,14.62,7.26.27.24-.67.61-1.26,1.32-1.29,2.92-.14,10-1.48,10-11.21,0-12.29-10.86-12.64-12.64-12.64s-14.52-1.07-14.59,9.6C1010.78,589,1011.48,592.5,1018.35,593.45Z" transform="translate(-28.33)"/><path class="cls-25" d="M1039,578.27c0,8.65-6.3,15.66-14.94,15.66a15.66,15.66,0,0,1-15.66-15.66c0-8.64,7-17.07,15.66-17.07S1039,569.63,1039,578.27Z" transform="translate(-28.33)"/><ellipse class="cls-21" cx="978.18" cy="597.71" rx="3.31" ry="7.59" transform="translate(10.28 1254.45) rotate(-66.38)"/><ellipse class="cls-21" cx="992.07" cy="591.94" rx="3.31" ry="7.59" transform="translate(23.9 1263.72) rotate(-66.38)"/><path class="cls-21" d="M998.6,544.39c.91,2.63,8.46,25.55,1.61,39.31-8,16-26.79,14.16-28.71,10.14a.23.23,0,0,0-.33-.12c-4.4,2.32-16.52,2.53-20-1.64a.24.24,0,0,1,0-.29c3-5,11.81-9.41,14.44-27,.42-10,10-19.78,9.19-19s-12.71-19,9.32-22.26c13.56-1.65,15.77,10.15,16.06,10.64a.22.22,0,0,0,.14.11l4.59,1.49a.24.24,0,0,1,.1.41l-3.82,3.72a.23.23,0,0,0-.06.26C1001.38,540.79,998.56,544.25,998.6,544.39Z" transform="translate(-28.33)"/><path class="cls-22" d="M1001.39,558.41s6.06,26.75-10,33.8-20.22.31-20.22.31C972.54,589.87,995.92,536.31,1001.39,558.41Z" transform="translate(-28.33)"/><ellipse class="cls-10" cx="957.48" cy="538.37" rx="14.4" ry="10.71"/><ellipse class="cls-23" cx="960.02" cy="534.25" rx="1.69" ry="1.65"/><path class="cls-24" d="M1000,539.92l-2.31,1.74s-7.1-2.61-3.39-4.94c1.76-1.11-.17-8.72-8.47-8.24-3.39.19-13.56,4.94-1.7,16.48-1.69,1.65-13.55,3.3-13.26-9.86.12-5.16,1.52-10.23,15.86-11.72,9-.19,11,5.1,13.46,10.79,5.82,1.59,4.73,1.6,4.73,1.6h0A17.74,17.74,0,0,1,1000,539.92Z" transform="translate(-28.33)"/><path class="cls-21" d="M986.85,556h0c-1.51,5.13,7.86,14.18,22.91,15.3,5.91.44,8.24,6.63-5.62,9.12-5.75,1-22.65-11-22.89-16.42l-.15-.51" transform="translate(-28.33)"/><path class="cls-15" d="M1144.1,582.91a7.69,7.69,0,0,1-7.67-7.68V568h14.34a3.77,3.77,0,0,1,3.77,3.78v7.37a3.78,3.78,0,0,1-3.77,3.78Z" transform="translate(-28.33)"/><path class="cls-15" d="M1150.77,568.48a3.28,3.28,0,0,1,3.27,3.28v7.37a3.28,3.28,0,0,1-3.27,3.28h-6.67a7.18,7.18,0,0,1-7.17-7.18v-6.75h13.84m0-1h-14.84v7.75a8.17,8.17,0,0,0,8.17,8.18h6.67a4.28,4.28,0,0,0,4.27-4.28v-7.37a4.28,4.28,0,0,0-4.27-4.28Z" transform="translate(-28.33)"/><path class="cls-15" d="M1120,582.91c-1.58,0-1.71-.53-2-1.93a12.29,12.29,0,0,0-.51-1.73l-1.76-7.55A4.09,4.09,0,0,1,1120,568h16.19v5.94c0,5-4.56,9-10.17,9Z" transform="translate(-28.33)"/><path class="cls-15" d="M1135.73,568.48v5.44c0,4.68-4.34,8.49-9.67,8.49h-6c-1.19,0-1.23-.15-1.57-1.55a15.14,15.14,0,0,0-.49-1.72l-1.75-7.49a3.6,3.6,0,0,1,3.81-3.17h15.69m.92-1H1120a4.58,4.58,0,0,0-4.82,4.28l1.8,7.67c.89,2.39.36,4,3,4h6c5.89,0,10.67-4.25,10.67-9.49v-6.37a.08.08,0,0,0-.08-.07Z" transform="translate(-28.33)"/><path class="cls-26" d="M1120.4,569.47h2.95v4A4.18,4.18,0,0,1,1120.4,569.47Z" transform="translate(-28.33)"/><path class="cls-26" d="M1138.15,569.47h3v4A4.19,4.19,0,0,1,1138.15,569.47Z" transform="translate(-28.33)"/><path class="cls-15" d="M1152.05,569l7.48-11.09,1.9,1.31a1.09,1.09,0,0,1-.26,0,3.09,3.09,0,0,1-.78-.14,1.64,1.64,0,0,0-.49-.1h-.27l-.23.25L1153,568.8c-.14.21-.12.45.06.88Z" transform="translate(-28.33)"/><path class="cls-15" d="M1159.49,557.41a.46.46,0,0,0-.38.2l-7.46,11.16a.45.45,0,0,0,.12.63l2.55,1.71h0c.11,0-1-1.83-.89-2l6.37-9.55s0,0,.08,0a8.24,8.24,0,0,0,1.27.24,1.33,1.33,0,0,0,1.12-.54l-2.55-1.71a.43.43,0,0,0-.25-.07Z" transform="translate(-28.33)"/><path class="cls-15" d="M1116.21,569.78l7.48-11.1,1.9,1.32a1,1,0,0,1-.26,0,2.77,2.77,0,0,1-.78-.15,2,2,0,0,0-.49-.1h-.26l-.23.26-6.37,9.55c-.15.22-.13.46,0,.88Z" transform="translate(-28.33)"/><path class="cls-15" d="M1123.65,558.2a.45.45,0,0,0-.37.21l-7.47,11.15a.45.45,0,0,0,.13.63l2.55,1.71h0c.11,0-1-1.84-.89-2l6.37-9.56a.11.11,0,0,1,.08,0,8.2,8.2,0,0,0,1.27.25,1.36,1.36,0,0,0,1.13-.54l-2.55-1.71a.5.5,0,0,0-.26-.08Z" transform="translate(-28.33)"/><ellipse class="cls-21" cx="1090.28" cy="601.9" rx="3.05" ry="6.99" transform="translate(73.63 1359.67) rotate(-66.38)"/><ellipse class="cls-21" cx="1103.07" cy="596.58" rx="3.05" ry="6.99" transform="translate(86.17 1368.2) rotate(-66.38)"/><path class="cls-21" d="M1109.08,552.8c.84,2.42,7.79,23.53,1.48,36.2-7.35,14.75-24.66,13-26.43,9.33a.21.21,0,0,0-.3-.11c-4,2.14-15.21,2.33-18.41-1.51a.24.24,0,0,1,0-.27c2.74-4.56,10.87-8.66,13.29-24.9.39-9.16,9.25-18.21,8.47-17.45s-11.7-17.46,8.58-20.49c12.48-1.52,14.52,9.34,14.79,9.8a.19.19,0,0,0,.12.09l4.23,1.37a.23.23,0,0,1,.1.38l-3.52,3.43a.22.22,0,0,0-.06.24C1111.64,549.48,1109,552.67,1109.08,552.8Z" transform="translate(-28.33)"/><path class="cls-22" d="M1111.65,565.71s5.58,24.63-9.21,31.12-18.61.29-18.61.29C1085.09,594.68,1106.61,545.36,1111.65,565.71Z" transform="translate(-28.33)"/><ellipse class="cls-10" cx="1068.97" cy="547.26" rx="13.26" ry="9.87"/><ellipse class="cls-23" cx="1071.31" cy="543.46" rx="1.56" ry="1.52"/><path class="cls-24" d="M1110.35,548.69l-2.13,1.6s-6.53-2.41-3.12-4.55c1.62-1-.16-8-7.8-7.59-3.11.18-12.48,4.55-1.56,15.18-1.56,1.52-12.48,3-12.21-9.08.11-4.75,1.4-9.42,14.6-10.79,8.29-.17,10.09,4.69,12.4,9.94,5.35,1.45,4.35,1.46,4.35,1.46h0A16.23,16.23,0,0,1,1110.35,548.69Z" transform="translate(-28.33)"/><path class="cls-21" d="M1098.26,563.45h0c-1.39,4.72,7.24,13.06,21.1,14.08,5.43.41,7.58,6.1-5.18,8.4-5.29,1-20.85-10.14-21.07-15.12l-.14-.47" transform="translate(-28.33)"/><path class="cls-19" d="M114.35,736.53l-33-8.44a1.62,1.62,0,0,1-1.16-2l2-7.75a1.63,1.63,0,0,1,2.9-.52,6.2,6.2,0,0,0,3.52,2.42,4.52,4.52,0,0,0,5.32-2.3,1.61,1.61,0,0,1,2.22-.55l19.9,12s1.9,2.08,1.31,4.38c-.46,1.79-1.3,2.46-2.22,2.69A1.76,1.76,0,0,1,114.35,736.53Z" transform="translate(-28.33)"/><rect class="cls-19" x="79.11" y="732.26" width="35.84" height="0.85" rx="0.42" transform="translate(156.25 -1.19) rotate(14.35)"/><ellipse class="cls-27" cx="59.36" cy="744.47" rx="2.72" ry="6.12" transform="translate(-671.06 489.85) rotate(-65.51)"/><ellipse class="cls-28" cx="70.5" cy="739.7" rx="2.72" ry="6.12" transform="translate(-660.2 497.21) rotate(-65.51)"/><path class="cls-28" d="M75.74,700.48c.73,2.17,6.79,21.08,1.29,32.43-6.41,13.24-21.55,11.67-23,8.34a.17.17,0,0,0-.24-.09c-3.52,1.93-13.28,2.1-16.06-1.34a.21.21,0,0,1,0-.24c2.32-4,9.06-7.54,11.39-21a16,16,0,0,1,.65-2.65c2.54-7.27,5.92-12.09,6.93-14.26.89-1.92-.11-17.92,7.48-18.36C75,681.91,76.77,691.65,77,692.05a.19.19,0,0,0,.11.09l8.64-.39a2.11,2.11,0,0,1,1.39.45l2.79,2.23a.81.81,0,0,1-.44,1.44l-11.68.9a.2.2,0,0,0,0,.22C78,697.52,75.71,700.36,75.74,700.48Z" transform="translate(-28.33)"/><path class="cls-18" d="M78,713.05s4.86,22.06-8,27.87-16.23.27-16.23.27C54.83,739,73.59,694.81,78,713.05Z" transform="translate(-28.33)"/><circle class="cls-19" cx="39.18" cy="692.11" r="1.36"/><path class="cls-28" d="M66.31,710h0c-1.21,4.23,6.31,11.7,18.39,12.62,4.74.36,6.61,5.46-4.51,7.52-4.62.86-18.18-9.08-18.37-13.54l-.12-.43" transform="translate(-28.33)"/><path class="cls-29" d="M56.64,701.63,55,704.21s6-2,6.67-10.21c.18-2.22,4.61-5.38,4.61-5.38a1.87,1.87,0,0,0,0-2.79c-1.45-1.45-8.28-1.62-8.28,7.38C58,700,56.64,701.63,56.64,701.63Z" transform="translate(-28.33)"/><path class="cls-29" d="M77,694.6a.59.59,0,0,1,.53-.8l7.33-.17c.31,0,3.05-.08,3.34,0l1,.74s1.54.94.08,1.12-10.27.69-11.44.76a.16.16,0,0,1-.17-.12Z" transform="translate(-28.33)"/><path class="cls-10" d="M172.08,702.61h37.37a4,4,0,0,1,4,4v20.54a4,4,0,0,1-4,4H172.08a4,4,0,0,1-4-4V706.6A4,4,0,0,1,172.08,702.61Z"/><path class="cls-15" d="M237.78,703.11a3.49,3.49,0,0,1,3.49,3.49v20.54a3.49,3.49,0,0,1-3.49,3.49H200.41a3.49,3.49,0,0,1-3.49-3.49V706.6a3.49,3.49,0,0,1,3.49-3.49h37.37m0-1H200.41a4.49,4.49,0,0,0-4.49,4.49v20.54a4.49,4.49,0,0,0,4.49,4.49h37.37a4.49,4.49,0,0,0,4.49-4.49V706.6a4.49,4.49,0,0,0-4.49-4.49Z" transform="translate(-28.33)"/><polygon class="cls-15" points="190.04 727.69 200.31 707.91 210.29 707.91 210.29 727.69 190.04 727.69"/><path class="cls-15" d="M238.12,708.41v18.78H219.2l9.74-18.78h9.18m1-1H228.34l-10.79,20.78h21.57V707.41Z" transform="translate(-28.33)"/><path class="cls-15" d="M209.74,707.34a4,4,0,1,1,4.37-3.94A4.19,4.19,0,0,1,209.74,707.34Z" transform="translate(-28.33)"/><path class="cls-10" d="M209.74,700a3.47,3.47,0,1,1-3.88,3.45,3.69,3.69,0,0,1,3.88-3.45m0-1a4.46,4.46,0,1,0,4.87,4.45,4.68,4.68,0,0,0-4.87-4.45Z" transform="translate(-28.33)"/><text class="cls-30" transform="translate(201.18 719.02)">￥</text><text class="cls-31" transform="translate(177.95 706.03)">￥</text><ellipse class="cls-27" cx="172.74" cy="738.47" rx="2.79" ry="6.29" transform="translate(-599.22 589.52) rotate(-65.51)"/><ellipse class="cls-28" cx="184.2" cy="733.57" rx="2.79" ry="6.29" transform="translate(-588.06 597.08) rotate(-65.51)"/><path class="cls-28" d="M189.58,693.26c.75,2.23,7,21.67,1.33,33.33-6.59,13.61-22.15,12-23.68,8.58a.18.18,0,0,0-.25-.1c-3.61,2-13.64,2.16-16.51-1.38a.21.21,0,0,1,0-.24c2.38-4.07,9.31-7.75,11.7-21.63a16.88,16.88,0,0,1,.67-2.72c2.61-7.47,6.08-12.43,7.12-14.65.92-2-.11-18.42,7.69-18.87,11.17-1.39,13,8.61,13.24,9a.14.14,0,0,0,.11.09l8.88-.4a2.14,2.14,0,0,1,1.43.47l2.86,2.29a.83.83,0,0,1-.45,1.48l-12,.93a.2.2,0,0,0-.05.22C191.87,690.22,189.55,693.15,189.58,693.26Z" transform="translate(-28.33)"/><path class="cls-18" d="M191.89,706.18s5,22.67-8.25,28.65-16.68.27-16.68.27C168.09,732.85,187.37,687.44,191.89,706.18Z" transform="translate(-28.33)"/><circle class="cls-19" cx="152.8" cy="684.67" r="1.4"/><path class="cls-28" d="M179.89,703.07h0c-1.24,4.35,6.48,12,18.9,13,4.87.37,6.79,5.61-4.64,7.73-4.74.88-18.67-9.34-18.87-13.92l-.13-.44" transform="translate(-28.33)"/><path class="cls-29" d="M170,694.45l-1.65,2.65s6.16-2.05,6.85-10.49c.19-2.29,4.74-5.53,4.74-5.53a1.93,1.93,0,0,0,0-2.87c-1.49-1.49-8.51-1.66-8.51,7.59C171.38,692.74,170,694.45,170,694.45Z" transform="translate(-28.33)"/><path class="cls-29" d="M190.84,687.22a.6.6,0,0,1,.54-.82l7.53-.18c.32,0,3.14-.08,3.43,0l1,.76s1.59,1,.09,1.15-10.56.72-11.76.79a.2.2,0,0,1-.18-.12Z" transform="translate(-28.33)"/><circle class="cls-15" cx="286.8" cy="737.43" r="2.91"/><path class="cls-15" d="M307.35,736.93a1.27,1.27,0,0,1-1.27-1.27V717.07a4.44,4.44,0,0,1,4.44-4.44h40.79a5.38,5.38,0,0,1,5.37,5.37v17.66a1.27,1.27,0,0,1-1.27,1.27Z" transform="translate(-28.33)"/><path class="cls-15" d="M351.31,713.13a4.88,4.88,0,0,1,4.87,4.87v17.66a.76.76,0,0,1-.77.77H307.35a.77.77,0,0,1-.77-.77V717.07a4,4,0,0,1,3.94-3.94h40.79m0-1H310.52a4.94,4.94,0,0,0-4.94,4.94v18.59a1.77,1.77,0,0,0,1.77,1.77h48.06a1.77,1.77,0,0,0,1.77-1.77V718a5.87,5.87,0,0,0-5.87-5.87Z" transform="translate(-28.33)"/><circle class="cls-15" cx="294.58" cy="737.43" r="2.91"/><circle class="cls-15" cx="312.24" cy="737.43" r="2.91"/><circle class="cls-15" cx="319.94" cy="737.43" r="2.91"/><rect class="cls-10" x="286.04" y="724.13" width="5.63" height="10.88"/><rect class="cls-10" x="296.08" y="718.69" width="5.3" height="4.18"/><rect class="cls-10" x="312.24" y="718.69" width="6.15" height="4.18"/><rect class="cls-10" x="305.14" y="718.69" width="3.49" height="4.46"/><polygon class="cls-13" points="291 704.46 286.04 708.43 289.72 712.13 293.81 708.3 291 704.46"/><polygon class="cls-13" points="315.58 705.38 310.61 709.35 314.3 713.05 318.39 709.21 315.58 705.38"/><ellipse class="cls-27" cx="282.79" cy="743.05" rx="2.79" ry="6.29" transform="translate(-538.96 692.35) rotate(-65.51)"/><ellipse class="cls-28" cx="294.25" cy="738.15" rx="2.79" ry="6.29" transform="translate(-527.8 699.91) rotate(-65.51)"/><path class="cls-28" d="M299.64,697.84c.74,2.23,7,21.66,1.32,33.33-6.59,13.61-22.15,12-23.68,8.57a.18.18,0,0,0-.25-.09c-3.61,2-13.64,2.16-16.51-1.38a.21.21,0,0,1,0-.24c2.38-4.08,9.31-7.75,11.7-21.63a16.88,16.88,0,0,1,.67-2.72C275.49,706.2,279,701.25,280,699c.92-2-.11-18.42,7.69-18.87,11.17-1.4,13,8.6,13.24,9a.17.17,0,0,0,.11.09l8.88-.4a2.14,2.14,0,0,1,1.43.47l2.86,2.29a.83.83,0,0,1-.45,1.48l-12,.92a.22.22,0,0,0-.05.23C301.92,694.8,299.6,697.72,299.64,697.84Z" transform="translate(-28.33)"/><path class="cls-18" d="M301.94,710.76s5,22.67-8.25,28.65-16.68.27-16.68.27C278.14,737.43,297.42,692,301.94,710.76Z" transform="translate(-28.33)"/><circle class="cls-19" cx="262.85" cy="689.24" r="1.4"/><path class="cls-28" d="M289.94,707.65h0c-1.24,4.34,6.48,12,18.9,13,4.87.38,6.79,5.62-4.64,7.74-4.74.88-18.67-9.34-18.87-13.92l-.13-.44" transform="translate(-28.33)"/><path class="cls-29" d="M280,699l-1.65,2.65s6.16-2.06,6.85-10.5c.19-2.28,4.74-5.52,4.74-5.52a1.93,1.93,0,0,0,0-2.87c-1.49-1.49-8.51-1.66-8.51,7.58C281.43,697.32,280,699,280,699Z" transform="translate(-28.33)"/><path class="cls-29" d="M300.89,691.8a.6.6,0,0,1,.54-.82l7.53-.18c.32,0,3.14-.08,3.43,0l1,.76s1.59,1,.09,1.15-10.56.71-11.76.78a.17.17,0,0,1-.18-.11Z" transform="translate(-28.33)"/><path class="cls-28" d="M418.43,702.12h0c-1.35,4.72,7,13,20.51,14.08,5.29.4,7.38,6.09-5,8.39-5.15,1-20.28-10.13-20.49-15.11l-.14-.47" transform="translate(-28.33)"/><polygon class="cls-32" points="414.06 705.89 401.12 710.2 401.12 726.54 414.29 733.28 427.01 726.99 427.01 710.66 414.06 705.89"/><polyline class="cls-13" points="401.12 710.2 414.06 716.56 427.01 710.66"/><line class="cls-13" x1="414.06" y1="716.56" x2="414.06" y2="733.28"/><circle class="cls-15" cx="405.71" cy="716.72" r="0.15"/><ellipse class="cls-15" cx="409.47" cy="717.79" rx="0.13" ry="0.18"/><ellipse class="cls-15" cx="406.27" cy="720.99" rx="0.13" ry="0.16"/><circle class="cls-15" cx="409.47" cy="723.29" r="0.12"/><circle class="cls-15" cx="406.76" cy="725.6" r="0.19"/><ellipse class="cls-15" cx="414.11" cy="708.34" rx="0.22" ry="0.08"/><ellipse class="cls-15" cx="415.07" cy="711.68" rx="0.24" ry="0.12"/><ellipse class="cls-15" cx="417.87" cy="711.38" rx="0.41" ry="0.19"/><ellipse class="cls-15" cx="409.07" cy="710.62" rx="0.28" ry="0.14"/><circle class="cls-15" cx="423.95" cy="716.69" r="0.27"/><circle class="cls-15" cx="417.28" cy="718.83" r="0.31"/><ellipse class="cls-15" cx="420.17" cy="720.09" rx="0.3" ry="0.19"/><circle class="cls-15" cx="417.8" cy="722.51" r="0.22"/><circle class="cls-15" cx="422.95" cy="720.48" r="0.21"/><circle class="cls-15" cx="420.49" cy="725.08" r="0.32"/><ellipse class="cls-27" cx="402.66" cy="745.85" rx="3.03" ry="6.83" transform="translate(-471.34 803.07) rotate(-65.51)"/><ellipse class="cls-28" cx="415.1" cy="740.54" rx="3.03" ry="6.83" transform="translate(-459.23 811.28) rotate(-65.51)"/><path class="cls-28" d="M420.94,696.78c.81,2.42,7.58,23.52,1.44,36.18-7.16,14.77-24,13-25.71,9.31a.18.18,0,0,0-.27-.1c-3.92,2.15-14.8,2.34-17.91-1.5a.23.23,0,0,1,0-.26c2.58-4.43,10.11-8.42,12.7-23.48a17.77,17.77,0,0,1,.73-3c2.83-8.11,6.6-13.49,7.73-15.9,1-2.14-.12-20,8.34-20.48,12.14-1.52,14.12,9.34,14.38,9.79a.18.18,0,0,0,.12.1l9.63-.44a2.38,2.38,0,0,1,1.56.51l3.11,2.49a.9.9,0,0,1-.5,1.6l-13,1a.22.22,0,0,0-.05.24C423.42,693.48,420.9,696.65,420.94,696.78Z" transform="translate(-28.33)"/><path class="cls-18" d="M423.44,710.8s5.42,24.62-8.95,31.1-18.1.29-18.1.29C397.61,739.75,418.54,690.46,423.44,710.8Z" transform="translate(-28.33)"/><circle class="cls-19" cx="383.43" cy="687.45" r="1.52"/><path class="cls-28" d="M410.42,707.42h0c-1.35,4.72,7,13.05,20.51,14.08,5.29.41,7.38,6.1-5,8.4-5.15,1-20.27-10.14-20.49-15.11l-.14-.48" transform="translate(-28.33)"/><path class="cls-29" d="M399.63,698.07l-1.8,2.88s6.7-2.23,7.44-11.4c.2-2.47,5.14-6,5.14-6a2.07,2.07,0,0,0,0-3.11c-1.61-1.62-9.23-1.8-9.23,8.24C401.18,696.21,399.63,698.07,399.63,698.07Z" transform="translate(-28.33)"/><path class="cls-29" d="M422.3,690.22a.65.65,0,0,1,.59-.89l8.17-.19c.36,0,3.41-.09,3.73,0l1.06.83s1.72,1,.1,1.24-11.47.78-12.77.85A.18.18,0,0,1,423,692Z" transform="translate(-28.33)"/><rect class="cls-15" x="542.12" y="708.59" width="7.3" height="23.92" rx="3.65" transform="translate(514.9 -183.36) rotate(36.98)"/><circle class="cls-13" cx="532.33" cy="700.78" r="17.2"/><path class="cls-12" d="M561.12,717.51c.78.57,2-.31,2.21-1.27.7-3.86,1.63-12.23-2.65-15.45-2.63-2-11.35,1.3-15,3-.76.36-1.42,1.29-.73,1.79,0,0-.35,3.13,6.23,8.35A16.79,16.79,0,0,0,561.12,717.51Z" transform="translate(-28.33)"/><circle class="cls-13" cx="534.31" cy="698.16" r="4.54"/><ellipse class="cls-27" cx="514.54" cy="744.02" rx="2.79" ry="6.29" transform="translate(-404.18 903.81) rotate(-65.51)"/><ellipse class="cls-28" cx="526" cy="739.13" rx="2.79" ry="6.29" transform="translate(-393.02 911.37) rotate(-65.51)"/><path class="cls-28" d="M531.38,698.82c.75,2.23,7,21.66,1.33,33.32-6.6,13.61-22.15,12-23.69,8.58a.16.16,0,0,0-.24-.09c-3.62,2-13.64,2.16-16.51-1.38a.23.23,0,0,1,0-.24c2.39-4.08,9.32-7.76,11.71-21.63a18.4,18.4,0,0,1,.66-2.73c2.62-7.47,6.09-12.42,7.13-14.65.91-2-.11-18.41,7.68-18.86,11.18-1.4,13,8.6,13.24,9a.27.27,0,0,0,.12.09l8.87-.4a2.1,2.1,0,0,1,1.43.46l2.87,2.3a.82.82,0,0,1-.45,1.47l-12,.93a.22.22,0,0,0,0,.23C533.66,695.78,531.34,698.7,531.38,698.82Z" transform="translate(-28.33)"/><path class="cls-18" d="M533.68,711.73s5,22.68-8.25,28.65-16.67.27-16.67.27C509.89,738.41,529.17,693,533.68,711.73Z" transform="translate(-28.33)"/><circle class="cls-19" cx="494.59" cy="690.22" r="1.4"/><path class="cls-28" d="M521.69,708.62h0c-1.24,4.35,6.48,12,18.9,13,4.87.37,6.79,5.62-4.64,7.73-4.74.88-18.68-9.33-18.88-13.92L517,715" transform="translate(-28.33)"/><path class="cls-29" d="M511.75,700l-1.66,2.66s6.17-2.06,6.86-10.5c.18-2.28,4.73-5.53,4.73-5.53a1.91,1.91,0,0,0,0-2.87c-1.48-1.48-8.5-1.66-8.5,7.59C513.18,698.29,511.75,700,511.75,700Z" transform="translate(-28.33)"/><path class="cls-29" d="M532.64,692.78a.59.59,0,0,1,.54-.82l7.53-.18c.32,0,3.14-.08,3.43,0l1,.76s1.59,1,.09,1.15-10.56.71-11.76.78a.18.18,0,0,1-.18-.12Z" transform="translate(-28.33)"/><polygon class="cls-13" points="637.32 703.83 620.42 713.21 625.51 714.91 620.99 727.41 655.3 738.93 659.53 726.33 664.18 727.89 658.3 710.72 637.32 703.83"/><rect class="cls-13" x="658.64" y="718.42" width="4.45" height="12.38" transform="translate(236.59 -172.62) rotate(18.55)"/><rect class="cls-13" x="672.42" y="723.63" width="9.05" height="5.37" transform="translate(237.97 -177.66) rotate(18.55)"/><ellipse class="cls-27" cx="626.4" cy="746.4" rx="2.79" ry="6.29" transform="translate(-340.86 1007) rotate(-65.51)"/><ellipse class="cls-28" cx="637.85" cy="741.51" rx="2.79" ry="6.29" transform="translate(-329.7 1014.56) rotate(-65.51)"/><path class="cls-28" d="M643.24,701.2c.74,2.23,7,21.66,1.32,33.33-6.59,13.61-22.14,12-23.68,8.57a.18.18,0,0,0-.25-.09c-3.61,2-13.64,2.16-16.5-1.38a.21.21,0,0,1,0-.24c2.38-4.08,9.31-7.75,11.7-21.63a16.88,16.88,0,0,1,.67-2.72c2.61-7.48,6.09-12.43,7.12-14.66.92-2-.11-18.41,7.69-18.86,11.18-1.4,13,8.6,13.24,9a.19.19,0,0,0,.11.09l8.88-.4a2.15,2.15,0,0,1,1.43.46l2.87,2.3a.83.83,0,0,1-.46,1.48l-12,.92a.21.21,0,0,0,0,.23C645.52,698.16,643.2,701.08,643.24,701.2Z" transform="translate(-28.33)"/><path class="cls-18" d="M645.54,714.12s5,22.67-8.25,28.65-16.67.27-16.67.27C621.75,740.79,641,695.38,645.54,714.12Z" transform="translate(-28.33)"/><circle class="cls-19" cx="606.45" cy="692.6" r="1.4"/><path class="cls-28" d="M633.54,711h0c-1.24,4.35,6.49,12,18.9,13,4.87.38,6.8,5.62-4.63,7.74-4.75.88-18.68-9.34-18.88-13.92l-.13-.44" transform="translate(-28.33)"/><path class="cls-29" d="M623.6,702.38,622,705s6.17-2.06,6.85-10.5c.19-2.28,4.74-5.53,4.74-5.53a1.91,1.91,0,0,0,0-2.87c-1.49-1.48-8.51-1.66-8.51,7.59C625,700.67,623.6,702.38,623.6,702.38Z" transform="translate(-28.33)"/><path class="cls-29" d="M644.49,695.16a.6.6,0,0,1,.55-.82l7.52-.18c.33,0,3.14-.08,3.44,0l1,.76s1.59,1,.09,1.15-10.56.71-11.76.78a.17.17,0,0,1-.18-.12Z" transform="translate(-28.33)"/><rect class="cls-15" x="741.14" y="720.47" width="7.22" height="2.88"/><ellipse class="cls-15" cx="754.24" cy="721.91" rx="6.88" ry="8.13"/><rect class="cls-15" x="753.47" y="713.78" width="7.65" height="16.26" rx="0.73"/><rect class="cls-15" x="781.47" y="720.47" width="7.22" height="2.88"/><ellipse class="cls-15" cx="775.59" cy="721.91" rx="6.88" ry="8.13"/><rect class="cls-15" x="797.04" y="713.78" width="7.65" height="16.26" rx="0.73" transform="translate(1573.4 1443.83) rotate(180)"/><ellipse class="cls-33" cx="744.48" cy="742.74" rx="2.79" ry="6.29" transform="translate(-268.39 1112.31) rotate(-65.51)"/><ellipse class="cls-34" cx="755.94" cy="737.84" rx="2.79" ry="6.29" transform="translate(-257.23 1119.87) rotate(-65.51)"/><path class="cls-34" d="M761.32,697.53c.75,2.23,7,21.66,1.33,33.33-6.6,13.61-22.15,12-23.69,8.57a.17.17,0,0,0-.24-.09c-3.62,2-13.65,2.16-16.51-1.38a.21.21,0,0,1,0-.24c2.38-4.08,9.31-7.75,11.7-21.63a16.88,16.88,0,0,1,.67-2.72c2.61-7.48,6.09-12.43,7.12-14.65.92-2-.11-18.42,7.69-18.87,11.18-1.4,13,8.6,13.24,9a.19.19,0,0,0,.11.09l8.88-.4A2.11,2.11,0,0,1,773,689l2.87,2.29a.83.83,0,0,1-.46,1.48l-12,.92a.2.2,0,0,0-.05.23C763.6,694.49,761.28,697.41,761.32,697.53Z" transform="translate(-28.33)"/><path class="cls-22" d="M763.62,710.45s5,22.67-8.25,28.65-16.67.27-16.67.27C739.83,737.12,759.1,691.71,763.62,710.45Z" transform="translate(-28.33)"/><circle class="cls-23" cx="724.53" cy="688.93" r="1.4"/><path class="cls-34" d="M751.63,707.34h0c-1.25,4.34,6.48,12,18.89,13,4.87.37,6.8,5.61-4.63,7.73-4.75.88-18.68-9.34-18.88-13.92l-.13-.44" transform="translate(-28.33)"/><path class="cls-35" d="M741.68,698.72,740,701.37s6.17-2.06,6.85-10.5c.19-2.28,4.74-5.52,4.74-5.52a1.92,1.92,0,0,0,0-2.87c-1.48-1.49-8.5-1.66-8.5,7.58C743.12,697,741.68,698.72,741.68,698.72Z" transform="translate(-28.33)"/><path class="cls-35" d="M762.57,691.49a.6.6,0,0,1,.55-.82l7.52-.18c.33,0,3.14-.08,3.44,0l1,.76s1.59,1,.09,1.15-10.56.71-11.76.78a.17.17,0,0,1-.18-.11Z" transform="translate(-28.33)"/><rect class="cls-15" x="887.97" y="704.61" width="3.59" height="8.16" rx="0.59" transform="translate(-263.35 539.07) rotate(-29.96)"/><path class="cls-15" d="M887.87,708.39a.35.35,0,0,0-.06.34c.54,1.37,5,9.34-3.28,14.11-6.84,3.94-1,8,.14,8.69a.32.32,0,0,0,.34,0L912,716a.34.34,0,0,0,.16-.37c-.33-1.31-2.2-7.3-8.39-3.73-9.61,5.54-10.88-3.13-13.26-4.83a.28.28,0,0,0-.18-.06A3.51,3.51,0,0,0,887.87,708.39Z" transform="translate(-28.33)"/><path class="cls-15" d="M893.77,727.35l8.88-5.12s3.05,4.6-1.69,7.33C895.83,732.52,893.77,727.35,893.77,727.35Z" transform="translate(-28.33)"/><ellipse class="cls-33" cx="859.45" cy="744.02" rx="2.79" ry="6.29" transform="translate(-202.26 1217.69) rotate(-65.51)"/><ellipse class="cls-34" cx="870.91" cy="739.13" rx="2.79" ry="6.29" transform="translate(-191.1 1225.25) rotate(-65.51)"/><path class="cls-34" d="M876.29,698.82c.75,2.23,7,21.66,1.33,33.32-6.6,13.61-22.15,12-23.69,8.58a.16.16,0,0,0-.24-.09c-3.62,2-13.64,2.16-16.51-1.38a.23.23,0,0,1,0-.24c2.39-4.08,9.32-7.76,11.71-21.63a18.4,18.4,0,0,1,.66-2.73c2.62-7.47,6.09-12.42,7.13-14.65.91-2-.11-18.41,7.68-18.86,11.18-1.4,13,8.6,13.24,9a.27.27,0,0,0,.12.09l8.87-.4a2.1,2.1,0,0,1,1.43.46l2.87,2.3a.82.82,0,0,1-.45,1.47l-12,.93a.22.22,0,0,0,0,.23C878.57,695.78,876.25,698.7,876.29,698.82Z" transform="translate(-28.33)"/><path class="cls-22" d="M878.59,711.73s5,22.68-8.25,28.65-16.67.27-16.67.27C854.8,738.41,874.08,693,878.59,711.73Z" transform="translate(-28.33)"/><circle class="cls-23" cx="839.51" cy="690.22" r="1.4"/><path class="cls-34" d="M862.14,708.36h0c2.71,3.62,13.5,2.12,21.77-7.19,3.24-3.65,8.58-2,3.35,8.37-2.18,4.31-18.74,9.22-22.51,6.6l-.43-.16" transform="translate(-28.33)"/><path class="cls-35" d="M856.66,700,855,702.66s6.17-2.06,6.86-10.5c.18-2.28,4.73-5.53,4.73-5.53a1.91,1.91,0,0,0,0-2.87c-1.48-1.48-8.5-1.66-8.5,7.59C858.09,698.29,856.66,700,856.66,700Z" transform="translate(-28.33)"/><path class="cls-35" d="M877.55,692.78a.59.59,0,0,1,.54-.82l7.53-.18c.32,0,3.14-.08,3.43,0l1,.76s1.59,1,.09,1.15-10.56.71-11.76.78a.16.16,0,0,1-.17-.12Z" transform="translate(-28.33)"/><path class="cls-13" d="M1004.46,712.59l-.74-8.55a2.81,2.81,0,0,1,.79-2.2,7,7,0,0,1,3.85-2.08,18.87,18.87,0,0,1,5.59.07,1.06,1.06,0,0,1,.57.28l4.7,4.41a2.84,2.84,0,0,0,4.24-.39l3.64-5a1.1,1.1,0,0,1,.55-.4,17.27,17.27,0,0,1,4.89-.72,10.6,10.6,0,0,1,4.68,1.44,1.32,1.32,0,0,1,.68,1.27l.54,9.74a1.06,1.06,0,0,1-.71,1.07L1031,714a1.07,1.07,0,0,0-.71,1.1l.52,6.39a1,1,0,0,0,.15.48l10.1,16.51a1.07,1.07,0,0,1-.83,1.63s-11.76,4-8.63,1.28-19.47,2.47-16.08.67c5.3-2.81-14.14,1.12-14.14,1.12a1.33,1.33,0,0,1-1.18-2.12l11.88-16.17a1,1,0,0,0,.21-.63l0-7.46a1.08,1.08,0,0,0-.72-1l-6.41-2.25A1.06,1.06,0,0,1,1004.46,712.59Z" transform="translate(-28.33)"/><ellipse class="cls-33" cx="978.78" cy="746.16" rx="2.79" ry="6.29" transform="translate(-134.35 1327.53) rotate(-65.51)"/><ellipse class="cls-34" cx="990.24" cy="741.27" rx="2.79" ry="6.29" transform="translate(-123.19 1335.09) rotate(-65.51)"/><path class="cls-34" d="M995.62,701c.75,2.23,7,21.66,1.33,33.32-6.6,13.61-22.15,12-23.69,8.58a.16.16,0,0,0-.24-.09c-3.62,2-13.65,2.16-16.51-1.38a.23.23,0,0,1,0-.24c2.38-4.08,9.31-7.76,11.71-21.63a15.86,15.86,0,0,1,.66-2.72c2.61-7.48,6.09-12.43,7.12-14.66.92-2-.11-18.41,7.69-18.86,11.18-1.4,13,8.6,13.24,9a.31.31,0,0,0,.11.09l8.88-.4a2.1,2.1,0,0,1,1.43.46l2.87,2.3a.82.82,0,0,1-.46,1.47l-12,.93a.22.22,0,0,0,0,.23C997.9,697.92,995.58,700.84,995.62,701Z" transform="translate(-28.33)"/><path class="cls-22" d="M997.92,713.88s5,22.67-8.25,28.64-16.67.27-16.67.27C974.13,740.55,993.4,695.14,997.92,713.88Z" transform="translate(-28.33)"/><circle class="cls-23" cx="958.83" cy="692.36" r="1.4"/><path class="cls-34" d="M981.47,710.5h0c2.71,3.62,13.49,2.12,21.76-7.19,3.25-3.65,8.59-2,3.35,8.37-2.17,4.31-18.73,9.22-22.5,6.6l-.43-.16" transform="translate(-28.33)"/><path class="cls-35" d="M976,702.14l-1.65,2.66s6.17-2.06,6.86-10.5c.18-2.28,4.73-5.53,4.73-5.53a1.91,1.91,0,0,0,0-2.87c-1.48-1.48-8.5-1.66-8.5,7.59C977.42,700.43,976,702.14,976,702.14Z" transform="translate(-28.33)"/><path class="cls-35" d="M996.87,694.92a.6.6,0,0,1,.55-.82l7.52-.18c.33,0,3.15-.08,3.44,0l1,.76s1.59,1,.09,1.15-10.56.71-11.76.78a.17.17,0,0,1-.18-.12Z" transform="translate(-28.33)"/><circle class="cls-12" cx="1107.37" cy="711.87" r="8.46"/><circle class="cls-12" cx="1107.37" cy="722.75" r="8.46"/><circle class="cls-12" cx="1118.67" cy="721.05" r="8.46"/><circle class="cls-12" cx="1113.05" cy="733.7" r="8.46"/><circle class="cls-12" cx="1098.63" cy="733.7" r="8.46"/><circle class="cls-12" cx="1096.12" cy="720.39" r="8.46"/><ellipse class="cls-13" cx="1107.33" cy="722.3" rx="2.88" ry="3.39"/><ellipse class="cls-33" cx="1093.38" cy="747.73" rx="2.79" ry="6.29" transform="translate(-68.68 1432.74) rotate(-65.51)"/><ellipse class="cls-34" cx="1104.84" cy="742.84" rx="2.79" ry="6.29" transform="translate(-57.52 1440.3) rotate(-65.51)"/><path class="cls-34" d="M1110.22,702.52c.75,2.23,7,21.67,1.33,33.33-6.6,13.61-22.15,12-23.69,8.58a.17.17,0,0,0-.24-.1c-3.62,2-13.65,2.16-16.51-1.38a.21.21,0,0,1,0-.24c2.38-4.07,9.31-7.75,11.7-21.62a16.74,16.74,0,0,1,.67-2.73c2.61-7.47,6.09-12.43,7.12-14.65.92-2-.11-18.41,7.69-18.87,11.18-1.39,13,8.61,13.24,9a.18.18,0,0,0,.11.08l8.88-.4a2.16,2.16,0,0,1,1.43.47l2.87,2.29a.83.83,0,0,1-.46,1.48l-12,.93a.19.19,0,0,0,0,.22C1112.5,699.49,1110.18,702.41,1110.22,702.52Z" transform="translate(-28.33)"/><path class="cls-22" d="M1112.52,715.44s5,22.68-8.25,28.65-16.67.27-16.67.27C1088.73,742.11,1108,696.7,1112.52,715.44Z" transform="translate(-28.33)"/><circle class="cls-23" cx="1073.43" cy="693.93" r="1.4"/><path class="cls-34" d="M1099,712.05h0c-.73,4.47,7.82,11.21,20.26,10.73,4.88-.19,7.39,4.8-3.72,8.21-4.61,1.41-19.62-7.14-20.34-11.67l-.18-.42" transform="translate(-28.33)"/><path class="cls-35" d="M1090.58,703.71l-1.65,2.65s6.17-2.05,6.85-10.49c.19-2.29,4.74-5.53,4.74-5.53a1.92,1.92,0,0,0,0-2.87c-1.48-1.49-8.5-1.66-8.5,7.59C1092,702,1090.58,703.71,1090.58,703.71Z" transform="translate(-28.33)"/><path class="cls-35" d="M1111.47,696.48a.6.6,0,0,1,.55-.82l7.52-.18c.33,0,3.14-.07,3.44,0l1,.75s1.59,1,.09,1.15-10.56.72-11.76.79a.2.2,0,0,1-.18-.12Z" transform="translate(-28.33)"/></g><g id="レイヤー_2" data-name="レイヤー 2"><path class="cls-13" d="M127,418l-12.07,35.9a1.4,1.4,0,0,1-1.52.95l-26.57-3.56a1.4,1.4,0,0,1-1.15-1.84l14.2-42.24.67-2a1.41,1.41,0,0,1,1.79-.89l3.94,1.32a1.43,1.43,0,0,1,1,1.28h0a1.41,1.41,0,0,0,2.17,1.12l.81-.52a1.44,1.44,0,0,1,1.21-.15l4.08,1.38a1.4,1.4,0,0,1,1,1.29v.22a1.41,1.41,0,0,0,2,1.21l2.43-1.21a1.45,1.45,0,0,1,1.08-.07l3.11,1,2.36.8a1.41,1.41,0,0,1,.89,1.79Z" transform="translate(-28.33)"/><text class="cls-36" transform="translate(66.31 433.09) rotate(18.57)">SIM</text><path class="cls-37" d="M94.43,389.25S87,374.37,74.59,374.37c-17.36,0-27.28,47.13-24.8,62s-22.33,32.24-7.44,27.28c9.92-7.44,8.67-6.65,14.57,1.24,2.79,3.72,20.15,3.72,22.63,1.24,0-2.48-9.92-2.48-7.44-7.44S89.47,438.86,87,428.94s-7.06-27.41,0-29.77c7.44-2.48,17.36-2.48,17.36-2.48s-2.48-5-5-5S94.43,389.25,94.43,389.25Z" transform="translate(-28.33)"/><path class="cls-38" d="M83.79,403S72.28,405.26,71,415.86s-.49,35.2,2.81,40.26l10.62-15.41S85.55,419.19,83.79,403Z" transform="translate(-28.33)"/><path class="cls-37" d="M65.25,420.52s21.61,1.1,31.81,15.84c2.23,4.48-1.43,5.07-7.13,4-10.56-2.07-28.12-10-28.12-10" transform="translate(-28.33)"/><circle class="cls-13" cx="52.46" cy="385.53" r="1.24"/><path class="cls-39" d="M94.92,389.44l-2.48,5,2.48,3.27s12.4,1.69,9.92-.79A10.85,10.85,0,0,0,94.92,389.44Z" transform="translate(-28.33)"/><path class="cls-40" d="M206.36,458.76s-19.61-52.5,8.63-43.43c13.23,4.24,8.26,13.55,6.58,16.54s4.42-17.72,18.66-2.34C257.62,448.31,206.36,458.76,206.36,458.76Z" transform="translate(-28.33)"/><path class="cls-37" d="M203.25,398.35S196.58,385,185.47,385c-15.55,0-24.44,42.22-22.22,55.55s-20,28.88-6.66,24.44c8.88-6.67,7.77-6,13.06,1.11,2.49,3.33,18,3.33,20.26,1.11,0-2.22-8.88-2.22-6.66-6.66s15.55-17.78,13.33-26.67-6.32-24.55,0-26.66c6.67-2.22,15.55-2.22,15.55-2.22s-2.22-4.45-4.44-4.45S203.25,398.35,203.25,398.35Z" transform="translate(-28.33)"/><path class="cls-38" d="M193.71,410.65s-10.31,2-11.49,11.53-.44,31.54,2.51,36.07l9.52-13.8S195.29,425.17,193.71,410.65Z" transform="translate(-28.33)"/><path class="cls-37" d="M177.1,426.36s19.37,1,28.5,14.19c2,4-1.28,4.55-6.38,3.55-9.47-1.85-25.2-9-25.2-9" transform="translate(-28.33)"/><circle class="cls-13" cx="162.69" cy="395.02" r="1.11"/><path class="cls-39" d="M203.69,398.52,201.46,403l2.23,2.92s11.1,1.52,8.88-.7A9.71,9.71,0,0,0,203.69,398.52Z" transform="translate(-28.33)"/><rect class="cls-41" x="343.37" y="403.9" width="9.16" height="2.29" rx="0.61" transform="translate(165.96 -106.34) rotate(23.94)"/><path class="cls-12" d="M341.25,408.84,338.54,415s-7,.74-9.49,6.32l-14.94,33.65,19.6,8.5L348.58,430c2.47-5.58-1.87-10.84-1.87-10.84l2.68-6.66Z" transform="translate(-28.33)"/><path class="cls-37" d="M324,392.93s-7.18-14.36-19.14-14.36c-16.75,0-26.33,45.47-23.93,59.83s-21.54,31.11-7.18,26.32c9.57-7.18,8.37-6.41,14.06,1.2,2.69,3.59,19.44,3.59,21.83,1.19,0-2.39-9.57-2.39-7.18-7.18s16.76-19.14,14.36-28.71-6.81-26.45,0-28.72c7.18-2.39,16.75-2.39,16.75-2.39s-2.39-4.79-4.78-4.79S324,392.93,324,392.93Z" transform="translate(-28.33)"/><path class="cls-38" d="M313.76,406.17s-11.11,2.2-12.39,12.43-.47,34,2.72,38.84l10.24-14.86S315.45,421.81,313.76,406.17Z" transform="translate(-28.33)"/><path class="cls-37" d="M295.86,423.09s20.86,1.07,30.7,15.29c2.15,4.32-1.38,4.89-6.88,3.82-10.19-2-27.13-9.66-27.13-9.66" transform="translate(-28.33)"/><circle class="cls-13" cx="282.53" cy="389.34" r="1.2"/><path class="cls-39" d="M325.59,393.55l-2.39,4.79,2.39,3.15s12,1.64,9.58-.76A10.48,10.48,0,0,0,325.59,393.55Z" transform="translate(-28.33)"/><rect class="cls-12" x="395.1" y="414.24" width="9.93" height="54.6" rx="3.36"/><path class="cls-12" d="M432.9,433.33l31.23-19.87a2.59,2.59,0,0,1,4,2.19v49.07a2.58,2.58,0,0,1-4.18,2l-31.23-24.43a2.6,2.6,0,0,1-1-2v-4.76A2.59,2.59,0,0,1,432.9,433.33Z" transform="translate(-28.33)"/><path class="cls-37" d="M427.59,395.48s-6.87-13.73-18.31-13.73c-16,0-25.16,43.47-22.88,57.2s-20.59,29.74-6.86,25.17c9.15-6.87,8-6.14,13.45,1.14,2.57,3.43,18.58,3.43,20.87,1.14,0-2.28-9.15-2.28-6.86-6.86s16-18.3,13.72-27.46-6.51-25.28,0-27.45c6.87-2.29,16-2.29,16-2.29s-2.29-4.57-4.58-4.57S427.59,395.48,427.59,395.48Z" transform="translate(-28.33)"/><path class="cls-38" d="M417.77,408.14s-10.61,2.1-11.84,11.88-.45,32.47,2.6,37.14l9.79-14.22S419.39,423.09,417.77,408.14Z" transform="translate(-28.33)"/><path class="cls-37" d="M400.66,424.32s19.95,1,29.35,14.61c2.06,4.13-1.32,4.68-6.57,3.65-9.75-1.9-25.94-9.23-25.94-9.23" transform="translate(-28.33)"/><circle class="cls-13" cx="386.67" cy="392.05" r="1.14"/><path class="cls-39" d="M428,395.65l-2.29,4.58,2.29,3s11.44,1.56,9.15-.73A10,10,0,0,0,428,395.65Z" transform="translate(-28.33)"/><path class="cls-13" d="M543.63,438.77l11-36.17a3,3,0,0,1,3.77-2l3.27,1a3,3,0,0,1,1.92,1.74l1,2.47a3.17,3.17,0,0,0,.72,1l1.56,1.47a3.09,3.09,0,0,0,1.2.7l17.43,5.28a3,3,0,0,1,2,3.77l-9.44,31.14a3,3,0,0,1-3.77,2l-28.64-8.68A3,3,0,0,1,543.63,438.77Z" transform="translate(-28.33)"/><path class="cls-13" d="M549.4,445a3,3,0,0,1-1.3-5h0L562,425.56a3,3,0,0,1,3.15-.77l21.53,7.28a3,3,0,0,1,1.76,4.14l-7.4,15.73a3,3,0,0,1-3.61,1.6Z" transform="translate(-28.33)"/><path class="cls-37" d="M552.19,389.16s-7.32-14.64-19.52-14.64c-17.09,0-26.85,46.37-24.41,61s-22,31.73-7.32,26.85c9.76-7.32,8.54-6.54,14.35,1.22,2.73,3.66,19.82,3.66,22.26,1.22,0-2.44-9.76-2.44-7.32-7.32s17.08-19.53,14.64-29.29-7-27,0-29.29c7.32-2.44,17.08-2.44,17.08-2.44s-2.44-4.88-4.88-4.88S552.19,389.16,552.19,389.16Z" transform="translate(-28.33)"/><path class="cls-38" d="M541.72,402.67s-11.32,2.24-12.63,12.67S528.61,450,531.86,455l10.45-15.17S543.45,418.62,541.72,402.67Z" transform="translate(-28.33)"/><path class="cls-37" d="M523.47,419.92s21.28,1.09,31.31,15.59c2.19,4.41-1.41,5-7,3.9-10.4-2-27.67-9.85-27.67-9.85" transform="translate(-28.33)"/><circle class="cls-13" cx="510.44" cy="385.5" r="1.22"/><path class="cls-39" d="M551.52,388.52l-2.44,4.88,2.44,3.22s12.2,1.66,9.76-.78A10.67,10.67,0,0,0,551.52,388.52Z" transform="translate(-28.33)"/><path class="cls-13" d="M671.44,418.14l9.2-.84a2.88,2.88,0,0,0,2.56-3.47l-1-4.74a2.89,2.89,0,0,0-1-1.65l-2.34-1.9a2.9,2.9,0,0,0-2.41-.59l-5,1a2.9,2.9,0,0,0-1.85,1.28L668,409.76a2.89,2.89,0,0,0-.4,2.07l.72,3.95A2.89,2.89,0,0,0,671.44,418.14Z" transform="translate(-28.33)"/><path class="cls-13" d="M672.84,421.57l9.31-.6a2.87,2.87,0,0,1,3,2.29l6.14,29.52a2.89,2.89,0,0,1-.06,1.43l-2.81,9.29a2.89,2.89,0,0,1-4.95,1.05l-6.19-7.17a2.89,2.89,0,0,1-.64-1.3l-6.45-31A2.89,2.89,0,0,1,672.84,421.57Z" transform="translate(-28.33)"/><path class="cls-37" d="M673,383.9s-7.53-15.06-20.08-15.06c-17.58,0-27.62,47.7-25.11,62.76s-22.59,32.63-7.53,27.61c10-7.53,8.79-6.73,14.76,1.25,2.81,3.77,20.39,3.77,22.9,1.26,0-2.51-10-2.51-7.53-7.53s17.57-20.08,15.06-30.12-7.15-27.74,0-30.13c7.53-2.51,17.57-2.51,17.57-2.51s-2.51-5-5-5S673,383.9,673,383.9Z" transform="translate(-28.33)"/><path class="cls-38" d="M662.19,397.8s-11.65,2.3-13,13-.5,35.62,2.84,40.75L662.79,436S664,414.2,662.19,397.8Z" transform="translate(-28.33)"/><path class="cls-37" d="M643.42,415.55s21.88,1.11,32.2,16c2.26,4.53-1.45,5.13-7.21,4-10.69-2.09-28.47-10.14-28.47-10.14" transform="translate(-28.33)"/><circle class="cls-13" cx="630.82" cy="380.14" r="1.26"/><path class="cls-39" d="M673.36,384.25l-2.51,5,2.51,3.31s12.56,1.71,10-.8A11,11,0,0,0,673.36,384.25Z" transform="translate(-28.33)"/><path class="cls-37" d="M787.88,386.13s-7.82-15.65-20.87-15.65c-18.27,0-28.7,49.57-26.1,65.23s-23.48,33.92-7.82,28.7c10.43-7.82,9.13-7,15.33,1.31,2.93,3.91,21.2,3.91,23.81,1.3,0-2.61-10.44-2.61-7.83-7.82s18.27-20.88,15.66-31.32-7.43-28.83,0-31.31c7.82-2.61,18.26-2.61,18.26-2.61s-2.61-5.22-5.22-5.22S787.88,386.13,787.88,386.13Z" transform="translate(-28.33)"/><path class="cls-38" d="M776.69,400.58s-12.11,2.39-13.5,13.54-.52,37,2.95,42.36l11.18-16.21S778.54,417.63,776.69,400.58Z" transform="translate(-28.33)"/><circle class="cls-13" cx="745.2" cy="382.22" r="1.3"/><path class="cls-39" d="M788.4,386.33l-2.61,5.22L788.4,395s13.05,1.78,10.44-.83A11.41,11.41,0,0,0,788.4,386.33Z" transform="translate(-28.33)"/><rect class="cls-12" x="801.29" y="402.08" width="12.61" height="26.8" rx="6.3" transform="translate(488.31 -444.86) rotate(44.09)"/><path class="cls-42" d="M793.6,411.8s-8.78,9.05-.85,16.73c6.79,6.58,13.79,6.15,19,.81" transform="translate(-28.33)"/><rect class="cls-15" x="786.8" y="427.87" width="3.15" height="12.61" transform="translate(495.91 -426.22) rotate(44.09)"/><line class="cls-42" x1="769.51" y1="398.35" x2="778.31" y2="443.09"/><line class="cls-43" x1="771.26" y1="398.4" x2="780.06" y2="443.14"/><path class="cls-37" d="M757.18,419s22.74,1.17,33.47,16.67c2.35,4.71-1.5,5.34-7.5,4.17-11.11-2.18-29.58-10.54-29.58-10.54" transform="translate(-28.33)"/><rect class="cls-44" x="891.52" y="406.18" width="35.45" height="48.95" rx="7.57" transform="translate(88.27 -188.94) rotate(12.67)"/><rect class="cls-45" x="890.74" y="415.28" width="7.6" height="3.8" rx="1.71" transform="translate(84.95 -186.04) rotate(12.67)"/><rect class="cls-45" x="888.52" y="425.17" width="7.6" height="3.8" rx="1.71" transform="translate(87.07 -185.32) rotate(12.67)"/><rect class="cls-45" x="886.3" y="435.05" width="7.6" height="3.8" rx="1.71" transform="translate(89.18 -184.59) rotate(12.67)"/><rect class="cls-15" x="903.86" y="415.8" width="16.88" height="2.53" transform="translate(85.36 -189.94) rotate(12.67)"/><rect class="cls-15" x="901.77" y="421.95" width="21.94" height="1.69" transform="translate(86.63 -189.9) rotate(12.67)"/><rect class="cls-15" x="900.74" y="426.15" width="15.19" height="1.69" transform="translate(87.44 -188.83) rotate(12.67)"/><rect class="cls-15" x="899.3" y="432.36" width="11.82" height="1.69" transform="translate(88.73 -187.99) rotate(12.67)"/><path class="cls-37" d="M894,387.48s-7.81-15.63-20.84-15.63c-18.23,0-28.65,49.49-26,65.12s-23.44,33.86-7.81,28.65c10.42-7.81,9.11-7,15.31,1.31,2.92,3.9,21.16,3.9,23.76,1.3,0-2.61-10.42-2.61-7.81-7.82s18.23-20.84,15.63-31.26-7.42-28.78,0-31.25c7.81-2.61,18.23-2.61,18.23-2.61s-2.6-5.21-5.21-5.21S894,387.48,894,387.48Z" transform="translate(-28.33)"/><path class="cls-38" d="M882.81,401.9s-12.09,2.38-13.48,13.52-.52,37,2.95,42.28l11.15-16.18S884.66,418.92,882.81,401.9Z" transform="translate(-28.33)"/><path class="cls-37" d="M863.33,420.31S886,421.47,896.75,437c2.34,4.7-1.51,5.33-7.49,4.16-11.09-2.17-29.54-10.52-29.54-10.52" transform="translate(-28.33)"/><circle class="cls-13" cx="851.32" cy="383.57" r="1.3"/><path class="cls-39" d="M894.5,387.67l-2.61,5.21,2.61,3.44s13,1.77,10.42-.83A11.4,11.4,0,0,0,894.5,387.67Z" transform="translate(-28.33)"/><rect class="cls-13" x="89" y="258.49" width="29" height="55.59" rx="7.48" transform="translate(102.51 -16.9) rotate(25.03)"/><rect class="cls-13" x="95.88" y="266.19" width="19.34" height="31.42" rx="3.73" transform="translate(100.85 -18.18) rotate(25.03)"/><circle class="cls-13" cx="66.48" cy="304.89" r="2.42"/><path class="cls-46" d="M87.24,250.85S80,236.34,67.9,236.34c-16.91,0-26.58,45.93-24.17,60.43S22,328.19,36.48,323.35c9.67-7.25,8.46-6.47,14.21,1.21,2.71,3.63,19.63,3.63,22,1.21,0-2.42-9.67-2.42-7.25-7.25s16.92-19.34,14.5-29-6.88-26.71,0-29c7.25-2.41,16.92-2.41,16.92-2.41s-2.42-4.84-4.84-4.84S87.24,250.85,87.24,250.85Z" transform="translate(-28.33)"/><path class="cls-47" d="M76.87,264.23s-11.21,2.21-12.51,12.54-.47,34.3,2.74,39.23l10.35-15S78.59,280,76.87,264.23Z" transform="translate(-28.33)"/><path class="cls-46" d="M58.8,281.31s21.06,1.08,31,15.44c2.18,4.36-1.39,4.94-6.94,3.86-10.3-2-27.41-9.76-27.41-9.76" transform="translate(-28.33)"/><path class="cls-48" d="M87,250.52s-23.18-11-22.59-13-4.91,2.43-6.41,4,26.32,12.61,27,15S87,250.52,87,250.52Z" transform="translate(-28.33)"/><circle class="cls-49" cx="45.52" cy="247.32" r="1.11"/><path class="cls-50" d="M87.24,250.85l-2.42,4.83,2.42,3.19s12.08,1.64,9.67-.77A10.57,10.57,0,0,0,87.24,250.85Z" transform="translate(-28.33)"/><rect class="cls-13" x="157.03" y="282.16" width="58.47" height="36.55" rx="7.06"/><polygon class="cls-13" points="178.95 293.13 178.95 309.57 197.23 299.54 178.95 293.13"/><path class="cls-46" d="M194.39,260.35s-6.5-13-17.34-13c-15.16,0-23.83,41.16-21.66,54.16s-19.5,28.17-6.5,23.83c8.67-6.5,7.58-5.8,12.73,1.09,2.44,3.25,17.6,3.25,19.77,1.08,0-2.17-8.67-2.17-6.5-6.5s15.16-17.33,13-26-6.17-23.94,0-26c6.5-2.17,15.16-2.17,15.16-2.17s-2.16-4.33-4.33-4.33S194.39,260.35,194.39,260.35Z" transform="translate(-28.33)"/><path class="cls-47" d="M185.09,272.34s-10.05,2-11.21,11.25-.43,30.74,2.46,35.17l9.27-13.46S186.63,286.5,185.09,272.34Z" transform="translate(-28.33)"/><path class="cls-46" d="M168.89,287.66s18.89,1,27.8,13.84c1.94,3.91-1.26,4.43-6.23,3.46-9.23-1.81-24.57-8.75-24.57-8.75" transform="translate(-28.33)"/><path class="cls-48" d="M194.13,260.06s-20.78-9.85-20.25-11.65-4.4,2.19-5.74,3.58,23.59,11.3,24.2,13.44S194.13,260.06,194.13,260.06Z" transform="translate(-28.33)"/><circle class="cls-49" cx="154.05" cy="257.19" r="0.99"/><path class="cls-50" d="M194.39,260.35l-2.17,4.33,2.17,2.86s10.83,1.48,8.66-.69A9.46,9.46,0,0,0,194.39,260.35Z" transform="translate(-28.33)"/><rect class="cls-12" x="317.19" y="277.31" width="7.5" height="31.08" rx="3.47" transform="translate(264.48 -140.71) rotate(43.91)"/><circle class="cls-51" cx="312.99" cy="272.49" r="13.9"/><path class="cls-46" d="M317.61,251.11s-7.25-14.5-19.33-14.5c-16.92,0-26.59,45.92-24.17,60.42s-21.75,31.42-7.25,26.59c9.66-7.25,8.45-6.48,14.2,1.21,2.72,3.62,19.63,3.62,22.05,1.2,0-2.41-9.67-2.41-7.25-7.25s16.92-19.33,14.5-29-6.88-26.71,0-29c7.25-2.42,16.92-2.42,16.92-2.42s-2.42-4.83-4.83-4.83S317.61,251.11,317.61,251.11Z" transform="translate(-28.33)"/><path class="cls-47" d="M307.24,264.49S296,266.7,294.74,277s-.48,34.31,2.74,39.24l10.34-15S309,280.28,307.24,264.49Z" transform="translate(-28.33)"/><path class="cls-46" d="M289.17,281.58s21.07,1.07,31,15.43c2.17,4.37-1.4,4.95-6.95,3.86-10.29-2-27.4-9.76-27.4-9.76" transform="translate(-28.33)"/><path class="cls-48" d="M317.33,250.78s-23.18-11-22.59-13-4.91,2.44-6.41,4,26.31,12.61,27,15S317.33,250.78,317.33,250.78Z" transform="translate(-28.33)"/><circle class="cls-49" cx="275.89" cy="247.58" r="1.11"/><path class="cls-50" d="M317.61,251.11l-2.41,4.83,2.41,3.19s12.09,1.65,9.67-.77A10.57,10.57,0,0,0,317.61,251.11Z" transform="translate(-28.33)"/><path class="cls-12" d="M466.69,308.22a21.72,21.72,0,1,1-30.6-26.54,21.67,21.67,0,0,1,17.52-1.25A21.72,21.72,0,0,1,466.69,308.22Z" transform="translate(-28.33)"/><path class="cls-12" d="M445.22,258.58l3.37,21.49,10.9,3.92,12.08-11.32c-2,.16-10.57.33-10.25-3.53s-10.51-6.63-7.78-7.56S445.22,258.58,445.22,258.58Z" transform="translate(-28.33)"/><text class="cls-52" transform="translate(405.78 309.65) rotate(19.8)">¥</text><path class="cls-46" d="M432.29,251.11S425,236.61,413,236.61c-16.92,0-26.59,45.92-24.17,60.42s-21.75,31.42-7.25,26.59c9.67-7.25,8.45-6.48,14.2,1.21,2.72,3.62,19.63,3.62,22.05,1.2,0-2.41-9.67-2.41-7.25-7.25s16.92-19.33,14.5-29-6.88-26.71,0-29c7.25-2.42,16.92-2.42,16.92-2.42s-2.42-4.83-4.83-4.83S432.29,251.11,432.29,251.11Z" transform="translate(-28.33)"/><path class="cls-47" d="M421.92,264.49s-11.21,2.21-12.5,12.54-.48,34.31,2.74,39.24l10.35-15S423.64,280.28,421.92,264.49Z" transform="translate(-28.33)"/><path class="cls-46" d="M403.85,281.58s21.07,1.07,31,15.43c2.17,4.37-1.4,4.95-6.95,3.86-10.29-2-27.4-9.76-27.4-9.76" transform="translate(-28.33)"/><path class="cls-48" d="M432,250.78s-23.18-11-22.59-13-4.91,2.44-6.41,4,26.32,12.61,27,15S432,250.78,432,250.78Z" transform="translate(-28.33)"/><circle class="cls-49" cx="390.57" cy="247.58" r="1.11"/><path class="cls-50" d="M432.29,251.11l-2.41,4.83,2.41,3.19s12.09,1.65,9.67-.77A10.57,10.57,0,0,0,432.29,251.11Z" transform="translate(-28.33)"/><rect class="cls-12" x="542.59" y="281.05" width="4.4" height="33.01" transform="translate(60.43 -123.6) rotate(14.08)"/><rect class="cls-12" x="548.99" y="300.53" width="4.4" height="15.41" transform="translate(63.22 -124.84) rotate(14.08)"/><rect class="cls-12" x="558.06" y="298.34" width="4.4" height="19.81" transform="translate(63.5 -127.05) rotate(14.08)"/><rect class="cls-12" x="567.41" y="293.98" width="4.4" height="26.41" transform="translate(63.52 -129.35) rotate(14.08)"/><rect class="cls-12" x="576.48" y="291.78" width="4.4" height="30.81" transform="translate(63.79 -131.56) rotate(14.08)"/><rect class="cls-12" x="543.55" y="270.71" width="13.2" height="11" transform="translate(55.4 -125.55) rotate(14.08)"/><path class="cls-46" d="M544.73,251.32s-7.25-14.5-19.34-14.5c-16.91,0-26.58,45.92-24.17,60.43s-21.75,31.42-7.25,26.58c9.67-7.25,8.46-6.48,14.21,1.21,2.71,3.63,19.63,3.63,22.05,1.21,0-2.42-9.67-2.42-7.25-7.25s16.92-19.34,14.5-29-6.88-26.71,0-29c7.25-2.41,16.92-2.41,16.92-2.41s-2.42-4.84-4.84-4.84S544.73,251.32,544.73,251.32Z" transform="translate(-28.33)"/><path class="cls-47" d="M534.36,264.7s-11.21,2.22-12.51,12.55-.47,34.3,2.74,39.23l10.35-15S536.08,280.5,534.36,264.7Z" transform="translate(-28.33)"/><path class="cls-46" d="M516.29,281.79s21.06,1.08,31,15.44c2.18,4.36-1.39,4.94-6.94,3.86-10.3-2-27.41-9.76-27.41-9.76" transform="translate(-28.33)"/><path class="cls-48" d="M544.45,251s-23.19-11-22.6-13-4.9,2.44-6.4,4,26.31,12.61,27,15S544.45,251,544.45,251Z" transform="translate(-28.33)"/><circle class="cls-49" cx="503.01" cy="247.8" r="1.11"/><path class="cls-50" d="M544.73,251.32l-2.42,4.84,2.42,3.19s12.08,1.64,9.67-.77A10.57,10.57,0,0,0,544.73,251.32Z" transform="translate(-28.33)"/><path class="cls-13" d="M661,318.17l9.67-18.83a1.07,1.07,0,0,1,2,.35l1.1,8.12a1.11,1.11,0,0,0,2.07.4L686,290.29a.78.78,0,0,1,1.45.33l2.29,32.1a2.74,2.74,0,0,1-3.49,2.81l-23.86-6.95Z" transform="translate(-28.33)"/><path class="cls-12" d="M689.77,325.3l-3.11-13.44a1,1,0,0,0-1.84-.37l-6.42,8.86a1,1,0,0,1-1.68,0l-4-5.7a1,1,0,0,0-1.61-.09l-2.66,3a1,1,0,0,1-1.66-.17l-.89-1.53a1,1,0,0,0-1.53-.29L662.58,317a1,1,0,0,0,.34,1.79l25.54,7.78A1,1,0,0,0,689.77,325.3Z" transform="translate(-28.33)"/><path class="cls-42" d="M657.34,278.89h36.28a3.43,3.43,0,0,1,3.43,3.43v36.93a2.64,2.64,0,0,1-2.64,2.64h-38a2.37,2.37,0,0,1-2.37-2.37V282.18a3.28,3.28,0,0,1,3.28-3.28Z" transform="translate(82.72 -177.04) rotate(16.25)"/><circle class="cls-41" cx="643.14" cy="285.42" r="3.64"/><path class="cls-46" d="M661.69,251.32s-7.25-14.5-19.34-14.5c-16.91,0-26.58,45.92-24.16,60.43s-21.76,31.42-7.26,26.58c9.67-7.25,8.46-6.48,14.21,1.21,2.71,3.63,19.63,3.63,22.05,1.21,0-2.42-9.67-2.42-7.25-7.25s16.92-19.34,14.5-29-6.88-26.71,0-29c7.25-2.41,16.92-2.41,16.92-2.41s-2.42-4.84-4.84-4.84S661.69,251.32,661.69,251.32Z" transform="translate(-28.33)"/><path class="cls-47" d="M651.32,264.7s-11.21,2.22-12.51,12.55-.47,34.3,2.74,39.23l10.35-15S653,280.5,651.32,264.7Z" transform="translate(-28.33)"/><path class="cls-46" d="M633.25,281.79s21.06,1.08,31,15.44c2.18,4.36-1.39,4.94-6.94,3.86-10.3-2-27.41-9.76-27.41-9.76" transform="translate(-28.33)"/><path class="cls-48" d="M661.41,251s-23.19-11-22.6-13-4.9,2.44-6.4,4,26.31,12.61,27,15S661.41,251,661.41,251Z" transform="translate(-28.33)"/><circle class="cls-49" cx="619.97" cy="247.8" r="1.11"/><path class="cls-50" d="M661.69,251.32l-2.42,4.84,2.42,3.19s12.08,1.64,9.67-.77A10.57,10.57,0,0,0,661.69,251.32Z" transform="translate(-28.33)"/><path class="cls-12" d="M795.43,258.66l-11.6,14.14,12.62,11.52,12.17-14.84s11.54,9.47,3.43,19.37-22.84,2.6-22.84,2.6l-20.12,22.84-5.39-4.42,19.4-22.71s-10.5-14.13-2.38-24S795.43,258.66,795.43,258.66Z" transform="translate(-28.33)"/><path class="cls-46" d="M776.28,251.7S769,237.2,757,237.2c-16.92,0-26.59,45.92-24.17,60.43s-21.75,31.42-7.25,26.58c9.66-7.25,8.45-6.48,14.2,1.21,2.72,3.63,19.63,3.63,22,1.21,0-2.42-9.67-2.42-7.25-7.25s16.92-19.34,14.5-29-6.88-26.71,0-29C776.28,259,786,259,786,259s-2.42-4.83-4.83-4.83S776.28,251.7,776.28,251.7Z" transform="translate(-28.33)"/><path class="cls-47" d="M765.91,265.08s-11.21,2.22-12.5,12.55-.48,34.3,2.74,39.23l10.34-15S767.63,280.88,765.91,265.08Z" transform="translate(-28.33)"/><path class="cls-46" d="M747.84,282.17s21.07,1.08,31,15.44c2.17,4.36-1.4,4.94-7,3.86-10.29-2-27.4-9.76-27.4-9.76" transform="translate(-28.33)"/><path class="cls-48" d="M776,251.38s-23.18-11-22.59-13-4.91,2.44-6.41,4,26.31,12.61,27,15S776,251.38,776,251.38Z" transform="translate(-28.33)"/><circle class="cls-49" cx="734.56" cy="248.18" r="1.11"/><path class="cls-50" d="M776.28,251.7l-2.41,4.84,2.41,3.18s12.09,1.65,9.67-.77A10.57,10.57,0,0,0,776.28,251.7Z" transform="translate(-28.33)"/><circle class="cls-53" cx="879.42" cy="301.17" r="20.53"/><rect class="cls-1" x="875.32" y="294.46" width="2.29" height="10.87"/><rect class="cls-1" x="881.22" y="294.46" width="2.29" height="10.87"/><path class="cls-46" d="M890.73,252.05s-7.09-14.18-18.91-14.18c-16.54,0-26,44.9-23.63,59.08s-21.27,30.73-7.09,26c9.45-7.09,8.27-6.33,13.89,1.18,2.65,3.55,19.2,3.55,21.56,1.18,0-2.36-9.45-2.36-7.09-7.09s16.54-18.9,14.18-28.36-6.73-26.11,0-28.35c7.09-2.37,16.54-2.37,16.54-2.37s-2.36-4.72-4.72-4.72S890.73,252.05,890.73,252.05Z" transform="translate(-28.33)"/><path class="cls-47" d="M880.59,265.13s-11,2.17-12.23,12.27-.47,33.54,2.68,38.36l10.12-14.68S882.27,280.58,880.59,265.13Z" transform="translate(-28.33)"/><path class="cls-46" d="M862.92,281.84s20.6,1.05,30.32,15.1c2.12,4.26-1.37,4.83-6.8,3.77-10.06-2-26.79-9.54-26.79-9.54" transform="translate(-28.33)"/><path class="cls-48" d="M890.45,251.73S867.78,241,868.36,239s-4.8,2.38-6.27,3.9,25.74,12.33,26.41,14.67S890.45,251.73,890.45,251.73Z" transform="translate(-28.33)"/><circle class="cls-49" cx="849.3" cy="248.6" r="1.08"/><path class="cls-50" d="M890.73,252.05l-2.36,4.73,2.36,3.11s11.82,1.62,9.45-.75A10.33,10.33,0,0,0,890.73,252.05Z" transform="translate(-28.33)"/><circle class="cls-13" cx="992.46" cy="303.76" r="19.85"/><polygon class="cls-12" points="1015.93 291.96 1018.14 297.68 1016.81 298.2 1014.6 292.48 1015.93 291.96"/><rect class="cls-41" x="1027.12" y="279.17" width="4.96" height="2.22" transform="translate(117.13 -317.15) rotate(18.82)"/><text class="cls-54" transform="translate(978.13 306.39) rotate(18.82)">60</text><path class="cls-46" d="M1005.84,250.79s-7.26-14.5-19.34-14.5c-16.92,0-26.59,45.92-24.17,60.42s-21.75,31.42-7.25,26.59c9.67-7.25,8.46-6.48,14.21,1.2,2.71,3.63,19.63,3.63,22,1.21,0-2.41-9.66-2.41-7.25-7.25s16.92-19.33,14.5-29-6.87-26.71,0-29c7.26-2.42,16.92-2.42,16.92-2.42s-2.41-4.83-4.83-4.83S1005.84,250.79,1005.84,250.79Z" transform="translate(-28.33)"/><path class="cls-47" d="M995.47,264.17s-11.22,2.21-12.51,12.54S982.48,311,985.7,316l10.35-15S997.18,280,995.47,264.17Z" transform="translate(-28.33)"/><path class="cls-46" d="M977.4,281.25s21.06,1.08,31,15.44c2.17,4.36-1.4,4.95-6.95,3.86-10.29-2-27.4-9.76-27.4-9.76" transform="translate(-28.33)"/><path class="cls-48" d="M1005.55,250.46s-23.18-11-22.59-13-4.91,2.44-6.41,4,26.32,12.61,27,15S1005.55,250.46,1005.55,250.46Z" transform="translate(-28.33)"/><circle class="cls-49" cx="964.11" cy="247.26" r="1.11"/><path class="cls-50" d="M1005.84,250.79l-2.42,4.83,2.42,3.19s12.08,1.65,9.66-.77A10.56,10.56,0,0,0,1005.84,250.79Z" transform="translate(-28.33)"/><path class="cls-13" d="M1144.32,259.48l-18.89,26.7a27.92,27.92,0,0,0-3.06,27.27c2.29,5.23,6.32,9.93,13.33,11.55,7.47,1.73,13.06-1.25,17.06-5.46a26.58,26.58,0,0,0,6.37-24.42l-8-34.32A3.78,3.78,0,0,0,1144.32,259.48Z" transform="translate(-28.33)"/><rect class="cls-41" x="1139.39" y="285.43" width="3.2" height="22.38" transform="translate(68 -249.76) rotate(13.04)"/><rect class="cls-41" x="1129.8" y="295.02" width="22.38" height="3.2" transform="translate(68 -249.76) rotate(13.04)"/><path class="cls-46" d="M1124.17,250.2s-7.25-14.5-19.34-14.5c-16.91,0-26.58,45.92-24.17,60.42s-21.75,31.42-7.25,26.59c9.67-7.25,8.46-6.48,14.21,1.21,2.71,3.62,19.63,3.62,22.05,1.21,0-2.42-9.67-2.42-7.25-7.26s16.92-19.33,14.5-29-6.88-26.71,0-29c7.25-2.42,16.92-2.42,16.92-2.42s-2.42-4.83-4.84-4.83S1124.17,250.2,1124.17,250.2Z" transform="translate(-28.33)"/><path class="cls-47" d="M1113.8,263.58s-11.21,2.21-12.51,12.54-.47,34.31,2.74,39.24l10.35-15S1115.52,279.38,1113.8,263.58Z" transform="translate(-28.33)"/><path class="cls-46" d="M1095.73,280.67s21.06,1.07,31,15.43c2.18,4.37-1.39,4.95-6.94,3.86-10.3-2-27.41-9.75-27.41-9.75" transform="translate(-28.33)"/><path class="cls-48" d="M1123.89,249.87s-23.19-11-22.6-13-4.9,2.44-6.4,4,26.31,12.61,27,15S1123.89,249.87,1123.89,249.87Z" transform="translate(-28.33)"/><circle class="cls-49" cx="1082.45" cy="246.68" r="1.11"/><path class="cls-50" d="M1124.17,250.2l-2.42,4.83,2.42,3.19s12.08,1.65,9.67-.77A10.57,10.57,0,0,0,1124.17,250.2Z" transform="translate(-28.33)"/><path class="cls-13" d="M1004.84,448.12h0c-4.71-6.74-2.33-16.54,5.32-21.89l12.32-8.61c4.87-3.4,11.24-2.68,14.24,1.61l3.1,4.44,3.51,5c2.78,4,1.37,9.75-3.13,12.9l-13,9.07C1019.57,456,1009.56,454.86,1004.84,448.12Z" transform="translate(-28.33)"/><polyline class="cls-13" points="1010.68 424.23 1000.52 431.34 991.99 419.13 1008.15 442.26"/><path class="cls-37" d="M1007.48,388.9S1000,374,987.57,374c-17.41,0-27.37,47.28-24.88,62.21s-22.39,32.34-7.46,27.37c9.95-7.47,8.7-6.67,14.62,1.24,2.79,3.73,20.21,3.73,22.7,1.24,0-2.48-9.95-2.48-7.47-7.46s17.42-19.91,14.93-29.86-7.08-27.49,0-29.85c7.47-2.49,17.42-2.49,17.42-2.49s-2.49-5-5-5S1007.48,388.9,1007.48,388.9Z" transform="translate(-28.33)"/><path class="cls-38" d="M996.8,402.68s-11.54,2.28-12.87,12.91-.49,35.31,2.82,40.39l10.65-15.46S998.57,418.94,996.8,402.68Z" transform="translate(-28.33)"/><path class="cls-37" d="M978.2,420.27s21.69,1.1,31.92,15.89c2.23,4.49-1.44,5.09-7.15,4-10.6-2.07-28.21-10-28.21-10" transform="translate(-28.33)"/><circle class="cls-13" cx="965.46" cy="385.17" r="1.24"/><path class="cls-39" d="M1008,389.09l-2.49,5,2.49,3.28s12.44,1.69,9.95-.79A10.88,10.88,0,0,0,1008,389.09Z" transform="translate(-28.33)"/><rect class="cls-45" x="1119.4" y="417.73" width="36.65" height="41.64" transform="translate(166.73 -334.84) rotate(18.29)"/><path class="cls-26" d="M1146.45,425.42l-1.5,4.31-4.17-1.37a16.83,16.83,0,0,0-4.62,14l4.23,1.4-1.53,4.63-7.66-2.53a49.94,49.94,0,0,1,7.59-23Z" transform="translate(-28.33)"/><path class="cls-26" d="M1117.46,446.76c1.06,2.11,31.11,12,31.11,12s-32.67-7.29-32.17-14.14" transform="translate(-28.33)"/><path class="cls-37" d="M1123.28,395.4s-7-14-18.67-14c-16.34,0-25.67,44.35-23.34,58.35s-21,30.34-7,25.68c9.33-7,8.16-6.26,13.72,1.16,2.62,3.5,19,3.5,21.29,1.17,0-2.33-9.34-2.33-7-7s16.33-18.67,14-28-6.64-25.79,0-28c7-2.33,16.34-2.33,16.34-2.33s-2.34-4.67-4.67-4.67S1123.28,395.4,1123.28,395.4Z" transform="translate(-28.33)"/><path class="cls-38" d="M1113.27,408.32s-10.83,2.14-12.08,12.11-.46,33.13,2.65,37.89l10-14.5S1114.92,423.57,1113.27,408.32Z" transform="translate(-28.33)"/><path class="cls-37" d="M1095.82,424.82s20.34,1,29.94,14.9c2.1,4.22-1.35,4.78-6.71,3.73-9.94-1.94-26.46-9.42-26.46-9.42" transform="translate(-28.33)"/><circle class="cls-13" cx="1082.11" cy="391.9" r="1.17"/><path class="cls-39" d="M1123.74,395.57l-2.33,4.67,2.33,3.08s11.67,1.59,9.34-.74A10.21,10.21,0,0,0,1123.74,395.57Z" transform="translate(-28.33)"/><ellipse class="cls-14" cx="174.23" cy="603.48" rx="3.12" ry="7.01" transform="translate(-475.51 511.85) rotate(-65.51)"/><ellipse class="cls-14" cx="187" cy="598.03" rx="3.12" ry="7.01" transform="translate(-463.07 520.28) rotate(-65.51)"/><path class="cls-14" d="M193,553.09c.84,2.49,7.78,24.15,1.48,37.15-7.34,15.15-24.62,13.38-26.39,9.58a.21.21,0,0,0-.3-.11c-4,2.2-15.19,2.39-18.38-1.54a.26.26,0,0,1,0-.28c2.74-4.68,10.86-8.9,13.27-25.56.39-9.41,9.24-18.69,8.46-17.91s-11.69-17.92,8.56-21c12.47-1.56,14.5,9.59,14.76,10.06a.21.21,0,0,0,.13.09L198.8,545a.24.24,0,0,1,.09.39l-3.52,3.51a.23.23,0,0,0-.05.25C195.56,549.69,193,553,193,553.09Z" transform="translate(-28.33)"/><path class="cls-13" d="M195.57,566.35s5.57,25.27-9.2,31.93-18.58.3-18.58.3C169.05,596.08,190.53,545.46,195.57,566.35Z" transform="translate(-28.33)"/><ellipse class="cls-10" cx="152.91" cy="547.41" rx="13.24" ry="10.12"/><circle class="cls-15" cx="155.25" cy="543.51" r="1.56"/><path class="cls-16" d="M194.27,548.88l-2.12,1.64s-6.53-2.47-3.12-4.67c1.62-1-.16-8.24-7.79-7.79-3.11.19-12.46,4.68-1.56,15.58-1.55,1.56-12.46,3.11-12.18-9.32.1-4.87,1.39-9.66,14.57-11.08,8.28-.17,10.08,4.82,12.37,10.21,5.35,1.49,4.36,1.5,4.36,1.5h0A16.56,16.56,0,0,1,194.27,548.88Z" transform="translate(-28.33)"/><path class="cls-14" d="M182.2,564h0c-1.39,4.84,7.22,13.4,21.06,14.45,5.43.42,7.58,6.26-5.16,8.62-5.29,1-20.82-10.4-21-15.51l-.14-.49" transform="translate(-28.33)"/><path class="cls-13" d="M223,595.09" transform="translate(-28.33)"/><path class="cls-13" d="M202.49,565.27s-.9,9.06-1.17,9.81l-4,11.07a4.33,4.33,0,0,0,2.23,5.41h0a4.34,4.34,0,0,0,5.86-2.26l4.86-11.69c.32-.78,5.05-6.43,6.91-8.59a4.39,4.39,0,0,0,.77-1.14l11.5-24.3c.95-2.41,1.08-4.55-1.41-5.24l-7.87-2.15c-2-.56-4.42-.13-5.33,1.77C214.82,538,202.31,564.35,202.49,565.27Z" transform="translate(-28.33)"/><rect class="cls-13" x="193.26" y="591.23" width="10.66" height="5.31" rx="2.26" transform="translate(193.65 -31.89) rotate(20.63)"/><rect class="cls-38" x="200.11" y="578.66" width="7.79" height="3.27" transform="matrix(0.86, 0.51, -0.51, 0.86, 295.95, -22.94)"/><rect class="cls-38" x="198.47" y="584.67" width="7.79" height="3.27" transform="translate(298.79 -21.26) rotate(30.65)"/><circle class="cls-13" cx="197.82" cy="582.57" r="5.45"/><path class="cls-13" d="M226.84,577.11s-2.33,7.71-5.4,7.54" transform="translate(-28.33)"/><path class="cls-13" d="M231.07,580.23s-6.28,4.39-5.61,7.8" transform="translate(-28.33)"/><ellipse class="cls-14" cx="289.06" cy="604.54" rx="3.18" ry="7.28" transform="translate(-408.99 627.16) rotate(-66.38)"/><ellipse class="cls-14" cx="302.38" cy="599.01" rx="3.18" ry="7.28" transform="translate(-395.93 636.05) rotate(-66.38)"/><path class="cls-14" d="M308.64,553.39c.87,2.53,8.12,24.52,1.55,37.71-7.66,15.38-25.7,13.58-27.54,9.73a.23.23,0,0,0-.32-.12c-4.22,2.24-15.84,2.43-19.17-1.57a.23.23,0,0,1,0-.28c2.86-4.75,11.33-9,13.85-25.94.4-9.55,9.63-19,8.82-18.18s-12.19-18.19,8.94-21.35c13-1.58,15.12,9.74,15.4,10.21a.22.22,0,0,0,.13.1l4.41,1.43a.23.23,0,0,1,.09.39l-3.66,3.57a.22.22,0,0,0-.06.25C311.31,549.94,308.6,553.26,308.64,553.39Z" transform="translate(-28.33)"/><path class="cls-13" d="M311.32,566.85s5.81,25.65-9.59,32.41-19.4.31-19.4.31C283.65,597,306.07,545.65,311.32,566.85Z" transform="translate(-28.33)"/><ellipse class="cls-10" cx="268.04" cy="547.62" rx="13.82" ry="10.28"/><ellipse class="cls-15" cx="270.48" cy="543.67" rx="1.63" ry="1.58"/><path class="cls-16" d="M310,549.11l-2.22,1.67s-6.81-2.51-3.25-4.74c1.69-1.06-.17-8.36-8.13-7.9-3.24.18-13,4.74-1.62,15.81-1.63,1.58-13,3.16-12.72-9.46.11-5,1.45-9.81,15.21-11.25,8.64-.17,10.51,4.9,12.91,10.36,5.58,1.52,4.54,1.53,4.54,1.53h0A16.9,16.9,0,0,1,310,549.11Z" transform="translate(-28.33)"/><path class="cls-14" d="M297.37,564.49h0c-1.44,4.92,7.54,13.6,22,14.67,5.66.43,7.9,6.36-5.39,8.75-5.52,1-21.73-10.56-22-15.75l-.15-.49" transform="translate(-28.33)"/><path class="cls-13" d="M318.93,552l38.37,13.26a2.21,2.21,0,0,1,1.08,3.44l-11.09,14.59a3.45,3.45,0,0,1-3.71,1.21l-4-1.16a2.24,2.24,0,0,0-2.72,1.35l-2.56,7-16-5.52,3.15-8.63c.15-.4-1.88-1-2.3-1.14l-3.06-1.06c-.34-.12-.47-3.16-.45-3.51l-1.77-14C314.59,554.74,312.5,550,318.93,552Z" transform="translate(-28.33)"/><path class="cls-13" d="M325.47,551.05c1.41-.54,7.64-3.42,5.66-7.46s-1.49-7.25.67-9.85" transform="translate(-28.33)"/><path class="cls-13" d="M336.2,554.76c1.4-.54,7.63-3.42,5.65-7.46s-1.49-7.25.67-9.85" transform="translate(-28.33)"/><path class="cls-13" d="M348.45,559c1.4-.55,7.63-3.43,5.66-7.47s-1.49-7.25.66-9.85" transform="translate(-28.33)"/><ellipse class="cls-17" cx="513.53" cy="603.28" rx="2.93" ry="6.71" transform="translate(-273.3 832.07) rotate(-66.38)"/><ellipse class="cls-17" cx="525.82" cy="598.18" rx="2.93" ry="6.71" transform="translate(-261.26 840.26) rotate(-66.38)"/><path class="cls-17" d="M531.59,556.13c.8,2.33,7.48,22.6,1.42,34.76-7.06,14.17-23.68,12.52-25.38,9a.21.21,0,0,0-.29-.11c-3.89,2.06-14.61,2.24-17.68-1.45a.22.22,0,0,1,0-.26c2.64-4.38,10.44-8.32,12.77-23.91.37-8.8,8.88-17.49,8.13-16.76s-11.24-16.76,8.24-19.67c12-1.46,13.94,9,14.19,9.41a.27.27,0,0,0,.12.09l4.07,1.32a.22.22,0,0,1,.09.36l-3.38,3.29a.19.19,0,0,0,0,.23C534.05,553,531.55,556,531.59,556.13Z" transform="translate(-28.33)"/><path class="cls-18" d="M534.05,568.54s5.36,23.64-8.84,29.87-17.87.29-17.87.29C508.55,596.35,529.21,549,534.05,568.54Z" transform="translate(-28.33)"/><ellipse class="cls-10" cx="491.94" cy="550.81" rx="12.73" ry="9.47"/><ellipse class="cls-19" cx="494.19" cy="547.17" rx="1.5" ry="1.46"/><path class="cls-20" d="M532.81,552.19l-2,1.54s-6.27-2.32-3-4.37c1.55-1-.16-7.71-7.5-7.29-3,.17-12,4.37-1.49,14.57-1.5,1.46-12,2.92-11.73-8.72.11-4.55,1.34-9,14-10.36,8-.16,9.68,4.51,11.89,9.55,5.15,1.39,4.19,1.41,4.19,1.41h0A15.86,15.86,0,0,1,532.81,552.19Z" transform="translate(-28.33)"/><path class="cls-17" d="M516.18,566.28h0c1.89,4.33,13.38,5.13,24.21-2.68,4.24-3.06,9.34-.2,1.38,9.37-3.3,4-21.59,5.43-24.83,1.91l-.4-.26" transform="translate(-28.33)"/><path class="cls-13" d="M543.75,573.21l35,4.59s12.14-.69,9.83-12.63-10-15.48-16.85-7.69c-3.05,3.48,4.48-7.3,2.74-11.55s-11.5-7.29-16.68-5.13-7.76,5.45-8,11.35c-.22,6.3-2.14-8.8-12.55,1.47S533.74,570.6,543.75,573.21Z" transform="translate(-28.33)"/><path class="cls-13" d="M543,577.8s-7,6.61-4.47,7.89S544.89,582.75,543,577.8Z" transform="translate(-28.33)"/><path class="cls-13" d="M554.53,579.09s-7,6.6-4.47,7.88S556.43,584,554.53,579.09Z" transform="translate(-28.33)"/><path class="cls-13" d="M568.64,580.37s-7,6.6-4.47,7.88S570.54,585.31,568.64,580.37Z" transform="translate(-28.33)"/><ellipse class="cls-21" cx="749.31" cy="607.39" rx="3.05" ry="6.99" transform="translate(-135.76 1050.55) rotate(-66.38)"/><ellipse class="cls-21" cx="762.1" cy="602.08" rx="3.05" ry="6.99" transform="translate(-123.22 1059.09) rotate(-66.38)"/><path class="cls-21" d="M768.11,558.29c.83,2.43,7.79,23.53,1.48,36.2-7.35,14.75-24.66,13-26.43,9.33a.21.21,0,0,0-.3-.11c-4.06,2.15-15.21,2.33-18.41-1.5a.23.23,0,0,1,0-.27c2.74-4.56,10.87-8.67,13.29-24.9.39-9.17,9.25-18.22,8.47-17.46s-11.7-17.45,8.58-20.49c12.48-1.51,14.52,9.35,14.78,9.8a.22.22,0,0,0,.13.1l4.23,1.37a.22.22,0,0,1,.09.38l-3.52,3.42a.22.22,0,0,0-.05.24C770.67,555,768.07,558.17,768.11,558.29Z" transform="translate(-28.33)"/><path class="cls-22" d="M770.68,571.21s5.58,24.62-9.21,31.11-18.61.3-18.61.3C744.12,600.17,765.64,550.86,770.68,571.21Z" transform="translate(-28.33)"/><ellipse class="cls-10" cx="728" cy="552.75" rx="13.26" ry="9.87"/><ellipse class="cls-23" cx="730.34" cy="548.96" rx="1.56" ry="1.52"/><path class="cls-24" d="M769.38,554.18l-2.13,1.61s-6.54-2.41-3.12-4.56c1.62-1-.16-8-7.8-7.58-3.12.18-12.48,4.55-1.56,15.17-1.56,1.52-12.48,3-12.21-9.08.11-4.74,1.39-9.41,14.6-10.79,8.29-.17,10.09,4.7,12.39,9.94,5.36,1.46,4.36,1.47,4.36,1.47h0A16.34,16.34,0,0,1,769.38,554.18Z" transform="translate(-28.33)"/><path class="cls-21" d="M757.29,568.94h0c-1.39,4.73,7.23,13.06,21.1,14.09,5.43.4,7.58,6.1-5.18,8.4-5.3,1-20.85-10.14-21.07-15.12l-.15-.48" transform="translate(-28.33)"/><rect class="cls-12" x="775.98" y="556.95" width="6.51" height="19.52" rx="2.32" transform="translate(26.07 -68.1) rotate(5.18)"/><circle class="cls-12" cx="751.56" cy="559.42" r="3.25"/><rect class="cls-12" x="790" y="544.78" width="6.51" height="31.72" rx="2.96" transform="translate(1394.95 -178.71) rotate(95.18)"/><rect class="cls-12" x="797.7" y="548.23" width="6.51" height="18.87" rx="2.29" transform="translate(1715.42 305.35) rotate(130.17)"/><rect class="cls-12" x="796.31" y="555.45" width="6.51" height="18.87" rx="2.29" transform="translate(948.39 -397.93) rotate(65.18)"/><rect class="cls-12" x="800.72" y="574.3" width="6.51" height="19.52" rx="2.32" transform="translate(1530.71 1230.1) rotate(-175.45)"/><circle class="cls-12" cx="775.06" cy="591.36" r="3.25"/><rect class="cls-12" x="786.76" y="574.43" width="6.51" height="31.72" rx="2.96" transform="matrix(0.08, -1, 1, 0.08, 110.54, 1330.95)"/><rect class="cls-12" x="779.09" y="583.92" width="6.51" height="18.87" rx="2.29" transform="translate(-201.62 818.96) rotate(-50.46)"/><rect class="cls-12" x="780.41" y="576.68" width="6.51" height="18.87" rx="2.29" transform="translate(562.79 1545.59) rotate(-115.45)"/><ellipse class="cls-21" cx="866.21" cy="603.39" rx="3.31" ry="7.59" transform="translate(-62.03 1155.27) rotate(-66.38)"/><ellipse class="cls-21" cx="880.1" cy="597.62" rx="3.31" ry="7.59" transform="translate(-48.42 1164.54) rotate(-66.38)"/><path class="cls-21" d="M886.63,550.07c.91,2.63,8.46,25.55,1.61,39.31-8,16-26.79,14.16-28.71,10.14a.23.23,0,0,0-.33-.12c-4.4,2.33-16.52,2.53-20-1.64a.24.24,0,0,1,0-.29c3-5,11.81-9.41,14.44-27.05.42-9.95,10-19.78,9.19-18.95s-12.71-19,9.32-22.26c13.56-1.65,15.77,10.15,16.06,10.64a.23.23,0,0,0,.13.11l4.6,1.49a.24.24,0,0,1,.1.41l-3.82,3.72a.23.23,0,0,0-.06.26C889.41,546.47,886.59,549.93,886.63,550.07Z" transform="translate(-28.33)"/><path class="cls-22" d="M889.42,564.09s6.06,26.75-10,33.8-20.22.32-20.22.32C860.57,595.55,883.94,542,889.42,564.09Z" transform="translate(-28.33)"/><ellipse class="cls-10" cx="845.51" cy="544.05" rx="14.4" ry="10.71"/><ellipse class="cls-23" cx="848.05" cy="539.93" rx="1.69" ry="1.65"/><path class="cls-24" d="M888,545.6l-2.31,1.75s-7.1-2.62-3.39-5c1.76-1.11-.17-8.72-8.47-8.24-3.39.19-13.56,4.94-1.7,16.48-1.69,1.65-13.55,3.3-13.26-9.86.12-5.15,1.52-10.23,15.86-11.72,9-.19,11,5.1,13.46,10.79,5.82,1.59,4.73,1.6,4.73,1.6h0A17.74,17.74,0,0,1,888,545.6Z" transform="translate(-28.33)"/><path class="cls-21" d="M874.88,561.63h0c-1.51,5.13,7.86,14.19,22.91,15.3,5.91.44,8.24,6.63-5.62,9.12-5.75,1-22.65-11-22.89-16.42l-.15-.51" transform="translate(-28.33)"/><path class="cls-10" d="M910.59,578.35c-5.47,0-9.91-5.42-9.91-12.08s4.44-12.08,9.91-12.08,9.9,5.42,9.9,12.08S916.05,578.35,910.59,578.35Z" transform="translate(-28.33)"/><path class="cls-15" d="M910.59,555.69c4.63,0,8.4,4.75,8.4,10.58s-3.77,10.58-8.4,10.58-8.41-4.75-8.41-10.58,3.77-10.58,8.41-10.58m0-3c-6.3,0-11.41,6.08-11.41,13.58s5.11,13.58,11.41,13.58,11.4-6.08,11.4-13.58-5.11-13.58-11.4-13.58Z" transform="translate(-28.33)"/><rect class="cls-15" x="865.83" y="568.31" width="32.84" height="27.41" rx="1.54"/><path class="cls-15" d="M925.47,569.81a0,0,0,0,1,0,0v24.33a0,0,0,0,1,0,0H895.71s-.05,0-.05,0V569.85a0,0,0,0,1,.05,0h29.76m0-3H895.71a3,3,0,0,0-3.05,3v24.33a3,3,0,0,0,3.05,3h29.76a3,3,0,0,0,3-3V569.85a3,3,0,0,0-3-3Z" transform="translate(-28.33)"/><circle class="cls-10" cx="882.25" cy="582.56" r="4.39"/><path class="cls-15" d="M910.59,578.67a3.89,3.89,0,1,1-3.89,3.89,3.89,3.89,0,0,1,3.89-3.89m0-1a4.89,4.89,0,1,0,4.88,4.89,4.89,4.89,0,0,0-4.88-4.89Z" transform="translate(-28.33)"/></g><g id="編集モード"><g id="レイヤー_1-2" data-name="レイヤー 1"><path class="cls-13" d="M191.73,160.22h11.41a1.54,1.54,0,0,1,1.32.74l5.73,9.48A1.54,1.54,0,0,0,213,170l2.08-9.79a1.54,1.54,0,0,1,3,.05h0a1.55,1.55,0,0,0,1.52,1.26h15.1" transform="translate(-28.33)"/><ellipse class="cls-55" cx="149.04" cy="180.29" rx="6.17" ry="2.74"/><path class="cls-56" d="M184.3,138.65c.73,2.19,6.85,21.27,1.3,32.72-6.46,13.34-21.69,11.79-23.25,8.44a.18.18,0,0,0-.26-.1c-3.56,1.94-13.38,2.11-16.19-1.36a.25.25,0,0,1,0-.25c2.42-4.12,9.57-7.83,11.69-22.51.35-8.28,8.14-16.46,7.45-15.78s-10.29-15.78,7.55-18.52c11-1.37,12.77,8.45,13,8.86a.15.15,0,0,0,.11.08l3.72,1.24a.21.21,0,0,1,.08.35l-3.09,3.09a.2.2,0,0,0,0,.22C186.55,135.65,184.26,138.53,184.3,138.65Z" transform="translate(-28.33)"/><ellipse class="cls-10" cx="145.61" cy="133.64" rx="11.66" ry="8.92"/><circle class="cls-15" cx="147.67" cy="130.21" r="1.37"/><path class="cls-57" d="M185.42,134.93l-1.88,1.45s-5.74-2.18-2.74-4.11c1.43-.92-.14-7.26-6.86-6.86-2.74.16-11,4.11-1.37,13.72-1.38,1.37-11,2.74-10.74-8.21.09-4.29,1.23-8.51,12.84-9.76,7.29-.15,8.87,4.25,10.9,9,4.71,1.31,3.83,1.32,3.83,1.32h0A14.34,14.34,0,0,1,185.42,134.93Z" transform="translate(-28.33)"/><path class="cls-58" d="M174.78,148.28h0c-1.22,4.27,6.37,11.8,18.56,12.73,4.78.37,6.67,5.52-4.55,7.59-4.66.87-18.34-9.16-18.54-13.66l-.12-.43" transform="translate(-28.33)"/><path class="cls-13" d="M437.45,153.91l26.68,11.8a6.22,6.22,0,0,1,3.28,8c-2.19,5.54-6.2,12.83-11.52,10.76-4.58-1.79-4.74-5.69-4-8.85a6.36,6.36,0,0,0-3.61-7.2l-4.06-1.87a6.2,6.2,0,0,0-6.88,1.12c-2.48,2.36-6.25,5.05-9.62,3.84-4.57-1.64-2.41-10.25,2.39-15.88A6.28,6.28,0,0,1,437.45,153.91Z" transform="translate(-28.33)"/><rect class="cls-13" x="432.55" y="159.84" height="7.26" transform="translate(756.72 462.75) rotate(-160.37)"/><rect class="cls-13" x="428.92" y="163.47" width="7.26" transform="translate(51.73 -135.82) rotate(19.63)"/><circle class="cls-59" cx="432.36" cy="171.73" r="1"/><circle class="cls-59" cx="429.71" cy="172.71" r="1"/><circle class="cls-59" cx="433.28" cy="173.68" r="1.11"/><circle class="cls-59" cx="430.69" cy="175.36" r="1"/><path class="cls-13" d="M449.52,157.78s10.88-23.59,10.18-17.31,8-2.93,8.79-4.75" transform="translate(-28.33)"/><ellipse class="cls-55" cx="383.96" cy="181.83" rx="6.1" ry="2.71"/><path class="cls-56" d="M419.14,140.67c.73,2.17,6.77,21,1.29,32.35-6.39,13.18-21.44,11.64-23,8.34a.18.18,0,0,0-.26-.1c-3.52,1.91-13.22,2.08-16-1.35a.21.21,0,0,1,0-.24c2.38-4.07,9.45-7.74,11.55-22.25.34-8.19,8-16.28,7.36-15.6s-10.17-15.59,7.46-18.31c10.85-1.35,12.62,8.35,12.85,8.76a.21.21,0,0,0,.11.08l3.68,1.23a.2.2,0,0,1,.08.34L421.2,137a.2.2,0,0,0,0,.21C421.37,137.71,419.1,140.56,419.14,140.67Z" transform="translate(-28.33)"/><ellipse class="cls-10" cx="380.57" cy="135.72" rx="11.53" ry="8.82"/><circle class="cls-15" cx="382.6" cy="132.33" r="1.36"/><path class="cls-57" d="M420.25,137l-1.86,1.43s-5.68-2.15-2.71-4.07c1.41-.91-.14-7.17-6.78-6.78-2.71.16-10.85,4.07-1.36,13.56-1.35,1.36-10.85,2.72-10.61-8.11.09-4.24,1.21-8.41,12.69-9.64,7.21-.16,8.77,4.19,10.77,8.88,4.66,1.3,3.79,1.31,3.79,1.31h0A14.3,14.3,0,0,1,420.25,137Z" transform="translate(-28.33)"/><path class="cls-58" d="M409.73,150.19h0c-1.2,4.22,6.29,11.67,18.34,12.59,4.73.36,6.6,5.45-4.5,7.5-4.6.85-18.12-9.06-18.32-13.51l-.12-.42" transform="translate(-28.33)"/><rect class="cls-13" x="843.83" y="145.43" width="56.98" height="40.11" rx="8.37"/><path class="cls-13" d="M897.66,167l-19.78-16.88a2.65,2.65,0,0,1,1.71-4.66H923.1a2.65,2.65,0,0,1,1.53,4.81L900.9,167.11A2.64,2.64,0,0,1,897.66,167Z" transform="translate(-28.33)"/><ellipse class="cls-55" cx="833.87" cy="182.24" rx="5.13" ry="2.28"/><path class="cls-56" d="M868,147.67c.61,1.82,5.68,17.66,1.08,27.16-5.37,11.08-18,9.79-19.3,7a.15.15,0,0,0-.22-.08c-3,1.6-11.1,1.74-13.43-1.13a.18.18,0,0,1,0-.21c2-3.42,7.94-6.5,9.7-18.68.29-6.88,6.75-13.67,6.18-13.1s-8.54-13.1,6.27-15.38c9.11-1.14,10.6,7,10.79,7.36a.22.22,0,0,0,.09.07l3.09,1a.17.17,0,0,1,.07.28l-2.57,2.57a.17.17,0,0,0,0,.18C869.83,145.18,867.93,147.58,868,147.67Z" transform="translate(-28.33)"/><ellipse class="cls-10" cx="831.03" cy="143.51" rx="9.68" ry="7.4"/><circle class="cls-15" cx="832.73" cy="140.67" r="1.14"/><path class="cls-57" d="M868.89,144.59l-1.56,1.2s-4.77-1.81-2.28-3.42c1.19-.76-.11-6-5.69-5.69-2.28.13-9.11,3.42-1.14,11.39-1.14,1.14-9.11,2.28-8.91-6.81.08-3.57,1-7.07,10.66-8.1,6-.13,7.36,3.52,9,7.46,3.91,1.09,3.18,1.1,3.18,1.1h0A12.24,12.24,0,0,1,868.89,144.59Z" transform="translate(-28.33)"/><path class="cls-58" d="M860.06,155.66h0c-1,3.55,5.28,9.8,15.4,10.57,4,.31,5.54,4.58-3.78,6.31-3.87.71-15.22-7.61-15.38-11.35l-.11-.36" transform="translate(-28.33)"/><path class="cls-13" d="M990.94,150.45v24.21a4.13,4.13,0,0,0,4.12,4.12h45.45a4.12,4.12,0,0,0,4.12-4.12V150.38a4.12,4.12,0,0,0-4.12-4.12h-7.19a4.13,4.13,0,0,1-4.12-4.12v-1.95a4.12,4.12,0,0,0-4.12-4.12h-13.83a4.12,4.12,0,0,0-4.12,4.12v2.13a4.13,4.13,0,0,1-4.19,4.13l-7.81-.13A4.13,4.13,0,0,0,990.94,150.45Z" transform="translate(-28.33)"/><ellipse class="cls-13" cx="988.39" cy="160.34" rx="7.68" ry="7.76"/><ellipse class="cls-55" cx="952.61" cy="177.78" rx="4.78" ry="2.12"/><path class="cls-56" d="M986.3,145.55c.57,1.7,5.3,16.46,1,25.33-5,10.32-16.79,9.12-18,6.53a.14.14,0,0,0-.21-.08c-2.76,1.5-10.35,1.63-12.53-1.05a.19.19,0,0,1,0-.19c1.87-3.19,7.4-6.07,9-17.43.26-6.41,6.29-12.74,5.76-12.21s-8-12.21,5.84-14.33c8.5-1.06,9.88,6.53,10.06,6.85a.13.13,0,0,0,.09.07l2.88,1a.15.15,0,0,1,.06.26l-2.39,2.4a.16.16,0,0,0,0,.17C988,143.23,986.27,145.46,986.3,145.55Z" transform="translate(-28.33)"/><ellipse class="cls-10" cx="949.95" cy="141.67" rx="9.03" ry="6.9"/><circle class="cls-15" cx="951.54" cy="139.02" r="1.06"/><path class="cls-57" d="M987.17,142.68l-1.45,1.12s-4.45-1.69-2.13-3.19c1.11-.71-.11-5.61-5.31-5.31-2.12.13-8.49,3.19-1.06,10.62-1.06,1.06-8.49,2.13-8.31-6.35.08-3.32,1-6.59,9.94-7.55,5.64-.12,6.87,3.28,8.43,6.95,3.65,1,3,1,3,1h0A11.45,11.45,0,0,1,987.17,142.68Z" transform="translate(-28.33)"/><path class="cls-58" d="M978.93,153h0c-.94,3.31,4.93,9.14,14.36,9.86,3.7.28,5.17,4.26-3.52,5.87-3.6.67-14.19-7.09-14.34-10.57l-.1-.34" transform="translate(-28.33)"/><path class="cls-39" d="M1137,139.45l1.49,11.11a3.5,3.5,0,0,0,1.88,2.64l10,5.07a3.48,3.48,0,0,1-.07,6.24l-10.1,4.85a3.5,3.5,0,0,0-1.93,2.6L1136.49,183a3.48,3.48,0,0,1-6,1.87l-7.74-8.11a3.48,3.48,0,0,0-3.07-1l-11.06,1.78a3.48,3.48,0,0,1-3.62-5.09l5.32-9.86a3.5,3.5,0,0,0,0-3.24l-5.11-10a3.48,3.48,0,0,1,3.72-5l11,2a3.47,3.47,0,0,0,3.09-1l7.9-7.95A3.49,3.49,0,0,1,1137,139.45Z" transform="translate(-28.33)"/><ellipse class="cls-55" cx="1068.13" cy="183.72" rx="4.99" ry="2.22"/><path class="cls-56" d="M1102.07,150c.59,1.77,5.54,17.21,1,26.47-5.23,10.78-17.54,9.53-18.8,6.82a.16.16,0,0,0-.22-.08c-2.88,1.57-10.82,1.7-13.09-1.1a.18.18,0,0,1,0-.2c2-3.33,7.73-6.33,9.45-18.2.28-6.71,6.58-13.32,6-12.76s-8.32-12.77,6.11-15c8.87-1.11,10.32,6.84,10.51,7.17a.22.22,0,0,0,.09.07l3,1a.17.17,0,0,1,.07.28l-2.51,2.5a.17.17,0,0,0,0,.18C1103.89,147.62,1102,150,1102.07,150Z" transform="translate(-28.33)"/><ellipse class="cls-10" cx="1065.35" cy="145.99" rx="9.43" ry="7.21"/><circle class="cls-15" cx="1067.02" cy="143.22" r="1.11"/><path class="cls-57" d="M1103,147l-1.52,1.17s-4.65-1.76-2.22-3.33c1.16-.74-.11-5.87-5.54-5.55-2.22.13-8.88,3.33-1.11,11.1-1.11,1.11-8.88,2.22-8.69-6.64.08-3.47,1-6.88,10.39-7.89,5.89-.12,7.17,3.43,8.81,7.27,3.81,1.06,3.1,1.07,3.1,1.07h0A11.83,11.83,0,0,1,1103,147Z" transform="translate(-28.33)"/><path class="cls-58" d="M1094.37,157.83h0c-1,3.45,5.14,9.55,15,10.3,3.87.29,5.4,4.46-3.68,6.14-3.77.7-14.83-7.41-15-11.05l-.1-.35" transform="translate(-28.33)"/><circle class="cls-13" cx="762.02" cy="157.48" r="28.48"/><rect class="cls-13" x="787.41" y="133.15" width="2.4" height="28.81" rx="1.2" transform="translate(1548.88 295.12) rotate(180)"/><rect class="cls-13" x="759.07" y="159.57" width="21.61" height="2.4" rx="1.2"/><ellipse class="cls-55" cx="723.47" cy="184.96" rx="5.27" ry="2.34"/><path class="cls-56" d="M757.73,149.38c.62,1.87,5.85,18.18,1.11,28-5.52,11.4-18.53,10.07-19.86,7.21a.18.18,0,0,0-.23-.09c-3,1.66-11.43,1.8-13.83-1.16a.18.18,0,0,1,0-.21c2.06-3.52,8.17-6.69,10-19.23.3-7.08,7-14.07,6.36-13.48s-8.79-13.48,6.45-15.82c9.38-1.18,10.91,7.21,11.11,7.56a.18.18,0,0,0,.09.08l3.18,1.06a.17.17,0,0,1,.07.29l-2.64,2.64a.17.17,0,0,0,0,.19C759.65,146.83,757.69,149.29,757.73,149.38Z" transform="translate(-28.33)"/><ellipse class="cls-10" cx="720.54" cy="145.11" rx="9.96" ry="7.62"/><circle class="cls-15" cx="722.3" cy="142.17" r="1.17"/><path class="cls-57" d="M758.68,146.21l-1.6,1.24s-4.91-1.86-2.35-3.52c1.22-.78-.12-6.2-5.86-5.86-2.34.14-9.37,3.52-1.17,11.72-1.17,1.18-9.38,2.35-9.17-7,.08-3.66,1.05-7.27,11-8.33,6.23-.14,7.58,3.62,9.31,7.67,4,1.13,3.27,1.14,3.27,1.14h0A12.34,12.34,0,0,1,758.68,146.21Z" transform="translate(-28.33)"/><path class="cls-58" d="M749.59,157.61h0c-1,3.65,5.44,10.08,15.85,10.88,4.09.31,5.7,4.71-3.88,6.48-4,.74-15.67-7.83-15.84-11.67l-.1-.37" transform="translate(-28.33)"/><path class="cls-13" d="M664.11,131.11l-7.63,37.11a7.58,7.58,0,0,0,5.9,8.94l23.84,4.91a7.57,7.57,0,0,0,8.94-5.9l6.93-33.7a7.59,7.59,0,0,0-2.43-7.23l-5.32-4.65a7.53,7.53,0,0,0-3.46-1.71l-17.82-3.67A7.58,7.58,0,0,0,664.11,131.11Z" transform="translate(-28.33)"/><text class="cls-60" transform="matrix(0.98, 0.2, -0.2, 0.98, 633.6, 161.71)">↓</text><ellipse class="cls-55" cx="615.99" cy="182.9" rx="5.35" ry="2.38"/><path class="cls-56" d="M650.33,146.81c.64,1.9,5.94,18.44,1.13,28.36-5.6,11.56-18.8,10.21-20.15,7.32a.16.16,0,0,0-.23-.09c-3.08,1.68-11.59,1.82-14-1.18a.2.2,0,0,1,0-.21c2.09-3.58,8.29-6.79,10.13-19.51.3-7.18,7.05-14.27,6.45-13.68s-8.92-13.67,6.54-16c9.52-1.19,11.07,7.32,11.27,7.68a.13.13,0,0,0,.09.07l3.23,1.08a.17.17,0,0,1,.07.29l-2.68,2.69a.17.17,0,0,0,0,.19C652.28,144.22,650.3,146.72,650.33,146.81Z" transform="translate(-28.33)"/><ellipse class="cls-10" cx="613.02" cy="142.47" rx="10.11" ry="7.73"/><circle class="cls-15" cx="614.8" cy="139.5" r="1.19"/><path class="cls-57" d="M651.3,143.59l-1.62,1.26s-5-1.89-2.38-3.57c1.23-.79-.13-6.29-5.95-5.94-2.37.14-9.51,3.57-1.19,11.89-1.19,1.19-9.51,2.38-9.3-7.11.08-3.72,1.06-7.38,11.13-8.46,6.32-.13,7.69,3.68,9.44,7.79,4.08,1.14,3.32,1.15,3.32,1.15h0A12.66,12.66,0,0,1,651.3,143.59Z" transform="translate(-28.33)"/><path class="cls-58" d="M642.08,155.16h0c-1.05,3.7,5.52,10.23,16.08,11,4.15.32,5.78,4.78-3.94,6.58-4,.75-15.9-7.94-16.06-11.84l-.11-.37" transform="translate(-28.33)"/><path class="cls-13" d="M555.47,126.81l20.33,6.73a.56.56,0,0,1,.15,1l-21.69,15.4a.56.56,0,0,0,.08,1l8.43,4a.57.57,0,0,1,.13.93l-27.47,24.26a.57.57,0,0,1-.94-.45l1-18a.59.59,0,0,1,.44-.52l12.81-2.87a.57.57,0,0,0,.21-1l-10.25-7.77a.57.57,0,0,1-.11-.8l16.9-21.9Z" transform="translate(-28.33)"/><ellipse class="cls-55" cx="495.65" cy="183.39" rx="5.9" ry="2.62"/><path class="cls-56" d="M530.61,143.61c.7,2.09,6.54,20.32,1.24,31.26-6.18,12.75-20.72,11.26-22.21,8.07a.18.18,0,0,0-.25-.1c-3.41,1.85-12.78,2-15.47-1.3a.2.2,0,0,1,0-.23c2.3-3.94,9.13-7.49,11.16-21.51.33-7.92,7.77-15.73,7.12-15.07s-9.83-15.08,7.21-17.7c10.48-1.31,12.19,8.07,12.42,8.46a.16.16,0,0,0,.1.08l3.56,1.19a.2.2,0,0,1,.08.33l-3,2.95a.19.19,0,0,0-.05.21C532.76,140.75,530.57,143.5,530.61,143.61Z" transform="translate(-28.33)"/><ellipse class="cls-10" cx="492.38" cy="138.83" rx="11.14" ry="8.52"/><circle class="cls-15" cx="494.34" cy="135.55" r="1.31"/><path class="cls-57" d="M531.67,140.06l-1.79,1.39s-5.49-2.08-2.62-3.93c1.36-.88-.13-6.94-6.55-6.56-2.62.16-10.49,3.94-1.31,13.11-1.31,1.31-10.49,2.62-10.26-7.84.09-4.1,1.17-8.13,12.27-9.32,7-.15,8.47,4.05,10.41,8.58,4.5,1.26,3.66,1.27,3.66,1.27h0A14,14,0,0,1,531.67,140.06Z" transform="translate(-28.33)"/><path class="cls-58" d="M521.51,152.81h0c-1.16,4.08,6.08,11.28,17.73,12.17,4.57.34,6.37,5.26-4.35,7.25-4.45.82-17.52-8.76-17.71-13.06l-.11-.41" transform="translate(-28.33)"/><rect class="cls-13" x="273.61" y="143.49" width="47.01" height="34.47" rx="11.12"/><rect class="cls-13" x="315.74" y="131.7" width="0.29" height="11.28" transform="translate(-47.04 219.15) rotate(-37.24)"/><rect class="cls-13" x="330.93" y="138.77" width="10.81" height="0.26" transform="translate(-28.52 277.35) rotate(-44.8)"/><rect class="cls-13" x="283.01" y="152.89" width="28.21" height="18.8" rx="6.93"/><ellipse class="cls-55" cx="260.54" cy="180.23" rx="5.8" ry="2.58"/><path class="cls-56" d="M295.38,141.14c.69,2.05,6.43,20,1.22,30.72-6.06,12.52-20.36,11.06-21.82,7.92a.17.17,0,0,0-.25-.09c-3.34,1.82-12.56,2-15.2-1.28a.21.21,0,0,1,0-.23c2.26-3.87,9-7.35,11-21.13.32-7.78,7.64-15.46,7-14.82s-9.66-14.81,7.09-17.39c10.3-1.28,12,7.93,12.2,8.32a.18.18,0,0,0,.11.08l3.49,1.17a.19.19,0,0,1,.08.32l-2.91,2.9a.2.2,0,0,0,0,.21C297.49,138.33,295.35,141,295.38,141.14Z" transform="translate(-28.33)"/><ellipse class="cls-10" cx="257.32" cy="136.44" rx="10.95" ry="8.37"/><circle class="cls-15" cx="259.26" cy="133.22" r="1.29"/><path class="cls-57" d="M296.43,137.65,294.67,139s-5.39-2-2.57-3.86c1.33-.86-.14-6.81-6.45-6.44-2.57.15-10.3,3.86-1.28,12.88-1.29,1.29-10.31,2.58-10.08-7.71.09-4,1.15-8,12-9.16,6.85-.14,8.33,4,10.23,8.44,4.43,1.24,3.6,1.25,3.6,1.25h0A13.65,13.65,0,0,1,296.43,137.65Z" transform="translate(-28.33)"/><path class="cls-58" d="M286.45,150.18h0c-1.15,4,6,11.08,17.41,11.95,4.49.35,6.27,5.18-4.27,7.13-4.37.81-17.21-8.6-17.4-12.83l-.11-.4" transform="translate(-28.33)"/><polygon class="cls-13" points="63.91 146.13 59.84 133.85 69.08 142.52 69.04 126.89 74.87 139.97 79.84 126.78 80.12 138.74 91.36 134.92 82.51 141.79 87.62 148.57 81.1 147.95 84.14 160.66 77.78 153.16 76.8 161.9 72.27 156.21 65.27 167.46 63.42 159.52 67.25 153.31 51.47 159.86 57.55 153.44 49.95 148.18 62.57 147.65 63.91 146.13"/><ellipse class="cls-55" cx="33.31" cy="177.02" rx="5.56" ry="2.47"/><path class="cls-56" d="M67.88,139.54c.66,2,6.16,19.15,1.17,29.45-5.82,12-19.52,10.61-20.92,7.6a.17.17,0,0,0-.24-.09c-3.21,1.74-12,1.89-14.57-1.23a.2.2,0,0,1,0-.22c2.18-3.71,8.61-7.05,10.53-20.26.3-7.46,7.31-14.82,6.7-14.2s-9.27-14.2,6.79-16.67c9.88-1.24,11.49,7.6,11.7,8a.16.16,0,0,0,.1.08l3.35,1.12a.18.18,0,0,1,.07.3l-2.78,2.79a.19.19,0,0,0-.05.2C69.9,136.84,67.84,139.44,67.88,139.54Z" transform="translate(-28.33)"/><ellipse class="cls-10" cx="30.22" cy="135.03" rx="10.5" ry="8.03"/><circle class="cls-15" cx="32.07" cy="131.95" r="1.23"/><path class="cls-57" d="M68.88,136.2l-1.68,1.3s-5.18-2-2.47-3.7c1.28-.83-.13-6.53-6.18-6.18-2.46.15-9.88,3.71-1.23,12.35-1.24,1.24-9.88,2.47-9.66-7.39.08-3.86,1.1-7.66,11.55-8.78,6.56-.14,8,3.82,9.81,8.09,4.24,1.19,3.45,1.2,3.45,1.2h0A13.21,13.21,0,0,1,68.88,136.2Z" transform="translate(-28.33)"/><path class="cls-58" d="M59.31,148.21h0c-1.1,3.84,5.73,10.62,16.7,11.46,4.3.33,6,5-4.09,6.83-4.2.78-16.51-8.25-16.69-12.3l-.11-.39" transform="translate(-28.33)"/></g></g></svg>