<svg xmlns="http://www.w3.org/2000/svg" viewBox="0 0 1138.18 822.52"><defs><style>.cls-1,.cls-14,.cls-2,.cls-3,.cls-4,.cls-6{fill:#231815;}.cls-2{font-size:19px;}.cls-2,.cls-3,.cls-6{font-family:KozGoPro-Medium-90ms-RKSJ-H, Kozuka Gothic Pro;}.cls-3{font-size:16px;}.cls-4,.cls-6{font-size:13px;}.cls-4{font-family:KozGoPro-Bold-90ms-RKSJ-H, Kozuka Gothic Pro;}.cls-5{letter-spacing:-0.5em;}.cls-100,.cls-101,.cls-102,.cls-103,.cls-109,.cls-110,.cls-112,.cls-113,.cls-114,.cls-117,.cls-118,.cls-18,.cls-19,.cls-20,.cls-22,.cls-24,.cls-25,.cls-27,.cls-29,.cls-30,.cls-32,.cls-34,.cls-35,.cls-41,.cls-42,.cls-45,.cls-48,.cls-49,.cls-51,.cls-52,.cls-55,.cls-56,.cls-57,.cls-60,.cls-61,.cls-62,.cls-64,.cls-65,.cls-67,.cls-69,.cls-7,.cls-70,.cls-73,.cls-74,.cls-76,.cls-78,.cls-80,.cls-81,.cls-82,.cls-85,.cls-87,.cls-90,.cls-92,.cls-94,.cls-96,.cls-97,.cls-99{fill:none;}.cls-7{stroke:#dbdcdc;}.cls-100,.cls-101,.cls-102,.cls-103,.cls-104,.cls-109,.cls-110,.cls-112,.cls-113,.cls-114,.cls-117,.cls-118,.cls-16,.cls-18,.cls-19,.cls-20,.cls-22,.cls-24,.cls-25,.cls-27,.cls-29,.cls-30,.cls-32,.cls-34,.cls-35,.cls-37,.cls-38,.cls-41,.cls-42,.cls-45,.cls-48,.cls-49,.cls-51,.cls-52,.cls-55,.cls-57,.cls-60,.cls-61,.cls-62,.cls-64,.cls-65,.cls-67,.cls-69,.cls-7,.cls-73,.cls-74,.cls-76,.cls-78,.cls-80,.cls-81,.cls-82,.cls-85,.cls-87,.cls-90,.cls-92,.cls-93,.cls-94,.cls-96,.cls-97,.cls-99{stroke-miterlimit:10;}.cls-104,.cls-108,.cls-8,.cls-9{fill:#fff;}.cls-9{font-size:18.54px;font-family:KozGoPro-Heavy-90ms-RKSJ-H, Kozuka Gothic Pro;}.cls-10{letter-spacing:-0.08em;}.cls-11{letter-spacing:-0.06em;}.cls-12{letter-spacing:-0.08em;}.cls-13{letter-spacing:0.02em;}.cls-14{font-size:12px;font-family:KozGoPro-Regular-90ms-RKSJ-H, Kozuka Gothic Pro;}.cls-15{letter-spacing:0.25em;}.cls-16{fill:#2d1606;}.cls-16,.cls-37,.cls-38,.cls-70,.cls-93,.cls-94{stroke:#231815;}.cls-17{fill:#38220c;}.cls-113,.cls-114,.cls-18,.cls-19,.cls-22{stroke:#f7e288;}.cls-19,.cls-42{stroke-width:0.5px;}.cls-20{stroke:#38220c;}.cls-21{fill:#f7e288;}.cls-103,.cls-112,.cls-117,.cls-22,.cls-27,.cls-32,.cls-61,.cls-62,.cls-67,.cls-74,.cls-85,.cls-97{stroke-width:4px;}.cls-23{fill:#415027;}.cls-24,.cls-27{stroke:#f7d880;}.cls-25{stroke:#ed731c;}.cls-26{fill:#f7d880;}.cls-28{fill:#c1c0c0;}.cls-29,.cls-30,.cls-80{stroke:#070e28;}.cls-101,.cls-113,.cls-29,.cls-45,.cls-48,.cls-52,.cls-69,.cls-73,.cls-78,.cls-94,.cls-96{stroke-width:2px;}.cls-31{fill:#c23922;}.cls-32,.cls-60,.cls-90{stroke:#fff;}.cls-33{fill:#debc2d;}.cls-117,.cls-34,.cls-35{stroke:#0f1835;}.cls-35,.cls-92,.cls-99{stroke-width:0.75px;}.cls-36{fill:#0f1835;}.cls-37{fill:#c84b2d;}.cls-116,.cls-38{fill:#f3ebc7;}.cls-39{fill:#151413;}.cls-40{fill:#040000;}.cls-41,.cls-42,.cls-92{stroke:#040000;}.cls-43{fill:#c96035;}.cls-44{fill:#1b1006;}.cls-45,.cls-55,.cls-97{stroke:#e8b347;}.cls-107,.cls-46{fill:#e8b347;}.cls-47{fill:#8e955a;}.cls-48,.cls-49,.cls-67{stroke:#283a1c;}.cls-100,.cls-102,.cls-104,.cls-109,.cls-110,.cls-114,.cls-118,.cls-49,.cls-57,.cls-80,.cls-81,.cls-90{stroke-width:3px;}.cls-50{fill:#86aeb0;}.cls-104,.cls-51,.cls-52{stroke:#1c1d1d;}.cls-53{fill:#1c1d1d;}.cls-54{fill:#301706;}.cls-57,.cls-85{stroke:#5abfc4;}.cls-58{fill:#5abfc4;}.cls-59{fill:#171c3e;}.cls-61{stroke:#f4be2c;}.cls-62{stroke:#c96035;}.cls-63{fill:#b3cae4;}.cls-64{stroke:#1a274c;}.cls-65{stroke:#808faa;stroke-width:5px;}.cls-66{font-size:57.93px;font-family:AcuminPro-Regular, Acumin Pro;}.cls-106,.cls-66{fill:#283a1c;}.cls-68{fill:#5ca3d7;}.cls-112,.cls-69{stroke:#093759;}.cls-70{stroke-linejoin:round;stroke-width:11px;}.cls-71{fill:#093759;}.cls-72{fill:#df974b;}.cls-73{stroke:#c96519;}.cls-74{stroke:#43220e;}.cls-75{fill:#041607;}.cls-109,.cls-76{stroke:#a2d19c;}.cls-77{fill:#a2d19c;}.cls-78{stroke:#e6782f;}.cls-79{fill:#e6782f;}.cls-81,.cls-82{stroke:#000;}.cls-83{fill:#412574;}.cls-84{fill:#f1bb33;}.cls-86{fill:#001827;}.cls-87{stroke:#fbf2cc;}.cls-88,.cls-89{fill:#f19337;}.cls-89{font-size:23.71px;}.cls-105,.cls-89{font-family:KozGoPr6N-Regular-90ms-RKSJ-H, Kozuka Gothic Pr6N;}.cls-91{fill:#c8653e;}.cls-93{fill:#2b4a9d;}.cls-95{fill:#fdf5e5;}.cls-96{stroke:#fdf5e5;}.cls-98{fill:#002a34;}.cls-100,.cls-99{stroke:#dd582e;}.cls-101{stroke:#002a34;}.cls-102,.cls-103{stroke:#c23922;}.cls-105{font-size:27.08px;}.cls-107{font-size:53.98px;font-family:PShueiGoKinStdN-L, PShueiGoKinStdN L-83pv-RKSJ-H;}.cls-108{font-size:36.76px;}.cls-108,.cls-111{font-family:PShueiGoKinStd-B, PShueiGoKinStd B-83pv-RKSJ-H;}.cls-110{stroke:#041607;}.cls-111{font-size:36.45px;fill:#808faa;}.cls-115{fill:#f4be2c;}.cls-118{stroke:#f19337;}</style></defs><g id="テンプレート"><path class="cls-1" d="M29,0V55.41a12,12,0,0,0,12,12H413.83a12,12,0,0,0,12-12V0Z" transform="translate(-27.15)"/><text class="cls-2" transform="translate(933.13 46.3)">www.design-icon.com</text><text class="cls-3" transform="translate(420.15 55.3)">DESIGNER : 須藤 朱音</text><text class="cls-4" transform="translate(806.68 817.27)">利用規約：個人、商用、すべてフリーでご利用ください<tspan class="cls-5" x="325" y="0">。</tspan></text><text class="cls-6" transform="translate(420.15 30.16)">サイズ：100 x 100 px</text><rect class="cls-7" x="1.68" y="87.3" width="100" height="100"/><rect class="cls-7" x="116.68" y="87.3" width="100" height="100"/><rect class="cls-7" x="231.68" y="87.3" width="100" height="100"/><rect class="cls-7" x="346.68" y="87.3" width="100" height="100"/><rect class="cls-7" x="461.68" y="87.3" width="100" height="100"/><rect class="cls-7" x="576.68" y="87.3" width="100" height="100"/><rect class="cls-7" x="691.68" y="87.3" width="100" height="100"/><rect class="cls-7" x="806.68" y="87.3" width="100" height="100"/><rect class="cls-7" x="921.68" y="87.3" width="100" height="100"/><rect class="cls-7" x="1036.68" y="87.3" width="100" height="100"/><rect class="cls-7" x="1.68" y="228.07" width="100" height="100"/><rect class="cls-7" x="116.68" y="228.07" width="100" height="100"/><rect class="cls-7" x="231.68" y="228.07" width="100" height="100"/><rect class="cls-7" x="346.68" y="228.07" width="100" height="100"/><rect class="cls-7" x="461.68" y="228.07" width="100" height="100"/><rect class="cls-7" x="576.68" y="228.07" width="100" height="100"/><rect class="cls-7" x="691.68" y="228.07" width="100" height="100"/><rect class="cls-7" x="806.68" y="228.07" width="100" height="100"/><rect class="cls-7" x="921.68" y="228.07" width="100" height="100"/><rect class="cls-7" x="1036.68" y="228.07" width="100" height="100"/><rect class="cls-7" x="1.68" y="368.84" width="100" height="100"/><rect class="cls-7" x="116.68" y="368.84" width="100" height="100"/><rect class="cls-7" x="231.68" y="368.84" width="100" height="100"/><rect class="cls-7" x="346.68" y="368.84" width="100" height="100"/><rect class="cls-7" x="461.68" y="368.84" width="100" height="100"/><rect class="cls-7" x="576.68" y="368.84" width="100" height="100"/><rect class="cls-7" x="691.68" y="368.84" width="100" height="100"/><rect class="cls-7" x="806.68" y="368.84" width="100" height="100"/><rect class="cls-7" x="921.68" y="368.84" width="100" height="100"/><rect class="cls-7" x="1036.68" y="368.84" width="100" height="100"/><rect class="cls-7" x="1.68" y="509.61" width="100" height="100"/><rect class="cls-7" x="116.68" y="509.61" width="100" height="100"/><rect class="cls-7" x="231.68" y="509.61" width="100" height="100"/><rect class="cls-7" x="346.68" y="509.61" width="100" height="100"/><rect class="cls-7" x="461.68" y="509.61" width="100" height="100"/><rect class="cls-7" x="576.68" y="509.61" width="100" height="100"/><rect class="cls-7" x="691.68" y="509.61" width="100" height="100"/><rect class="cls-7" x="806.68" y="509.61" width="100" height="100"/><rect class="cls-7" x="921.68" y="509.61" width="100" height="100"/><rect class="cls-7" x="1036.68" y="509.61" width="100" height="100"/><rect class="cls-7" x="1.68" y="650.38" width="100" height="100"/><rect class="cls-7" x="116.68" y="650.38" width="100" height="100"/><rect class="cls-7" x="231.68" y="650.38" width="100" height="100"/><rect class="cls-7" x="346.68" y="650.38" width="100" height="100"/><rect class="cls-7" x="461.68" y="650.38" width="100" height="100"/><rect class="cls-7" x="576.68" y="650.38" width="100" height="100"/><rect class="cls-7" x="691.68" y="650.38" width="100" height="100"/><rect class="cls-7" x="806.68" y="650.38" width="100" height="100"/><rect class="cls-7" x="921.68" y="650.38" width="100" height="100"/><rect class="cls-7" x="1036.68" y="650.38" width="100" height="100"/><circle class="cls-8" cx="68.27" cy="34.22" r="16.05" transform="translate(-35.05 28.73) rotate(-22.5)"/><text class="cls-9" transform="translate(71.14 41.22)">ビンテージステッカー風<tspan class="cls-10" x="203.94" y="0">ア</tspan><tspan class="cls-11" x="220.99" y="0">イ</tspan><tspan class="cls-12" x="238.42" y="0">コ</tspan><tspan class="cls-13" x="255.48" y="0">ン</tspan></text></g><g id="アイコン名"><text class="cls-14" transform="translate(33.68 213.41)">ロック</text><text class="cls-14" transform="translate(137.01 213.41)">ロック解除</text><text class="cls-14" transform="translate(240.35 213.41)">ファイルに追加</text><text class="cls-14" transform="translate(349.68 213.41)">ファイルから削除</text><text class="cls-14" transform="translate(495.01 213.41)">早送り</text><text class="cls-14" transform="translate(604.35 213.41)">巻き戻し</text><text class="cls-14" transform="translate(731.68 213.41)">表示</text><text class="cls-14" transform="translate(835.01 213.41)">レイヤー</text><text class="cls-14" transform="translate(932.35 213.41)">おやすみモード</text><text class="cls-14" transform="translate(1065.68 213.41)">画面収録</text><text class="cls-14" transform="translate(27.68 351.9)">スキャン</text><text class="cls-14" transform="translate(137.01 351.9)">全画面表示</text><text class="cls-14" transform="translate(240.35 351.9)">全画面表示終了</text><text class="cls-14" transform="translate(373.68 351.9)">テキスト</text><text class="cls-14" transform="translate(495.01 351.9)">アプリ</text><text class="cls-14" transform="translate(616.35 351.9)">共有</text><text class="cls-14" transform="translate(725.68 351.9)">リスト</text><text class="cls-14" transform="translate(835.01 351.9)">お知らせ</text><text class="cls-14" transform="translate(956.35 351.9)">グラフ</text><text class="cls-14" transform="translate(1059.68 351.9)">ビデオオフ</text><text class="cls-14" transform="translate(32.91 492.39)">Airplay</text><text class="cls-14" transform="translate(146.61 492.39)">Airdrop</text><text class="cls-14" transform="translate(264.35 492.39)">リンク</text><text class="cls-14" transform="translate(367.68 492.39)">フラッシュ</text><text class="cls-14" transform="translate(471.01 492.39)">自動フラッシュ</text><text class="cls-14" transform="translate(586.35 492.39)">フラッシュオフ</text><text class="cls-14" transform="translate(731.68 492.39)">編集</text><text class="cls-14" transform="translate(829.01 492.39)">レストラン</text><text class="cls-14" transform="translate(963.62 492.39)">GPS</text><text class="cls-14" transform="translate(1065.46 492.39)">GP<tspan class="cls-15" x="15.12" y="0">S</tspan><tspan x="24.44" y="0">オフ</tspan></text><text class="cls-14" transform="translate(39.68 630.89)">禁止</text><text class="cls-14" transform="translate(137.01 630.89)">カレンダー</text><text class="cls-14" transform="translate(246.35 630.89)">バックアップ</text><text class="cls-14" transform="translate(361.68 630.89)">アップデート</text><text class="cls-14" transform="translate(501.01 630.89)">送る</text><text class="cls-14" transform="translate(592.35 630.89)">コピーライト</text><text class="cls-14" transform="translate(695.68 630.89)">バッテリーエラー</text><text class="cls-14" transform="translate(835.01 630.89)">タイマー</text><text class="cls-14" transform="translate(956.35 630.89)">通話中</text><text class="cls-14" transform="translate(1051.86 630.89)">ハイビジョン</text><text x="-27.15"/><text class="cls-14" transform="translate(3.68 773.38)">その他のメニュー</text><text class="cls-14" transform="translate(143.01 773.38)">リピート</text><text class="cls-14" transform="translate(252.35 773.38)">シャッフル</text><text class="cls-14" transform="translate(367.68 773.38)">買い物かご</text><text class="cls-14" transform="translate(501.01 773.38)">調整</text><text class="cls-14" transform="translate(616.35 773.38)">設定</text><text class="cls-14" transform="translate(725.68 773.38)">フラグ</text><text class="cls-14" transform="translate(811.01 773.38)">クレジットカード</text><text class="cls-14" transform="translate(962.35 773.38)">言語</text><text class="cls-14" transform="translate(1077.68 773.38)">充電</text></g><g id="レイヤー_56" data-name="レイヤー 56"><rect class="cls-16" x="0.5" y="87.93" width="100" height="100"/><rect class="cls-16" x="115.39" y="87.93" width="100" height="100"/><rect class="cls-16" x="231.17" y="87.93" width="100" height="100"/><rect class="cls-16" x="346.03" y="87.93" width="100" height="100"/><rect class="cls-16" x="460.48" y="87.93" width="100" height="100"/><rect class="cls-16" x="575.77" y="87.93" width="100" height="100"/><rect class="cls-16" x="690.84" y="87.93" width="100" height="100"/><rect class="cls-16" x="806.3" y="87.93" width="100" height="100"/><rect class="cls-16" x="920.04" y="87.93" width="100" height="100"/><rect class="cls-16" x="1035.75" y="87.93" width="100" height="100"/><rect class="cls-16" x="0.5" y="228.75" width="100" height="100"/><rect class="cls-16" x="115.39" y="228.75" width="100" height="100"/><rect class="cls-16" x="231.17" y="228.75" width="100" height="100"/><rect class="cls-16" x="346.03" y="228.75" width="100" height="100"/><rect class="cls-16" x="460.48" y="228.75" width="100" height="100"/><rect class="cls-16" x="575.77" y="228.75" width="100" height="100"/><rect class="cls-16" x="690.84" y="228.75" width="100" height="100"/><rect class="cls-16" x="806.3" y="228.75" width="100" height="100"/><rect class="cls-16" x="920.04" y="228.75" width="100" height="100"/><rect class="cls-16" x="1035.75" y="228.75" width="100" height="100"/><rect class="cls-16" x="0.5" y="369.5" width="100" height="100"/><rect class="cls-16" x="115.39" y="369.5" width="100" height="100"/><rect class="cls-16" x="231.17" y="369.5" width="100" height="100"/><rect class="cls-16" x="346.03" y="369.5" width="100" height="100"/><rect class="cls-16" x="460.48" y="369.5" width="100" height="100"/><rect class="cls-16" x="575.77" y="369.5" width="100" height="100"/><rect class="cls-16" x="690.84" y="369.5" width="100" height="100"/><rect class="cls-16" x="806.3" y="369.5" width="100" height="100"/><rect class="cls-16" x="920.04" y="369.5" width="100" height="100"/><rect class="cls-16" x="1035.75" y="369.5" width="100" height="100"/><rect class="cls-16" x="0.5" y="509.43" width="100" height="100"/><rect class="cls-16" x="115.39" y="509.43" width="100" height="100"/><rect class="cls-16" x="231.17" y="509.43" width="100" height="100"/><rect class="cls-16" x="346.03" y="509.43" width="100" height="100"/><rect class="cls-16" x="460.48" y="509.43" width="100" height="100"/><rect class="cls-16" x="575.77" y="509.43" width="100" height="100"/><rect class="cls-16" x="690.84" y="509.43" width="100" height="100"/><rect class="cls-16" x="806.3" y="509.43" width="100" height="100"/><rect class="cls-16" x="920.04" y="509.43" width="100" height="100"/><rect class="cls-16" x="1035.75" y="509.43" width="100" height="100"/><rect class="cls-16" x="0.5" y="650.17" width="100" height="100"/><rect class="cls-16" x="115.39" y="650.17" width="100" height="100"/><rect class="cls-16" x="231.17" y="650.17" width="100" height="100"/><rect class="cls-16" x="346.03" y="650.17" width="100" height="100"/><rect class="cls-16" x="460.48" y="650.17" width="100" height="100"/><rect class="cls-16" x="575.77" y="650.17" width="100" height="100"/><rect class="cls-16" x="690.84" y="650.17" width="100" height="100"/><rect class="cls-16" x="806.3" y="650.17" width="100" height="100"/><rect class="cls-16" x="920.04" y="650.17" width="100" height="100"/><rect class="cls-16" x="1035.75" y="650.17" width="100" height="100"/></g><g id="ロック"><circle class="cls-8" cx="51.58" cy="137.5" r="43.36"/><circle class="cls-17" cx="51.58" cy="137.5" r="39.52"/><circle class="cls-18" cx="51.58" cy="137.65" r="39.71"/><circle class="cls-18" cx="51.58" cy="137.75" r="36.79"/><circle class="cls-19" cx="51.51" cy="137.75" r="34.8"/><line class="cls-20" x1="51.52" y1="123.25" x2="51.89" y2="159.14"/><line class="cls-20" x1="33.86" y1="126.4" x2="47.32" y2="128.75"/><line class="cls-20" x1="33" y1="136.81" x2="46.45" y2="139.16"/><line class="cls-20" x1="33" y1="147.71" x2="46.45" y2="150.06"/><line class="cls-20" x1="57.05" y1="139.16" x2="70.37" y2="136.81"/><line class="cls-20" x1="57.05" y1="150.06" x2="70.37" y2="147.71"/><g id="レイヤー_4" data-name="レイヤー 4"><rect class="cls-21" x="30.33" y="129.23" width="42.36" height="28.12"/><polyline class="cls-22" points="44.1 129.23 44.1 112.61 59.87 112.61 59.87 129.23"/><ellipse class="cls-17" cx="51.62" cy="143.29" rx="3.58" ry="3.41"/></g></g><g id="ロック解除"><circle class="cls-8" cx="166.68" cy="137.3" r="43.36"/><circle class="cls-23" cx="166.68" cy="137.3" r="38.83"/><circle class="cls-24" cx="166.84" cy="137.3" r="37.04"/><circle class="cls-25" cx="166.84" cy="137.3" r="36.3"/><rect class="cls-26" x="145.83" y="128.1" width="42.36" height="28.12"/><polyline class="cls-27" points="159.61 128.1 159.61 111.48 175.37 111.48 175.37 119.79"/><ellipse class="cls-23" cx="167.12" cy="142.17" rx="3.58" ry="3.41"/></g><g id="ファイルに追加"><circle class="cls-8" cx="282.35" cy="137.3" r="43.36"/><circle class="cls-28" cx="282.35" cy="137.3" r="39.52"/><circle class="cls-29" cx="282.35" cy="137.45" r="39.19"/><circle class="cls-30" cx="282.35" cy="137.59" r="36.11"/><g id="ファイルに追加-2" data-name="ファイルに追加"><polygon class="cls-31" points="258.08 115.45 258.08 154.73 306.61 154.73 306.61 121.4 284.57 121.19 276.57 115.45 258.08 115.45"/><line class="cls-32" x1="272.58" y1="137.29" x2="294.22" y2="137.29"/><line class="cls-32" x1="283.35" y1="127.38" x2="283.35" y2="149.11"/></g></g><g id="ファイルから削除"><circle class="cls-8" cx="397.68" cy="137.5" r="43.36"/><circle class="cls-33" cx="397.68" cy="137.5" r="39.52"/><circle class="cls-34" cx="397.68" cy="137.64" r="39.19"/><circle class="cls-35" cx="397.68" cy="137.93" r="37.26"/><polyline class="cls-33" points="418.38 152.68 408.31 152.68 408.31 163.31"/><line class="cls-34" x1="420.05" y1="157.05" x2="410.6" y2="147.8"/><g id="ファイルから削除-2" data-name="ファイルから削除"><polygon class="cls-36" points="374.41 117.86 374.41 157.14 422.95 157.14 422.95 123.81 400.9 123.6 392.91 117.86 374.41 117.86"/><line class="cls-32" x1="389.35" y1="138.77" x2="408.01" y2="138.77"/></g></g><g id="早送り"><circle class="cls-8" cx="511.68" cy="138.77" r="43.36"/><circle class="cls-37" cx="511.68" cy="138.77" r="40.77"/><circle class="cls-38" cx="511.68" cy="138.77" r="31.43"/><polygon class="cls-39" points="493.52 124.59 493.52 151.27 514.81 137.42 493.52 124.59"/><polyline class="cls-39" points="537.72 137.42 516.42 124.59 516.42 151.27"/></g><g id="巻き戻し"><circle class="cls-8" cx="626.68" cy="137.99" r="43.36"/><circle class="cls-40" cx="626.68" cy="138.41" r="35.88"/><circle class="cls-41" cx="626.68" cy="138.27" r="40.57"/><circle class="cls-42" cx="626.68" cy="138.27" r="38.95"/><polygon class="cls-43" points="647.17 124.93 647.17 151.61 625.88 137.76 647.17 124.93"/><polyline class="cls-43" points="602.98 137.76 624.27 124.93 624.27 151.61"/></g><g id="表示"><circle class="cls-8" cx="741.68" cy="138.41" r="43.36"/><circle class="cls-44" cx="741.68" cy="138.41" r="39.52"/><circle class="cls-45" cx="741.68" cy="138.55" r="39.19"/><path class="cls-46" d="M738.5,139.35c5.67-7.27,17.4-16.52,30.3-16.52,15,0,26.22,9.13,31.85,16.81,0,0-15.81,14.64-32.47,14.64C754.48,154.28,738.5,139.35,738.5,139.35Z" transform="translate(-27.15)"/><circle class="cls-44" cx="741.55" cy="138.17" r="7.09"/></g><g id="レイヤー"><circle class="cls-8" cx="856.68" cy="138.77" r="43.36"/><circle class="cls-47" cx="856.68" cy="137.3" r="39.52"/><circle class="cls-48" cx="856.75" cy="138.63" r="39.3"/><rect class="cls-49" x="830.52" y="118.89" width="34.86" height="25.45"/><line class="cls-49" x1="868.8" y1="123.76" x2="874.81" y2="123.76"/><line class="cls-49" x1="873.32" y1="153.28" x2="873.32" y2="122.88"/><line class="cls-49" x1="835.58" y1="147.67" x2="835.58" y2="153.68"/><line class="cls-49" x1="874.81" y1="152.22" x2="836.36" y2="152.22"/><line class="cls-49" x1="876.48" y1="130.87" x2="882.48" y2="130.87"/><line class="cls-49" x1="880.99" y1="160.38" x2="880.99" y2="129.99"/><line class="cls-49" x1="843.26" y1="154.77" x2="843.26" y2="160.78"/><line class="cls-49" x1="882.48" y1="159.32" x2="844.04" y2="159.32"/></g><g id="おやすみモード"><circle class="cls-8" cx="971.68" cy="138.27" r="43.36"/><circle class="cls-50" cx="971.68" cy="138.27" r="39.52"/><circle class="cls-51" cx="971.68" cy="138.41" r="39.19"/><circle class="cls-52" cx="971.68" cy="138.41" r="36.56"/><path class="cls-53" d="M990.34,110.73c-18.17,12-18.53,32.18-9.39,43,13,15.41,34.91,12.7,43.67-4.07,0,0-17.49,3.9-29.36-8C986.58,132.89,990.34,110.73,990.34,110.73Z" transform="translate(-27.15)"/></g><g id="画面収録"><circle class="cls-8" cx="1086.68" cy="137.89" r="43.36"/><circle class="cls-54" cx="1086.68" cy="137.89" r="39.52"/><circle class="cls-55" cx="1086.68" cy="137.89" r="37.59"/><rect class="cls-56" x="1060.85" y="94.04" width="51.67" height="38.19"/><circle class="cls-57" cx="1086.68" cy="137.89" r="25.15"/><circle class="cls-58" cx="1086.68" cy="137.78" r="13.19"/></g><g id="スキャン"><text x="-27.15"/><circle class="cls-8" cx="51.51" cy="278.22" r="43.36"/><circle class="cls-59" cx="51.51" cy="278.22" r="39.52"/><circle class="cls-60" cx="51.44" cy="278.47" r="35.21"/><line class="cls-56" x1="30.68" y1="271.61" x2="30.68" y2="260.81"/><line class="cls-61" x1="38.99" y1="278.07" x2="64.98" y2="278.07"/><line class="cls-61" x1="46.86" y1="258.73" x2="29.84" y2="258.73"/><line class="cls-61" x1="31.42" y1="273.66" x2="31.42" y2="256.64"/><line class="cls-61" x1="71.48" y1="274.25" x2="71.48" y2="257.23"/><line class="cls-61" x1="56.55" y1="258.81" x2="73.57" y2="258.81"/><line class="cls-61" x1="31.41" y1="282.71" x2="31.41" y2="299.73"/><line class="cls-61" x1="46.33" y1="298.15" x2="29.31" y2="298.15"/><line class="cls-61" x1="55.7" y1="298.21" x2="72.72" y2="298.21"/><line class="cls-61" x1="71.14" y1="283.28" x2="71.14" y2="300.3"/></g><g id="全画面表示"><circle class="cls-8" cx="166.59" cy="278.47" r="43.36"/><circle class="cls-40" cx="166.59" cy="278.9" r="35.88"/><circle class="cls-41" cx="166.59" cy="278.75" r="40.57"/><circle class="cls-42" cx="166.59" cy="278.75" r="38.95"/><line class="cls-62" x1="162.43" y1="258.73" x2="145.41" y2="258.73"/><line class="cls-62" x1="146.99" y1="273.66" x2="146.99" y2="256.64"/><line class="cls-62" x1="187.05" y1="274.25" x2="187.05" y2="257.23"/><line class="cls-62" x1="172.12" y1="258.81" x2="189.14" y2="258.81"/><line class="cls-62" x1="146.98" y1="282.71" x2="146.98" y2="299.73"/><line class="cls-62" x1="161.91" y1="298.15" x2="144.89" y2="298.15"/><line class="cls-62" x1="171.28" y1="298.21" x2="188.3" y2="298.21"/><line class="cls-62" x1="186.71" y1="283.28" x2="186.71" y2="300.3"/></g><g id="全画面表示終了"><circle class="cls-8" cx="281.68" cy="278.07" r="43.36"/><circle class="cls-63" cx="281.68" cy="278.07" r="38.99"/><circle class="cls-64" cx="281.68" cy="278.07" r="40.02"/><line class="cls-65" x1="288.59" y1="252.65" x2="288.59" y2="274.17"/><line class="cls-65" x1="307.52" y1="272.08" x2="286" y2="272.08"/><line class="cls-65" x1="308.06" y1="286.06" x2="286.54" y2="286.06"/><line class="cls-65" x1="288.63" y1="304.98" x2="288.63" y2="283.46"/><line class="cls-65" x1="255.3" y1="271.57" x2="276.82" y2="271.57"/><line class="cls-65" x1="274.73" y1="252.65" x2="274.73" y2="274.17"/><line class="cls-65" x1="274.7" y1="304.98" x2="274.7" y2="283.46"/><line class="cls-65" x1="255.77" y1="285.55" x2="277.29" y2="285.55"/></g><g id="テキスト"><circle class="cls-8" cx="395.32" cy="278.36" r="43.36"/><circle class="cls-47" cx="395.32" cy="276.89" r="39.52"/><circle class="cls-48" cx="395.39" cy="278.22" r="39.3"/><text class="cls-66" transform="translate(376.65 291.76) scale(1.05 1)">A</text><line class="cls-67" x1="375.43" y1="296.69" x2="417.79" y2="296.69"/></g><g id="アプリ"><circle class="cls-8" cx="511.62" cy="279.48" r="43.36"/><circle class="cls-68" cx="511.62" cy="279.48" r="39.52"/><circle class="cls-69" cx="511.62" cy="279.62" r="39.19"/><circle class="cls-60" cx="511.62" cy="279.62" r="37.71"/><path class="cls-70" d="M517.89,288.68" transform="translate(-27.15)"/><rect class="cls-71" x="489.19" y="257.4" width="18.8" height="18.8" rx="2.83"/><rect class="cls-71" x="515.37" y="257.4" width="18.8" height="18.8" rx="2.83"/><rect class="cls-71" x="489.19" y="283.46" width="18.8" height="18.8" rx="2.83"/><rect class="cls-71" x="515.37" y="283.86" width="18.8" height="18.8" rx="2.83"/></g><g id="共有"><circle class="cls-8" cx="625.88" cy="278.97" r="43.36"/><circle class="cls-72" cx="625.88" cy="278.97" r="39.52"/><circle class="cls-73" cx="625.88" cy="279.33" r="36.08"/><path class="cls-74" d="M644.51,283.6c25.19,0,27.38-9.52,27.38-14.79,0-4.35-2.09-12.32-20.57-12.32-14.2,0-19.45,8.83-16.68,19.67" transform="translate(-27.15)"/><path class="cls-74" d="M671.09,283.6c4.63,4.23,7.14,17.85-15.88,17.85-15.52,0-20.57-4.68-20.57-12.32,0-13,13.37-13,25.35-13" transform="translate(-27.15)"/></g><g id="リスト"><circle class="cls-8" cx="741.55" cy="279.97" r="43.36"/><circle class="cls-75" cx="741.36" cy="279.57" r="40.66"/><circle class="cls-76" cx="741.55" cy="279.57" r="38.68"/><rect class="cls-77" x="717.11" y="264.34" width="5.79" height="5.81"/><rect class="cls-77" x="727.3" y="264.34" width="40.44" height="5.81"/><rect class="cls-77" x="717.11" y="276.39" width="5.79" height="5.81"/><rect class="cls-77" x="727.3" y="276.39" width="40.44" height="5.81"/><rect class="cls-77" x="717.11" y="288.08" width="5.79" height="5.81"/><rect class="cls-77" x="727.3" y="288.08" width="40.44" height="5.81"/></g><g id="お知らせ"><circle class="cls-8" cx="856.68" cy="278.97" r="43.36"/><circle class="cls-33" cx="857.3" cy="278.97" r="39.52"/><circle class="cls-34" cx="856.68" cy="279.11" r="39.19"/><circle class="cls-35" cx="856.68" cy="279.39" r="37.26"/><polyline class="cls-33" points="877.38 294.15 867.31 294.15 867.31 304.78"/><path class="cls-36" d="M866.28,291s-1.56-17.82-.35-24.61a18.41,18.41,0,0,1,18.52-14.64c11.49,0,17,9,18.6,14.64,1.16,4.12-.43,19.87-.43,24.61,0,0,5.21,2.17,6.51,6.09H859.77S863,291.45,866.28,291Z" transform="translate(-27.15)"/><path class="cls-36" d="M879.42,298.53h11.25s-.94,4.8-5.27,4.8A6.12,6.12,0,0,1,879.42,298.53Z" transform="translate(-27.15)"/><path class="cls-36" d="M882.7,253s-.26-3.91,2.22-3.91S887.4,253,887.4,253Z" transform="translate(-27.15)"/></g><g id="グラフ"><circle class="cls-8" cx="972.69" cy="278.07" r="43.36"/><circle class="cls-40" cx="972.5" cy="278.33" r="37.54"/><circle class="cls-78" cx="972.5" cy="278.07" r="39.45"/><rect class="cls-79" x="952.75" y="273.91" width="9.81" height="23.91"/><rect class="cls-79" x="967.7" y="251.06" width="9.81" height="46.76"/><rect class="cls-79" x="982.83" y="263.89" width="9.81" height="33.93"/></g><g id="ビデオoff"><circle class="cls-8" cx="1087.3" cy="278.07" r="43.36"/><circle class="cls-28" cx="1087.3" cy="278.07" r="39.52"/><circle class="cls-29" cx="1087.3" cy="278.22" r="39.19"/><circle class="cls-30" cx="1087.3" cy="278.36" r="36.11"/><line class="cls-80" x1="1066.66" y1="254.94" x2="1106.7" y2="298.47"/><polygon class="cls-31" points="1077.41 262.51 1102.74 290.05 1102.74 281.17 1115.17 291.36 1115.17 266.3 1102.74 274.93 1102.74 262.51 1077.41 262.51"/><polygon class="cls-31" points="1071.76 262.65 1100.58 293.78 1064.55 293.78 1064.55 262.65 1071.76 262.65"/></g><g id="Airplay"><circle class="cls-8" cx="51.99" cy="418.84" r="43.36"/><circle class="cls-37" cx="51.99" cy="418.84" r="40.77"/><circle class="cls-38" cx="51.99" cy="418.84" r="31.43"/><polygon points="52.15 425.33 39.26 438.32 64.81 438.32 52.15 425.33"/><path class="cls-81" d="M68.92,429.05H61.55a2.85,2.85,0,0,1-2.84-2.84v-19.8a2.85,2.85,0,0,1,2.84-2.84H96.11A2.85,2.85,0,0,1,99,406.41v19.8a2.85,2.85,0,0,1-2.84,2.84H89.35" transform="translate(-27.15)"/><line class="cls-82" x1="69.22" y1="421.55" x2="69.22" y2="421.55"/></g><g id="Airdrop"><circle class="cls-8" cx="167.49" cy="419.45" r="43.36"/><circle class="cls-83" cx="167.49" cy="419.45" r="39.52"/><circle class="cls-60" cx="167.49" cy="419.73" r="35.72"/><circle class="cls-84" cx="167.7" cy="419.42" r="26.73"/><circle class="cls-83" cx="167.7" cy="419.65" r="23.08"/><circle class="cls-84" cx="167.7" cy="419.42" r="17.85"/><circle class="cls-83" cx="167.7" cy="419.65" r="14.33"/><circle class="cls-84" cx="167.7" cy="419.42" r="9.96"/><circle class="cls-83" cx="167.7" cy="419.42" r="6.85"/><polygon class="cls-83" points="167.87 422.7 149.43 446.15 185.97 446.15 167.87 422.7"/></g><g id="リンク"><circle class="cls-8" cx="283.4" cy="419.42" r="43.36"/><circle class="cls-54" cx="283.4" cy="419.42" r="39.52"/><circle class="cls-55" cx="283.4" cy="419.42" r="37.59"/><rect class="cls-56" x="257.57" y="375.58" width="51.67" height="38.19"/><path class="cls-85" d="M336.82,419.7c0,5.75-5.1,10.46-11.34,10.46H295.32c-6.24,0-11.34-4.71-11.34-10.46s5.1-10.46,11.34-10.46h30.16C331.72,409.24,336.82,414,336.82,419.7Z" transform="translate(-27.15)"/><line class="cls-85" x1="271.93" y1="419.5" x2="294.56" y2="419.5"/><rect class="cls-54" x="281.34" y="403.61" width="3.81" height="10.85"/><rect class="cls-54" x="281.34" y="427.43" width="3.81" height="10.85"/></g><g id="フラッシュ"><circle class="cls-8" cx="396.68" cy="419.73" r="43.36"/><circle class="cls-17" cx="396.68" cy="419.73" r="39.52"/><circle class="cls-18" cx="396.68" cy="419.88" r="39.71"/><circle class="cls-18" cx="396.68" cy="419.98" r="36.79"/><circle class="cls-19" cx="396.61" cy="419.98" r="34.8"/><line class="cls-20" x1="396.62" y1="405.48" x2="396.98" y2="441.37"/><line class="cls-20" x1="378.96" y1="408.63" x2="392.42" y2="410.98"/><line class="cls-20" x1="378.1" y1="419.04" x2="391.55" y2="421.39"/><line class="cls-20" x1="378.1" y1="429.94" x2="391.55" y2="432.29"/><line class="cls-20" x1="402.15" y1="421.39" x2="415.47" y2="419.04"/><line class="cls-20" x1="402.15" y1="432.29" x2="415.47" y2="429.94"/><polygon class="cls-21" points="383.91 396.53 383.91 423.81 394.29 423.81 394.29 446.98 411.45 418.23 398.91 418.23 408.37 396.53 383.91 396.53"/></g><g id="自動フラッシュ"><circle class="cls-8" cx="511.68" cy="419.45" r="43.36"/><circle class="cls-86" cx="511.68" cy="419.45" r="39.52"/><circle class="cls-87" cx="511.68" cy="419.45" r="37.12"/><polygon class="cls-88" points="494.35 396.53 494.35 423.81 504.73 423.81 504.73 446.98 521.89 418.23 509.35 418.23 518.81 396.53 494.35 396.53"/><text class="cls-89" transform="translate(518.98 415.17) scale(1.24 1)">A</text></g><g id="フラッシュオフ"><circle class="cls-8" cx="625.88" cy="419.04" r="43.36"/><circle class="cls-50" cx="625.88" cy="419.04" r="39.52"/><circle class="cls-51" cx="625.88" cy="419.18" r="39.19"/><circle class="cls-52" cx="625.88" cy="419.18" r="36.56"/><line class="cls-90" x1="607.49" y1="397.38" x2="646.62" y2="440.3"/><polygon class="cls-53" points="614.58 400.97 629.58 417.56 639.04 395.86 614.58 395.86 614.58 400.97"/><polygon class="cls-53" points="637.31 425.61 642.12 417.56 629.58 417.56 637.31 425.61"/><polygon class="cls-53" points="614.58 407.38 635.13 429.94 624.95 446.98 624.95 423.81 614.58 423.81 614.58 407.38"/></g><g id="編集"><circle class="cls-8" cx="742.43" cy="419.73" r="43.36"/><circle class="cls-91" cx="742.36" cy="420.24" r="36.16"/><circle class="cls-92" cx="742.15" cy="419.87" r="40.92"/><circle class="cls-92" cx="742.36" cy="420.24" r="36.47"/><line class="cls-93" x1="732.72" y1="411.79" x2="732.72" y2="435.44"/><line class="cls-93" x1="743.53" y1="411.79" x2="743.53" y2="435.44"/><path class="cls-94" d="M779.76,417.58" transform="translate(-27.15)"/><path class="cls-94" d="M759.39,417.58" transform="translate(-27.15)"/><circle class="cls-95" cx="740.87" cy="418.49" r="20.3"/><line class="cls-94" x1="730.69" y1="418.35" x2="751.06" y2="418.35"/><circle class="cls-95" cx="742.43" cy="419.98" r="26.71"/><polygon class="cls-40" points="754.23 399.75 725.67 429.93 725.05 437.93 733.62 437.12 762.01 407.12 754.23 399.75"/><line class="cls-96" x1="749.05" y1="403.54" x2="759.94" y2="413.92"/></g><g id="レストラン"><circle class="cls-8" cx="856.75" cy="418.35" r="43.36"/><circle class="cls-23" cx="856.75" cy="418.35" r="38.83"/><circle class="cls-24" cx="856.91" cy="418.35" r="37.04"/><circle class="cls-25" cx="856.91" cy="418.35" r="36.3"/><path class="cls-26" d="M888,424.69V406c0-4,11.32-12.19,11.32-12.19v49.16H895.9V424.69Z" transform="translate(-27.15)"/><path class="cls-26" d="M871.79,424.53v18.4h3.64v-18.4s6.36-2.07,6.36-5V395.23h-2.73v15.62H875V395.23h-3.18v15.84l-3.78,0V395.23h-3.33v24.29C864.68,421.05,869.78,424.53,871.79,424.53Z" transform="translate(-27.15)"/></g><g id="GPS"><circle class="cls-8" cx="972.3" cy="417.58" r="43.36"/><circle class="cls-44" cx="972.3" cy="417.58" r="39.52"/><circle class="cls-45" cx="972.3" cy="417.72" r="39.19"/><circle class="cls-97" cx="972.83" cy="417.58" r="20.3"/><circle class="cls-46" cx="972.83" cy="417.58" r="10.23"/><line class="cls-97" x1="972.83" y1="388.51" x2="972.83" y2="395.76"/><line class="cls-97" x1="972.83" y1="439.39" x2="972.83" y2="446.64"/><line class="cls-97" x1="993.13" y1="417.58" x2="1002.41" y2="417.58"/><line class="cls-97" x1="953.31" y1="417.58" x2="942.98" y2="417.58"/></g><g id="GPSオフ"><circle class="cls-8" cx="1086.68" cy="419.87" r="43.36"/><circle class="cls-98" cx="1086.68" cy="419.87" r="40.32"/><circle class="cls-99" cx="1086.68" cy="419.87" r="37.23"/><circle class="cls-99" cx="1086.68" cy="419.87" r="35.56"/><circle class="cls-97" cx="1086.81" cy="419.87" r="19.95"/><line class="cls-97" x1="1086.81" y1="391.3" x2="1086.81" y2="398.43"/><line class="cls-97" x1="1086.81" y1="441.32" x2="1086.81" y2="448.45"/><line class="cls-97" x1="1106.77" y1="419.87" x2="1115.89" y2="419.87"/><line class="cls-97" x1="1067.62" y1="419.87" x2="1057.46" y2="419.87"/><line class="cls-100" x1="1066.62" y1="398.06" x2="1109.09" y2="441.68"/><line class="cls-101" x1="1068.44" y1="396.29" x2="1110.91" y2="439.91"/></g><g id="禁止"><circle class="cls-8" cx="51.44" cy="559.61" r="43.36"/><circle class="cls-72" cx="51.44" cy="559.61" r="39.52"/><circle class="cls-73" cx="51.44" cy="559.97" r="36.08"/><circle class="cls-74" cx="51.68" cy="560.51" r="25.95"/><line class="cls-74" x1="34.48" y1="543.09" x2="70.33" y2="578.54"/></g><g id="カレンダー"><circle class="cls-8" cx="166.56" cy="560.23" r="43.36"/><circle class="cls-28" cx="166.56" cy="560.23" r="39.52"/><circle class="cls-29" cx="166.56" cy="560.37" r="39.19"/><circle class="cls-30" cx="166.56" cy="560.51" r="36.11"/><rect class="cls-102" x="146.86" y="543.55" width="40.58" height="38.41"/><rect class="cls-31" x="146.86" y="543.55" width="40.25" height="9.45"/><rect class="cls-31" x="152.13" y="556.28" width="12.96" height="12.96"/><line class="cls-103" x1="156.84" y1="543.55" x2="156.84" y2="534.56"/><line class="cls-103" x1="177.92" y1="542.46" x2="177.92" y2="534.56"/></g><g id="バックアップ"><circle class="cls-8" cx="281.68" cy="559.97" r="43.36"/><circle class="cls-40" cx="281.48" cy="560.23" r="37.54"/><circle class="cls-78" cx="281.48" cy="559.97" r="39.45"/><path class="cls-79" d="M291,574.52h38.93s8.68-.95,8.68-12.12c0-5.43-4.82-10.31-12.86-10.31,0,0,0-12.53-15.74-13.42-10-.56-17.63,6.43-17.63,10.42,0,0-12,1.89-12,13.31C280.39,568.94,284.83,574.52,291,574.52Z" transform="translate(-27.15)"/><polygon points="290.64 556.13 285.48 556.13 285.44 568.14 277.66 568.14 277.66 556.13 272.72 556.13 281.55 547.87 290.64 556.13"/></g><g id="アップデート"><circle class="cls-8" cx="395.39" cy="560.51" r="43.36"/><circle class="cls-50" cx="395.39" cy="560.51" r="39.52"/><circle class="cls-51" cx="395.39" cy="560.65" r="39.19"/><circle class="cls-52" cx="395.39" cy="560.65" r="36.56"/><rect class="cls-104" x="379.15" y="534.73" width="32.33" height="51.84"/><rect class="cls-53" x="379.92" y="533.38" width="32.33" height="6.16"/><rect class="cls-53" x="378.21" y="581.94" width="33.27" height="4.63"/><text class="cls-105" transform="translate(381.79 571.89)">⇩</text><polygon points="386.09 563.63 391.77 563.63 391.81 550.39 398.85 550.39 398.85 563.63 403.31 563.63 395.33 572.73 386.09 563.63"/></g><g id="送る"><circle class="cls-8" cx="511.62" cy="559.97" r="43.36"/><circle class="cls-47" cx="511.62" cy="558.5" r="39.52"/><circle class="cls-48" cx="511.69" cy="559.83" r="39.3"/><polygon class="cls-106" points="488.77 540.04 488.77 557.35 544.81 559.61 488.77 540.04"/><polygon class="cls-106" points="488.77 579.18 488.77 561.79 544.81 559.61 488.77 579.18"/></g><g id="コピーライト"><circle class="cls-8" cx="627.25" cy="558.86" r="43.36"/><circle class="cls-44" cx="627.25" cy="558.86" r="39.52"/><circle class="cls-45" cx="627.25" cy="559" r="39.19"/><text class="cls-107" transform="translate(604.28 578.3) scale(1.14 1)">C</text></g><g id="バッテリーエラー"><circle class="cls-8" cx="740.87" cy="560.51" r="43.36"/><circle class="cls-83" cx="740.87" cy="560.51" r="39.52"/><circle class="cls-60" cx="740.87" cy="560.79" r="35.72"/><polygon class="cls-84" points="724.45 540.62 724.45 582.69 757.29 582.69 757.29 540.62 748.72 540.62 748.72 535.03 734.01 535.03 734.01 540.48 724.45 540.62"/><text class="cls-108" transform="translate(718.94 575.24) scale(1.21 1)">！</text></g><g id="タイマー"><circle class="cls-8" cx="857.89" cy="559.83" r="43.36"/><circle class="cls-75" cx="857.7" cy="559.43" r="40.66"/><circle class="cls-76" cx="857.89" cy="559.43" r="38.68"/><circle class="cls-77" cx="858.05" cy="562.7" r="25.07"/><line class="cls-109" x1="847.95" y1="533.24" x2="867.76" y2="533.24"/><line class="cls-109" x1="876.16" y1="545.98" x2="881.34" y2="541.2"/><line class="cls-110" x1="858.05" y1="544.82" x2="858.05" y2="562.28"/></g><g id="通話中"><circle class="cls-8" cx="972.69" cy="559.85" r="43.36"/><circle class="cls-54" cx="972.69" cy="559.85" r="39.52"/><circle class="cls-55" cx="972.69" cy="559.85" r="37.59"/><rect class="cls-56" x="946.86" y="516.01" width="51.67" height="38.19"/><path class="cls-85" d="M1011,559.93" transform="translate(-27.15)"/><path class="cls-85" d="M988.38,559.93" transform="translate(-27.15)"/><rect class="cls-54" x="970.63" y="544.04" width="3.81" height="10.85"/><rect class="cls-54" x="970.63" y="567.86" width="3.81" height="10.85"/><path class="cls-58" d="M993.3,536.06l-.41,11.17-8,5.14c-1,8.26,5.41,21.51,18.25,22.18l3-4,11.94,1s.92,13.58-1.6,13.48c-20-.72-26.37-8.25-31.59-14.91-11.72-15-5.54-32.14-4.45-34.13C981.71,533.47,993.3,536.06,993.3,536.06Z" transform="translate(-27.15)"/><path class="cls-57" d="M1001.58,548s6.16-1.22,9.91,3.75c4.56,6,1.82,9.86,1.82,9.86" transform="translate(-27.15)"/><path class="cls-57" d="M1000.51,540.41s10.39-1.94,17.08,6.46c8.38,10.51,3.13,17,3.13,17" transform="translate(-27.15)"/></g><g id="ハイビジョン"><circle class="cls-8" cx="1087.3" cy="559.61" r="43.36"/><circle class="cls-63" cx="1087.3" cy="559.61" r="38.99"/><circle class="cls-64" cx="1087.3" cy="559.61" r="40.02"/><text class="cls-111" transform="translate(1058.25 573.29) scale(1.15 1)">HD</text></g><g id="その他"><circle class="cls-8" cx="51.44" cy="700.52" r="43.36"/><circle class="cls-23" cx="51.44" cy="700.52" r="38.83"/><circle class="cls-24" cx="51.6" cy="700.52" r="37.04"/><circle class="cls-25" cx="51.6" cy="700.52" r="36.3"/><circle class="cls-26" cx="51.34" cy="682.84" r="4.07"/><circle class="cls-26" cx="51.34" cy="700.38" r="4.07"/><circle class="cls-26" cx="51.15" cy="717.92" r="4.07"/></g><g id="リピート"><circle class="cls-8" cx="167.01" cy="700.87" r="43.36"/><circle class="cls-98" cx="167.75" cy="702.06" r="40.32"/><circle class="cls-99" cx="167.01" cy="700.87" r="37.23"/><circle class="cls-99" cx="167.01" cy="700.87" r="35.56"/><line class="cls-101" x1="148.78" y1="677.29" x2="191.25" y2="720.91"/><polyline class="cls-97" points="186.44 687.77 144.14 687.77 144.14 700.17"/><path class="cls-97" d="M216.48,688.21" transform="translate(-27.15)"/><polygon class="cls-46" points="182.08 679.14 182.08 697.28 192.57 687.85 182.08 679.14"/><polyline class="cls-97" points="147.91 711.17 190.21 711.17 190.21 698.77"/><polygon class="cls-46" points="152.26 719.8 152.26 701.66 141.78 711.1 152.26 719.8"/></g><g id="シャッフル"><circle class="cls-8" cx="281.68" cy="700.52" r="43.36"/><circle class="cls-68" cx="281.68" cy="700.52" r="39.52"/><circle class="cls-69" cx="281.68" cy="700.66" r="39.19"/><circle class="cls-60" cx="281.68" cy="700.66" r="37.71"/><path class="cls-70" d="M288,709.72" transform="translate(-27.15)"/><polygon class="cls-71" points="298.61 702.73 298.61 722.56 310.08 712.25 298.61 702.73"/><polygon class="cls-71" points="298.88 695.76 298.88 677.63 309.37 687.06 298.88 695.76"/><path class="cls-112" d="M285.79,686.81s10-1.31,15.43,5c3.8,4.41,3.37,15.73,12.44,18.8a48.86,48.86,0,0,0,15.57,2" transform="translate(-27.15)"/><path class="cls-112" d="M330.16,689.38s-9.36-6.15-16.79,6c-3,5-4.88,14.66-13.95,17.73a36.17,36.17,0,0,1-15,1.28" transform="translate(-27.15)"/></g><g id="買い物かご"><circle class="cls-8" cx="396.68" cy="700.1" r="43.36"/><circle class="cls-40" cx="396.68" cy="700.52" r="35.88"/><circle class="cls-41" cx="396.68" cy="700.38" r="40.57"/><circle class="cls-42" cx="396.68" cy="700.1" r="38.95"/><polygon class="cls-43" points="373.23 697.48 420.23 697.48 409.57 722.34 384.24 722.34 373.23 697.48"/><line class="cls-62" x1="369.16" y1="697.48" x2="424.2" y2="697.48"/><line class="cls-62" x1="375.79" y1="696.53" x2="388.93" y2="676.29"/><line class="cls-62" x1="416.62" y1="696.86" x2="404.56" y2="675.96"/></g><g id="調整"><circle class="cls-8" cx="512.9" cy="701.38" r="43.36"/><circle class="cls-17" cx="512.9" cy="701.38" r="39.52"/><circle class="cls-18" cx="512.9" cy="701.53" r="39.71"/><circle class="cls-18" cx="512.9" cy="701.63" r="36.79"/><circle class="cls-19" cx="512.83" cy="701.63" r="34.8"/><line class="cls-20" x1="512.84" y1="687.13" x2="513.21" y2="723.02"/><line class="cls-20" x1="495.19" y1="690.28" x2="508.64" y2="692.63"/><line class="cls-20" x1="494.32" y1="700.69" x2="507.78" y2="703.04"/><line class="cls-20" x1="494.32" y1="711.59" x2="507.78" y2="713.94"/><line class="cls-20" x1="518.37" y1="703.04" x2="531.7" y2="700.69"/><line class="cls-20" x1="518.37" y1="713.94" x2="531.7" y2="711.59"/><circle class="cls-113" cx="496.02" cy="699.85" r="4.47"/><circle class="cls-113" cx="512.96" cy="710.52" r="4.47"/><circle class="cls-113" cx="530.03" cy="690.45" r="4.47"/><line class="cls-114" x1="496.02" y1="680.01" x2="496.02" y2="695.38"/><line class="cls-114" x1="496.02" y1="704.32" x2="496.02" y2="720.45"/><line class="cls-114" x1="512.96" y1="680.01" x2="512.96" y2="705.5"/><line class="cls-114" x1="512.96" y1="714.99" x2="512.96" y2="720.45"/><line class="cls-114" x1="530.03" y1="694.91" x2="530.03" y2="720.45"/><line class="cls-114" x1="530.03" y1="685.98" x2="530.03" y2="680.01"/></g><g id="設定"><circle class="cls-8" cx="627.79" cy="700.87" r="43.36"/><circle class="cls-91" cx="627.72" cy="701.38" r="36.16"/><circle class="cls-92" cx="627.51" cy="701.01" r="40.92"/><circle class="cls-92" cx="627.72" cy="701.38" r="36.47"/><line class="cls-93" x1="618.07" y1="692.93" x2="618.07" y2="716.58"/><line class="cls-93" x1="628.89" y1="692.93" x2="628.89" y2="716.58"/><path class="cls-94" d="M665.12,698.71" transform="translate(-27.15)"/><path class="cls-94" d="M644.75,698.71" transform="translate(-27.15)"/><circle class="cls-95" cx="626.23" cy="699.62" r="20.3"/><line class="cls-94" x1="616.05" y1="699.49" x2="636.42" y2="699.49"/><circle class="cls-95" cx="627.79" cy="701.12" r="26.71"/><rect x="623.02" y="678.78" width="10.18" height="44.67"/><polygon points="612.14 692.03 627.96 681.91 645.16 692.86 644.14 711.71 628.06 720.52 611.49 710.54 612.14 692.03 612.14 692.03"/><rect x="649.85" y="678.22" width="10.18" height="46.34" transform="translate(948.76 -202.97) rotate(62.58)"/><rect x="649.98" y="678.01" width="10.18" height="45.94" transform="translate(-306.68 917.8) rotate(-60)"/><circle class="cls-8" cx="628.49" cy="701.02" r="7.91"/></g><g id="フラグ"><circle class="cls-8" cx="741.36" cy="700.38" r="43.36"/><circle class="cls-59" cx="741.36" cy="700.38" r="39.52"/><circle class="cls-60" cx="741.29" cy="700.63" r="35.21"/><line class="cls-56" x1="720.53" y1="693.77" x2="720.53" y2="682.97"/><line class="cls-61" x1="723.33" y1="678.49" x2="723.33" y2="723.53"/><polygon class="cls-115" points="727.99 678.49 764.03 678.49 755.45 689.59 764.03 699.11 727.99 699.11 727.99 678.49"/></g><g id="クレジットカード"><circle class="cls-8" cx="856.52" cy="701.53" r="43.36"/><circle class="cls-37" cx="856.52" cy="701.53" r="40.77"/><circle class="cls-38" cx="856.52" cy="701.53" r="31.43"/><line class="cls-82" x1="873.75" y1="704.23" x2="873.75" y2="704.23"/><rect x="833.59" y="694.9" width="45.86" height="22.49"/><rect x="833.59" y="685.81" width="45.86" height="7.44"/><rect class="cls-116" x="838.75" y="699.16" width="12.67" height="2.27"/><rect class="cls-116" x="838.75" y="706.67" width="17.77" height="2.18"/><rect class="cls-116" x="853.81" y="699.16" width="2.71" height="2.27"/></g><g id="言語"><circle class="cls-8" cx="971.68" cy="699.35" r="43.36"/><circle class="cls-33" cx="972.3" cy="699.35" r="39.52"/><circle class="cls-34" cx="971.68" cy="699.49" r="39.19"/><circle class="cls-35" cx="971.68" cy="699.78" r="37.26"/><polyline class="cls-33" points="992.38 714.53 982.31 714.53 982.31 725.16"/><circle class="cls-117" cx="971.91" cy="699.78" r="28.73"/><line class="cls-117" x1="946.06" y1="687.24" x2="997.47" y2="687.24"/><line class="cls-117" x1="945.79" y1="711.73" x2="997.47" y2="711.73"/><path class="cls-117" d="M996.23,671.68s-9.71,12.15-9.71,27.85c0,15.54,9.71,28.34,9.71,28.34" transform="translate(-27.15)"/><path class="cls-117" d="M1001.5,671.67s9.71,12.16,9.71,27.86c0,15.54-9.71,28.35-9.71,28.35" transform="translate(-27.15)"/></g><g id="充電"><circle class="cls-8" cx="1087.3" cy="700.52" r="43.36"/><circle class="cls-86" cx="1087.3" cy="700.52" r="39.52"/><circle class="cls-87" cx="1087.3" cy="700.52" r="37.12"/><rect class="cls-88" x="1071.49" y="682.24" width="30.93" height="26.59"/><line class="cls-118" x1="1086.68" y1="705.18" x2="1086.68" y2="731.37"/><line class="cls-118" x1="1079.32" y1="672.81" x2="1079.32" y2="683.37"/><line class="cls-118" x1="1095.15" y1="672.81" x2="1095.15" y2="685.8"/></g></svg>