<svg xmlns="http://www.w3.org/2000/svg" viewBox="0 0 1137 821.67"><defs><style>.cls-1{font-size:19px;}.cls-1,.cls-2,.cls-5{font-family:KozGoPro-Medium, KozGoPro Medium-83pv-RKSJ-H;font-weight:500;}.cls-2{font-size:16px;}.cls-3,.cls-5{font-size:13px;}.cls-3{font-family:KozGoPro-Bold, KozGoPro Bold-83pv-RKSJ-H;font-weight:700;}.cls-4{letter-spacing:-0.5em;}.cls-23,.cls-34,.cls-37,.cls-56,.cls-58,.cls-6,.cls-68,.cls-69,.cls-75{fill:none;}.cls-6{stroke:#ccc;}.cls-12,.cls-13,.cls-14,.cls-15,.cls-20,.cls-21,.cls-23,.cls-27,.cls-28,.cls-31,.cls-32,.cls-33,.cls-34,.cls-35,.cls-37,.cls-38,.cls-39,.cls-40,.cls-41,.cls-46,.cls-47,.cls-48,.cls-49,.cls-50,.cls-52,.cls-53,.cls-55,.cls-56,.cls-57,.cls-59,.cls-6,.cls-60,.cls-61,.cls-64,.cls-65,.cls-66,.cls-67,.cls-69,.cls-70,.cls-71,.cls-72,.cls-73,.cls-74,.cls-75,.cls-76,.cls-77,.cls-78,.cls-79{stroke-miterlimit:10;}.cls-7{font-size:24px;}.cls-13,.cls-22,.cls-26,.cls-29,.cls-38,.cls-41,.cls-43,.cls-45,.cls-46,.cls-55,.cls-7,.cls-9{fill:#fff;}.cls-16,.cls-17,.cls-18,.cls-19,.cls-25,.cls-26,.cls-29,.cls-43,.cls-45,.cls-51,.cls-54,.cls-7{font-family:KozGoPr6N-Regular-90ms-RKSJ-H, Kozuka Gothic Pr6N;}.cls-8{font-family:KozGoPro-Heavy, KozGoPro Heavy-83pv-RKSJ-H;font-weight:800;}.cls-10{font-size:12px;font-family:KozGoPro-Regular-90ms-RKSJ-H, Kozuka Gothic Pro;}.cls-11{letter-spacing:0.25em;}.cls-12{fill:#f79933;}.cls-12,.cls-13,.cls-14,.cls-15,.cls-20,.cls-22,.cls-24,.cls-27,.cls-28,.cls-31,.cls-32,.cls-33,.cls-34,.cls-35,.cls-38,.cls-39,.cls-47,.cls-48,.cls-49,.cls-50,.cls-52,.cls-53,.cls-56,.cls-57,.cls-58,.cls-59,.cls-60,.cls-61,.cls-62,.cls-64,.cls-65,.cls-66,.cls-67,.cls-71,.cls-72,.cls-73,.cls-74,.cls-76,.cls-77,.cls-78,.cls-79{stroke:#000;}.cls-12,.cls-13,.cls-14,.cls-15,.cls-20,.cls-21,.cls-22,.cls-24,.cls-27,.cls-28,.cls-31,.cls-32,.cls-33,.cls-35,.cls-39,.cls-40,.cls-41,.cls-46,.cls-47,.cls-48,.cls-49,.cls-50,.cls-52,.cls-53,.cls-55,.cls-56,.cls-57,.cls-58,.cls-59,.cls-60,.cls-61,.cls-62,.cls-64,.cls-65,.cls-66,.cls-67,.cls-68,.cls-69,.cls-70,.cls-71,.cls-72,.cls-73,.cls-74,.cls-75,.cls-76,.cls-77,.cls-78,.cls-79{stroke-width:2px;}.cls-14{fill:#3398c3;}.cls-15{fill:#313390;}.cls-16{font-size:20.19px;}.cls-16,.cls-17,.cls-18,.cls-28{fill:#f7f732;}.cls-17{font-size:28.63px;}.cls-18{font-size:46.17px;}.cls-19{font-size:47.05px;}.cls-21,.cls-37,.cls-40,.cls-55,.cls-68,.cls-69{stroke:#fff;}.cls-22,.cls-24,.cls-58,.cls-62,.cls-68{stroke-linejoin:bevel;}.cls-23{stroke:#25992f;}.cls-25{font-size:19.52px;}.cls-26{font-size:24.37px;}.cls-27,.cls-44{fill:#f70f33;}.cls-29{font-size:19.6px;}.cls-30{fill:#f69b18;}.cls-31{fill:#30afbf;}.cls-32,.cls-40,.cls-42{fill:#999;}.cls-33{fill:#d4d6d5;}.cls-34{stroke-width:0.5px;}.cls-35,.cls-36{fill:#f62516;}.cls-39{fill:#1c98c3;}.cls-41,.cls-70{stroke:#b8b5b5;}.cls-43{font-size:6.58px;}.cls-45{font-size:6.37px;}.cls-46{stroke:#f69718;}.cls-47{fill:#f95f19;}.cls-48{fill:#2f9435;}.cls-49{fill:#f9f966;}.cls-50{fill:#f8b545;}.cls-51{font-size:26.23px;}.cls-52{fill:#f0429e;}.cls-53{fill:#f7f719;}.cls-54{font-size:33.69px;}.cls-57{fill:#f9eda2;}.cls-59{fill:#f8cc66;}.cls-60,.cls-62{fill:#e0dfd9;}.cls-61{fill:#e0d9d9;}.cls-63{fill:#fa0f0c;}.cls-64{fill:#f7bec0;}.cls-65{fill:#3064ab;}.cls-66{fill:#0f8b37;}.cls-67{fill:#1aa9cc;}.cls-70,.cls-71{fill:#ccc;}.cls-72{fill:#f498c2;}.cls-73{fill:#2dacaf;}.cls-74{fill:#f070b6;}.cls-75{stroke:#986612;}.cls-76{fill:#f01485;}.cls-77{fill:#cc1233;}.cls-78{fill:#330966;}.cls-79{fill:#6498c1;}</style></defs><g id="テンプレート"><path d="M29,0V55.41a12,12,0,0,0,12,12H413.83a12,12,0,0,0,12-12V0Z" transform="translate(-28.33)"/><text class="cls-1" transform="translate(931.95 46.3)">www.design-icon.com</text><text class="cls-2" transform="translate(418.97 55.3)">DESIGNER : 簑口　玲音</text><text class="cls-3" transform="translate(805.5 817.27)">利用規約：個人、商用、すべてフリーでご利用ください<tspan class="cls-4" x="325" y="0">。</tspan></text><text class="cls-5" transform="translate(418.97 30.16)">サイズ：100 x 100 px</text><rect class="cls-6" x="0.5" y="87.3" width="100" height="100"/><rect class="cls-6" x="115.5" y="87.3" width="100" height="100"/><rect class="cls-6" x="230.5" y="87.3" width="100" height="100"/><rect class="cls-6" x="345.5" y="87.3" width="100" height="100"/><rect class="cls-6" x="460.5" y="87.3" width="100" height="100"/><rect class="cls-6" x="575.5" y="87.3" width="100" height="100"/><rect class="cls-6" x="690.5" y="87.3" width="100" height="100"/><rect class="cls-6" x="805.5" y="87.3" width="100" height="100"/><rect class="cls-6" x="920.5" y="87.3" width="100" height="100"/><rect class="cls-6" x="1035.5" y="87.3" width="100" height="100"/><rect class="cls-6" x="0.5" y="228.07" width="100" height="100"/><rect class="cls-6" x="115.5" y="228.07" width="100" height="100"/><rect class="cls-6" x="230.5" y="228.07" width="100" height="100"/><rect class="cls-6" x="345.5" y="228.07" width="100" height="100"/><rect class="cls-6" x="460.5" y="228.07" width="100" height="100"/><rect class="cls-6" x="575.5" y="228.07" width="100" height="100"/><rect class="cls-6" x="690.5" y="228.07" width="100" height="100"/><rect class="cls-6" x="805.5" y="228.07" width="100" height="100"/><rect class="cls-6" x="920.5" y="228.07" width="100" height="100"/><rect class="cls-6" x="1035.5" y="228.07" width="100" height="100"/><rect class="cls-6" x="0.5" y="368.84" width="100" height="100"/><rect class="cls-6" x="115.5" y="368.84" width="100" height="100"/><rect class="cls-6" x="230.5" y="368.84" width="100" height="100"/><rect class="cls-6" x="345.5" y="368.84" width="100" height="100"/><rect class="cls-6" x="460.5" y="368.84" width="100" height="100"/><rect class="cls-6" x="575.5" y="368.84" width="100" height="100"/><rect class="cls-6" x="690.5" y="368.84" width="100" height="100"/><rect class="cls-6" x="805.5" y="368.84" width="100" height="100"/><rect class="cls-6" x="920.5" y="368.84" width="100" height="100"/><rect class="cls-6" x="1035.5" y="368.84" width="100" height="100"/><rect class="cls-6" x="0.5" y="509.61" width="100" height="100"/><rect class="cls-6" x="115.5" y="509.61" width="100" height="100"/><rect class="cls-6" x="230.5" y="509.61" width="100" height="100"/><rect class="cls-6" x="345.5" y="509.61" width="100" height="100"/><rect class="cls-6" x="460.5" y="509.61" width="100" height="100"/><rect class="cls-6" x="575.5" y="509.61" width="100" height="100"/><rect class="cls-6" x="690.5" y="509.61" width="100" height="100"/><rect class="cls-6" x="805.5" y="509.61" width="100" height="100"/><rect class="cls-6" x="920.5" y="509.61" width="100" height="100"/><rect class="cls-6" x="1035.5" y="509.61" width="100" height="100"/><rect class="cls-6" x="0.5" y="650.38" width="100" height="100"/><rect class="cls-6" x="115.5" y="650.38" width="100" height="100"/><rect class="cls-6" x="230.5" y="650.38" width="100" height="100"/><rect class="cls-6" x="345.5" y="650.38" width="100" height="100"/><rect class="cls-6" x="460.5" y="650.38" width="100" height="100"/><rect class="cls-6" x="575.5" y="650.38" width="100" height="100"/><rect class="cls-6" x="690.5" y="650.38" width="100" height="100"/><rect class="cls-6" x="805.5" y="650.38" width="100" height="100"/><rect class="cls-6" x="920.5" y="650.38" width="100" height="100"/><rect class="cls-6" x="1035.5" y="650.38" width="100" height="100"/><text class="cls-7" transform="translate(78.38 43.3)">ヒシガタ<tspan class="cls-8" x="96" y="0">便利アイコン</tspan></text><circle class="cls-9" cx="68.27" cy="34.22" r="16.05" transform="translate(-36.23 28.73) rotate(-22.5)"/></g><g id="アイコン名"><text class="cls-10" transform="translate(20.5 213.41)">機内モード</text><text class="cls-10" transform="translate(129.83 213.41)">モバイル通信</text><text class="cls-10" transform="translate(233.17 213.41)">スクリーンタイム</text><text class="cls-10" transform="translate(354.5 213.41)">おやすみモード</text><text class="cls-10" transform="translate(463.83 213.41)">画面表示と明るさ</text><text class="cls-10" transform="translate(591.17 213.41)">プライバシー</text><text class="cls-10" transform="translate(712.5 213.41)">カレンダー</text><text class="cls-10" transform="translate(809.83 213.41)">クイックアクセス</text><text class="cls-10" transform="translate(943.17 213.41)">画面幅調整</text><text class="cls-10" transform="translate(1076.5 213.41)">天気</text><text class="cls-10" transform="translate(32.35 351.9)">FaceID</text><text class="cls-10" transform="translate(105.83 351.9)">コントロールセンター</text><text class="cls-10" transform="translate(269.17 351.9)">電卓</text><text class="cls-10" transform="translate(384.5 351.9)">録画</text><text class="cls-10" transform="translate(487.83 351.9)">タイマー</text><text class="cls-10" transform="translate(597.17 351.9)">ギャラリー</text><text class="cls-10" transform="translate(718.5 351.9)">ショップ</text><text class="cls-10" transform="translate(833.83 351.9)">クーポン</text><text class="cls-10" transform="translate(949.17 351.9)">着せ替え</text><text class="cls-10" transform="translate(1070.5 351.9)">ギフト</text><text class="cls-10" transform="translate(26.5 492.39)">ポイント</text><text class="cls-10" transform="translate(138.47 492.39)">Q<tspan class="cls-11" x="8.82" y="0">R</tspan><tspan x="18.73" y="0">コード</tspan></text><text class="cls-10" transform="translate(257.17 492.39)">インフォ</text><text class="cls-10" transform="translate(360.5 492.39)">ダウンロード</text><text class="cls-10" transform="translate(499.83 492.39)">ピン</text><text class="cls-10" transform="translate(573.17 492.39)">リーディングリスト</text><text class="cls-10" transform="translate(712.5 492.39)">トピックス</text><text class="cls-10" transform="translate(845.83 492.39)">更新</text><text class="cls-10" transform="translate(949.17 492.39)">レシピ　</text><text class="cls-10" transform="translate(1070.5 492.39)">路線図</text><text class="cls-10" transform="translate(32.5 630.89)">ヒント</text><text class="cls-10" transform="translate(123.83 630.89)">フィードバック</text><text class="cls-10" transform="translate(245.17 630.89)">プレイリスト</text><text class="cls-10" transform="translate(366.5 630.89)">定規・単位</text><text class="cls-10" transform="translate(487.83 630.89)">スキップ</text><text class="cls-10" transform="translate(597.17 630.89)">ループ再生</text><text class="cls-10" transform="translate(688.5 630.89)">クリッピングマスク</text><text class="cls-10" transform="translate(833.83 630.89)">テキスト</text><text class="cls-10" transform="translate(961.17 630.89)">回転</text><text class="cls-10" transform="translate(1058.5 630.89)">レイアウト</text><text class="cls-10" transform="translate(26.5 773.38)">ペイント</text><text class="cls-10" transform="translate(135.83 773.38)">投げ縄選択</text><text class="cls-10" transform="translate(263.17 773.38)">グラフ</text><text class="cls-10" transform="translate(354.5 773.38)">チェックリスト</text><text class="cls-10" transform="translate(487.83 773.38)">素材管理</text><text class="cls-10" transform="translate(597.17 773.38)">緊急ヘルプ</text><text class="cls-10" transform="translate(694.5 773.38)">アクセシビリティ</text><text class="cls-10" transform="translate(827.83 773.38)">留守番電話</text><text class="cls-10" transform="translate(961.17 773.38)">参加</text><text class="cls-10" transform="translate(1064.5 773.38)">プリント</text><rect class="cls-12" x="47.72" y="106.19" width="62.23" height="62.23" transform="translate(-102.33 95.96) rotate(-45)"/><polygon class="cls-13" points="57.13 130.86 57.08 130.87 57.08 130.86 47.13 118.59 37.49 118.59 47.83 133.43 47.83 133.44 36.38 136.63 28.68 131.99 28.68 142.67 36.33 138.06 47.83 141.26 47.83 141.28 47.87 141.3 37.55 156.11 47.19 156.11 57.13 143.84 80.49 137.35 57.13 130.86"/><rect class="cls-14" x="276.94" y="105.42" width="63.77" height="63.77" transform="translate(-34.97 258.59) rotate(-45)"/><polygon class="cls-13" points="305.28 108.26 256.08 108.26 272.79 137.19 255.94 166.38 305.14 166.38 288.43 137.44 305.28 108.26"/><polygon points="281.84 132.48 292.66 113.74 268.51 113.74 279.33 132.48 279.33 157.24 268.44 161.01 292.6 161.01 281.84 157.29 281.84 132.48"/><rect class="cls-15" x="391.08" y="104.51" width="64.88" height="64.88" transform="translate(-1.12 339.59) rotate(-45)"/><text class="cls-16" transform="translate(390.39 160.22)">z</text><text class="cls-17" transform="translate(400.89 143.19)">z</text><text class="cls-18" transform="translate(376.03 125.86)">z</text><rect class="cls-13" x="852.42" y="528.08" width="63.8" height="63.8" transform="translate(-165.28 789.32) rotate(-45)"/><text class="cls-19" transform="translate(843.55 578.06)">T</text><line x1="838.26" y1="541.79" x2="838.26" y2="577.6"/><rect class="cls-20" x="515.7" y="658" width="19.15" height="19.15" transform="translate(-346.53 566.95) rotate(-45)"/><polygon class="cls-20" points="496.94 688.85 479.49 727.71 499.52 747.1 516.37 727.71 496.94 688.85"/><polygon class="cls-21" points="521.32 675.59 496.92 717.86 545.73 717.86 521.32 675.59"/><rect class="cls-13" x="842.16" y="685.18" width="30.34" height="30.34" transform="translate(-272.45 811.35) rotate(-45)"/><rect class="cls-13" x="895.16" y="685.13" width="30.34" height="30.34" transform="translate(-256.89 848.81) rotate(-45)"/><line class="cls-22" x1="829" y1="721.81" x2="882" y2="721.76"/></g><g id="レイヤー_3" data-name="レイヤー 3"><rect class="cls-14" x="189.74" y="133.43" width="7.95" height="7.95" transform="translate(-68.75 177.22) rotate(-45)"/><rect class="cls-23" x="184.14" y="127.72" width="19.41" height="19.41" transform="translate(-68.73 177.32) rotate(-45)"/><rect class="cls-23" x="175.65" y="118.99" width="36.87" height="36.87" transform="translate(-68.66 177.49) rotate(-45)"/><rect class="cls-23" x="165.37" y="108.84" width="56.93" height="56.93" transform="translate(-68.65 177.27) rotate(-45)"/><polygon class="cls-14" points="165.38 181.83 161.98 164.81 165.38 147.79 168.78 164.81 165.38 181.83"/><rect class="cls-13" x="507.58" y="106.18" width="62.71" height="62.71" transform="translate(32.27 421.37) rotate(-45)"/><polygon class="cls-24" points="510.61 93.19 510.61 181.88 554.96 137.53 510.61 93.19"/><text class="cls-25" transform="translate(487.84 146.62)">A</text><text class="cls-26" transform="translate(516.28 145.07)">あ</text><rect class="cls-20" x="623.09" y="105.56" width="64.06" height="64.06" transform="translate(66.26 503.54) rotate(-45)"/><polygon class="cls-13" points="598.22 138.98 598.22 159.37 611.72 170.62 645.26 170.62 664.2 127.3 651.27 124.44 642.56 141.6 642.56 103.75 631.21 103.75 631.21 95.73 617.02 95.73 617.02 106.83 605.61 106.83 605.61 119.15 598.22 119.15 598.22 138.98"/><line class="cls-13" x1="606.02" y1="125.78" x2="606.02" y2="140.57"/><line class="cls-13" x1="617.47" y1="110.92" x2="617.47" y2="125.71"/><line class="cls-13" x1="631.23" y1="107.48" x2="631.23" y2="122.27"/><rect class="cls-13" x="736.23" y="110.84" width="56.21" height="56.21" transform="translate(97.29 581.16) rotate(-45)"/><rect class="cls-13" x="745.69" y="110.84" width="56.21" height="56.21" transform="translate(100.06 587.85) rotate(-45)"/><rect class="cls-27" x="728.28" y="118.05" width="56.21" height="6.96" transform="translate(107.28 570.44) rotate(-45)"/><rect class="cls-20" x="753.9" y="139.36" width="2.82" height="2.82" transform="translate(586.21 896.08) rotate(-90)"/><rect class="cls-20" x="777.25" y="119.83" width="2.82" height="2.82" transform="translate(629.09 899.9) rotate(-90)"/><rect class="cls-20" x="769.8" y="125.87" width="2.82" height="2.82" transform="translate(615.6 898.49) rotate(-90)"/><rect class="cls-20" x="761.95" y="132.31" width="2.82" height="2.82" transform="translate(601.31 897.08) rotate(-90)"/><rect class="cls-20" x="764.57" y="149.22" width="2.82" height="2.82" transform="translate(587.02 916.61) rotate(-90)"/><rect class="cls-20" x="787.92" y="129.7" width="2.82" height="2.82" transform="translate(629.89 920.43) rotate(-90)"/><rect class="cls-20" x="780.47" y="135.74" width="2.82" height="2.82" transform="translate(616.4 919.02) rotate(-90)"/><rect class="cls-20" x="772.62" y="142.18" width="2.82" height="2.82" transform="translate(602.11 917.62) rotate(-90)"/><rect class="cls-20" x="773.83" y="159.09" width="2.82" height="2.82" transform="translate(586.41 935.73) rotate(-90)"/><rect class="cls-20" x="797.18" y="139.56" width="2.82" height="2.82" transform="translate(629.29 939.56) rotate(-90)"/><rect class="cls-20" x="789.73" y="145.6" width="2.82" height="2.82" transform="translate(615.8 938.15) rotate(-90)"/><rect class="cls-20" x="781.88" y="152.04" width="2.82" height="2.82" transform="translate(601.51 936.74) rotate(-90)"/><polygon class="cls-20" points="875 94.87 855.86 119.97 823.52 140.05 841.59 136.19 837.55 161.32 880.23 105.37 889.64 92.9 875 94.87"/><polygon class="cls-20" points="872.89 132.9 892.03 107.8 890.06 93.17 880.52 105.54 837.85 161.48 861.01 150.94 862.06 169.39 872.89 132.9"/><polygon class="cls-20" points="867.05 95.39 890.5 92.47 893.51 115.5 867.05 95.39"/><rect class="cls-28" x="897.3" y="108" width="10.86" height="10.86" transform="translate(866.46 -796.37) rotate(82.34)"/><polygon class="cls-27" points="824.38 151.39 836.24 140.96 829.34 155.06 817.49 165.5 824.38 151.39"/><polygon class="cls-27" points="845.89 167.71 857.74 157.28 850.85 171.39 839 181.82 845.89 167.71"/><rect class="cls-13" x="967.33" y="105.81" width="62.99" height="62.99" transform="translate(167.13 746.5) rotate(-45)"/><rect class="cls-20" x="974.95" y="113.48" width="47.76" height="47.76" transform="translate(167.09 746.51) rotate(-45)"/><text class="cls-29" transform="translate(960.72 125.08)">↑</text><text class="cls-29" transform="translate(982.29 127.84) rotate(90)">↑</text><text class="cls-29" transform="translate(959.31 147.15) rotate(-90)">↑</text><text class="cls-29" transform="translate(980.42 148.56) rotate(180)">↑</text><rect class="cls-30" x="1143.9" y="141.67" width="1.14" height="10.01" transform="translate(1751.22 1109.99) rotate(-130.7)"/><rect class="cls-30" x="1143.99" y="123.49" width="1.14" height="10.01" transform="translate(164.69 777.42) rotate(-40.7)"/><rect class="cls-31" x="1082.08" y="105.76" width="63.51" height="63.51" transform="translate(200.66 827.88) rotate(-45)"/><path class="cls-32" d="M1103,103.4s2.51,2.81,5.24,2.58a4.86,4.86,0,0,0,3.83-2.58s1.17,3.95,3.68,3.72,3.78-3.72,3.78-3.72,1.54,3.19,3.54,1.86.82-2.55.82-2.55l-10.1-10.1Z" transform="translate(-28.33)"/><line class="cls-32" x1="1077.07" y1="107.13" x2="1077.07" y2="116.2"/><line class="cls-32" x1="1082.74" y1="110.28" x2="1082.74" y2="119.36"/><line class="cls-32" x1="1088.2" y1="109.15" x2="1088.2" y2="118.22"/><line class="cls-32" x1="1094.34" y1="107.1" x2="1094.34" y2="116.17"/><path class="cls-33" d="M1079.77,148.23s2.81-2.51,2.58-5.24a4.86,4.86,0,0,0-2.58-3.83s4-1.17,3.72-3.68-3.72-3.78-3.72-3.78,3.19-1.54,1.86-3.54-2.55-.82-2.55-.82l-10.1,10.1Z" transform="translate(-28.33)"/><path class="cls-13" d="M1149.48,146.78s-4.16-2.78-4.16-9.17a11.7,11.7,0,0,1,4.16-9.35l9.26,9.26Z" transform="translate(-28.33)"/><circle class="cls-13" cx="1112.13" cy="137.48" r="4.89"/><circle class="cls-30" cx="1112.59" cy="137.48" r="1.02"/><path class="cls-34" d="M1142.35,140.18a3.89,3.89,0,0,0,1.4-2.68,3.46,3.46,0,0,0-1.4-2.54" transform="translate(-28.33)"/><path class="cls-35" d="M1103,171.64s2-6.86,10.79-6.86,10.79,6.86,10.79,6.86l-10.79,10.79Z" transform="translate(-28.33)"/><rect class="cls-36" x="1100.78" y="159.2" width="1.36" height="7.96" transform="translate(131.65 757.7) rotate(-40.7)"/><rect class="cls-36" x="1106.49" y="155.2" width="1.36" height="7.96" transform="translate(-28.62 316.32) rotate(-16.26)"/><rect class="cls-36" x="1084.73" y="154.2" width="1.36" height="7.96"/><rect class="cls-36" x="1125.34" y="159.2" width="1.36" height="7.96" transform="translate(1844.98 1021.15) rotate(-139.3)"/><rect class="cls-36" x="1119.63" y="155.2" width="1.36" height="7.96" transform="translate(2122.93 625.63) rotate(-163.74)"/><rect class="cls-36" x="1113.06" y="154.2" width="1.36" height="7.96" transform="translate(2199.15 316.35) rotate(-180)"/><rect class="cls-37" x="1103.38" y="127.2" width="20.86" height="20.86" transform="translate(395.21 -747.27) rotate(45)"/><polygon class="cls-38" points="1071.78 136.52 1074.86 136.28 1072.02 133.44 1071.78 136.52"/><polygon class="cls-38" points="1099.34 138.73 1096.26 138.97 1099.1 141.81 1099.34 138.73"/><rect class="cls-39" x="46.45" y="245.59" width="64.77" height="64.77" transform="translate(-201.8 137.16) rotate(-45)"/><polyline class="cls-9" points="42.71 247.16 50.37 239.5 58.06 247.19"/><polyline class="cls-9" points="19.23 285.6 11.57 277.95 19.26 270.26"/><polyline class="cls-9" points="58.2 309.29 50.54 316.95 42.85 309.26"/><polyline class="cls-9" points="81.66 270.79 89.31 278.44 81.62 286.13"/><circle class="cls-9" cx="41.32" cy="269.66" r="3.48"/><circle class="cls-9" cx="59.41" cy="269.66" r="3.48"/><polygon class="cls-9" points="50.38 273.71 46.7 280.09 54.07 280.09 50.38 273.71"/><path class="cls-37" d="M66.64,284.5a14.8,14.8,0,0,0,11.61,5.74c7.64,0,12.51-5.74,12.51-5.74" transform="translate(-28.33)"/><rect class="cls-32" x="161.93" y="246.18" width="63.79" height="63.79" transform="translate(-168.19 218.51) rotate(-45)"/><rect class="cls-40" x="160.92" y="256.67" width="45.46" height="21.93" transform="translate(-163.79 208.25) rotate(-45)"/><rect class="cls-41" x="181.83" y="277.68" width="45.46" height="21.93" transform="translate(-172.52 229.19) rotate(-45)"/><rect class="cls-9" x="141.04" y="269.92" width="11.88" height="11.88"/><rect class="cls-42" x="178.96" y="274.26" width="11.88" height="11.88"/><rect class="cls-32" x="277.96" y="247.1" width="61.75" height="61.75" transform="translate(-134.43 299.79) rotate(-45)"/><rect class="cls-20" x="267.24" y="258.04" width="53.53" height="10.61" transform="translate(-128.43 285.02) rotate(-45)"/><rect class="cls-13" x="283.28" y="283.53" width="10" height="10" transform="translate(-147.92 288.35) rotate(-45)"/><rect class="cls-13" x="293.78" y="272.92" width="10" height="10" transform="translate(-137.34 292.67) rotate(-45)"/><rect class="cls-13" x="304.17" y="262.75" width="10" height="10" transform="translate(-127.1 297.04) rotate(-45)"/><rect class="cls-13" x="314.12" y="252.8" width="10" height="10" transform="translate(-117.15 301.16) rotate(-45)"/><rect class="cls-13" x="292.95" y="292.93" width="10" height="10" transform="translate(-151.73 297.94) rotate(-45)"/><rect class="cls-13" x="303.45" y="282.32" width="10" height="10" transform="translate(-141.15 302.26) rotate(-45)"/><rect class="cls-13" x="313.84" y="272.14" width="10" height="10" transform="translate(-130.91 306.63) rotate(-45)"/><rect class="cls-13" x="323.79" y="262.19" width="10" height="10" transform="translate(-120.96 310.75) rotate(-45)"/><rect class="cls-13" x="298.49" y="293.6" width="39.97" height="8.62" transform="translate(-145.71 312.45) rotate(-45)"/><text class="cls-43" transform="translate(250.15 282.7) rotate(-45)">123</text><rect class="cls-32" x="392.81" y="246.61" width="62.62" height="62.62" transform="translate(-100.63 381.3) rotate(-45)"/><circle class="cls-44" cx="395.76" cy="278.03" r="17.04"/><text class="cls-45" transform="translate(359.13 281.13) rotate(-45)">REC</text><rect class="cls-20" x="506.07" y="245.87" width="64.09" height="64.09" transform="translate(-67.24 461.91) rotate(-45)"/><polygon class="cls-46" points="509.84 280.41 504.45 276.85 497.63 259.93 508.66 275.32 509.84 280.41"/><polygon class="cls-22" points="509.79 232.6 509.79 246.17 513.98 246.17 513.99 241.96 552.53 280.5 555.11 277.92 509.79 232.6"/><rect class="cls-47" x="640.74" y="242.35" width="26.18" height="26.18" transform="translate(-17.45 537.15) rotate(-45)"/><rect class="cls-48" x="640.74" y="291.87" width="26.18" height="26.18" transform="translate(-52.47 551.65) rotate(-45)"/><rect class="cls-14" x="665.5" y="267.11" width="26.18" height="26.18" transform="translate(-27.71 561.9) rotate(-45)"/><rect class="cls-49" x="615.98" y="267.11" width="26.18" height="26.18" transform="translate(-42.21 526.89) rotate(-45)"/><rect class="cls-50" x="737.48" y="245.98" width="63.88" height="63.88" transform="translate(0.51 625.46) rotate(-45)"/><rect class="cls-47" x="729.56" y="244.96" width="22.92" height="12.4" rx="5.45"/><rect class="cls-47" x="703.56" y="251.05" width="74.33" height="55.27" rx="16.46"/><rect class="cls-49" x="852.88" y="245.7" width="62.88" height="62.88" transform="translate(34.71 706.48) rotate(-45)"/><line class="cls-13" x1="815.36" y1="280.97" x2="819.09" y2="277.25"/><line class="cls-13" x1="821.34" y1="275.25" x2="825.06" y2="271.53"/><line class="cls-13" x1="828.09" y1="268.95" x2="831.82" y2="265.22"/><line class="cls-13" x1="834.62" y1="261.74" x2="838.35" y2="258.02"/><line class="cls-13" x1="841.15" y1="255.21" x2="844.88" y2="251.49"/><line class="cls-13" x1="856.01" y1="240.58" x2="859.74" y2="236.85"/><line class="cls-13" x1="846.11" y1="250.26" x2="849.83" y2="246.53"/><line class="cls-13" x1="851.28" y1="245.3" x2="855.01" y2="241.58"/><text class="cls-51" transform="translate(845.39 304.69) rotate(-45) scale(1.27 1)">¥</text><rect class="cls-48" x="967.28" y="246.68" width="62.48" height="62.48" transform="translate(67.61 787.46) rotate(-45)"/><polygon class="cls-49" points="926.83 247.94 958.08 247.94 958.08 261.92 982.47 261.92 982.47 247.94 1014.99 247.94 1014.99 271.35 991.9 271.35 991.9 308.37 947.67 308.37 947.67 271.44 926.83 271.44 926.83 247.94"/><line class="cls-49" x1="947.67" y1="303.35" x2="991.91" y2="303.35"/><rect class="cls-13" x="1083.57" y="246.43" width="61.7" height="61.7" transform="translate(102.01 869.23) rotate(-45)"/><polygon class="cls-52" points="1065.02 253.12 1086.07 274.82 1061.95 265.41 1066.35 261.57 1065.02 253.12"/><polygon class="cls-52" points="1107.53 253.07 1086.47 274.76 1110.59 265.35 1106.2 261.51 1107.53 253.07"/><polygon class="cls-52" points="1042.46 277.28 1046.84 272.9 1125.34 272.9 1129.72 277.28 1125.36 281.64 1046.82 281.64 1042.46 277.28"/><polygon class="cls-52" points="1081.82 237.92 1086.47 233.57 1090.36 237.92 1090.36 316.64 1086.09 320.91 1081.82 316.64 1081.82 237.92"/><rect class="cls-13" x="48.39" y="387.62" width="62.66" height="62.66" transform="translate(-301.22 179.07) rotate(-45)"/><circle class="cls-53" cx="51.33" cy="418.97" r="24.12"/><text class="cls-54" transform="translate(42.87 431.67)">P</text><text x="-28.33"/><rect class="cls-13" x="180.91" y="377.79" width="26.46" height="26.46" transform="translate(-247.96 251.81) rotate(-45)"/><rect class="cls-20" x="205.89" y="414.84" width="7.26" height="7.26" transform="translate(-262.87 270.72) rotate(-45)"/><rect class="cls-20" x="216.19" y="404.62" width="7.26" height="7.26" transform="translate(-252.62 275.01) rotate(-45)"/><rect class="cls-20" x="226.72" y="415.03" width="7.26" height="7.26" transform="translate(-256.9 285.5) rotate(-45)"/><rect class="cls-20" x="216.29" y="415.07" width="7.26" height="7.26" transform="translate(-259.99 278.14) rotate(-45)"/><rect class="cls-20" x="216.36" y="425.35" width="7.26" height="7.26" transform="translate(-267.23 281.2) rotate(-45)"/><rect class="cls-13" x="180.91" y="433.43" width="26.46" height="26.46" transform="translate(-287.31 268.1) rotate(-45)"/><rect class="cls-13" x="153.09" y="405.61" width="26.46" height="26.46" transform="translate(-275.78 240.28) rotate(-45)"/><rect class="cls-20" x="275.77" y="386.28" width="65.37" height="65.37" transform="translate(-234.24 340.82) rotate(-45)"/><polygon class="cls-13" points="276.22 406.7 286.83 406.7 286.83 439.98 291.5 443.51 273.06 443.51 276.59 439.89 276.59 412.86 268.61 406.7 276.22 406.7"/><rect class="cls-55" x="305.33" y="394.11" width="5.94" height="5.94" transform="translate(-218.81 334.3) rotate(-45)"/><polyline class="cls-56" points="369.39 400.62 351.38 418.63 395.8 463.04 440.21 418.63 422.2 400.62"/><polygon class="cls-20" points="380.56 408.43 392.53 420.39 395.73 423.6 398.93 420.39 410.89 408.43 407.69 405.23 397.87 415.05 397.87 375.07 393.35 375.07 393.35 414.81 383.76 405.23 380.56 408.43"/><rect class="cls-57" x="507.59" y="389.13" width="59.1" height="59.1" transform="translate(-167.06 502.44) rotate(-45)"/><polyline class="cls-48" points="544.28 421.2 512.21 389.13 526.26 389.55 538.8 377.01 555.17 376.79 556.65 378.21 556.43 394.58 543.89 407.12 544.31 421.17 512.24 389.1"/><polygon class="cls-13" points="502.09 431.33 530.18 407.1 526.32 403.24 502.09 431.33"/><rect class="cls-56" x="626.2" y="410.18" width="18.68" height="18.68" transform="translate(-138.83 572.27) rotate(-45)"/><rect class="cls-56" x="662.75" y="410.18" width="18.68" height="18.68" transform="translate(-128.12 598.11) rotate(-45)"/><line class="cls-56" x1="620.42" y1="419.52" x2="630.55" y2="419.52"/><polyline class="cls-56" points="594 419.52 588.45 419.52 581.52 404.66"/><polyline class="cls-56" points="657 419.49 662.55 419.49 669.48 404.63"/><polygon class="cls-57" points="785.09 419.06 741.1 375.07 697.12 419.06 720.55 442.49 697.85 459.77 729.18 451.12 741.1 463.04 785.09 419.06"/><line class="cls-13" x1="725.46" y1="402.74" x2="757.1" y2="402.74"/><line class="cls-13" x1="725.32" y1="413.75" x2="756.95" y2="413.75"/><line class="cls-13" x1="725.32" y1="424.66" x2="756.95" y2="424.66"/><line class="cls-13" x1="725.32" y1="435.55" x2="741.28" y2="435.55"/><polyline class="cls-58" points="892.78 400.88 892.78 412.11 855.5 374.83 810.81 419.52 855.5 464.2 900.19 419.52"/><line class="cls-56" x1="893.78" y1="412.51" x2="881.91" y2="412.51"/><rect class="cls-59" x="966.26" y="386.27" width="65.14" height="65.14" transform="translate(-31.95 828.96) rotate(-45)"/><polygon class="cls-60" points="929.18 375.35 937.82 402.3 962.8 415.01 997.35 454.62 1003.34 449.79 929.18 375.35"/><polygon class="cls-61" points="938.94 450.62 977.43 406.28 977.43 383.09 1003.91 383.09 1004.02 408.85 982.56 410.25 945.89 454.72 938.94 450.62"/><rect class="cls-9" x="996.79" y="385.05" width="3.73" height="12.83"/><rect class="cls-9" x="997.02" y="403.48" width="3.27" height="3.27"/><rect class="cls-20" x="1080.49" y="385.02" width="67.11" height="67.11" transform="translate(1.98 910.35) rotate(-45)"/><polygon class="cls-62" points="1085.71 466.03 1085.71 450.38 1125.34 410.75 1125.34 426.41 1085.71 466.03"/><polygon class="cls-62" points="1085.81 371.12 1085.81 386.78 1046.18 426.4 1046.18 410.75 1085.81 371.12"/><polygon class="cls-22" points="1085.81 386.78 1125.34 410.75 1085.71 450.38 1046.18 426.4 1085.81 386.78"/><circle class="cls-63" cx="1110.83" cy="390.82" r="7.21"/><rect class="cls-63" x="1130.26" y="387.94" width="1.2" height="22.11" transform="translate(585.02 -682.78) rotate(45)"/><line class="cls-63" x1="1076.52" y1="402.63" x2="1106.98" y2="419.9"/><line class="cls-63" x1="1069.28" y1="411.18" x2="1099.74" y2="428.45"/><polygon class="cls-28" points="27.47 519.39 40.09 519.39 61.64 543.17 43.54 583.94 24.53 583.94 4.63 543.95 27.47 519.39"/><rect class="cls-61" x="24.53" y="583.94" width="19.01" height="23.67"/><rect class="cls-63" x="108.91" y="511.21" width="7.47" height="38.35" transform="translate(251.95 14.74) rotate(30)"/><rect class="cls-63" x="97.49" y="551.22" width="4.78" height="4.78" transform="translate(-227.73 77.28) rotate(-21.91)"/><polygon class="cls-13" points="207.37 559.61 165.38 517.62 123.39 559.61 145.76 581.99 124.09 598.48 154 590.22 165.38 601.6 207.37 559.61"/><rect x="162.24" y="539.88" width="6.24" height="32.03"/><rect x="191.78" y="575.79" width="3.99" height="3.99" transform="translate(-380.13 306.25) rotate(-45)"/><rect class="cls-13" x="294.94" y="519.58" width="27.69" height="27.69" transform="translate(-315.08 374.58) rotate(-45)"/><rect class="cls-13" x="294.94" y="571.95" width="27.69" height="27.69" transform="translate(-352.11 389.92) rotate(-45)"/><rect class="cls-13" x="321.12" y="545.77" width="27.69" height="27.69" transform="translate(-325.93 400.76) rotate(-45)"/><rect class="cls-13" x="268.75" y="545.77" width="27.69" height="27.69" transform="translate(-341.26 363.73) rotate(-45)"/><polygon class="cls-64" points="272.07 533.27 278.43 523.98 280.69 526.24 274.4 535.6 272.07 533.27"/><line class="cls-64" x1="274.4" y1="535.6" x2="279.53" y2="540.73"/><line class="cls-64" x1="280.69" y1="526.24" x2="284.79" y2="530.34"/><rect class="cls-64" x="279.51" y="540.74" width="3.25" height="3.25"/><rect class="cls-64" x="284.77" y="530.34" width="3.25" height="3.25"/><polygon class="cls-28" points="246.13 558.99 252.49 549.7 254.75 551.96 248.46 561.31 246.13 558.99"/><line class="cls-64" x1="248.46" y1="561.31" x2="253.59" y2="566.45"/><line class="cls-64" x1="254.75" y1="551.96" x2="258.85" y2="556.06"/><rect class="cls-28" x="253.57" y="566.46" width="3.25" height="3.25"/><rect class="cls-28" x="258.83" y="556.05" width="3.25" height="3.25"/><polygon class="cls-65" points="298.56 558.99 304.92 549.7 307.18 551.96 300.89 561.31 298.56 558.99"/><line class="cls-64" x1="300.89" y1="561.31" x2="306.02" y2="566.45"/><line class="cls-64" x1="307.18" y1="551.96" x2="311.28" y2="556.06"/><rect class="cls-65" x="306" y="566.46" width="3.25" height="3.25"/><rect class="cls-65" x="311.25" y="556.05" width="3.25" height="3.25"/><polygon class="cls-66" points="272.46 585.08 278.82 575.79 281.08 578.05 274.79 587.41 272.46 585.08"/><line class="cls-64" x1="274.79" y1="587.41" x2="279.92" y2="592.54"/><line class="cls-64" x1="281.08" y1="578.05" x2="285.18" y2="582.15"/><rect class="cls-66" x="279.9" y="592.55" width="3.25" height="3.25"/><rect class="cls-66" x="285.16" y="582.15" width="3.25" height="3.25"/><rect class="cls-59" x="391" y="527.09" width="65.05" height="65.05" transform="translate(-299.99 463.38) rotate(-45)"/><line class="cls-13" x1="352.04" y1="556.77" x2="355.08" y2="559.81"/><line class="cls-13" x1="363.62" y1="561.52" x2="355.45" y2="553.35"/><line class="cls-13" x1="358.87" y1="550.11" x2="361.91" y2="553.16"/><line class="cls-13" x1="370.44" y1="554.86" x2="362.28" y2="546.7"/><line class="cls-13" x1="365.39" y1="543.36" x2="368.43" y2="546.4"/><line class="cls-13" x1="376.97" y1="548.11" x2="368.8" y2="539.94"/><line class="cls-13" x1="371.86" y1="537.28" x2="374.91" y2="540.33"/><line class="cls-13" x1="383.44" y1="542.03" x2="375.28" y2="533.87"/><line class="cls-13" x1="378.62" y1="530.53" x2="381.66" y2="533.57"/><line class="cls-13" x1="390.19" y1="535.28" x2="382.03" y2="527.12"/><line class="cls-13" x1="385.14" y1="524.01" x2="388.18" y2="527.05"/><line class="cls-13" x1="396.72" y1="528.76" x2="388.55" y2="520.59"/><line class="cls-13" x1="390.19" y1="600.61" x2="436.19" y2="554.62"/><rect class="cls-67" x="505.53" y="526.81" width="65.6" height="65.6" transform="translate(-266.36 544.57) rotate(-45)"/><polygon class="cls-9" points="512.44 559.52 494.94 549.42 494.94 569.62 512.44 559.52"/><polygon class="cls-9" points="529.92 559.49 512.43 549.38 512.43 569.59 529.92 559.49"/><rect class="cls-20" x="621.11" y="527.43" width="64.79" height="64.79" transform="translate(-232.78 626.07) rotate(-45)"/><polyline class="cls-68" points="651.97 546.58 651.97 554.65 625.16 527.84 593.02 559.98 625.16 592.12 657.3 559.98"/><line class="cls-69" x1="652.69" y1="554.94" x2="644.15" y2="554.94"/><polygon class="cls-55" points="615.25 559.98 609.5 566.4 625.64 579.15 640.5 565.73 635.8 559.98 619.24 559.98 619.24 550.07 624.6 544.7 629.4 549.5 629.4 555.82 632.99 555.82 632.99 548.95 624.7 540.66 615.11 550.25 615.25 559.98"/><rect class="cls-70" x="733.9" y="532.26" width="53.64" height="53.64" transform="translate(-200.85 701.66) rotate(-45)"/><rect class="cls-71" x="749.67" y="532.31" width="53.64" height="53.64" transform="translate(-196.27 712.83) rotate(-45)"/><polygon class="cls-13" points="710.23 559.13 740.3 529.07 770.31 559.08 740.27 589.12 710.23 559.13"/><rect class="cls-13" x="973.12" y="535.13" width="51.13" height="51.13" transform="translate(-132.29 870.4) rotate(-45)"/><path class="cls-56" d="M1035.15,571.46c3.36-3.75,7.2-7.05,10.68-10.71q-23.62-23.62-47.17-47.14c-.34.35,0,0,0,0q-23.73,23.75-47.32,47.32c12.82,12.64,25.27,25.45,38,38" transform="translate(-28.33)"/><path class="cls-56" d="M1028.32,578.29l5.13-5.13" transform="translate(-28.33)"/><path class="cls-56" d="M1019.55,587.06c2.11-2.14,4.49-4.52,6.68-6.68" transform="translate(-28.33)"/><path class="cls-56" d="M1012.11,594.5l5.38-5.38" transform="translate(-28.33)"/><path class="cls-56" d="M1005.24,601.37c1.59-1.62,3.42-3.45,5.08-5.08" transform="translate(-28.33)"/><path class="cls-56" d="M998.74,607.87c1.68-1.71,3.14-3.17,4.73-4.73" transform="translate(-28.33)"/><polyline class="cls-56" points="954.45 599.02 961.1 599.02 961.1 592.06"/><polygon class="cls-20" points="1002.55 564.66 970.37 532.48 938.18 564.67 934.2 560.7 970.36 524.54 1006.52 560.7 1002.55 564.66"/><rect class="cls-31" x="1086.87" y="540.31" width="31.61" height="62.89" transform="translate(-109.66 947.17) rotate(-45)"/><rect class="cls-72" x="1101.76" y="521.19" width="25.33" height="27.28" transform="translate(-80.1 944.66) rotate(-45)"/><rect class="cls-66" x="1127.14" y="546.12" width="25.33" height="27.28" transform="translate(-90.3 969.91) rotate(-45)"/><rect class="cls-13" x="68.97" y="669.99" width="11.7" height="79.64" transform="translate(272.47 32.78) rotate(24.48)"/><polygon class="cls-28" points="51.84 664.13 46.49 674.82 41.18 664.2 46.53 653.51 51.84 664.13"/><polygon class="cls-73" points="75.91 689.79 72.79 696.04 69.68 689.83 72.81 683.58 75.91 689.79"/><polygon class="cls-74" points="77.03 665.87 73.9 672.12 70.8 665.9 73.92 659.65 77.03 665.87"/><path class="cls-75" d="M158.93,728.54s3.79,18.31,14.53,18.31,14.53-25.89,22.42-30,40.74-19.58,40.74-25.9-37.89-36.31-45.47-36.31-44.85,20.84-44.85,30.63,31.4,30.16,37.33,28" transform="translate(-28.33)"/><polygon class="cls-13" points="172.92 693.19 172.97 734 182.4 722.41 198.15 725.83 172.92 693.19"/><polygon class="cls-20" points="213.03 712.52 205.99 712.52 205.99 705.48 203.65 705.48 203.65 712.52 196.61 712.52 196.61 714.87 203.65 714.87 203.65 721.9 205.99 721.9 205.99 714.87 213.03 714.87 213.03 712.52"/><rect class="cls-13" x="284.51" y="685" width="52.07" height="52.07" transform="translate(-440.16 427.85) rotate(-45)"/><polygon class="cls-24" points="319.03 711.04 245.39 711.04 282.21 747.86 319.03 711.04"/><rect class="cls-28" x="252.9" y="686.17" width="4.85" height="24.8"/><rect class="cls-66" x="262.6" y="680.01" width="4.85" height="30.95"/><rect class="cls-39" x="271.55" y="667.52" width="4.85" height="43.45"/><rect class="cls-76" x="281.06" y="674.23" width="4.85" height="36.73"/><rect class="cls-77" x="290.75" y="686.17" width="4.85" height="24.8"/><rect class="cls-78" x="300.82" y="689.15" width="4.85" height="21.82"/><rect class="cls-79" x="309.58" y="698.47" width="4.85" height="12.49"/><polyline class="cls-56" points="240.49 692.6 279.28 653.81 314.85 689.38"/><polyline class="cls-56" points="314.8 684.49 314.8 689.34 309.69 689.34"/><rect class="cls-13" x="390.69" y="668.13" width="64.5" height="64.5" transform="translate(-399.7 504.2) rotate(-45)"/><rect class="cls-20" x="385.44" y="696.64" width="7.25" height="7.25" transform="translate(-409.54 480.21) rotate(-45)"/><rect class="cls-20" x="419.28" y="662.81" width="7.25" height="7.25" transform="translate(-375.7 494.23) rotate(-45)"/><rect class="cls-20" x="400.2" y="682.95" width="53.57" height="42.95" transform="translate(-401.37 508.25) rotate(-45)"/><polyline class="cls-69" points="383.93 711.41 406.34 715.57 406.34 680.33"/><polygon class="cls-21" points="618.7 656.18 633.05 656.18 625.52 677.87 637.94 677.86 616.03 715.27 620.9 685.73 616.03 685.73 618.7 656.18"/><polyline class="cls-56" points="599.72 684.83 582.15 702.4 625.5 745.76 668.85 702.4 651.28 684.83"/><rect class="cls-20" x="736.57" y="668.29" width="64.07" height="64.07" transform="translate(-298.42 748.6) rotate(-45)"/><rect class="cls-13" x="764.41" y="677.7" width="8.61" height="8.61" transform="translate(-285.43 743.32) rotate(-45)"/><polygon class="cls-13" points="759.53 685.22 740.26 692.29 720.99 685.22 720.99 688.76 736.13 694.63 731.77 723.53 735.23 723.53 740.26 706.56 745.29 723.53 748.75 723.53 744.39 694.63 759.53 688.76 759.53 685.22"/><rect class="cls-13" x="967.47" y="674.77" width="59.27" height="59.27" transform="translate(-234.37 911.38) rotate(-45)"/><rect class="cls-20" x="987.76" y="657.78" width="16.89" height="16.89" transform="translate(-207.65 899.55) rotate(-45)"/><polygon class="cls-20" points="967.87 684.99 952.47 719.26 970.14 736.37 985 719.26 967.87 684.99"/><polygon class="cls-20" points="1015.09 691.9 1001.8 691.9 1001.8 678.62 997.37 678.62 997.37 691.9 984.09 691.9 984.09 696.33 997.37 696.33 997.37 709.62 1001.8 709.62 1001.8 696.33 1015.09 696.33 1015.09 691.9"/><rect class="cls-13" x="1085.51" y="671.48" width="57.92" height="57.92" transform="translate(-197.19 993.2) rotate(-45)"/><rect class="cls-13" x="1072.94" y="669.33" width="33.14" height="12.37" transform="translate(-186.88 968.25) rotate(-45)"/><rect class="cls-13" x="1103.15" y="692.4" width="45.17" height="38.67" transform="translate(-201.89 1004.48) rotate(-45)"/><rect class="cls-20" x="1115.72" y="671.49" width="7.41" height="7.41" transform="translate(415.9 1794.62) rotate(-90)"/><line class="cls-20" x1="1078.52" y1="715.46" x2="1100.61" y2="693.37"/><line class="cls-20" x1="1087.56" y1="723.99" x2="1109.65" y2="701.9"/></g></svg>