<svg xmlns="http://www.w3.org/2000/svg" viewBox="0 0 1137 822.52"><defs><style>.cls-1,.cls-17,.cls-2,.cls-3,.cls-4,.cls-6{fill:#231815;}.cls-2{font-size:19px;}.cls-2,.cls-3,.cls-6{font-family:KozGoPro-Medium-90ms-RKSJ-H, Kozuka Gothic Pro;}.cls-3{font-size:16px;}.cls-4,.cls-6{font-size:13px;}.cls-4{font-family:KozGoPro-Bold-90ms-RKSJ-H, Kozuka Gothic Pro;}.cls-5{letter-spacing:-0.5em;}.cls-30,.cls-7{fill:none;}.cls-7{stroke:#dcdddd;}.cls-22,.cls-30,.cls-7{stroke-miterlimit:10;}.cls-8{font-size:24px;font-family:KozGoPro-Heavy-90ms-RKSJ-H, Kozuka Gothic Pro;}.cls-16,.cls-22,.cls-8{fill:#fff;}.cls-9{letter-spacing:-0.08em;}.cls-10{letter-spacing:-0.06em;}.cls-11{letter-spacing:0.02em;}.cls-12{letter-spacing:-0.02em;}.cls-13{letter-spacing:-0.06em;}.cls-14{letter-spacing:0.08em;}.cls-15{letter-spacing:-0.12em;}.cls-17{font-size:12px;font-family:KozGoPro-Regular-90ms-RKSJ-H, Kozuka Gothic Pro;}.cls-18{fill:#222547;}.cls-19{fill:#3a60ac;}.cls-20{fill:#f5e52b;}.cls-21{fill:#d3c081;}.cls-22{stroke:#d3c081;stroke-width:2px;}.cls-23{fill:#00a0e9;}.cls-24{fill:#e8434a;}.cls-25{fill:#68c3c0;}.cls-26{fill:#2ea7e0;}.cls-27{fill:#bf78b0;}.cls-28{fill:#171c61;}.cls-29{fill:#923f93;}.cls-30{stroke:#fff;stroke-width:6px;}.cls-31{fill:#1d2088;}.cls-32{fill:#e94c4f;}.cls-33{fill:#00489e;}.cls-34{fill:#9cc943;}.cls-35{fill:#f5b8d3;}.cls-36{fill:#c30d23;}.cls-37{fill:#ee8198;}.cls-38{fill:#66afe1;}.cls-39{fill:#e60020;}.cls-40{fill:#d4de20;}.cls-41{fill:#006934;}.cls-42{fill:#00935e;}.cls-43{fill:#e84f96;}.cls-44{fill:#ac9cca;}.cls-45{fill:#7ecde9;}.cls-46{fill:#f49c3a;}.cls-47{fill:#0e80a1;}.cls-48{fill:#6f77b8;}.cls-49{fill:#f3e066;}.cls-50{fill:#f097be;}.cls-51{fill:#d56b2c;}.cls-52{fill:#dfc329;}.cls-53{fill:#c7171e;}.cls-54{fill:#cada36;}.cls-55{fill:#257ec3;}.cls-56{fill:#e72320;}.cls-57{fill:#458f38;}.cls-58{fill:#7ccbd9;}.cls-59{fill:#00333e;}.cls-60{fill:#4d3589;}.cls-61{fill:#f39a21;}.cls-62{fill:#533417;}.cls-63{fill:#c77eb3;}.cls-64{fill:#8f5f25;}.cls-65{fill:#e1c438;}.cls-66{fill:#ea4f30;}.cls-67{fill:#af4423;}.cls-68{fill:#dcdddd;}.cls-69{fill:#b7651e;}</style></defs><g id="テンプレート"><path class="cls-1" d="M29,0V55.41a12,12,0,0,0,12,12H413.83a12,12,0,0,0,12-12V0Z" transform="translate(-28.33)"/><text class="cls-2" transform="translate(931.95 46.3)">www.design-icon.com</text><text class="cls-3" transform="translate(418.97 55.3)">DESIGNER : K020G1258　石川さくら</text><text class="cls-4" transform="translate(805.5 817.27)">利用規約：個人、商用、すべてフリーでご利用ください<tspan class="cls-5" x="325" y="0">。</tspan></text><text class="cls-6" transform="translate(418.97 30.16)">サイズ：100 x 100 px</text><rect class="cls-7" x="0.5" y="87.3" width="100" height="100"/><rect class="cls-7" x="115.5" y="87.3" width="100" height="100"/><rect class="cls-7" x="230.5" y="87.3" width="100" height="100"/><rect class="cls-7" x="345.5" y="87.3" width="100" height="100"/><rect class="cls-7" x="460.5" y="87.3" width="100" height="100"/><rect class="cls-7" x="575.5" y="87.3" width="100" height="100"/><rect class="cls-7" x="690.5" y="87.3" width="100" height="100"/><rect class="cls-7" x="805.5" y="87.3" width="100" height="100"/><rect class="cls-7" x="920.5" y="87.3" width="100" height="100"/><rect class="cls-7" x="1035.5" y="87.3" width="100" height="100"/><rect class="cls-7" x="0.5" y="228.07" width="100" height="100"/><rect class="cls-7" x="115.5" y="228.07" width="100" height="100"/><rect class="cls-7" x="230.5" y="228.07" width="100" height="100"/><rect class="cls-7" x="345.5" y="228.07" width="100" height="100"/><rect class="cls-7" x="460.5" y="228.07" width="100" height="100"/><rect class="cls-7" x="575.5" y="228.07" width="100" height="100"/><rect class="cls-7" x="690.5" y="228.07" width="100" height="100"/><rect class="cls-7" x="805.5" y="228.07" width="100" height="100"/><rect class="cls-7" x="920.5" y="228.07" width="100" height="100"/><rect class="cls-7" x="1035.5" y="228.07" width="100" height="100"/><rect class="cls-7" x="0.5" y="368.84" width="100" height="100"/><rect class="cls-7" x="115.5" y="368.84" width="100" height="100"/><rect class="cls-7" x="230.5" y="368.84" width="100" height="100"/><rect class="cls-7" x="345.5" y="368.84" width="100" height="100"/><rect class="cls-7" x="460.5" y="368.84" width="100" height="100"/><rect class="cls-7" x="575.5" y="368.84" width="100" height="100"/><rect class="cls-7" x="690.5" y="368.84" width="100" height="100"/><rect class="cls-7" x="805.5" y="368.84" width="100" height="100"/><rect class="cls-7" x="920.5" y="368.84" width="100" height="100"/><rect class="cls-7" x="1035.5" y="368.84" width="100" height="100"/><rect class="cls-7" x="0.5" y="509.61" width="100" height="100"/><rect class="cls-7" x="115.5" y="509.61" width="100" height="100"/><rect class="cls-7" x="230.5" y="509.61" width="100" height="100"/><rect class="cls-7" x="345.5" y="509.61" width="100" height="100"/><rect class="cls-7" x="460.5" y="509.61" width="100" height="100"/><rect class="cls-7" x="575.5" y="509.61" width="100" height="100"/><rect class="cls-7" x="690.5" y="509.61" width="100" height="100"/><rect class="cls-7" x="805.5" y="509.61" width="100" height="100"/><rect class="cls-7" x="920.5" y="509.61" width="100" height="100"/><rect class="cls-7" x="1035.5" y="509.61" width="100" height="100"/><rect class="cls-7" x="0.5" y="650.38" width="100" height="100"/><rect class="cls-7" x="115.5" y="650.38" width="100" height="100"/><rect class="cls-7" x="230.5" y="650.38" width="100" height="100"/><rect class="cls-7" x="345.5" y="650.38" width="100" height="100"/><rect class="cls-7" x="460.5" y="650.38" width="100" height="100"/><rect class="cls-7" x="575.5" y="650.38" width="100" height="100"/><rect class="cls-7" x="690.5" y="650.38" width="100" height="100"/><rect class="cls-7" x="805.5" y="650.38" width="100" height="100"/><rect class="cls-7" x="920.5" y="650.38" width="100" height="100"/><rect class="cls-7" x="1035.5" y="650.38" width="100" height="100"/><text class="cls-8" transform="translate(60.61 43.3)">スタンプ<tspan class="cls-9" x="96" y="0">ア</tspan><tspan class="cls-10" x="118.08" y="0">イ</tspan><tspan class="cls-9" x="140.64" y="0">コ</tspan><tspan class="cls-11" x="162.72" y="0">ン</tspan><tspan class="cls-12" x="187.2" y="0">テン</tspan><tspan class="cls-13" x="234.24" y="0">プ</tspan><tspan class="cls-14" x="256.8" y="0">レ</tspan><tspan class="cls-15" x="282.72" y="0">ー</tspan><tspan x="303.84" y="0">ト</tspan></text><circle class="cls-16" cx="68.27" cy="34.22" r="16.05" transform="translate(-36.23 28.73) rotate(-22.5)"/></g><g id="アイコン名"><text class="cls-17" transform="translate(44.5 213.41)">栗</text><text class="cls-17" transform="translate(147.83 213.41)">キノコ</text><text class="cls-17" transform="translate(269.17 213.41)">紅葉</text><text class="cls-17" transform="translate(384.5 213.41)">銀杏</text><text class="cls-17" transform="translate(493.83 213.41)">枯れ葉</text><text class="cls-17" transform="translate(603.17 213.41)">コスモス</text><text class="cls-17" transform="translate(718.5 213.41)">どんぐり</text><text class="cls-17" transform="translate(833.83 213.41)">かぼちゃ</text><text class="cls-17" transform="translate(955.17 213.41)">おばけ</text><text class="cls-17" transform="translate(1076.5 213.41)">くも</text><text class="cls-17" transform="translate(26.5 351.9)">雪だるま</text><text class="cls-17" transform="translate(117.83 351.9)">クリスマスツリー</text><text class="cls-17" transform="translate(269.17 351.9)">靴下</text><text class="cls-17" transform="translate(372.5 351.9)">雪の結晶</text><text class="cls-17" transform="translate(505.83 351.9)">鐘</text><text class="cls-17" transform="translate(603.17 351.9)">サンタ帽</text><text class="cls-17" transform="translate(730.5 351.9)">手袋</text><text class="cls-17" transform="translate(839.83 351.9)">飲み物</text><text class="cls-17" transform="translate(961.17 351.9)">鉛筆</text><text class="cls-17" transform="translate(1076.5 351.9)">財布</text><text class="cls-17" transform="translate(38.5 492.39)">ビル</text><text class="cls-17" transform="translate(135.83 492.39)">アカウント</text><text class="cls-17" transform="translate(263.17 492.39)">虫眼鏡</text><text class="cls-17" transform="translate(382.85 492.39)">Wi-Fi</text><text class="cls-17" transform="translate(487.83 492.39)">ハンガー</text><text class="cls-17" transform="translate(603.17 492.39)">チェック</text><text class="cls-17" transform="translate(730.5 492.39)">電話</text><text class="cls-17" transform="translate(851.83 492.39)">旗</text><text class="cls-17" transform="translate(955.17 492.39)">トーク</text><text class="cls-17" transform="translate(1064.5 492.39)">ファイル</text><text class="cls-17" transform="translate(32.5 630.89)">しおり</text><text class="cls-17" transform="translate(153.83 630.89)">時計</text><text class="cls-17" transform="translate(245.17 630.89)">ヘッドフォン</text><text class="cls-17" transform="translate(378.5 630.89)">ゴミ箱</text><text class="cls-17" transform="translate(505.83 630.89)">鍵</text><text class="cls-17" transform="translate(609.17 630.89)">指差し</text><text class="cls-17" transform="translate(724.5 630.89)">レジ袋</text><text class="cls-17" transform="translate(845.83 630.89)">メモ</text><text class="cls-17" transform="translate(955.17 630.89)">マイク</text><text class="cls-17" transform="translate(1070.5 630.89)">メガネ</text><text class="cls-17" transform="translate(38.5 773.38)">画鋲</text><text class="cls-17" transform="translate(147.83 773.38)">マップ</text><text class="cls-17" transform="translate(275.17 773.38)">目</text><text class="cls-17" transform="translate(378.5 773.38)">アイス</text><text class="cls-17" transform="translate(493.83 773.38)">タオル</text><text class="cls-17" transform="translate(615.17 773.38)">包丁</text><text class="cls-17" transform="translate(712.5 773.38)">フライパン</text><text class="cls-17" transform="translate(839.83 773.38)">おたま</text><text class="cls-17" transform="translate(943.17 773.38)">フライ返し</text><text class="cls-17" transform="translate(1070.5 773.38)">ボウル</text></g><g id="ボウル"><path class="cls-18" d="M1065.5,650.38h69.61a.4.4,0,0,1,.4.4v69.61a30,30,0,0,1-30,30H1035.9a.4.4,0,0,1-.4-.4V680.38A30,30,0,0,1,1065.5,650.38Z"/><rect class="cls-16" x="1045.76" y="679.22" width="80.43" height="7.33" rx="3.67"/><path class="cls-16" d="M1051.67,689h69a0,0,0,0,1,0,0v13.41a27.92,27.92,0,0,1-27.92,27.92h-13.18a27.92,27.92,0,0,1-27.92-27.92V689A0,0,0,0,1,1051.67,689Z"/></g><g id="フライ返し"><path class="cls-19" d="M950.5,650.38h69.61a.4.4,0,0,1,.4.4v69.61a30,30,0,0,1-30,30H920.9a.4.4,0,0,1-.4-.4V680.38A30,30,0,0,1,950.5,650.38Z"/><path class="cls-16" d="M1009.73,703.49l-14.31-14.3a4.11,4.11,0,0,1-.26-5.54l19.32-23.28a4.12,4.12,0,0,1,6.08-.29l18.36,18.36a4.13,4.13,0,0,1-.3,6.1l-23.37,19.22A4.1,4.1,0,0,1,1009.73,703.49Z" transform="translate(-28.33)"/><rect class="cls-19" x="1012.96" y="669.85" width="4.79" height="27.59" rx="2.2" transform="translate(752.47 -517.73) rotate(45)"/><rect class="cls-19" x="1006.65" y="663.88" width="4.79" height="27.32" rx="2.2" transform="translate(682.24 -500.66) rotate(41.9)"/><rect class="cls-19" x="1019.3" y="676.19" width="4.79" height="27.59" rx="2.2" transform="translate(835.81 -532.77) rotate(48.63)"/><rect class="cls-16" x="980.16" y="684.42" width="5.65" height="63.2" rx="2.2" transform="translate(765.88 -485.36) rotate(45)"/><rect class="cls-16" x="965.34" y="710" width="8.7" height="38.63" rx="2.2" transform="translate(771.39 -472.06) rotate(45)"/></g><g id="おたま"><path class="cls-20" d="M835.5,650.38H905.1a.4.4,0,0,1,.4.4v69.61a30,30,0,0,1-30,30H805.9a.4.4,0,0,1-.4-.4V680.38A30,30,0,0,1,835.5,650.38Z"/><rect class="cls-16" x="876.76" y="659.06" width="18.73" height="8.92"/><rect class="cls-16" x="892.08" y="658.93" width="9.52" height="72.02" transform="translate(269 -268.31) rotate(20.33)"/><path class="cls-16" d="M845,722.77a22.72,22.72,0,0,0,22.69,21.72h0a22.72,22.72,0,0,0,22.68-21.72Z" transform="translate(-28.33)"/></g><g id="フライパン"><path class="cls-21" d="M720.5,650.38H790.1a.4.4,0,0,1,.4.4v69.61a30,30,0,0,1-30,30H690.9a.4.4,0,0,1-.4-.4V680.38A30,30,0,0,1,720.5,650.38Z"/><path class="cls-16" d="M805,735.11l-3.2,3.16a2.56,2.56,0,0,1-3.66-.06L768.74,707l5.07-5L805,731.43A2.57,2.57,0,0,1,805,735.11Z" transform="translate(-28.33)"/><circle class="cls-16" cx="725.35" cy="686.48" r="28.37"/><path class="cls-21" d="M797.29,734.87a3.07,3.07,0,1,1,4.5.2A3.19,3.19,0,0,1,797.29,734.87Z" transform="translate(-28.33)"/><circle class="cls-22" cx="724.86" cy="685.98" r="18.63"/></g><g id="包丁"><path class="cls-23" d="M605.5,650.38H675.1a.4.4,0,0,1,.4.4v69.61a30,30,0,0,1-30,30H575.9a.4.4,0,0,1-.4-.4V680.38A30,30,0,0,1,605.5,650.38Z"/><path class="cls-16" d="M622.43,704.92h11a0,0,0,0,1,0,0v39.42a3.9,3.9,0,0,1-3.9,3.9h-3.18a3.9,3.9,0,0,1-3.9-3.9V704.92A0,0,0,0,1,622.43,704.92Z" transform="translate(669.35 -231.19) rotate(45)"/><path class="cls-16" d="M641,705.6l48.1-48.1a1.58,1.58,0,0,1,2.61.63c2,6,5.58,22.1-6.92,35-11.68,12-21.6,21.78-25.88,25.95a3.19,3.19,0,0,1-4.48,0Z" transform="translate(-28.33)"/></g><g id="タオル"><path class="cls-24" d="M490.38,649.59H560a.4.4,0,0,1,.4.4v69.61a30,30,0,0,1-30,30H460.78a.4.4,0,0,1-.4-.4V679.58a30,30,0,0,1,30-30Z"/><path class="cls-16" d="M501.18,728.21h38.05a4.82,4.82,0,0,0,4.82-4.83h0a4.82,4.82,0,0,0-4.82-4.82H506v-3.48h35.67a8.38,8.38,0,0,1,8.37,8.38h0a8.31,8.31,0,0,1-8.32,8.31H501.36a4.94,4.94,0,0,0-4.9,3.83,4.83,4.83,0,0,0,4.72,5.82h53.69a4.82,4.82,0,0,0,4.83-4.82V710.26a4.83,4.83,0,0,0-4.83-4.83H501.18a4.82,4.82,0,0,0-4.82,4.83v13.12h0A4.82,4.82,0,0,0,501.18,728.21Z" transform="translate(-28.33)"/><path class="cls-16" d="M532.89,669.81h40.22a7.67,7.67,0,0,1,7.67,7.67v13.93a9.86,9.86,0,0,1-1,4.24l-21.37,44.19L553,715.68l-14.18-8-40.07-1.56L525,673.59A10.16,10.16,0,0,1,532.89,669.81Z" transform="translate(-28.33)"/></g><g id="アイス"><path class="cls-25" d="M375.5,650.38H445.1a.4.4,0,0,1,.4.4v69.61a30,30,0,0,1-30,30H345.9a.4.4,0,0,1-.4-.4V680.38A30,30,0,0,1,375.5,650.38Z"/><path class="cls-16" d="M396.18,656.86h0a21.9,21.9,0,0,1,21.9,21.9v44.7a0,0,0,0,1,0,0h-43.8a0,0,0,0,1,0,0v-44.7a21.9,21.9,0,0,1,21.9-21.9Z"/><path class="cls-16" d="M392.35,725H400a0,0,0,0,1,0,0v19.53a3.82,3.82,0,0,1-3.82,3.82h0a3.82,3.82,0,0,1-3.82-3.82V725A0,0,0,0,1,392.35,725Z"/></g><g id="目"><path class="cls-26" d="M260.5,650.38H330.1a.4.4,0,0,1,.4.4v69.61a30,30,0,0,1-30,30H230.9a.4.4,0,0,1-.4-.4V680.38A30,30,0,0,1,260.5,650.38Z"/><path class="cls-16" d="M269.17,703s9.43-25.67,39.49-25.67S348.49,703,348.49,703s-19.57,20.49-39.66,20.49S269.17,703,269.17,703Z" transform="translate(-28.33)"/><rect class="cls-26" x="263.11" y="684.42" width="34.77" height="34.77" rx="17.39"/><rect class="cls-16" x="272.39" y="693.69" width="16.23" height="16.23" rx="8.11"/></g><g id="マップ"><path class="cls-27" d="M145.5,650.38H215.1a.4.4,0,0,1,.4.4v69.61a30,30,0,0,1-30,30H115.9a.4.4,0,0,1-.4-.4V680.38A30,30,0,0,1,145.5,650.38Z"/><path class="cls-27" d="M189.52,691.8l3.54-18.33,4.15,18.14a4.26,4.26,0,0,0,4.47,3.23l21.47-1.33-18.69,8.2a4.27,4.27,0,0,0-1.79,5.36l11.38,18.86L196.52,711.5a4.26,4.26,0,0,0-5.84.13l-15.39,14.3L184.64,707a4.26,4.26,0,0,0-2-5.26l-18.78-7.1,21.3.47A4.26,4.26,0,0,0,189.52,691.8Z" transform="translate(-28.33)"/><path class="cls-27" d="M176.83,680.08a33.39,33.39,0,0,0,7.66,9.45A33.56,33.56,0,0,0,176.83,680.08Z" transform="translate(-28.33)"/><path class="cls-27" d="M209.28,680.08a33.56,33.56,0,0,1-7.66,9.45A33.39,33.39,0,0,1,209.28,680.08Z" transform="translate(-28.33)"/><path class="cls-27" d="M220.18,710.39a33.56,33.56,0,0,1-10.8-5.62A33.47,33.47,0,0,1,220.18,710.39Z" transform="translate(-28.33)"/><path class="cls-27" d="M166.74,711.24A33.28,33.28,0,0,1,178,706.69,33.57,33.57,0,0,1,166.74,711.24Z" transform="translate(-28.33)"/><path class="cls-27" d="M193.8,728.25a33.66,33.66,0,0,1,.06-12.17A33.44,33.44,0,0,1,193.8,728.25Z" transform="translate(-28.33)"/><path class="cls-16" d="M220.18,698.74c0-.42,0-.83,0-1.24a1.25,1.25,0,0,0,0-.14s1.61-29.69-25.58-30h-1.31c-27.19.33-25.58,30-25.58,30a1.25,1.25,0,0,0,0,.14c0,.41,0,.82,0,1.24a38.6,38.6,0,0,0,2.29,9.92c2.86,8.81,9.31,21.28,23.87,31.83l.1-.08.09.08c14.56-10.55,21-23,23.87-31.83A38.6,38.6,0,0,0,220.18,698.74Z" transform="translate(-28.33)"/><rect class="cls-27" x="154.69" y="681.31" width="20.96" height="20.96" rx="10.15"/></g><g id="画鋲"><path class="cls-28" d="M30.5,650.38H100.1a.4.4,0,0,1,.4.4v69.61a30,30,0,0,1-30,30H.9a.4.4,0,0,1-.4-.4V680.38a30,30,0,0,1,30-30Z"/><path class="cls-16" d="M91.67,675.64l5.19-7.27a.65.65,0,0,0-.53-1H60.86a.65.65,0,0,0-.55,1l4.69,7.3-6.43,29.53a1.82,1.82,0,0,0,1.79,2.21H97.24A1.82,1.82,0,0,0,99,705.12Z" transform="translate(-28.33)"/><path class="cls-16" d="M80.08,735.78l-1,7.48c-.09.72-.51.72-.6,0l-.94-7.48A82.48,82.48,0,0,1,77,725.5V709h3.76V725.5A82.49,82.49,0,0,1,80.08,735.78Z" transform="translate(-28.33)"/></g><g id="メガネ"><path class="cls-29" d="M1065.63,509.61h69.61a.4.4,0,0,1,.4.4v69.61a30,30,0,0,1-30,30H1036a.4.4,0,0,1-.4-.4V539.61A30,30,0,0,1,1065.63,509.61Z"/><circle class="cls-30" cx="1081.97" cy="571.79" r="12.13" transform="translate(-115.75 932.54) rotate(-45)"/><circle class="cls-30" cx="1120.49" cy="571.79" r="12.13" transform="translate(-129.73 272.73) rotate(-13.28)"/><rect class="cls-30" x="1066.6" y="569.91" width="12.57" height="0.83"/><polyline class="cls-30" points="1061.43 555.87 1071.25 550.68 1079.17 550.68"/><polyline class="cls-30" points="1104.28 570.72 1125.75 554.53 1133.57 553.27"/></g><g id="マイク"><path class="cls-31" d="M1048.43,509.61h-69.6a30,30,0,0,0-30,30v69.6a.4.4,0,0,0,.4.4h69.6a30,30,0,0,0,30-30V510A.4.4,0,0,0,1048.43,509.61Z" transform="translate(-28.33)"/><rect class="cls-16" x="955.74" y="517.4" width="29.53" height="55.51" rx="14.76"/><path class="cls-16" d="M1022.78,548.29a4.06,4.06,0,0,0-4,4.11v3.08c0,12.81-8.93,23.2-19.94,23.2h0c-11,0-19.94-10.39-19.94-23.2V552.4a4.06,4.06,0,0,0-4-4.11h0a4.06,4.06,0,0,0-4,4.11v8.19c0,15,12.51,27.19,28,27.19h0c15.44,0,27.95-12.18,27.95-27.19V552.4a4.06,4.06,0,0,0-4-4.11Z" transform="translate(-28.33)"/><rect class="cls-16" x="962.1" y="578.6" width="16.8" height="22.68" rx="8.4"/><rect class="cls-16" x="994.19" y="575.9" width="9.58" height="41.16" rx="4.42" transform="translate(1567.14 -402.5) rotate(90)"/></g><g id="メモ"><path class="cls-32" d="M835.5,509.61H905.1a.4.4,0,0,1,.4.4v69.61a30,30,0,0,1-30,30H805.9a.4.4,0,0,1-.4-.4V539.61A30,30,0,0,1,835.5,509.61Z"/><path class="cls-16" d="M909.21,529.67h-1.12a5.74,5.74,0,0,1,0,.6v55.27a8.45,8.45,0,0,1-8.45,8.46H862.86a8.46,8.46,0,0,0,8.43,7.86h37.92a8.46,8.46,0,0,0,8.46-8.46V538.12A8.45,8.45,0,0,0,909.21,529.67Z" transform="translate(-28.33)"/><rect class="cls-16" x="821.45" y="518.8" width="54.84" height="72.19" rx="8.46"/><rect class="cls-32" x="828.32" y="533.77" width="37.7" height="3.86" rx="1.93"/><rect class="cls-32" x="828.32" y="543.62" width="37.7" height="3.86" rx="1.93"/><rect class="cls-32" x="828.32" y="553.09" width="37.7" height="3.86" rx="1.93"/><rect class="cls-32" x="828.32" y="562.94" width="37.7" height="3.86" rx="1.93"/><rect class="cls-32" x="828.32" y="572.78" width="22.78" height="3.86" rx="1.93"/></g><g id="レジ袋"><path class="cls-33" d="M720.5,509.61H790.1a.4.4,0,0,1,.4.4v69.61a30,30,0,0,1-30,30H690.9a.4.4,0,0,1-.4-.4V539.61A30,30,0,0,1,720.5,509.61Z"/><path class="cls-16" d="M796.46,516.65H786.09a2.78,2.78,0,0,0-2.79,2.78v22.16a2.78,2.78,0,0,1-2.78,2.79h-9.41v-3.91a2.78,2.78,0,0,0-2.78-2.78h-2.52a2.78,2.78,0,0,0-2.78,2.78v3.91h-9.41a2.79,2.79,0,0,1-2.78-2.79V519.43a2.78,2.78,0,0,0-2.78-2.78H737.68a2.77,2.77,0,0,0-2.78,2.78v71.1A13.47,13.47,0,0,0,748.38,604h37.15A13.48,13.48,0,0,0,799,590.53V572.11h.23V519.43A2.78,2.78,0,0,0,796.46,516.65Z" transform="translate(-28.33)"/><rect class="cls-33" x="737.11" y="540.37" width="3.27" height="3.27" rx="1.63"/></g><g id="指差し"><path class="cls-34" d="M605.5,509.61H675.1a.4.4,0,0,1,.4.4v69.61a30,30,0,0,1-30,30H575.9a.4.4,0,0,1-.4-.4V539.61A30,30,0,0,1,605.5,509.61Z"/><rect class="cls-16" x="610.74" y="517.89" width="12.79" height="63.08" rx="4.7"/><rect class="cls-16" x="623.53" y="549.53" width="12.79" height="39" rx="5.64"/><rect class="cls-16" x="635.11" y="551.21" width="12.79" height="37.32" rx="5.3"/><rect class="cls-16" x="646.94" y="554.19" width="12.79" height="34.34" rx="4.78"/><rect class="cls-16" x="630.42" y="558.62" width="12.79" height="41.33" rx="4.78" transform="translate(-251.43 619.97) rotate(-45)"/><rect class="cls-16" x="610.91" y="557.65" width="48.82" height="43.67" rx="18.83"/></g><g id="鍵"><path class="cls-35" d="M490.5,509.61H560.1a.4.4,0,0,1,.4.4v69.61a30,30,0,0,1-30,30H460.9a.4.4,0,0,1-.4-.4V539.61a30,30,0,0,1,30-30Z"/><path class="cls-16" d="M540.16,519.17h0a20.55,20.55,0,0,0-20.55,20.56v23a3,3,0,0,0,2.95,2.95h0a3,3,0,0,0,2.94-2.95V543.59c0-9.68,6.57-17.54,14.66-17.54h0c8.1,0,14.67,7.86,14.67,17.54v19.14a2.94,2.94,0,0,0,2.94,2.95h0a3,3,0,0,0,3-2.95v-23A20.55,20.55,0,0,0,540.16,519.17Z" transform="translate(-28.33)"/><rect class="cls-16" x="476.31" y="552.53" width="71.05" height="48.84" rx="9.23"/><path class="cls-35" d="M548.07,571.84a7.73,7.73,0,0,0-7.73-7.73h0a7.73,7.73,0,0,0-4.16,14.24L533,592.46h14.93l-3.69-13.92A7.71,7.71,0,0,0,548.07,571.84Z" transform="translate(-28.33)"/></g><g id="ゴミ箱"><path class="cls-36" d="M375.5,509.61H445.1a.4.4,0,0,1,.4.4v69.61a30,30,0,0,1-30,30H345.9a.4.4,0,0,1-.4-.4V539.61A30,30,0,0,1,375.5,509.61Z"/><path class="cls-16" d="M437.61,524V522.6A2.6,2.6,0,0,0,435,520H412.92a2.59,2.59,0,0,0-2.59,2.6V524a2.6,2.6,0,0,1-2.6,2.59H389.31a2.6,2.6,0,0,0-2.6,2.6v5.16a2.59,2.59,0,0,0,2.6,2.6h69.32a2.59,2.59,0,0,0,2.59-2.6v-5.16a2.6,2.6,0,0,0-2.59-2.6H440.2A2.59,2.59,0,0,1,437.61,524Z" transform="translate(-28.33)"/><path class="cls-16" d="M365.45,540.44h60.37a0,0,0,0,1,0,0v47A11.87,11.87,0,0,1,414,599.29H377.32a11.87,11.87,0,0,1-11.87-11.87v-47A0,0,0,0,1,365.45,540.44Z"/><rect class="cls-36" x="376.09" y="549.43" width="5.85" height="38.95" rx="2.93"/><rect class="cls-36" x="392.99" y="549.43" width="5.85" height="38.95" rx="2.93"/><rect class="cls-36" x="409.15" y="549.43" width="5.85" height="38.95" rx="2.93"/></g><g id="ヘッドフォン"><path class="cls-37" d="M260.77,509.61h69.61a.4.4,0,0,1,.4.4v69.61a30,30,0,0,1-30,30H231.17a.4.4,0,0,1-.4-.4V539.61a30,30,0,0,1,30-30Z"/><path class="cls-16" d="M309.5,524.92h0a27.59,27.59,0,0,0-27.59,27.59V583.4a4,4,0,0,0,3.95,4h0a4,4,0,0,0,4-4V557.7c0-13,8.81-23.54,19.68-23.54h0c10.87,0,19.68,10.54,19.68,23.54v25.7a4,4,0,0,0,3.95,4h0a4,4,0,0,0,4-4V552.51A27.59,27.59,0,0,0,309.5,524.92Z" transform="translate(-28.33)"/><path class="cls-16" d="M244.15,556.14h4a2.67,2.67,0,0,1,2.67,2.67v22.37a2.67,2.67,0,0,1-2.67,2.67h-4a10.53,10.53,0,0,1-10.53-10.53v-6.66A10.53,10.53,0,0,1,244.15,556.14Z"/><path class="cls-16" d="M350.33,556.14h4a2.67,2.67,0,0,1,2.67,2.67v22.37a2.67,2.67,0,0,1-2.67,2.67h-4a10.53,10.53,0,0,1-10.53-10.53v-6.66A10.53,10.53,0,0,1,350.33,556.14Z" transform="translate(668.51 1139.98) rotate(180)"/></g><g id="時計"><path class="cls-38" d="M145.5,509.61H215.1a.4.4,0,0,1,.4.4v69.61a30,30,0,0,1-30,30H115.9a.4.4,0,0,1-.4-.4V539.61A30,30,0,0,1,145.5,509.61Z"/><circle class="cls-16" cx="165.5" cy="559.64" r="40.13"/><rect class="cls-38" x="162.89" y="523.45" width="5.21" height="38.68" rx="2.61"/><rect class="cls-38" x="199.71" y="554.19" width="5.21" height="29.22" rx="2.61" transform="translate(719.25 827.94) rotate(135)"/></g><g id="しおり"><path class="cls-39" d="M30.5,509.61H100.1a.4.4,0,0,1,.4.4v69.61a30,30,0,0,1-30,30H.9a.4.4,0,0,1-.4-.4V539.61A30,30,0,0,1,30.5,509.61Z"/><path class="cls-16" d="M73.48,537.9,36.7,567.31a5.17,5.17,0,0,0-.81,7.26l19,23.75a5.16,5.16,0,0,0,7.26.8l36.77-29.41a5.18,5.18,0,0,0,1.94-4l.11-22.08a2,2,0,0,0-1.6-2l-21.56-4.73A5.12,5.12,0,0,0,73.48,537.9Z" transform="translate(-28.33)"/><rect class="cls-39" x="50.15" y="547.78" width="11.86" height="11.86" rx="5.93"/><path class="cls-16" d="M91.49,520.62l11.44-.62a2.7,2.7,0,0,1,2.81,3.12l-2.52,15.74a2.7,2.7,0,0,0,2.55,3.12l13.7.6a2.7,2.7,0,0,1,2.58,2.81l-.34,7.8a2.7,2.7,0,0,1-4,2.23L99.51,545.25A2.73,2.73,0,0,1,98.39,544L89.2,524.46A2.7,2.7,0,0,1,91.49,520.62Z" transform="translate(-28.33)"/><path class="cls-39" d="M94.83,524.69l5.2-.5a.77.77,0,0,1,.85.85l-.94,10a.51.51,0,0,1-1,.19l-4.76-9.36A.78.78,0,0,1,94.83,524.69Z" transform="translate(-28.33)"/><path class="cls-39" d="M118.1,551.62v-4.8a.46.46,0,0,0-.4-.46l-10-1.33a.47.47,0,0,0-.31.86l10,6.12A.46.46,0,0,0,118.1,551.62Z" transform="translate(-28.33)"/></g><g id="フォルダ"><path class="cls-40" d="M1065.52,368.84h70a0,0,0,0,1,0,0v70a30,30,0,0,1-30,30h-70a0,0,0,0,1,0,0v-70A30,30,0,0,1,1065.52,368.84Z"/><path class="cls-16" d="M1111.24,398.41l-4.91-6.33a3.78,3.78,0,0,0-3-1.47h-26.95a3.79,3.79,0,0,0-3.78,3.79v51.44a3.79,3.79,0,0,0,3.78,3.79h74.88a3.79,3.79,0,0,0,3.79-3.79V404a3.79,3.79,0,0,0-3.79-3.78H1115A4.74,4.74,0,0,1,1111.24,398.41Z" transform="translate(-28.33)"/></g><g id="トーク"><path class="cls-41" d="M950.52,368.84h70a0,0,0,0,1,0,0v70a30,30,0,0,1-30,30h-70a0,0,0,0,1,0,0v-70A30,30,0,0,1,950.52,368.84Z"/><path class="cls-16" d="M1033.88,417c0-14.36-15.42-26-34.44-26S965,402.63,965,417s15.42,26,34.44,26a44.59,44.59,0,0,0,11.79-1.57,49,49,0,0,1-2.36,7.78c2.38.59,9.79-4.34,13.17-12.61C1029.29,431.83,1033.88,424.82,1033.88,417Z" transform="translate(-28.33)"/><circle class="cls-41" cx="955.41" cy="417.26" r="4.73"/><circle class="cls-41" cx="971.1" cy="417.28" r="4.73"/><circle class="cls-41" cx="986.81" cy="417.22" r="4.73"/></g><g id="旗"><path class="cls-42" d="M835.52,368.84h70a0,0,0,0,1,0,0v70a30,30,0,0,1-30,30h-70a0,0,0,0,1,0,0v-70A30,30,0,0,1,835.52,368.84Z"/><rect class="cls-16" x="821.08" y="380.11" width="7.39" height="85.36" rx="3.69"/><path class="cls-16" d="M860.26,383.26v41.95c18.17-7.67,43.87,7,61,.49V383.26C907.5,390.22,873.93,373.5,860.26,383.26Z" transform="translate(-28.33)"/></g><g id="電話"><path class="cls-43" d="M720.29,368.84h70a0,0,0,0,1,0,0v70a30,30,0,0,1-30,30h-70a0,0,0,0,1,0,0v-70A30,30,0,0,1,720.29,368.84Z"/><path class="cls-16" d="M781.35,394.52,790.5,382a4.72,4.72,0,0,1,6.59-1c3.45,2.49,8.23,6.54,10.44,11.05,3.66,7.45-30.65,70.05-62.49,64.29l-.44-.1a21.87,21.87,0,0,1-13.69-12.4,4.69,4.69,0,0,1,2.21-6.09l16-8.09a4.7,4.7,0,0,1,5.88,1.36l4.18,5.49a4.71,4.71,0,0,0,6.86.71c5.7-5,16.34-15.16,22.51-26.34a4.72,4.72,0,0,0-1.29-6l-5-3.8A4.72,4.72,0,0,1,781.35,394.52Z" transform="translate(-28.33)"/></g><g id="チェック"><path class="cls-28" d="M605.52,368.84h70a0,0,0,0,1,0,0v70a30,30,0,0,1-30,30h-70a0,0,0,0,1,0,0v-70A30,30,0,0,1,605.52,368.84Z"/><path class="cls-16" d="M615.29,416.79h0a4,4,0,0,1,5.1-.2L636,428.29a3.15,3.15,0,0,0,3.74,0l51.68-37.43a1.47,1.47,0,0,1,1.8.05h0a1.47,1.47,0,0,1,.19,2.1l-46.75,54.69a9.18,9.18,0,0,1-14.48-.69l-17.49-24.92A4,4,0,0,1,615.29,416.79Z" transform="translate(-28.33)"/></g><g id="ハンガー"><path class="cls-44" d="M490.52,368.84h70a0,0,0,0,1,0,0v70a30,30,0,0,1-30,30h-70a0,0,0,0,1,0,0v-70A30,30,0,0,1,490.52,368.84Z"/><path class="cls-16" d="M583.16,444.5l-41.18-33a4.6,4.6,0,0,0-1.27-.69v-4.11a.89.89,0,0,1,.7-.86,13,13,0,1,0-16.19-14.06,1.32,1.32,0,0,0,1.32,1.46h1.19a1.17,1.17,0,0,0,1.16-1,9.31,9.31,0,1,1,10.45,10.26,2.32,2.32,0,0,0-2.32,2.33v5.88a5,5,0,0,0-1.55.81l-41.61,33c-2.31,1.83-.79,5.12,2.35,5.12h84.58C583.93,449.61,585.45,446.33,583.16,444.5Zm-9.73,1.3H503.54a1.43,1.43,0,0,1-.89-2.55l32.76-25.95a5.49,5.49,0,0,1,6.5,0l32.41,25.94A1.42,1.42,0,0,1,573.43,445.8Z" transform="translate(-28.33)"/></g><g id="Wi-Fi"><path class="cls-45" d="M375.52,368.84h70a0,0,0,0,1,0,0v70a30,30,0,0,1-30,30h-70a0,0,0,0,1,0,0v-70A30,30,0,0,1,375.52,368.84Z"/><circle class="cls-16" cx="395.31" cy="442.5" r="9.98"/><path class="cls-16" d="M403.24,431.57a5,5,0,0,0,6.35-.72,20.14,20.14,0,0,1,28.59.07,5,5,0,0,0,6.28.67h0a5,5,0,0,0,.84-7.65,30.08,30.08,0,0,0-42.84-.07,5,5,0,0,0,.77,7.7Z" transform="translate(-28.33)"/><path class="cls-16" d="M385.72,420a4.85,4.85,0,0,0,6.48-1.1,40.15,40.15,0,0,1,63.26.1,4.86,4.86,0,0,0,6.51,1.13l.24-.16a4.81,4.81,0,0,0,1.21-6.94,50,50,0,0,0-79.08-.25,4.85,4.85,0,0,0,1.12,7.05Z" transform="translate(-28.33)"/></g><g id="虫眼鏡"><path class="cls-46" d="M260.49,368.84H330.4a.1.1,0,0,1,.1.1v69.91a30,30,0,0,1-30,30H230.6a.1.1,0,0,1-.1-.1V398.83A30,30,0,0,1,260.49,368.84Z"/><path class="cls-16" d="M339.4,421.31a26.64,26.64,0,1,0-42,3.29,3.28,3.28,0,0,1,.29,4l-16.88,25.63a2.75,2.75,0,0,0,.79,3.82l2.35,1.55a2.76,2.76,0,0,0,3.82-.79l16.88-25.63a3.31,3.31,0,0,1,3.87-1.28A26.65,26.65,0,0,0,339.4,421.31Z" transform="translate(-28.33)"/><circle class="cls-46" cx="289.04" cy="406.21" r="18.53"/></g><g id="アカウント"><path class="cls-47" d="M237.72,368.84h-63.9a30,30,0,0,0-30,30v70h70a30,30,0,0,0,30-30v-70Z" transform="translate(-28.33)"/><rect class="cls-16" x="147.66" y="377.07" width="36.78" height="36.78" rx="18.39"/><path class="cls-16" d="M210.73,417.08a3.2,3.2,0,0,0-4.95-1.33,18.34,18.34,0,0,1-22.79,0,3.21,3.21,0,0,0-5,1.33l-12.27,30.77A9.62,9.62,0,0,0,174.69,461h39.39A9.62,9.62,0,0,0,223,447.85Z" transform="translate(-28.33)"/></g><g id="ビル"><path class="cls-48" d="M30.5,368.84H100.1a.4.4,0,0,1,.4.4v69.61a30,30,0,0,1-30,30H.9a.4.4,0,0,1-.4-.4V398.84A30,30,0,0,1,30.5,368.84Z"/><path class="cls-16" d="M45.42,390.18l38.14-13a2.7,2.7,0,0,1,3.57,2.56v77.44a2.7,2.7,0,0,1-2.95,2.69L46,456.36a2.7,2.7,0,0,1-2.45-2.69V392.74A2.69,2.69,0,0,1,45.42,390.18Z" transform="translate(-28.33)"/><path class="cls-16" d="M113,390.11,94,378.25a2.36,2.36,0,0,0-3.61,2v77.14a2.36,2.36,0,0,0,2.76,2.32l19-3.24a2.37,2.37,0,0,0,2-2.33v-62A2.36,2.36,0,0,0,113,390.11Z" transform="translate(-28.33)"/><path class="cls-48" d="M53.2,417.13l-3.5.84a2.52,2.52,0,0,1-3.1-2.44v-6.32a2.51,2.51,0,0,1,2-2.45l3.5-.77a2.51,2.51,0,0,1,3,2.45v6.25A2.52,2.52,0,0,1,53.2,417.13Z" transform="translate(-28.33)"/><path class="cls-48" d="M53.08,431.4l-3.5.66a2.51,2.51,0,0,1-3-2.46v-5.77a2.52,2.52,0,0,1,1.94-2.44l3.5-.82A2.52,2.52,0,0,1,55.12,423v5.92A2.51,2.51,0,0,1,53.08,431.4Z" transform="translate(-28.33)"/><path class="cls-48" d="M64.56,399.91l-3.66.87a2.51,2.51,0,0,1-3.1-2.43v-6.56a2.51,2.51,0,0,1,1.78-2.4l3.66-1.11a2.5,2.5,0,0,1,3.24,2.39v6.8A2.52,2.52,0,0,1,64.56,399.91Z" transform="translate(-28.33)"/><path class="cls-48" d="M77.24,396.23l-4.87,1.49a2.51,2.51,0,0,1-3.25-2.39V388a2.5,2.5,0,0,1,1.66-2.35l4.87-1.77A2.51,2.51,0,0,1,79,386.24v7.59A2.5,2.5,0,0,1,77.24,396.23Z" transform="translate(-28.33)"/><path class="cls-48" d="M64.56,414.55l-3.66.88A2.52,2.52,0,0,1,57.8,413v-6.44a2.51,2.51,0,0,1,1.92-2.44l3.66-.88a2.51,2.51,0,0,1,3.1,2.43v6.45A2.51,2.51,0,0,1,64.56,414.55Z" transform="translate(-28.33)"/><path class="cls-48" d="M77.17,411.15l-4.87,1.34a2.51,2.51,0,0,1-3.18-2.42v-6.65A2.51,2.51,0,0,1,71,401l4.87-1.38A2.5,2.5,0,0,1,79,402v6.69A2.51,2.51,0,0,1,77.17,411.15Z" transform="translate(-28.33)"/><path class="cls-48" d="M64.44,429.12l-3.65.7a2.51,2.51,0,0,1-3-2.46v-6.17a2.51,2.51,0,0,1,1.92-2.44l3.66-.88a2.51,2.51,0,0,1,3.1,2.43v6.36A2.51,2.51,0,0,1,64.44,429.12Z" transform="translate(-28.33)"/><path class="cls-48" d="M76.89,427.26,72,428a2.52,2.52,0,0,1-2.9-2.48v-7A2.51,2.51,0,0,1,71,416.12l4.87-1.39A2.51,2.51,0,0,1,79,417.14v7.64A2.51,2.51,0,0,1,76.89,427.26Z" transform="translate(-28.33)"/><path class="cls-48" d="M46.6,395.27V401a2.51,2.51,0,0,0,3.1,2.44l3.5-.84a2.51,2.51,0,0,0,1.92-2.44v-6a2.51,2.51,0,0,0-3.24-2.4l-2.86.87-.67.22A2.51,2.51,0,0,0,46.6,395.27Z" transform="translate(-28.33)"/><path class="cls-48" d="M71.85,458.84,52.26,462V440.52a3.2,3.2,0,0,1,2.64-3.16L68.07,435a3.22,3.22,0,0,1,3.78,3.17Z" transform="translate(-28.33)"/></g><g id="財布"><path class="cls-49" d="M1065.45,228.07h70.05a0,0,0,0,1,0,0v70.05a29.95,29.95,0,0,1-29.95,29.95H1035.5a0,0,0,0,1,0,0V258a29.95,29.95,0,0,1,29.95-29.95Z"/><path class="cls-16" d="M1144.2,281.44a4.64,4.64,0,0,1-1.55-3.78c0-.26,0-.51,0-.77,0-10.69-12.7-19.36-28.35-19.36S1086,266.2,1086,276.89V277a4.65,4.65,0,0,1-1.62,3.69c-4.7,3.85-7.49,8.64-7.49,13.84,0,12.67,16.56,22.95,37,22.95s37-10.28,37-22.95C1150.81,289.67,1148.37,285.15,1144.2,281.44Z" transform="translate(-28.33)"/><path class="cls-16" d="M1082.17,277.29a1.62,1.62,0,0,0,1.6-1.66v0c0-11.07,13.46-20.05,30.06-20.05s30.06,9,30.06,20.05v0a1.63,1.63,0,0,0,1.61,1.66h4.93a1.6,1.6,0,0,0,1.61-1.47c0-.44,0-.88,0-1.33,0-14.1-17.13-25.53-38.26-25.53s-38.26,11.43-38.26,25.53c0,.45,0,.89,0,1.33a1.6,1.6,0,0,0,1.61,1.47Z" transform="translate(-28.33)"/><rect class="cls-16" x="1074.02" y="238.48" width="11.48" height="11.48" rx="5.63"/><rect class="cls-16" x="1085.5" y="238.48" width="11.48" height="11.48" rx="5.63"/></g><g id="鉛筆"><path class="cls-50" d="M950.59,228.07h69.91a0,0,0,0,1,0,0V298a30.09,30.09,0,0,1-30.09,30.09H920.5a0,0,0,0,1,0,0V258.16A30.09,30.09,0,0,1,950.59,228.07Z"/><rect class="cls-16" x="986.29" y="260.87" width="9.7" height="62.1" transform="translate(264.47 -469.59) rotate(31.07)"/><polygon class="cls-16" points="941.21 314.37 938.01 303.5 969.96 250.46 973.16 261.34 941.21 314.37"/><polyline class="cls-16" points="953.02 321.49 964.13 319.23 996.08 266.2 984.97 268.45"/><path class="cls-16" d="M1015.68,240.28s-.52,2.94,3.65,5.45,6.52.67,6.52.67l.32-11.71Z" transform="translate(-28.33)"/><path class="cls-16" d="M1025.75,248c-.45.29-3,1.76-7.3-.82-4.73-2.84-4.13-6.17-4.13-6.17l11.79-6.28v-.08l-26.25,14,3.48,12.12,9.84,5.93,12.14-2.72Z" transform="translate(-28.33)"/></g><g id="飲みもの"><path class="cls-51" d="M835.46,228h70a0,0,0,0,1,0,0v70a30,30,0,0,1-30,30h-70a0,0,0,0,1,0,0v-70A30,30,0,0,1,835.46,228Z"/><path class="cls-16" d="M816.45,265.42h63.27a0,0,0,0,1,0,0V295.9a26,26,0,0,1-26,26H842.43a26,26,0,0,1-26-26V265.42a0,0,0,0,1,0,0Z"/><path class="cls-16" d="M905.49,271.23v36.12h5a15,15,0,0,0,15-15v-6.12a15,15,0,0,0-15-15Zm5.32,29.45h-4.53V277.9h4.53A8.09,8.09,0,0,1,918.9,286v6.6A8.09,8.09,0,0,1,910.81,300.68Z" transform="translate(-28.33)"/><path class="cls-16" d="M860.79,232.51c8.68,13.37-8.29,20.23.59,31.48C858.73,248.25,873.61,244.12,860.79,232.51Z" transform="translate(-28.33)"/><path class="cls-16" d="M875.55,232.51c8.68,13.37-8.29,20.23.59,31.48C873.48,248.25,888.36,244.12,875.55,232.51Z" transform="translate(-28.33)"/><path class="cls-16" d="M890.3,232.51c8.68,13.37-8.28,20.23.6,31.48C888.24,248.25,903.12,244.12,890.3,232.51Z" transform="translate(-28.33)"/></g><g id="手袋"><path class="cls-52" d="M720.46,228.07h70a0,0,0,0,1,0,0v70a30,30,0,0,1-30,30h-70a0,0,0,0,1,0,0V258A30,30,0,0,1,720.46,228.07Z"/><rect class="cls-16" x="714.56" y="305.48" width="58.05" height="12.27" rx="6.13"/><path class="cls-16" d="M773.29,236.89h0A24.28,24.28,0,0,0,749,261.16v17.27L744.07,271a6.91,6.91,0,1,0-11.52,7.65L749,303.43h48.55V261.16A24.28,24.28,0,0,0,773.29,236.89Z" transform="translate(-28.33)"/></g><g id="サンタの帽子"><path class="cls-53" d="M605.46,228.07h70a0,0,0,0,1,0,0v70a30,30,0,0,1-30,30h-70a0,0,0,0,1,0,0V258A30,30,0,0,1,605.46,228.07Z"/><rect class="cls-16" x="590.7" y="298.66" width="69.59" height="16.29" rx="2.1"/><path class="cls-16" d="M621.2,296.16h65.26s-13.25-35.58-32.73-41.5C634.06,260.58,621.2,296.16,621.2,296.16Z" transform="translate(-28.33)"/><rect class="cls-16" x="619.18" y="239.53" width="12.64" height="12.64" rx="6.32"/></g><g id="ベル"><path class="cls-54" d="M490.46,228.07h70a0,0,0,0,1,0,0v70a30,30,0,0,1-30,30h-70a0,0,0,0,1,0,0V258A30,30,0,0,1,490.46,228.07Z"/><polygon class="cls-16" points="511.14 253.48 492.26 241.81 501.7 233.98 511.14 248.13 521.21 233.98 528.74 241.81 511.14 253.48"/><path class="cls-55" d="M537.5,262.71" transform="translate(-28.33)"/><circle class="cls-16" cx="510.5" cy="316.93" r="5.13"/><path class="cls-16" d="M538.83,308.22c13,0,31.12,3.69,31.73,3.69-4.57,0-7-10.17-7-14.32,0-40.37-16.19-41.37-24.74-41.48-8.55.11-24.74,1.11-24.74,41.48,0,4.15-2.42,14.32-7,14.32C507.71,311.91,525.81,308.22,538.83,308.22Z" transform="translate(-28.33)"/></g><g id="雪の結晶"><path class="cls-55" d="M375.53,228.07h70a0,0,0,0,1,0,0v70a30,30,0,0,1-30,30h-70a0,0,0,0,1,0,0v-70A30,30,0,0,1,375.53,228.07Z"/><rect class="cls-16" x="393.46" y="239.3" width="4.08" height="77.55"/><rect class="cls-16" x="421.79" y="239.3" width="4.08" height="77.55" transform="translate(424.4 -228.01) rotate(60)"/><rect class="cls-16" x="421.79" y="239.3" width="4.08" height="77.55" transform="translate(-57.23 506.09) rotate(-60)"/><rect class="cls-16" x="427.3" y="242.83" width="4.08" height="14.97" transform="translate(316.79 -239.48) rotate(50)"/><rect class="cls-16" x="416.28" y="242.83" width="4.08" height="14.97" transform="translate(-70.65 409.87) rotate(-50)"/><polygon class="cls-16" points="396.58 299.69 393.96 302.81 405.43 312.39 408.06 309.28 396.58 299.69"/><polygon class="cls-16" points="397.04 302.81 394.42 299.69 382.94 309.28 385.57 312.39 397.04 302.81"/><rect class="cls-16" x="448.66" y="261.43" width="4.08" height="14.97" transform="translate(829.22 -62.63) rotate(110)"/><rect class="cls-16" x="443.15" y="251.89" width="4.08" height="14.97" transform="translate(23.47 -73.37) rotate(10)"/><polygon class="cls-16" points="377.4 289.77 373.39 289.06 370.82 303.79 374.83 304.5 377.4 289.77"/><polygon class="cls-16" points="374.93 291.73 376.32 287.89 362.28 282.75 360.89 286.59 374.93 291.73"/><rect class="cls-16" x="400.4" y="251.85" width="4.08" height="14.97" transform="translate(-67.25 73.82) rotate(-10)"/><rect class="cls-16" x="394.89" y="261.39" width="4.08" height="14.97" transform="translate(251.7 733.84) rotate(-110)"/><polygon class="cls-16" points="414.66 287.86 416.05 291.69 430.09 286.55 428.7 282.72 414.66 287.86"/><polygon class="cls-16" points="417.59 289.02 413.57 289.74 416.14 304.46 420.16 303.75 417.59 289.02"/></g><g id="靴下"><path class="cls-56" d="M260.53,228.07h70a0,0,0,0,1,0,0v70a30,30,0,0,1-30,30h-70a0,0,0,0,1,0,0v-70A30,30,0,0,1,260.53,228.07Z"/><rect class="cls-16" x="264.31" y="238.83" width="49.74" height="15.53" rx="6.67"/><path class="cls-16" d="M297.56,257.06v21.51a8.3,8.3,0,0,1-8.29,8.3h0a14,14,0,0,0-14,14h0a15.81,15.81,0,0,0,15.81,15.82h37.36a9,9,0,0,0,9-9V257.06Z" transform="translate(-28.33)"/></g><g id="クリスマスツリー"><path class="cls-57" d="M146,228.07H215.5a0,0,0,0,1,0,0v69.52A30.48,30.48,0,0,1,185,328.07H115.5a0,0,0,0,1,0,0V258.56A30.48,30.48,0,0,1,146,228.07Z"/><polygon class="cls-16" points="166.21 243.13 161.96 245.36 162.77 240.64 159.34 237.29 164.08 236.6 166.21 232.3 168.33 236.6 173.08 237.29 169.64 240.64 170.45 245.36 166.21 243.13"/><polygon class="cls-16" points="200.2 308.79 189.01 286.96 197.43 285.6 179.12 267.34 185.51 266.05 165.8 245.36 146.13 266.05 152.51 267.34 134.23 285.6 142.63 286.96 131.47 308.79 156.95 309.47 156.95 323.83 174.72 323.83 174.72 309.46 200.2 308.79"/></g><g id="雪だるま"><path class="cls-58" d="M31,228.07H100.5a0,0,0,0,1,0,0v69.52A30.48,30.48,0,0,1,70,328.07H.5a0,0,0,0,1,0,0V258.56A30.48,30.48,0,0,1,31,228.07Z"/><path class="cls-16" d="M90.82,275.17a20.85,20.85,0,1,0-24,0,25.41,25.41,0,1,0,24,0Z" transform="translate(-28.33)"/><polygon class="cls-16" points="68.06 280.12 82.17 273.67 82.17 263.81 84.74 263.81 84.74 271.97 93.08 269.88 93.08 271.97 83.98 275.19 68.06 282.96 68.06 280.12"/><polygon class="cls-16" points="31.77 285.89 17.95 275.1 8.07 280.24 6.73 277.67 15.87 272.92 12.83 260.88 16.24 260.88 18.52 272.5 34.62 284.41 31.77 285.89"/></g><g id="蜘蛛"><path class="cls-59" d="M1115,87.72v43.15h-2.36V87.72h-18.81a30,30,0,0,0-30,30v70h70a30,30,0,0,0,30-30v-70Z" transform="translate(-28.33)"/><path class="cls-16" d="M1153.07,150l-9.81-14.37-17.33,2.19a20.23,20.23,0,0,0-2.63-3.18l10.94-6.9-.07-17.45L1121.3,104l10.15,7.76-.22,14.09-11.79,6a4.93,4.93,0,0,0,.09-.87,5.7,5.7,0,0,0-11.4,0,5.8,5.8,0,0,0,.1,1l-.22.13-12.45-6.26-.2-14.1,10.27-7.78-13,6.35-.09,17.46,11.68,7.28a21.1,21.1,0,0,0-2.09,2.54l-17.79-1.79-9.73,14.42,3.85,15.13-1.27-14.62,8.22-11.07,14.39,2.12a30.62,30.62,0,0,0-1.2,3.22l-15.49,6.44-3.52,20.44,13.55,10L1083,170.74l3.16-16.44,11.18-3.48a36.6,36.6,0,0,0-.28,4.37c0,13.63,7.83,19.1,16.88,24.69,9.06-5.59,16.88-11.06,16.88-24.69a34.59,34.59,0,0,0-.28-4.36l11.18,3.43,3.14,16.45-10.24,11.19,13.7-10.06-3.49-20.46L1129.31,145a29.8,29.8,0,0,0-1.13-3.06l13.84-2.37,8.32,11-1.8,14.92Z" transform="translate(-28.33)"/></g><g id="おばけ"><path class="cls-60" d="M950.5,87.3h69.61a.4.4,0,0,1,.4.4v69.61a30,30,0,0,1-30,30H920.9a.4.4,0,0,1-.4-.4V117.3A30,30,0,0,1,950.5,87.3Z"/><path class="cls-16" d="M998.83,95.5c35.05,0,25.91,61.29,35.72,70.66-8.4,15.42-19.82,7.43-24.09,8.8s-5.77,7.64-14.42,6.88-9.37-6.06-13.52-8.1c-8-3.94-13.32,2.86-19.41-5.91C977,151.38,964.12,95.5,998.83,95.5Z" transform="translate(-28.33)"/><ellipse class="cls-60" cx="978.97" cy="117.22" rx="3.39" ry="4.91"/><ellipse class="cls-60" cx="961.53" cy="117.22" rx="3.39" ry="4.91"/></g><g id="かぼちゃ"><path class="cls-61" d="M835.5,87.3H905.1a.4.4,0,0,1,.4.4v69.61a30,30,0,0,1-30,30H805.9a.4.4,0,0,1-.4-.4V117.3A30,30,0,0,1,835.5,87.3Z"/><path class="cls-16" d="M914.06,108.17c-3.78-.43-7.68,1.83-11.12,6-2.91-4.9-6.67-7.86-10.77-7.86-3.1,0-6,1.69-8.49,4.63-2.44-2.8-5.28-4.41-8.3-4.41-4,0-7.76,2.88-10.66,7.67-3.32-4-7.1-6.16-10.79-5.78-8.72.91-13.68,15.78-11.08,33.22s11.78,30.85,20.51,29.94a8.54,8.54,0,0,0,4.36-1.82c2.3,2.37,4.9,3.71,7.66,3.71,3.1,0,6-1.69,8.49-4.62,2.45,2.8,5.28,4.4,8.3,4.4a10.67,10.67,0,0,0,7.56-3.61,8.36,8.36,0,0,0,4,1.63c8.71,1,18.08-12.32,20.92-29.74S922.77,109.16,914.06,108.17Z" transform="translate(-28.33)"/><polygon class="cls-61" points="837.47 120.53 831.01 135.31 846.21 133.24 837.47 120.53"/><polyline class="cls-61" points="861.62 133.24 871.09 120.53 878.07 135.31"/><polygon class="cls-61" points="853.92 138.7 851.42 141.98 856.42 141.98 853.92 138.7"/><path class="cls-61" d="M856.64,148.49l11.87,1v2.37l6,.12v-2.49H890v3.12h5v-3.12l12.77-1.24a30.63,30.63,0,0,1-25.47,12.9A31.15,31.15,0,0,1,856.64,148.49Z" transform="translate(-28.33)"/><polygon class="cls-16" points="852.57 112.47 853.92 101.59 856.42 101.59 858.45 112.47 852.57 112.47"/></g><g id="どんぐり"><path class="cls-62" d="M720.5,87.3H790.1a.4.4,0,0,1,.4.4v69.61a30,30,0,0,1-30,30H690.9a.4.4,0,0,1-.4-.4V117.3A30,30,0,0,1,720.5,87.3Z"/><path class="cls-16" d="M793.3,125.29c-4.91-2.08-12.95-3.45-22-3.45-9.86,0-18.48,1.6-23.22,4a37.53,37.53,0,0,0-4.73,18.49c0,18.2,9.45,29.47,27.52,33,18.9-3.08,27.53-14.76,27.53-33A37.42,37.42,0,0,0,793.3,125.29Z" transform="translate(-28.33)"/><path class="cls-16" d="M773.5,106.56v-5.79a2,2,0,0,0-2-2h-1.42a2,2,0,0,0-2,2v5.79c-12.71.67-22.61,6.12-22.61,12.74a7.63,7.63,0,0,0,1.77,4.72c4.56-2.6,13.56-4.37,23.94-4.37,9.93,0,18.61,1.62,23.33,4a7.44,7.44,0,0,0,1.52-4.39C796.11,112.68,786.21,107.23,773.5,106.56Z" transform="translate(-28.33)"/></g><g id="コスモス"><path class="cls-63" d="M605.5,87.3H675.1a.4.4,0,0,1,.4.4v69.61a30,30,0,0,1-30,30H575.9a.4.4,0,0,1-.4-.4V117.3A30,30,0,0,1,605.5,87.3Z"/><polygon class="cls-16" points="667.5 137.91 643.61 135.07 664.87 121.62 652.87 105.58 633.93 123.25 636.72 94.91 616.6 94.91 619.1 123.17 598.29 103.96 586.16 120 607.65 133.45 583.5 136.28 587.79 155.93 613.17 148 599.64 171.18 617.92 179.57 625.44 158.44 633.45 181.19 651.53 172.81 638.15 149.62 663.25 157.56 667.5 137.91"/><circle class="cls-63" cx="625.98" cy="138.05" r="9.86"/></g><g id="枯れ葉"><path class="cls-64" d="M490.5,87.3H560.1a.4.4,0,0,1,.4.4v69.61a30,30,0,0,1-30,30H460.9a.4.4,0,0,1-.4-.4V117.3A30,30,0,0,1,490.5,87.3Z"/><path class="cls-16" d="M559.82,92.66v0h0v0l0,0a107.08,107.08,0,0,0-21.18,8c.37.13.73.28,1.08.44a10.9,10.9,0,1,1-15.53,9.21C500.49,130.91,505,159.16,521.68,169l-6.88,13,3.2,1.52L523.52,170C548,180.68,586.43,151.36,559.82,92.66Z" transform="translate(-28.33)"/></g><g id="銀杏"><path class="cls-65" d="M375.5,87.3H445.1a.4.4,0,0,1,.4.4v69.61a30,30,0,0,1-30,30H345.9a.4.4,0,0,1-.4-.4V117.3A30,30,0,0,1,375.5,87.3Z"/><path class="cls-16" d="M420.68,140.37l-35.29-10.81a2,2,0,0,1-1.24-2.72c2.77-6.32,12.54-25.14,32.51-30.64a1.75,1.75,0,0,1,2.2,1.4l3.5,21.74,3.52-21.92a1.84,1.84,0,0,1,2.05-1.53c6,.77,25.47,4.8,35.54,25.42a2.16,2.16,0,0,1-1.07,2.92L425.92,140a2.65,2.65,0,0,0-1.59,2.61L427,180.79a1.9,1.9,0,0,1-1.89,2H423.8a1.86,1.86,0,0,1-1.87-1.88l.1-38.74A1.91,1.91,0,0,0,420.68,140.37Z" transform="translate(-28.33)"/></g><g id="紅葉"><path class="cls-66" d="M260.5,87.3H330.1a.4.4,0,0,1,.4.4v69.61a30,30,0,0,1-30,30H230.9a.4.4,0,0,1-.4-.4V117.3A30,30,0,0,1,260.5,87.3Z"/><path class="cls-16" d="M320.65,155.63c10.68-1.42,25.38-6.88,32.11-12.46h-.11l.1,0c-5.62-1.78-14.57-2.14-23-1.36,7.26-8.38,13.92-18.79,16.13-26.29l-.11.07.08-.1c-7.94,2.33-19.11,9.64-27.71,17.38-.3-14.17-3.62-31.27-8.61-40.42l0,.15,0-.15c-5,9.15-8.3,26.25-8.6,40.42-8.61-7.74-19.78-15-27.71-17.38l.07.1-.1-.07c2.21,7.52,8.89,18,16.17,26.35-8.47-.66-17.45-.17-23.06,1.7l.11,0h-.11c6.8,5.46,21.54,10.68,32.23,11.95-4.58,3.43-9.33,8.37-11.19,12.09l.06,0,0,0c6.13-.67,17-6.35,20.76-10.83L307,179.94l-.13,1.76h5.05l-1.15-24.89c3.83,4.43,14.79,9.95,20.93,10.52l0,0,0,0C329.84,163.71,325.19,159,320.65,155.63Z" transform="translate(-28.33)"/></g><g id="キノコ"><path class="cls-67" d="M145.5,87.3H215.1a.4.4,0,0,1,.4.4v69.61a30,30,0,0,1-30,30H115.9a.4.4,0,0,1-.4-.4V117.3A30,30,0,0,1,145.5,87.3Z"/><path class="cls-16" d="M237.67,124.28c0,12.38-12.88,12.78-28.77,12.78s-28.77-.4-28.77-12.78S193,95.62,208.9,95.62,237.67,111.91,237.67,124.28Z" transform="translate(-28.33)"/><path class="cls-16" d="M214.66,139.64h-10.9v0h-.61c-1.69,5.74-5.1,17.35-4.91,26.84-.15,8,2,14.67,9.47,14.71.34,0,.64,0,1-.05.47,0,.94.07,1.45.07,7.52,0,9.63-6.74,9.47-14.75C219.76,157,216.35,145.38,214.66,139.64Z" transform="translate(-28.33)"/><path class="cls-16" d="M183.21,148.28c0,7.14-7.44,7.37-16.61,7.37s-16.6-.23-16.6-7.37,7.43-16.55,16.6-16.55S183.21,141.14,183.21,148.28Z" transform="translate(-28.33)"/><path class="cls-16" d="M169.93,157.15h-6.65c-1,3.31-2.95,10-2.84,15.49-.09,4.62,1.14,8.47,5.47,8.49l.55,0a7.49,7.49,0,0,0,.83,0c4.34,0,5.56-3.88,5.47-8.51C172.87,167.16,170.9,160.46,169.93,157.15Z" transform="translate(-28.33)"/></g><g id="栗"><path class="cls-68" d="M123.31,114.44" transform="translate(-28.33)"/><path class="cls-69" d="M30.5,87.3H100.1a.4.4,0,0,1,.4.4v69.61a30,30,0,0,1-30,30H.9a.4.4,0,0,1-.4-.4V117.3A30,30,0,0,1,30.5,87.3Z"/><path class="cls-16" d="M118.52,151.39c0,13-17.77,23.58-39.69,23.58s-39.68-10.55-39.68-23.58c0-28.64,39.68-51.87,39.68-51.87S118.52,123.9,118.52,151.39Z" transform="translate(-28.33)"/><ellipse class="cls-69" cx="50.5" cy="157.9" rx="33.11" ry="15.13"/></g></svg>