<?xml version="1.0" encoding="utf-8"?>
<!-- Generator: Adobe Illustrator 25.1.0, SVG Export Plug-In . SVG Version: 6.00 Build 0)  -->
<svg version="1.1" id="レイヤー_1" xmlns="http://www.w3.org/2000/svg" xmlns:xlink="http://www.w3.org/1999/xlink" x="0px"
	 y="0px" viewBox="0 0 192.6 52" style="enable-background:new 0 0 192.6 52;" xml:space="preserve">
<path d="M8.4,49.1c-0.2,0.3-0.5,0.1-0.2-0.3c1.7-2.5,3.2-2.5,4.8-3.1s2.2-1.2,2.5-4.2c0.4-3.9,0.2-20.3,0-25.1
	c-0.2-4.1-0.4-4.5-2.5-6c-2.5-1.8-3.5-3.6-6.7-4.3S-1.8,8.4-5.3-0.3C-5.6-0.9-5.2-1-4.9-0.5c4.1,8.2,8.6,4.9,12.4,5.6
	c2.3,0.5,4.1,1.9,5.7,2.8c1.4,0.9,2.9,1.4,4.6,1.5c2.4,0.2,2.7,0.4,3,3.7c0.5,6.4,0.6,25.5,0.5,29.7c-0.1,3.4-0.9,4.3-5.6,4.3
	C13.9,47.1,10.2,47.1,8.4,49.1L8.4,49.1z"/>
<path d="M26,36.7c0-9,4.6-14.4,9.4-14.4c2.9,0,5.6,2.5,6.4,5.1c0.6,1.8-0.4,2.5-1.1,1.1c-2-4.3-4-4.2-5.1-4.2
	c-3.3,0-4.1,6.9-4.1,10.4c0,4.7,0.8,9.6,4.5,9.6c2.7,0,5.3-2.5,7.3-8.5c0.3-1,0.7-0.7,0.5,0.6c-1.3,7.4-5.8,11.7-9.5,11.8l0,0
	C29,48.2,26,43.9,26,36.7z"/>
<path d="M44.8,33.8c0.2-7.2,5.8-12.4,10.4-12.2c6.4,0.3,8.1,8.7,8,13.4s-2.3,14-9.7,13.7S44.6,39.6,44.8,33.8z M54,46.1
	c2.1,0.1,3.8-4.2,4-10.8s-1.1-10.6-3.2-10.7s-4,2.6-4.2,11.1S52,46,54,46.1z"/>
<path d="M62.2,50.6c-0.6,1-0.8,0.6-0.4-0.4c0.7-1.9,2.3-3.4,4.3-4c1.7-0.6,2.3-1.9,2.6-3.8c0.5-4.9,0.5-12.3,0-15.3
	c-0.6-3.3-2-3-3.2-5.3c-1.9-3.6,1.1-7.6-1.5-11c-1.2-1.6-4.2-2.5-6.8-2.6c-0.8,0-0.7-0.5,0.1-0.6c3.3-0.2,6,0.8,7.6,2.6
	c2.8,3.2,1.2,7,2.2,9.1c0.7,1.5,2,2.6,3.6,2.9c2.2,0.4,3.2,1.2,3,4c0,0.3,0,0.7,0,1.2c1.9-2.1,4.5-3.3,7.3-3.5
	c2.1,0,3.7,1.2,3.6,5.7s-0.7,10-0.6,12.2s0.8,3.2,2,3.2c1,0,2-0.4,2-2.2c0-1.5-0.5-3.5-0.5-6.2c0-2.5,0.4-7.8,3.8-12.2
	c0.6-0.7,1-0.7,0.2,0.4c-2.1,3.2-3.2,7-3,10.9c0,2.4,0.9,5.6,0.9,7.8c0,3.1-2,4.7-4.3,4.7c-2.8,0-5.7-1.7-5.7-6.9s1.2-11-0.2-13.3
	c-0.8-1.3-3.4-0.9-5.5,1.2c-0.1,4.6,0,12.4,0.3,15.2s-1,3-2.7,3.3s-3.9,0.1-5.6,0.7C64.1,48.5,62.9,49.4,62.2,50.6z"/>
<path d="M106.2,47.6c-1-2-1.6-4.2-2-6.5c-0.9-4.9-4.6-22.4-6-26.1s-3.2-4-5.5-4.4c-4.8-1-6.5-4.5-7.2-8.1c-0.2-1.2,0.2-1.3,0.5-0.4
	c1.4,4.5,3.6,5.7,6.3,6.1c2.4,0.3,4.3,0.6,6.7,1.1c2.8,0.3,5.2,2.3,6,5c0.8,2.9,2.6,14,4,21.1c0.1,0.7,0.6,0.8,0.8,0.1
	c1.6-5.5,4.7-17,5.5-20.5c0.6-2.6,1.2-3.7,3.5-4.6c3.3-1.2,4.5-2.8,5.2-5.5c0.2-0.8,0.7-0.7,0.6,0.1c-0.6,4.6-2.1,6.2-4,7.2
	c-1.4,0.7-2.1,1.6-3.2,4.5s-7.3,25.1-8.4,28.8C108.1,49.1,107.1,49.4,106.2,47.6L106.2,47.6z"/>
<path d="M123.5,46.7c1.5-0.4,2.2-1.3,2.4-3.3c0.2-2.7,0.2-14.5,0.1-16.2s-0.5-2.5-1.2-3c-0.9-0.7-0.8-1.5,0.3-1.4
	c1.4,0.1,2.8-0.2,4.1-0.8c1.2-0.6,2-0.4,1.9,1.4c-0.1,3.8,0.1,9.8,0.2,13.9s-0.2,5.8-1.6,7.7c-1.4,1.8-3.7,2.8-6,2.5
	C122.8,47.5,122.9,46.9,123.5,46.7z M127.3,19.2c-1.5,0-2-1.6-1.9-3.1c0-3.1,1.8-4.4,3.2-4.4s2.3,1.8,2.1,3.9
	C130.6,17.4,129.1,18.9,127.3,19.2L127.3,19.2z"/>
<path d="M134.6,34.4c0.4-9.1,5.6-12.2,9.3-11.9c6.1,0.4,7.4,6.2,7.3,9c-0.1,2.6-0.6,3-3.2,2.9c-1.9,0-5.2-0.3-8-0.6
	c-0.3,8.9,1.9,12.1,4.9,12.3s5.8-2.2,7.1-4c0.5-0.6,0.6-0.3,0.3,0.3c-1.1,2.1-4.4,6.2-9.2,5.9S134.3,42.5,134.6,34.4z M147.1,30
	c0.1-3.4-1.4-5.5-3-5.7s-3.4,2.2-3.9,7.2c2.1,0.3,4,0.4,5,0.4C146.8,32,147,31.6,147.1,30z"/>
<path d="M160.2,49.2c-0.8-0.2-1.2-1.5-1.4-3.6c-0.8-6.2-2.1-12.3-3.8-18.4c-0.7-2.1-1-2.9-2.6-3.8c-1.4-0.8-1.3-1.5,0.4-1.5
	c1.7,0,3.4,0.3,5,0.8c1.3,0.3,2.3,1.2,2.7,2.4c0.5,1.4,1.9,7.8,2.6,11.6c0.1,0.7,0.6,0.8,0.8,0.1c1.4-3.8,2.6-7.6,3.5-11.5
	c0.4-1.9,1.2-2.5,2-2.8c1.2-0.5,1.7-0.4,2.2,0.9c0.6,1.6,2.6,8.4,3.7,12.6c0.2,0.7,0.6,0.7,0.7,0c0.7-3,2.1-8.4,2.5-10.2
	c0.6-2.7,1-3.1,2.2-3.5c3.3-1.1,4.8-2.3,5.9-5.5c0.3-0.9,0.6-0.8,0.4,0.2c-0.3,2.3-1.6,4.4-3.5,5.7c-1.4,1-2,1.9-2.8,4.2
	c-2.5,8.8-3.3,14.4-3.4,16.4c-0.1,1.9-0.3,2.9-1.3,3.2s-2.2,0.2-2.9-1.7c-0.6-1.7-2.7-10-4.2-13.6c-0.2-0.5-0.6-0.5-0.9,0
	c-1.6,3.9-5.3,13.6-5.9,15.1C161.7,48.1,161,49.4,160.2,49.2L160.2,49.2z"/>
</svg>
